<?xml version="1.0" encoding="UTF-8" standalone="no"?>
<!-- Created with Inkscape (http://www.inkscape.org/) -->
<svg xmlns:rdf="http://www.w3.org/1999/02/22-rdf-syntax-ns#" xmlns="http://www.w3.org/2000/svg" height="32" width="32" version="1.1" xmlns:cc="http://creativecommons.org/ns#" xmlns:xlink="http://www.w3.org/1999/xlink" xmlns:dc="http://purl.org/dc/elements/1.1/">
 <title>Samée - 32 - Folder white</title>
 <metadata>
  <rdf:RDF>
   <cc:Work rdf:about="">
    <dc:format>image/svg+xml</dc:format>
    <dc:type rdf:resource="http://purl.org/dc/dcmitype/StillImage"/>
    <dc:title>Samée - 32 - Folder white</dc:title>
    <dc:date>2011-04-07</dc:date>
    <dc:creator>
     <cc:Agent>
      <dc:title>Harenome Ranaivoarivony Razanajato</dc:title>
     </cc:Agent>
    </dc:creator>
    <cc:license rdf:resource="http://creativecommons.org/licenses/by/3.0/"/>
    <dc:subject>
     <rdf:Bag>
      <rdf:li>folder</rdf:li>
      <rdf:li>gnome-folder</rdf:li>
      <rdf:li>gnome-fs-directory</rdf:li>
      <rdf:li>gkt-directory</rdf:li>
      <rdf:li>inode-directory</rdf:li>
      <rdf:li>stock-folder</rdf:li>
     </rdf:Bag>
    </dc:subject>
   </cc:Work>
   <cc:License rdf:about="http://creativecommons.org/licenses/by/3.0/">
    <cc:permits rdf:resource="http://creativecommons.org/ns#Reproduction"/>
    <cc:permits rdf:resource="http://creativecommons.org/ns#Distribution"/>
    <cc:requires rdf:resource="http://creativecommons.org/ns#Notice"/>
    <cc:requires rdf:resource="http://creativecommons.org/ns#Attribution"/>
    <cc:permits rdf:resource="http://creativecommons.org/ns#DerivativeWorks"/>
   </cc:License>
  </rdf:RDF>
 </metadata>
 <defs>
  <linearGradient id="shadow-gradient">
   <stop stop-color="#000" stop-opacity="0.05490196" offset="0"/>
   <stop stop-color="#000" stop-opacity="0.03529412" offset="0.85"/>
   <stop stop-color="#000" stop-opacity="0" offset="1"/>
  </linearGradient>
  <linearGradient id="radial-light-gradient">
   <stop stop-color="#FFF" stop-opacity="0.29411766" offset="0"/>
   <stop stop-color="#FFF" stop-opacity="0" offset="1"/>
  </linearGradient>
  <linearGradient id="linearGradient3784" y2="477.37" gradientUnits="userSpaceOnUse" x2="349" gradientTransform="matrix(0.06258343,0,0,0.06226053,0.14789952,480.27868)" y1="172.2" x1="349">
   <stop stop-color="#f0f0f0" offset="0"/>
   <stop stop-color="#e6e6e6" offset="0.7"/>
   <stop stop-color="#d2d2d2" offset="1"/>
  </linearGradient>
  <linearGradient id="linearGradient3835" y2="178.94" spreadMethod="reflect" gradientUnits="userSpaceOnUse" x2="477" gradientTransform="matrix(0.06258343,0,0,0.06226053,0.14789952,480.27868)" y1="180.23" x1="253.3">
   <stop stop-color="#FFF" stop-opacity="0.58823532" offset="0"/>
   <stop stop-color="#FFF" stop-opacity="0.58823532" offset="0.9"/>
   <stop stop-color="#FFF" stop-opacity="0" offset="1"/>
  </linearGradient>
  <radialGradient id="radialGradient3850" xlink:href="#radial-light-gradient" gradientUnits="userSpaceOnUse" cy="91" cx="256" gradientTransform="matrix(0.10386227,0,0,0.06629349,-10.419485,484.95478)" r="226"/>
  <radialGradient id="radialGradient3894" xlink:href="#radial-light-gradient" gradientUnits="userSpaceOnUse" cy="67.175" cx="255" gradientTransform="matrix(0.08761786,0,0,0.07653582,-6.2358807,480.24275)" r="205"/>
  <linearGradient id="linearGradient3904" y2="115" gradientUnits="userSpaceOnUse" x2="460" gradientTransform="matrix(0.06258343,0,0,0.06226053,0.14789952,480.27868)" y1="115" x1="50">
   <stop stop-color="#FFF" stop-opacity="0" offset="0"/>
   <stop stop-color="#FFF" stop-opacity="0.49019608" offset="0.05"/>
   <stop stop-color="#FFF" stop-opacity="0.49019608" offset="0.35"/>
   <stop stop-color="#FFF" stop-opacity="0.15686275" offset="0.4"/>
   <stop stop-color="#FFF" stop-opacity="0.09803922" offset="0.53"/>
   <stop stop-color="#FFF" stop-opacity="0.49019608" offset="0.6"/>
   <stop stop-color="#FFF" stop-opacity="0.49019608" offset="0.95"/>
   <stop stop-color="#FFF" stop-opacity="0" offset="1"/>
  </linearGradient>
  <linearGradient id="linearGradient3926" y2="454" xlink:href="#shadow-gradient" spreadMethod="reflect" gradientUnits="userSpaceOnUse" x2="473" gradientTransform="matrix(0.06336407,0,0,0.025,-0.22119823,498.65001)" y1="454" x1="256"/>
  <linearGradient id="linearGradient3932" y2="454" xlink:href="#shadow-gradient" spreadMethod="reflect" gradientUnits="userSpaceOnUse" x2="473" gradientTransform="matrix(0.06451613,0,0,0.05,-0.51612931,487.3)" y1="454" x1="256"/>
  <linearGradient id="linearGradient3936" y2="454" xlink:href="#shadow-gradient" spreadMethod="reflect" gradientUnits="userSpaceOnUse" x2="473" gradientTransform="matrix(0.0656682,0,0,0.075,-0.81105982,475.94999)" y1="454" x1="256"/>
  <linearGradient id="linearGradient3940" y2="454" xlink:href="#shadow-gradient" spreadMethod="reflect" gradientUnits="userSpaceOnUse" x2="473" gradientTransform="matrix(0.06682028,0,0,0.1,-1.1059906,464.59993)" y1="454" x1="256"/>
  <linearGradient id="linearGradient3944" y2="454" xlink:href="#shadow-gradient" spreadMethod="reflect" gradientUnits="userSpaceOnUse" x2="473" gradientTransform="matrix(0.06797232,0,0,0.12499999,-1.4009214,453.24996)" y1="454" x1="256"/>
  <linearGradient id="linearGradient3948" y2="454" xlink:href="#shadow-gradient" spreadMethod="reflect" gradientUnits="userSpaceOnUse" x2="473" gradientTransform="matrix(0.06912443,0,0,0.15,-1.6958527,441.89997)" y1="454" x1="256"/>
  <linearGradient id="linearGradient3899" y2="164.67" gradientUnits="userSpaceOnUse" x2="158" gradientTransform="matrix(0.06258343,0,0,0.06226053,0.14789952,480.27868)" y1="74.996" x1="158">
   <stop stop-color="#f5f5f5" offset="0"/>
   <stop stop-color="#e1e1e1" offset="0.8"/>
   <stop stop-color="#d7d7d7" offset="1"/>
  </linearGradient>
  <linearGradient id="linearGradient3992" y2="477.37" gradientUnits="userSpaceOnUse" x2="109.55" gradientTransform="matrix(0.06258343,0,0,0.06226053,0.14789952,480.27868)" y1="172.2" x1="109.55">
   <stop stop-color="#d2d2d2" offset="0"/>
   <stop stop-color="#c8c8c8" offset="0.7"/>
   <stop stop-color="#b4b4b4" offset="1"/>
  </linearGradient>
  <linearGradient id="linearGradient4058" y2="470.01" gradientUnits="userSpaceOnUse" x2="197.22" gradientTransform="matrix(0.06258343,0,0,0.06226053,0.14789952,480.27868)" y1="168.75" x1="197.22">
   <stop stop-color="#FFF" stop-opacity="0.29411766" offset="0"/>
   <stop stop-color="#FFF" stop-opacity="0.07843138" offset="0.8"/>
   <stop stop-color="#FFF" stop-opacity="0.15686275" offset="1"/>
  </linearGradient>
  <linearGradient id="linearGradient4078" y2="164.67" gradientUnits="userSpaceOnUse" x2="95.413" gradientTransform="matrix(0.06258343,0,0,0.06226053,0.14789952,480.27868)" y1="74.996" x1="95.413">
   <stop stop-color="#e1e1e1" offset="0"/>
   <stop stop-color="#d7d7d7" offset="0.8"/>
   <stop stop-color="#cdcdcd" offset="1"/>
  </linearGradient>
 </defs>
 <g transform="translate(0,-480)">
  <rect fill-rule="evenodd" rx="0.60268" ry="1.5" height="3" width="30" y="508.5" x="1" fill="url(#linearGradient3948)"/>
  <rect fill-rule="evenodd" rx="0.56222" ry="1.25" height="2.5" width="29.5" y="508.75" x="1.25" fill="url(#linearGradient3944)"/>
  <rect fill-rule="evenodd" rx="0.6682" ry="1" height="2" width="29" y="509" x="1.5" fill="url(#linearGradient3940)"/>
  <rect fill-rule="evenodd" rx="0.4836" ry="0.75" height="1.5" width="28.5" y="509.25" x="1.75" fill="url(#linearGradient3936)"/>
  <rect fill-rule="evenodd" rx="0.44545" ry="0.5" height="1" width="28" y="509.5" x="2" fill="url(#linearGradient3932)"/>
  <rect fill-rule="evenodd" rx="0.40811" ry="0.25" height="0.5" width="27.5" y="509.75" x="2.25" fill="url(#linearGradient3926)"/>
  <path d="m3.5,486.5c0-0.56202,0.37248-1,1-1h7.5c1.8775,0,3.6225,3,5.5,3h10c0.62946,0,1,0.43913,1,1v18h-25z" stroke="url(#linearGradient4078)" stroke-miterlimit="4" stroke-dasharray="none" stroke-width="0.99999994" fill="url(#linearGradient3899)"/>
  <path d="M4,486.76c0-0.57,0.419-0.76,1.0465-0.76h6.9535c1.8775,0,3.1225,3,5,3h10c0.62946,0,0.99408,0.43912,0.99408,1l0.01183,17h-24.006z" fill="url(#radialGradient3894)"/>
  <path d="m4.5,487.5c0-0.56202,0.37248-1,1-1h6c1.8775,0,3.6225,3,5.5,3h9.6279c0.62946,0,0.87209,0.43914,0.87209,1v16l-23-0.00004z" stroke-opacity="0.1372549" stroke="#FFF" stroke-dasharray="none" stroke-miterlimit="4" stroke-width="0.99999994" fill="none"/>
  <path stroke-linejoin="miter" d="m4.5,487.5c0-0.59748,0.4221-1,1-1h6c1.8894,0,3.6058,3,5.5,3h9.5c0.58199,0,1,0.39199,1,1" stroke="url(#linearGradient3904)" stroke-linecap="butt" stroke-width="0.99999976px" fill="none"/>
  <path d="m2.5,492.5c0-0.55674,0.37595-1,1-1h25c0.62711,0,1,0.43401,1,1,0,0-0.5,6.1298-0.5,15.5,0,0.44629-0.56456,1.5-1.5,1.5h-23c-0.9329,0-1.5-1.07-1.5-1.5,0-9.29-0.5-15.5-0.5-15.5z" stroke="url(#linearGradient3992)" stroke-miterlimit="4" stroke-dasharray="none" stroke-width="0.99999994" fill="url(#linearGradient3784)"/>
  <path d="M3,493.5c0-0.56,0.376-1.5,1-1.5h24c0.62711,0,1,0.93401,1,1.5,0,0-1,4.6298-1,14,0,0.44629-0.06456,1.5-1,1.5h-22c-0.9329,0-1-1.0669-1-1.5,0-9.2937-1-14-1-14z" fill="url(#radialGradient3850)"/>
  <path d="m3.5,493c0-0.55675,0.37595-1.5,1-1.5h23c0.62711,0,1,0.934,1,1.5,0,0-0.5,4.6298-0.5,14,0,0.44629-0.56456,1.5-1.5,1.5h-21c-0.9329,0-1.5-1.07-1.5-1.5,0-9.29-0.5-14-0.5-14z" stroke="url(#linearGradient4058)" stroke-dasharray="none" stroke-miterlimit="4" stroke-width="0.99999994" fill="none"/>
  <path stroke-linejoin="miter" d="m2.5,493c0-0.59336,0.41139-1.5,1-1.5h25c0.59334,0,1,0.90855,1,1.5" stroke="url(#linearGradient3835)" stroke-linecap="butt" stroke-width="0.99999976px" fill="none"/>
 </g>
</svg>
