<svg version="1.1" viewBox="0 0 32 32" xmlns="http://www.w3.org/2000/svg" xmlns:cc="http://creativecommons.org/ns#" xmlns:dc="http://purl.org/dc/elements/1.1/" xmlns:rdf="http://www.w3.org/1999/02/22-rdf-syntax-ns#" xmlns:svg="http://www.w3.org/2000/svg" xmlns:xlink="http://www.w3.org/1999/xlink">
<defs>
<linearGradient id="eyes-black-gradient">
<stop offset="0" stop-color="#6c6c6c"/>
<stop offset="1"/>
</linearGradient>
<linearGradient gradientUnits="userSpaceOnUse" id="linearGradient4007" x1="19.27677" x2="19.27677" y1="18.85714" y2="24">
<stop offset="0" stop-color="#fff"/>
<stop offset="1" stop-color="#e6e6e6"/>
</linearGradient>
<linearGradient gradientUnits="userSpaceOnUse" id="linearGradient4196" x1="5.99478" x2="5.99478" y1=".16216" y2="34.29088">
<stop offset="0" stop-color="#e9a089"/>
<stop offset="1" stop-color="#ff2205"/>
</linearGradient>
<linearGradient gradientUnits="userSpaceOnUse" id="linearGradient4086" x1="7" x2="7" xlink:href="#eyes-black-gradient" y1="15" y2="5"/>
<linearGradient gradientUnits="userSpaceOnUse" id="linearGradient4097" x1="25" x2="25" xlink:href="#eyes-black-gradient" y1="15" y2="5"/>
<radialGradient cx="18.56155" cy="5.64165" fx="18.56155" fy="5.64165" gradientTransform="matrix(1.812221,0,0,2.426708,-15.076084,-11.977173)" gradientUnits="userSpaceOnUse" id="radialGradient3778" r="12.66119">
<stop offset="0" stop-color="#fff" stop-opacity="0"/>
<stop offset=".75" stop-color="#fff" stop-opacity="0"/>
<stop offset="1" stop-color="#fff" stop-opacity=".49"/>
</radialGradient>
<radialGradient cx="18.56155" cy="5.64165" fx="18.56155" fy="5.64165" gradientTransform="matrix(1.812221,0,0,2.426708,-15.076084,-11.977173)" gradientUnits="userSpaceOnUse" id="radialGradient4204" r="12.66119">
<stop offset="0" stop-color="#ffd8c3"/>
<stop offset="1" stop-color="#ff2205"/>
</radialGradient>
</defs>
<title>Samée - 32 - Emotes - Angry</title>
<metadata>
<rdf:RDF>
<cc:Work rdf:about="">
<dc:format>image/svg+xml</dc:format>
<dc:type rdf:resource="http://purl.org/dc/dcmitype/StillImage"/>
<dc:title>Samée - 32 - Emotes - Angry</dc:title>
<dc:creator>
<cc:Agent>
<dc:title>Harenome Ranaivoarivony Razanajato</dc:title>
</cc:Agent>
</dc:creator>
<dc:identifier>https://github.com/HarnoRanaivo/Samee-icons</dc:identifier>
<cc:license rdf:resource="http://creativecommons.org/licenses/by-nc-sa/3.0/"/>
<dc:date>2012-01-22</dc:date>
</cc:Work>
<cc:License rdf:about="http://creativecommons.org/licenses/by-nc-sa/3.0/">
<cc:permits rdf:resource="http://creativecommons.org/ns#Reproduction"/>
<cc:permits rdf:resource="http://creativecommons.org/ns#Distribution"/>
<cc:requires rdf:resource="http://creativecommons.org/ns#Notice"/>
<cc:requires rdf:resource="http://creativecommons.org/ns#Attribution"/>
<cc:prohibits rdf:resource="http://creativecommons.org/ns#CommercialUse"/>
<cc:permits rdf:resource="http://creativecommons.org/ns#DerivativeWorks"/>
<cc:requires rdf:resource="http://creativecommons.org/ns#ShareAlike"/>
</cc:License>
</rdf:RDF>
</metadata>
<path d="m21.83192,27.13864a6.54074,3.62392 0 1 1 -13.08148,0a6.54074,3.62392 0 1 1 13.08148,0z" fill-opacity=".039" transform="matrix(1.070216,0,0,.206958,-.364865,23.133439)"/>
<path d="m21.83192,27.13864a6.54074,3.62392 0 1 1 -13.08148,0a6.54074,3.62392 0 1 1 13.08148,0z" fill-opacity=".039" transform="matrix(1.223104,0,0,.34493,-2.702703,19.389065)"/>
<path d="m21.83192,27.13864a6.54074,3.62392 0 1 1 -13.08148,0a6.54074,3.62392 0 1 1 13.08148,0z" fill-opacity=".039" transform="matrix(1.375992,0,0,.482902,-5.040541,15.644691)"/>
<path d="m21.83192,27.13864a6.54074,3.62392 0 1 1 -13.08148,0a6.54074,3.62392 0 1 1 13.08148,0z" fill-opacity=".039" transform="matrix(1.528879,0,0,.620874,-7.378379,11.900317)"/>
<path d="m30.55712,17.22652a11.99556,16.28871 0 1 1 -23.99112,0a11.99556,16.28871 0 1 1 23.99112,0z" fill="url(#radialGradient4204)" fill-rule="evenodd" stroke="url(#linearGradient4196)" stroke-width="1.03543" transform="matrix(1.125416,0,0,.828795,-4.889475,.722749)"/>
<path d="m30.55712,17.22652a11.99556,16.28871 0 1 1 -23.99112,0a11.99556,16.28871 0 1 1 23.99112,0z" fill="url(#radialGradient3778)" fill-rule="evenodd" transform="matrix(1.083734,0,0,.798099,-4.115791,1.251536)"/>
<path d="m30.55712,17.22652a11.99556,16.28871 0 1 1 -23.99112,0a11.99556,16.28871 0 1 1 23.99112,0z" fill="none" stroke="#fff" stroke-opacity=".196" stroke-width="1.11826" transform="matrix(1.042052,0,0,.767403,-3.342106,1.780323)"/>
<path d="m9.5,25l13,0c0,0-1.38837,-5-6.5,-5c-5.11163,0-6.5,5-6.5,5z" fill="#fff" fill-opacity=".196"/>
<path d="m9.5,24l13,0c0,0-1.38837,-5-6.5,-5c-5.11163,0-6.5,5-6.5,5z" fill="url(#linearGradient4007)"/>
<path d="m25,12c0,2.13024-1.87022,4-4,4c-2.12977,0-4,-1.86976-4,-4c0,-2.13024 6,-6 6,-6c0,0 2,3.86976 2,6z" fill="#fff" fill-opacity=".392"/>
<path d="m7,12c0,2.13024 1.87022,4 4,4c2.12977,0 4,-1.86976 4,-4C15,9.86976 9,6 9,6C9,6 7,9.86976 7,12z" fill="#fff" fill-opacity=".392"/>
<path d="m7,11c0,2.13024 1.87022,4 4,4c2.12977,0 4,-1.86976 4,-4C15,8.86976 9,5 9,5C9,5 7,8.86976 7,11z" fill="url(#linearGradient4086)"/>
<path d="m16.34375,15.5a3.59375,5 0 1 1 -7.1875,0a3.59375,5 0 1 1 7.1875,0z" fill="#fff" transform="matrix(.417391,0,0,.4,5.678261,5.3)"/>
<path d="m25,11c0,2.13024-1.87022,4-4,4c-2.12977,0-4,-1.86976-4,-4c0,-2.13024 6,-6 6,-6c0,0 2,3.86976 2,6z" fill="url(#linearGradient4097)"/>
<path d="m16.34375,15.5a3.59375,5 0 1 1 -7.1875,0a3.59375,5 0 1 1 7.1875,0z" fill="#fff" transform="matrix(.417391,0,0,.4,15.678261,5.3)"/>
</svg>
