<svg version="1.1" viewBox="0 0 32 32" xmlns="http://www.w3.org/2000/svg" xmlns:cc="http://creativecommons.org/ns#" xmlns:dc="http://purl.org/dc/elements/1.1/" xmlns:rdf="http://www.w3.org/1999/02/22-rdf-syntax-ns#" xmlns:svg="http://www.w3.org/2000/svg" xmlns:xlink="http://www.w3.org/1999/xlink">
<defs>
<linearGradient gradientUnits="userSpaceOnUse" id="linearGradient3774" x1="5.99478" x2="5.99478" y1=".16216" y2="34.29088">
<stop offset="0" stop-color="#e9cd89"/>
<stop offset="1" stop-color="#ff9805"/>
</linearGradient>
<linearGradient gradientUnits="userSpaceOnUse" id="linearGradient4239" x1="18.812" x2="18.812" y1="6" y2="16">
<stop offset="0" stop-color="#232323"/>
<stop offset="1" stop-color="#646464"/>
</linearGradient>
<linearGradient gradientUnits="userSpaceOnUse" id="linearGradient4249" x1="11.89949" x2="11.89949" y1="6" y2="16">
<stop offset="0"/>
<stop offset="1" stop-color="#323232"/>
</linearGradient>
<radialGradient cx="18.56155" cy="5.64165" fx="18.56155" fy="5.64165" gradientTransform="matrix(1.812221,0,0,2.426708,-15.076084,-11.977173)" gradientUnits="userSpaceOnUse" id="radialGradient3766" r="12.66119">
<stop offset="0" stop-color="#fffccd"/>
<stop offset="1" stop-color="#ff9805"/>
</radialGradient>
<radialGradient cx="18.56155" cy="5.64165" fx="18.56155" fy="5.64165" gradientTransform="matrix(1.812221,0,0,2.426708,-15.076084,-11.977173)" gradientUnits="userSpaceOnUse" id="radialGradient3778" r="12.66119">
<stop offset="0" stop-color="#fff" stop-opacity="0"/>
<stop offset=".75" stop-color="#fff" stop-opacity="0"/>
<stop offset="1" stop-color="#fff" stop-opacity=".49"/>
</radialGradient>
</defs>
<title>Samée - 32 - Emotes - Cool</title>
<metadata>
<rdf:RDF>
<cc:Work rdf:about="">
<dc:format>image/svg+xml</dc:format>
<dc:type rdf:resource="http://purl.org/dc/dcmitype/StillImage"/>
<dc:title>Samée - 32 - Emotes - Cool</dc:title>
<dc:creator>
<cc:Agent>
<dc:title>Harenome Ranaivoarivony Razanajato</dc:title>
</cc:Agent>
</dc:creator>
<dc:identifier>https://github.com/HarnoRanaivo/Samee-icons</dc:identifier>
<cc:license rdf:resource="http://creativecommons.org/licenses/by-nc-sa/3.0/"/>
<dc:date>2012-01-22</dc:date>
</cc:Work>
<cc:License rdf:about="http://creativecommons.org/licenses/by-nc-sa/3.0/">
<cc:permits rdf:resource="http://creativecommons.org/ns#Reproduction"/>
<cc:permits rdf:resource="http://creativecommons.org/ns#Distribution"/>
<cc:requires rdf:resource="http://creativecommons.org/ns#Notice"/>
<cc:requires rdf:resource="http://creativecommons.org/ns#Attribution"/>
<cc:prohibits rdf:resource="http://creativecommons.org/ns#CommercialUse"/>
<cc:permits rdf:resource="http://creativecommons.org/ns#DerivativeWorks"/>
<cc:requires rdf:resource="http://creativecommons.org/ns#ShareAlike"/>
</cc:License>
</rdf:RDF>
</metadata>
<path d="m21.83192,27.13864a6.54074,3.62392 0 1 1 -13.08148,0a6.54074,3.62392 0 1 1 13.08148,0z" fill-opacity=".039" transform="matrix(1.070216,0,0,.206958,-.364865,23.133439)"/>
<path d="m21.83192,27.13864a6.54074,3.62392 0 1 1 -13.08148,0a6.54074,3.62392 0 1 1 13.08148,0z" fill-opacity=".039" transform="matrix(1.223104,0,0,.34493,-2.702703,19.389065)"/>
<path d="m21.83192,27.13864a6.54074,3.62392 0 1 1 -13.08148,0a6.54074,3.62392 0 1 1 13.08148,0z" fill-opacity=".039" transform="matrix(1.375992,0,0,.482902,-5.040541,15.644691)"/>
<path d="m21.83192,27.13864a6.54074,3.62392 0 1 1 -13.08148,0a6.54074,3.62392 0 1 1 13.08148,0z" fill-opacity=".039" transform="matrix(1.528879,0,0,.620874,-7.378379,11.900317)"/>
<path d="m30.55712,17.22652a11.99556,16.28871 0 1 1 -23.99112,0a11.99556,16.28871 0 1 1 23.99112,0z" fill="url(#radialGradient3766)" fill-rule="evenodd" stroke="url(#linearGradient3774)" stroke-width="1.03543" transform="matrix(1.125416,0,0,.828795,-4.889475,.722749)"/>
<path d="m30.55712,17.22652a11.99556,16.28871 0 1 1 -23.99112,0a11.99556,16.28871 0 1 1 23.99112,0z" fill="url(#radialGradient3778)" fill-rule="evenodd" transform="matrix(1.083734,0,0,.798099,-4.115791,1.251536)"/>
<path d="m30.55712,17.22652a11.99556,16.28871 0 1 1 -23.99112,0a11.99556,16.28871 0 1 1 23.99112,0z" fill="none" stroke="#fff" stroke-opacity=".196" stroke-width="1.11826" transform="matrix(1.042052,0,0,.767403,-3.342106,1.780323)"/>
<path d="m7.5,18.5c0,0 3.40541,4 8.5,4c5.09459,0 8.5,-4 8.5,-4" fill="none" stroke="#000" stroke-opacity=".137"/>
<path d="m7.5,19.5c0,0 3.40541,4 8.5,4c5.09459,0 8.5,-4 8.5,-4" fill="none" stroke="#fff" stroke-opacity=".196"/>
<path d="m2.5,6.5l27,0c0,4.08121-.84028,9-5.5,9c-3.07318,0-4.48054,-6-7,-6l-2,0c-2.47645,0-3.92682,6-7,6c-4.29803,0-5.5,-4.93414-5.5,-9z" fill="url(#linearGradient4239)" stroke="url(#linearGradient4249)"/>
<path d="m2.5,6.5l27,0c0,4.08121-.84028,8-5.5,8c-3.07318,0-4.48054,-6-7,-6l-2,0c-2.47645,0-3.92682,6-7,6c-4.29803,0-5.5,-3.93414-5.5,-8z" fill="none" stroke="#fff" stroke-opacity=".137"/>
<path d="m2,6.5l28,0" fill="none" stroke="#fff" stroke-opacity=".294"/>
</svg>
