<svg version="1.1" viewBox="0 0 32 32" xmlns="http://www.w3.org/2000/svg" xmlns:cc="http://creativecommons.org/ns#" xmlns:dc="http://purl.org/dc/elements/1.1/" xmlns:rdf="http://www.w3.org/1999/02/22-rdf-syntax-ns#" xmlns:svg="http://www.w3.org/2000/svg" xmlns:xlink="http://www.w3.org/1999/xlink">
<defs>
<linearGradient gradientUnits="userSpaceOnUse" id="linearGradient3774" x1="5.99478" x2="5.99478" y1=".16216" y2="34.29088">
<stop offset="0" stop-color="#e9cd89"/>
<stop offset="1" stop-color="#ff9805"/>
</linearGradient>
<linearGradient gradientUnits="userSpaceOnUse" id="linearGradient3871" x1="16.26346" x2="16.26346" y1="15.38299" y2="10.43324">
<stop offset="0" stop-color="#6c6c6c"/>
<stop offset="1"/>
</linearGradient>
<radialGradient cx="18.56155" cy="5.64165" fx="18.56155" fy="5.64165" gradientTransform="matrix(1.812221,0,0,2.426708,-15.076084,-11.977173)" gradientUnits="userSpaceOnUse" id="radialGradient3766" r="12.66119">
<stop offset="0" stop-color="#fffccd"/>
<stop offset="1" stop-color="#ff9805"/>
</radialGradient>
<radialGradient cx="18.56155" cy="5.64165" fx="18.56155" fy="5.64165" gradientTransform="matrix(1.812221,0,0,2.426708,-15.076084,-11.977173)" gradientUnits="userSpaceOnUse" id="radialGradient3778" r="12.66119">
<stop offset="0" stop-color="#fff" stop-opacity="0"/>
<stop offset=".75" stop-color="#fff" stop-opacity="0"/>
<stop offset="1" stop-color="#fff" stop-opacity=".49"/>
</radialGradient>
<radialGradient cx="15.02602" cy="12.73134" fx="15.02602" fy="12.73134" gradientTransform="matrix(1,0,0,1.137931,0,-1.756048)" gradientUnits="userSpaceOnUse" id="radialGradient4351" r="5.12652">
<stop offset="0" stop-color="#73ff5f" stop-opacity=".49"/>
<stop offset="1" stop-color="#00a9dd" stop-opacity="0"/>
</radialGradient>
</defs>
<title>Samée - 32 - Emotes - Sick</title>
<metadata>
<rdf:RDF>
<cc:Work rdf:about="">
<dc:format>image/svg+xml</dc:format>
<dc:type rdf:resource="http://purl.org/dc/dcmitype/StillImage"/>
<dc:title>Samée - 32 - Emotes - Sick</dc:title>
<dc:creator>
<cc:Agent>
<dc:title>Harenome Ranaivoarivony Razanajato</dc:title>
</cc:Agent>
</dc:creator>
<dc:identifier>https://github.com/HarnoRanaivo/Samee-icons</dc:identifier>
<cc:license rdf:resource="http://creativecommons.org/licenses/by-nc-sa/3.0/"/>
<dc:date>2012-01-22</dc:date>
</cc:Work>
<cc:License rdf:about="http://creativecommons.org/licenses/by-nc-sa/3.0/">
<cc:permits rdf:resource="http://creativecommons.org/ns#Reproduction"/>
<cc:permits rdf:resource="http://creativecommons.org/ns#Distribution"/>
<cc:requires rdf:resource="http://creativecommons.org/ns#Notice"/>
<cc:requires rdf:resource="http://creativecommons.org/ns#Attribution"/>
<cc:prohibits rdf:resource="http://creativecommons.org/ns#CommercialUse"/>
<cc:permits rdf:resource="http://creativecommons.org/ns#DerivativeWorks"/>
<cc:requires rdf:resource="http://creativecommons.org/ns#ShareAlike"/>
</cc:License>
</rdf:RDF>
</metadata>
<path d="m21.83192,27.13864a6.54074,3.62392 0 1 1 -13.08148,0a6.54074,3.62392 0 1 1 13.08148,0z" fill-opacity=".039" transform="matrix(1.070216,0,0,.206958,-.364865,23.133439)"/>
<path d="m21.83192,27.13864a6.54074,3.62392 0 1 1 -13.08148,0a6.54074,3.62392 0 1 1 13.08148,0z" fill-opacity=".039" transform="matrix(1.223104,0,0,.34493,-2.702703,19.389065)"/>
<path d="m21.83192,27.13864a6.54074,3.62392 0 1 1 -13.08148,0a6.54074,3.62392 0 1 1 13.08148,0z" fill-opacity=".039" transform="matrix(1.375992,0,0,.482902,-5.040541,15.644691)"/>
<path d="m21.83192,27.13864a6.54074,3.62392 0 1 1 -13.08148,0a6.54074,3.62392 0 1 1 13.08148,0z" fill-opacity=".039" transform="matrix(1.528879,0,0,.620874,-7.378379,11.900317)"/>
<path d="m30.55712,17.22652a11.99556,16.28871 0 1 1 -23.99112,0a11.99556,16.28871 0 1 1 23.99112,0z" fill="url(#radialGradient3766)" fill-rule="evenodd" stroke="url(#linearGradient3774)" stroke-width="1.03543" transform="matrix(1.125416,0,0,.828795,-4.889475,.722749)"/>
<path d="m30.55712,17.22652a11.99556,16.28871 0 1 1 -23.99112,0a11.99556,16.28871 0 1 1 23.99112,0z" fill="url(#radialGradient3778)" fill-rule="evenodd" transform="matrix(1.083734,0,0,.798099,-4.115791,1.251536)"/>
<path d="m30.55712,17.22652a11.99556,16.28871 0 1 1 -23.99112,0a11.99556,16.28871 0 1 1 23.99112,0z" fill="none" stroke="#fff" stroke-opacity=".196" stroke-width="1.11826" transform="matrix(1.042052,0,0,.767403,-3.342106,1.780323)"/>
<path d="m20.15254,12.73134a5.12652,5.83363 0 1 1 -10.25305,0a5.12652,5.83363 0 1 1 10.25305,0z" fill="url(#radialGradient4351)" transform="matrix(2.145703,0,0,1.885618,-16.24138,-11.006442)"/>
<path d="m8.5,22.5c0,0 1.99772,-2.09353 3.5,-2c1.50228,.09353 2.33333,3 4,3c1.66667,0 2.49772,-2.90647 4,-3c1.50228,-.09353 3.5,2 3.5,2" fill="none" stroke="#000" stroke-opacity=".137"/>
<path d="m8.5,23.5c0,0 1.99772,-2.09353 3.5,-2c1.50228,.09353 2.33333,3 4,3c1.66667,0 2.49772,-2.90647 4,-3c1.50228,-.09353 3.5,2 3.5,2" fill="none" stroke="#fff" stroke-opacity=".196"/>
<path d="m16.26346,12.90812a2.65165,2.47487 0 1 1 -5.3033,0a2.65165,2.47487 0 1 1 5.3033,0z" fill="#fff" fill-opacity=".392" transform="matrix(.942809,0,0,1.010153,8.666666,.460833)"/>
<path d="m16.26346,12.90812a2.65165,2.47487 0 1 1 -5.3033,0a2.65165,2.47487 0 1 1 5.3033,0z" fill="#fff" fill-opacity=".392" transform="matrix(.942809,0,0,1.010153,-2.333334,.460833)"/>
<path d="m16.26346,12.90812a2.65165,2.47487 0 1 1 -5.3033,0a2.65165,2.47487 0 1 1 5.3033,0z" fill="url(#linearGradient3871)" transform="matrix(.942809,0,0,1.010153,-2.333334,-.539168)"/>
<path d="m16.26346,12.90812a2.65165,2.47487 0 1 1 -5.3033,0a2.65165,2.47487 0 1 1 5.3033,0z" fill="url(#linearGradient3871)" transform="matrix(.942809,0,0,1.010153,8.666666,-.539168)"/>
</svg>
