<svg version="1.1" viewBox="0 0 32 32" xmlns="http://www.w3.org/2000/svg" xmlns:cc="http://creativecommons.org/ns#" xmlns:dc="http://purl.org/dc/elements/1.1/" xmlns:rdf="http://www.w3.org/1999/02/22-rdf-syntax-ns#" xmlns:svg="http://www.w3.org/2000/svg" xmlns:xlink="http://www.w3.org/1999/xlink">
<defs>
<linearGradient id="eyes-black-gradient">
<stop offset="0" stop-color="#6c6c6c"/>
<stop offset="1"/>
</linearGradient>
<linearGradient gradientUnits="userSpaceOnUse" id="linearGradient3774" x1="5.99478" x2="5.99478" y1=".16216" y2="34.29088">
<stop offset="0" stop-color="#e9cd89"/>
<stop offset="1" stop-color="#ff9805"/>
</linearGradient>
<linearGradient gradientUnits="userSpaceOnUse" id="linearGradient4068" x1="16.25" x2="16.25" y1="20" y2="24.25">
<stop offset="0"/>
<stop offset="1" stop-color="#646464"/>
</linearGradient>
<linearGradient gradientUnits="userSpaceOnUse" id="linearGradient4107" x1="9.58579" x2="9.58579" xlink:href="#eyes-black-gradient" y1="11.5" y2="9"/>
<linearGradient gradientUnits="userSpaceOnUse" id="linearGradient4112" x1="19.58579" x2="19.58579" xlink:href="#eyes-black-gradient" y1="11.5" y2="9"/>
<radialGradient cx="18.56155" cy="5.64165" fx="18.56155" fy="5.64165" gradientTransform="matrix(1.812221,0,0,2.426708,-15.076084,-11.977173)" gradientUnits="userSpaceOnUse" id="radialGradient3766" r="12.66119">
<stop offset="0" stop-color="#fffccd"/>
<stop offset="1" stop-color="#ff9805"/>
</radialGradient>
<radialGradient cx="18.56155" cy="5.64165" fx="18.56155" fy="5.64165" gradientTransform="matrix(1.812221,0,0,2.426708,-15.076084,-11.977173)" gradientUnits="userSpaceOnUse" id="radialGradient3778" r="12.66119">
<stop offset="0" stop-color="#fff" stop-opacity="0"/>
<stop offset=".75" stop-color="#fff" stop-opacity="0"/>
<stop offset="1" stop-color="#fff" stop-opacity=".49"/>
</radialGradient>
</defs>
<title>Samée - 32 - Emotes - Sleeping</title>
<metadata>
<rdf:RDF>
<cc:Work rdf:about="">
<dc:format>image/svg+xml</dc:format>
<dc:type rdf:resource="http://purl.org/dc/dcmitype/StillImage"/>
<dc:title>Samée - 32 - Emotes - Sleeping</dc:title>
<dc:creator>
<cc:Agent>
<dc:title>Harenome Ranaivoarivony Razanajato</dc:title>
</cc:Agent>
</dc:creator>
<dc:identifier>https://github.com/HarnoRanaivo/Samee-icons</dc:identifier>
<cc:license rdf:resource="http://creativecommons.org/licenses/by-nc-sa/3.0/"/>
<dc:date>2012-01-22</dc:date>
</cc:Work>
<cc:License rdf:about="http://creativecommons.org/licenses/by-nc-sa/3.0/">
<cc:permits rdf:resource="http://creativecommons.org/ns#Reproduction"/>
<cc:permits rdf:resource="http://creativecommons.org/ns#Distribution"/>
<cc:requires rdf:resource="http://creativecommons.org/ns#Notice"/>
<cc:requires rdf:resource="http://creativecommons.org/ns#Attribution"/>
<cc:prohibits rdf:resource="http://creativecommons.org/ns#CommercialUse"/>
<cc:permits rdf:resource="http://creativecommons.org/ns#DerivativeWorks"/>
<cc:requires rdf:resource="http://creativecommons.org/ns#ShareAlike"/>
</cc:License>
</rdf:RDF>
</metadata>
<path d="m21.83192,27.13864a6.54074,3.62392 0 1 1 -13.08148,0a6.54074,3.62392 0 1 1 13.08148,0z" fill-opacity=".039" transform="matrix(1.070216,0,0,.206958,-.364865,23.133439)"/>
<path d="m21.83192,27.13864a6.54074,3.62392 0 1 1 -13.08148,0a6.54074,3.62392 0 1 1 13.08148,0z" fill-opacity=".039" transform="matrix(1.223104,0,0,.34493,-2.702703,19.389065)"/>
<path d="m21.83192,27.13864a6.54074,3.62392 0 1 1 -13.08148,0a6.54074,3.62392 0 1 1 13.08148,0z" fill-opacity=".039" transform="matrix(1.375992,0,0,.482902,-5.040541,15.644691)"/>
<path d="m21.83192,27.13864a6.54074,3.62392 0 1 1 -13.08148,0a6.54074,3.62392 0 1 1 13.08148,0z" fill-opacity=".039" transform="matrix(1.528879,0,0,.620874,-7.378379,11.900317)"/>
<path d="m30.55712,17.22652a11.99556,16.28871 0 1 1 -23.99112,0a11.99556,16.28871 0 1 1 23.99112,0z" fill="url(#radialGradient3766)" fill-rule="evenodd" stroke="url(#linearGradient3774)" stroke-width="1.03543" transform="matrix(1.125416,0,0,.828795,-4.889475,.722749)"/>
<path d="m30.55712,17.22652a11.99556,16.28871 0 1 1 -23.99112,0a11.99556,16.28871 0 1 1 23.99112,0z" fill="url(#radialGradient3778)" fill-rule="evenodd" transform="matrix(1.083734,0,0,.798099,-4.115791,1.251536)"/>
<path d="m30.55712,17.22652a11.99556,16.28871 0 1 1 -23.99112,0a11.99556,16.28871 0 1 1 23.99112,0z" fill="none" stroke="#fff" stroke-opacity=".196" stroke-width="1.11826" transform="matrix(1.042052,0,0,.767403,-3.342106,1.780323)"/>
<path d="m16.25,22.125a2.125,2.125 0 1 1 -4.25,0a2.125,2.125 0 1 1 4.25,0z" fill="#fff" fill-opacity=".196" fill-rule="evenodd" transform="matrix(2.352941,0,0,.705882,-17.235294,7.882353)"/>
<path d="m16.25,22.125a2.125,2.125 0 1 1 -4.25,0a2.125,2.125 0 1 1 4.25,0z" fill="url(#linearGradient4068)" fill-rule="evenodd" transform="matrix(2.352941,0,0,.705882,-17.235294,6.882353)"/>
<path d="m8,11.5c0,0 .85095,-1.5 3,-1.5c2.14905,0 3,1.5 3,1.5l0,1c0,0-.89515,-1.5-3,-1.5c-2.10485,0-3,1.5-3,1.5z" fill="#fff" fill-opacity=".392"/>
<path d="m18,11.5c0,0 .85095,-1.5 3,-1.5c2.14905,0 3,1.5 3,1.5l0,1c0,0-.89515,-1.5-3,-1.5c-2.10485,0-3,1.5-3,1.5z" fill="#fff" fill-opacity=".392"/>
<path d="M8,10.5C8,10.5 8.85095,9 11,9c2.14905,0 3,1.5 3,1.5l0,1c0,0-.89515,-1.5-3,-1.5c-2.10485,0-3,1.5-3,1.5z" fill="url(#linearGradient4107)"/>
<path d="m18,10.5c0,0 .85095,-1.5 3,-1.5c2.14905,0 3,1.5 3,1.5l0,1c0,0-.89515,-1.5-3,-1.5c-2.10485,0-3,1.5-3,1.5z" fill="url(#linearGradient4112)"/>
</svg>
