<?xml version="1.0" encoding="UTF-8" standalone="no"?>
<!-- Created with Inkscape (http://www.inkscape.org/) -->
<svg xmlns:rdf="http://www.w3.org/1999/02/22-rdf-syntax-ns#" xmlns="http://www.w3.org/2000/svg" height="512" width="512" version="1.1" xmlns:cc="http://creativecommons.org/ns#" xmlns:xlink="http://www.w3.org/1999/xlink" xmlns:dc="http://purl.org/dc/elements/1.1/">
 <title>Samée - 512px - HDD</title>
 <metadata>
  <rdf:RDF>
   <cc:Work rdf:about="">
    <dc:format>image/svg+xml</dc:format>
    <dc:type rdf:resource="http://purl.org/dc/dcmitype/StillImage"/>
    <dc:title>Samée - 512px - HDD</dc:title>
    <dc:date>2011-03-18</dc:date>
    <dc:creator>
     <cc:Agent>
      <dc:title>Harenome Ranaivoarivony Razanajato</dc:title>
     </cc:Agent>
    </dc:creator>
    <dc:description/>
    <cc:license rdf:resource="http://creativecommons.org/licenses/by/3.0/"/>
    <dc:subject>
     <rdf:Bag>
      <rdf:li>hard</rdf:li>
      <rdf:li>disk</rdf:li>
      <rdf:li>drive</rdf:li>
      <rdf:li>drive-hardddisk</rdf:li>
      <rdf:li>harddrive</rdf:li>
     </rdf:Bag>
    </dc:subject>
   </cc:Work>
   <cc:License rdf:about="http://creativecommons.org/licenses/by/3.0/">
    <cc:permits rdf:resource="http://creativecommons.org/ns#Reproduction"/>
    <cc:permits rdf:resource="http://creativecommons.org/ns#Distribution"/>
    <cc:requires rdf:resource="http://creativecommons.org/ns#Notice"/>
    <cc:requires rdf:resource="http://creativecommons.org/ns#Attribution"/>
    <cc:permits rdf:resource="http://creativecommons.org/ns#DerivativeWorks"/>
   </cc:License>
  </rdf:RDF>
 </metadata>
 <defs>
  <linearGradient id="top-side-lights-gradient">
   <stop stop-color="#000" stop-opacity="0.03921569" offset="0"/>
   <stop stop-color="#FFF" stop-opacity="0.17647059" offset="0.4"/>
   <stop stop-color="#FFF" stop-opacity="0.56862748" offset="0.55"/>
   <stop stop-color="#FFF" stop-opacity="0" offset="1"/>
  </linearGradient>
  <linearGradient id="top-inlay-back-gradient">
   <stop stop-color="#dcdcdc" offset="0"/>
   <stop stop-color="#b4b4b4" offset="1"/>
  </linearGradient>
  <linearGradient id="top-inlay-gradient">
   <stop stop-color="#EEE" offset="0"/>
   <stop stop-color="#c5c5c5" offset="1"/>
  </linearGradient>
  <linearGradient id="screw-hole-gradient">
   <stop stop-color="#828282" offset="0"/>
   <stop stop-color="#c3c3c3" offset="1"/>
  </linearGradient>
  <linearGradient id="screw-gradient">
   <stop stop-color="#ebebeb" offset="0"/>
   <stop stop-color="#c3c3c3" offset="1"/>
  </linearGradient>
  <linearGradient id="screw-back-gradient">
   <stop stop-color="#e1e1e1" offset="0"/>
   <stop stop-color="#b9b9b9" offset="1"/>
  </linearGradient>
  <linearGradient id="bottom-holes-sides-shadow-gradient">
   <stop stop-color="#000" stop-opacity="0.39215687" offset="0"/>
   <stop stop-color="#000" stop-opacity="0" offset="1"/>
  </linearGradient>
  <linearGradient id="floor-shadow-gradient">
   <stop stop-color="#000" stop-opacity="0.09803922" offset="0"/>
   <stop stop-color="#000" stop-opacity="0.07843138" offset="0.93"/>
   <stop stop-color="#000" stop-opacity="0" offset="1"/>
  </linearGradient>
  <linearGradient id="bottom-side-lights-gradient">
   <stop stop-color="#000" stop-opacity="0.09803922" offset="0"/>
   <stop stop-color="#555" stop-opacity="0.39215687" offset="0.1"/>
   <stop stop-color="#7d7d7d" stop-opacity="0.29411766" offset="0.16"/>
   <stop stop-color="#646464" stop-opacity="0.13725491" offset="0.3"/>
   <stop stop-color="#000" stop-opacity="0" offset="1"/>
  </linearGradient>
  <filter id="3px-blur-filter" color-interpolation-filters="sRGB">
   <feGaussianBlur stdDeviation="1.3999999999999999" in="SourceGraphic"/>
  </filter>
  <linearGradient id="linearGradient3622" y2="120" gradientUnits="userSpaceOnUse" x2="64" gradientTransform="matrix(4,0,0,4,0,-2.00008)" y1="113.25" x1="64">
   <stop stop-color="#4b4b4b" offset="0"/>
   <stop stop-color="#232323" offset="0.85"/>
   <stop stop-color="#2d2d2d" offset="1"/>
  </linearGradient>
  <linearGradient id="linearGradient3632" y2="113.25" gradientUnits="userSpaceOnUse" x2="83" gradientTransform="matrix(4,0,0,4,0,-2.00016)" y1="11.75" x1="83">
   <stop stop-color="#b9b9b9" offset="0"/>
   <stop stop-color="#c3c3c3" offset="0.3"/>
   <stop stop-color="#cdcdcd" offset="1"/>
  </linearGradient>
  <linearGradient id="linearGradient3656" y2="112.81" xlink:href="#bottom-side-lights-gradient" gradientUnits="userSpaceOnUse" x2="20.099" gradientTransform="matrix(4,0,0,4,0,-2.00008)" y1="115.53" x1="9.9519"/>
  <linearGradient id="linearGradient3686" y2="113.02" xlink:href="#bottom-side-lights-gradient" gradientUnits="userSpaceOnUse" x2="108.18" gradientTransform="matrix(4,0,0,4,0,-2.00008)" y1="115.65" x1="118.01"/>
  <linearGradient id="linearGradient3982" y2="88.5" xlink:href="#floor-shadow-gradient" spreadMethod="reflect" gradientUnits="userSpaceOnUse" x2="474" gradientTransform="matrix(1,0,0,1.3333333,0,352)" y1="88.5" x1="256"/>
  <linearGradient id="linearGradient3988" y2="88.5" xlink:href="#floor-shadow-gradient" spreadMethod="reflect" gradientUnits="userSpaceOnUse" x2="474" gradientTransform="matrix(1.0045872,0,0,1.4,-1.1743119,346.6)" y1="88.5" x1="256"/>
  <linearGradient id="linearGradient3992" y2="88.5" xlink:href="#floor-shadow-gradient" spreadMethod="reflect" gradientUnits="userSpaceOnUse" x2="474" gradientTransform="matrix(1.0091744,0,0,1.4666668,-2.3486238,341.2)" y1="88.5" x1="256"/>
  <linearGradient id="linearGradient3996" y2="88.5" xlink:href="#floor-shadow-gradient" spreadMethod="reflect" gradientUnits="userSpaceOnUse" x2="474" gradientTransform="matrix(1.0137616,0,0,1.5333335,-3.5229357,335.8)" y1="88.5" x1="256"/>
  <linearGradient id="linearGradient4000" y2="88.5" xlink:href="#floor-shadow-gradient" spreadMethod="reflect" gradientUnits="userSpaceOnUse" x2="474" gradientTransform="matrix(1.0183488,0,0,1.6000002,-4.6972476,330.4)" y1="88.5" x1="256"/>
  <linearGradient id="linearGradient4004" y2="88.5" xlink:href="#floor-shadow-gradient" spreadMethod="reflect" gradientUnits="userSpaceOnUse" x2="474" gradientTransform="matrix(1.022936,0,0,1.6666668,-5.8715595,325)" y1="88.5" x1="256"/>
  <linearGradient id="linearGradient3871" y2="112.25" gradientUnits="userSpaceOnUse" x2="83" gradientTransform="matrix(4,0,0,4,0,-2.00016)" y1="12" x1="83">
   <stop stop-color="#c3c3c3" offset="0"/>
   <stop stop-color="#cdcdcd" offset="0.3"/>
   <stop stop-color="#e6e6e6" offset="1"/>
  </linearGradient>
  <linearGradient id="linearGradient3881" y2="446.5" gradientUnits="userSpaceOnUse" x2="145" y1="46.5" x1="145">
   <stop stop-color="#FFF" stop-opacity="0.05882353" offset="0"/>
   <stop stop-color="#FFF" stop-opacity="0.19607843" offset="1"/>
  </linearGradient>
  <linearGradient id="linearGradient3897" y2="443.25" gradientUnits="userSpaceOnUse" x2="479" y1="443.25" x1="253.88">
   <stop stop-color="#FFF" stop-opacity="0.29411766" offset="0"/>
   <stop stop-color="#FFF" stop-opacity="0.19607843" offset="0.9"/>
   <stop stop-color="#FFF" stop-opacity="0.17647059" offset="1"/>
  </linearGradient>
  <linearGradient id="linearGradient3935" y2="478" gradientUnits="userSpaceOnUse" x2="59.404" y1="458.5" x1="59.404">
   <stop stop-color="#2d2d2d" offset="0"/>
   <stop stop-color="#3c3c3c" offset="1"/>
  </linearGradient>
  <radialGradient id="radialGradient3938" gradientUnits="userSpaceOnUse" cy="456.5" cx="68.25" gradientTransform="matrix(2.626409,0,0,2.1793562,-111.00241,-536.3761)" r="11.75">
   <stop stop-color="#b6f78f" offset="0"/>
   <stop stop-color="#187e18" offset="1"/>
  </radialGradient>
  <radialGradient id="radialGradient3944" gradientUnits="userSpaceOnUse" cy="480" cx="68.25" gradientTransform="matrix(1.8646555,0,0,1.5472641,-59.012736,-264.68682)" r="11.75">
   <stop stop-color="#b6f78f" stop-opacity="0.29411766" offset="0"/>
   <stop stop-color="#187e18" stop-opacity="0.09803922" offset="1"/>
  </radialGradient>
  <linearGradient id="linearGradient3159" y2="436.54" xlink:href="#top-inlay-gradient" gradientUnits="userSpaceOnUse" x2="53.143" y1="424.82" x1="53.143"/>
  <radialGradient id="radialGradient3161" xlink:href="#screw-gradient" gradientUnits="userSpaceOnUse" cy="434.65" cx="50.353" gradientTransform="matrix(1.9977837,0,0,2.6770303,-50.212597,-727.04482)" r="4.4194"/>
  <linearGradient id="linearGradient3163" y2="424.92" xlink:href="#screw-hole-gradient" gradientUnits="userSpaceOnUse" x2="65.634" y1="410.23" x1="57.154"/>
  <linearGradient id="linearGradient3169" y2="433.58" xlink:href="#screw-hole-gradient" gradientUnits="userSpaceOnUse" x2="63.951" y1="412.05" x1="63.951"/>
  <linearGradient id="linearGradient4006" y2="436.54" xlink:href="#top-inlay-back-gradient" gradientUnits="userSpaceOnUse" x2="53.143" y1="424.82" x1="53.143"/>
  <radialGradient id="radialGradient4008" xlink:href="#screw-back-gradient" gradientUnits="userSpaceOnUse" cy="434.65" cx="50.353" gradientTransform="matrix(1.9977837,0,0,2.6770303,-50.212597,-727.04482)" r="4.4194"/>
  <linearGradient id="linearGradient4010" y2="421.93" xlink:href="#screw-hole-gradient" gradientUnits="userSpaceOnUse" x2="63.88" y1="412.05" x1="54"/>
  <linearGradient id="linearGradient4012" y2="424.93" xlink:href="#screw-hole-gradient" gradientUnits="userSpaceOnUse" x2="66.222" y1="410.1" x1="57.657"/>
  <linearGradient id="linearGradient3984" y2="451" xlink:href="#top-side-lights-gradient" gradientUnits="userSpaceOnUse" x2="57" y1="427" x1="33"/>
  <linearGradient id="linearGradient3997" y2="450.5" xlink:href="#top-side-lights-gradient" gradientUnits="userSpaceOnUse" x2="453.75" y1="425.25" x1="479"/>
  <linearGradient id="linearGradient4085" y2="389" spreadMethod="reflect" gradientUnits="userSpaceOnUse" x2="356" y1="389" x1="260.5">
   <stop stop-color="#fafafa" offset="0"/>
   <stop stop-color="#e1e1e1" offset="0.7"/>
   <stop stop-color="#afafaf" offset="1"/>
  </linearGradient>
  <linearGradient id="linearGradient4101" y2="264" gradientUnits="userSpaceOnUse" x2="385" y1="82" x1="385">
   <stop stop-color="#afafaf" offset="0"/>
   <stop stop-color="#b9b9b9" offset="0.92"/>
   <stop stop-color="#969696" offset="1"/>
  </linearGradient>
  <linearGradient id="linearGradient4117" y2="140" gradientUnits="userSpaceOnUse" x2="223.5" y1="82" x1="223.5">
   <stop stop-color="#a5a5a5" offset="0"/>
   <stop stop-color="#bebebe" offset="1"/>
  </linearGradient>
  <linearGradient id="linearGradient4134" y2="392" gradientUnits="userSpaceOnUse" x2="198" y1="82.5" x1="198">
   <stop stop-color="#FFF" stop-opacity="0.07843138" offset="0"/>
   <stop stop-color="#FFF" stop-opacity="0.19607843" offset="1"/>
  </linearGradient>
  <radialGradient id="radialGradient4081" gradientUnits="userSpaceOnUse" cy="351" cx="231" gradientTransform="matrix(1.8888888,0,0,1.5185184,-205.3333,-191.99997)" r="51">
   <stop stop-color="#f0f0f0" offset="0"/>
   <stop stop-color="#d2d2d2" offset="1"/>
  </radialGradient>
  <radialGradient id="radialGradient4083" gradientUnits="userSpaceOnUse" cy="397" cx="256" gradientTransform="matrix(2.0646296,0,0,2.0001099,-272.54517,-402.04363)" r="160">
   <stop stop-color="#f0f0f0" offset="0"/>
   <stop stop-color="#c5c5c5" offset="1"/>
  </radialGradient>
  <linearGradient id="linearGradient4093" y2="341" spreadMethod="reflect" gradientUnits="userSpaceOnUse" x2="282" y1="341" x1="231">
   <stop stop-color="#fafafa" offset="0"/>
   <stop stop-color="#e1e1e1" offset="0.7"/>
   <stop stop-color="#afafaf" offset="1"/>
  </linearGradient>
  <linearGradient id="linearGradient4108" y2="341.41" gradientUnits="userSpaceOnUse" x2="282.28" y1="258.59" x1="282.28">
   <stop stop-color="#FFF" stop-opacity="0.07843138" offset="0"/>
   <stop stop-color="#FFF" stop-opacity="0.19607843" offset="1"/>
  </linearGradient>
  <linearGradient id="linearGradient4159" y2="137" gradientUnits="userSpaceOnUse" x2="315" y1="137" x1="335">
   <stop stop-color="#000" stop-opacity="0.15686275" offset="0"/>
   <stop stop-color="#000" stop-opacity="0" offset="1"/>
  </linearGradient>
  <linearGradient id="linearGradient4169" y2="142" gradientUnits="userSpaceOnUse" x2="132.45" y1="121.55" x1="112">
   <stop stop-color="#000" stop-opacity="0" offset="0"/>
   <stop stop-color="#FFF" stop-opacity="0" offset="0.2"/>
   <stop stop-color="#FFF" stop-opacity="0.29411766" offset="0.5"/>
   <stop stop-color="#FFF" stop-opacity="0" offset="0.7"/>
   <stop stop-color="#000" stop-opacity="0" offset="1"/>
  </linearGradient>
  <linearGradient id="linearGradient4243" y2="478" gradientUnits="userSpaceOnUse" x2="377.01" y1="463" x1="377.01">
   <stop stop-color="#141414" offset="0"/>
   <stop stop-color="#414141" offset="1"/>
  </linearGradient>
  <linearGradient id="linearGradient4251" y2="470.5" xlink:href="#bottom-holes-sides-shadow-gradient" gradientUnits="userSpaceOnUse" x2="410" y1="470.5" x1="415"/>
  <linearGradient id="linearGradient4794" y2="470.5" xlink:href="#bottom-holes-sides-shadow-gradient" gradientUnits="userSpaceOnUse" x2="185" y1="470.5" x1="180"/>
  <linearGradient id="linearGradient4848" y2="471" gradientUnits="userSpaceOnUse" x2="195" y1="463" x1="195">
   <stop stop-color="#8f4b11" offset="0"/>
   <stop stop-color="#bc740c" offset="0.25"/>
   <stop stop-color="#eeba70" offset="0.85"/>
   <stop stop-color="#fcefcf" offset="1"/>
  </linearGradient>
  <linearGradient id="linearGradient4860" y2="474" gradientUnits="userSpaceOnUse" x2="272" y1="463" x1="272">
   <stop stop-color="#462f1e" offset="0"/>
   <stop stop-color="#643c1e" offset="0.25"/>
   <stop stop-color="#7f572b" offset="0.75"/>
   <stop stop-color="#84663a" offset="1"/>
  </linearGradient>
 </defs>
 <rect fill-rule="evenodd" rx="12.5" ry="12.5" height="25" filter="url(#3px-blur-filter)" width="446" y="460" x="33" fill="url(#linearGradient4004)"/>
 <rect fill-rule="evenodd" rx="12" ry="12" height="24" filter="url(#3px-blur-filter)" width="444" y="460" x="34" fill="url(#linearGradient4000)"/>
 <rect fill-rule="evenodd" rx="11.5" ry="11.5" height="23" filter="url(#3px-blur-filter)" width="442" y="460" x="35" fill="url(#linearGradient3996)"/>
 <rect fill-rule="evenodd" rx="11" ry="11" height="22" filter="url(#3px-blur-filter)" width="440" y="460" x="36" fill="url(#linearGradient3992)"/>
 <rect fill-rule="evenodd" rx="10.5" ry="10.5" height="21" filter="url(#3px-blur-filter)" width="438" y="460" x="37" fill="url(#linearGradient3988)"/>
 <rect fill-rule="evenodd" rx="10" ry="10" height="20" filter="url(#3px-blur-filter)" width="436" y="460" x="38" fill="url(#linearGradient3982)"/>
 <path filter="url(#noise-filter)" fill="url(#linearGradient3622)" d="M34,439,43,470c1.3129,4.8999,4.045,8,13,8h400c9.0969,0,11.647-2.9512,13-8l9-31z"/>
 <path fill="url(#linearGradient3656)" d="M34,439,43,470c1.41,5.262,4.9289,8,13,8h24v-39z"/>
 <path fill="url(#linearGradient3686)" d="M432,439,432,478h24c7.506,0,11.38-1.9545,13-8l9-31z"/>
 <path fill="url(#linearGradient3632)" d="m33,436c0,12.652,9.9791,15,20,15h406c11.123,0,20-2.3593,20-15l-50-379c0-2.482-4.8882-12-16-12h-313c-11.122,0-16,9.564-16,12z"/>
 <path fill="url(#linearGradient3984)" d="m33,436c0,12.652,9.9791,15,20,15h406l-359-406c-11.122,0-16,9.564-16,12z"/>
 <path fill="url(#linearGradient3997)" d="m53,451,406,0c11.123,0,20-2.3593,20-15l-50-379c0-2.482-4.8882-12-16-12z"/>
 <path stroke-linejoin="round" d="m33.5,436c0,11.675,8.4241,14.5,20,14.5h405c12.656,0,20-2.7333,20-14.5" stroke="url(#linearGradient3897)" stroke-linecap="round" stroke-miterlimit="4" stroke-dasharray="none" stroke-width="1" fill="none"/>
 <path fill="url(#linearGradient3871)" d="m37,432c0,12.652,9.9791,15,20,15h398c11.123,0,20-2.3593,20-15l-47-374c0-2.482-4.8882-12-16-12h-311c-11.122,0-16,9.564-16,12z"/>
 <path fill="none" d="m37.5,431.5c0,12.652,9.9791,15,20,15h397c11.123,0,20-2.3593,20-15l-47-373c0-2.482-4.8882-12-16-12h-310c-11.122,0-16,9.564-16,12z" stroke="url(#linearGradient3881)"/>
 <path fill-opacity="0.07843137" fill="#FFF" d="m181,478-2-16,237,0-2,16z"/>
 <path fill="url(#linearGradient4243)" d="m182,478-2-15,235,0-2,15z"/>
 <path fill="url(#linearGradient4251)" d="m410,463,5,0-2,15z"/>
 <path fill="url(#linearGradient4794)" d="m182,478-2-15,5,0z"/>
 <rect fill-rule="evenodd" fill-opacity="0.19608" rx="0" ry="0" height="12" width="215" y="463" x="190" fill="#000"/>
 <rect fill-rule="evenodd" rx="0" ry="0" height="11" width="213" y="463" x="191" fill="url(#linearGradient4860)"/>
 <path stroke-linejoin="miter" d="m191,473.5,213,0" stroke-opacity="0.09803922" stroke="#FFF" stroke-linecap="butt" stroke-width="1px" fill="none"/>
 <rect fill-rule="evenodd" fill-opacity="0.19608" rx="0" ry="0" height="9" width="211" y="463" x="192" fill="#000"/>
 <rect id="rect4261" fill-rule="evenodd" rx="0" ry="0" height="8" width="4" y="463" x="193" fill="url(#linearGradient4848)"/>
 <use xlink:href="#rect4261" transform="translate(5,0)" height="512" width="512" y="0" x="0"/>
 <use xlink:href="#rect4261" transform="translate(10,0)" height="512" width="512" y="0" x="0"/>
 <use xlink:href="#rect4261" transform="translate(15,0)" height="512" width="512" y="0" x="0"/>
 <use xlink:href="#rect4261" transform="translate(20,0)" height="512" width="512" y="0" x="0"/>
 <use xlink:href="#rect4261" transform="translate(25,0)" height="512" width="512" y="0" x="0"/>
 <use xlink:href="#rect4261" transform="translate(30,0)" height="512" width="512" y="0" x="0"/>
 <use xlink:href="#rect4261" transform="translate(35,0)" height="512" width="512" y="0" x="0"/>
 <use xlink:href="#rect4261" transform="translate(40,0)" height="512" width="512" y="0" x="0"/>
 <use xlink:href="#rect4261" transform="translate(45,0)" height="512" width="512" y="0" x="0"/>
 <use xlink:href="#rect4261" transform="translate(50,0)" height="512" width="512" y="0" x="0"/>
 <use xlink:href="#rect4261" transform="translate(55,0)" height="512" width="512" y="0" x="0"/>
 <use xlink:href="#rect4261" transform="translate(60,0)" height="512" width="512" y="0" x="0"/>
 <use xlink:href="#rect4261" transform="translate(65,0)" height="512" width="512" y="0" x="0"/>
 <use xlink:href="#rect4261" transform="translate(70,0)" height="512" width="512" y="0" x="0"/>
 <use xlink:href="#rect4261" transform="translate(75,0)" height="512" width="512" y="0" x="0"/>
 <use xlink:href="#rect4261" transform="translate(80,0)" height="512" width="512" y="0" x="0"/>
 <use xlink:href="#rect4261" transform="translate(85,0)" height="512" width="512" y="0" x="0"/>
 <use xlink:href="#rect4261" transform="translate(90,0)" height="512" width="512" y="0" x="0"/>
 <use xlink:href="#rect4261" transform="translate(95,0)" height="512" width="512" y="0" x="0"/>
 <use xlink:href="#rect4261" transform="translate(100,0)" height="512" width="512" y="0" x="0"/>
 <use xlink:href="#rect4261" transform="translate(105,0)" height="512" width="512" y="0" x="0"/>
 <use xlink:href="#rect4261" transform="translate(110,0)" height="512" width="512" y="0" x="0"/>
 <use xlink:href="#rect4261" transform="translate(115,0)" height="512" width="512" y="0" x="0"/>
 <use xlink:href="#rect4261" transform="translate(120,0)" height="512" width="512" y="0" x="0"/>
 <use xlink:href="#rect4261" transform="translate(125,0)" height="512" width="512" y="0" x="0"/>
 <use xlink:href="#rect4261" transform="translate(130,0)" height="512" width="512" y="0" x="0"/>
 <use xlink:href="#rect4261" transform="translate(135,0)" height="512" width="512" y="0" x="0"/>
 <use xlink:href="#rect4261" transform="translate(140,0)" height="512" width="512" y="0" x="0"/>
 <use xlink:href="#rect4261" transform="translate(145,0)" height="512" width="512" y="0" x="0"/>
 <use xlink:href="#rect4261" transform="translate(150,0)" height="512" width="512" y="0" x="0"/>
 <use xlink:href="#rect4261" transform="translate(155,0)" height="512" width="512" y="0" x="0"/>
 <use xlink:href="#rect4261" transform="translate(160,0)" height="512" width="512" y="0" x="0"/>
 <use xlink:href="#rect4261" transform="translate(165,0)" height="512" width="512" y="0" x="0"/>
 <use xlink:href="#rect4261" transform="translate(170,0)" height="512" width="512" y="0" x="0"/>
 <use xlink:href="#rect4261" transform="translate(175,0)" height="512" width="512" y="0" x="0"/>
 <use xlink:href="#rect4261" transform="translate(180,0)" height="512" width="512" y="0" x="0"/>
 <use xlink:href="#rect4261" transform="translate(185,0)" height="512" width="512" y="0" x="0"/>
 <use xlink:href="#rect4261" transform="translate(190,0)" height="512" width="512" y="0" x="0"/>
 <use xlink:href="#rect4261" transform="translate(195,0)" height="512" width="512" y="0" x="0"/>
 <use xlink:href="#rect4261" transform="translate(200,0)" height="512" width="512" y="0" x="0"/>
 <use xlink:href="#rect4261" transform="translate(205,0)" height="512" width="512" y="0" x="0"/>
 <path d="m120,91-5,35c-1.3547,5.0557,4.2486,10,10,10h205l-27.625,69.062c-14.68-2.63-30.26-4.06-46.38-4.06-88.366,0-160,42.533-160,95s71.634,95,160,95,160-42.533,160-95c0-14.953-5.8215-29.103-16.188-41.688l-19.81-163.31c0-3.6543-2.6695-10-10-10h-240c-7.0014,0-10,6.6842-10,10z" fill-opacity="0.1372549" filter="url(#3px-blur-filter)" fill="#000"/>
 <path fill="url(#linearGradient4101)" d="M405,264,382,92c-0.78641-5.9767-6.5702-10-17-10l25,170z"/>
 <path d="m356,312a95.5,77,0,1,1,-191,0,95.5,77,0,1,1,191,0z" fill-rule="evenodd" transform="matrix(1.7801047,0,0,1.3961039,-207.71728,-121.08442)" fill="url(#linearGradient4085)"/>
 <path d="m356,312a95.5,77,0,1,1,-191,0,95.5,77,0,1,1,191,0z" stroke-opacity="0.05882353" transform="matrix(1.7748691,0,0,1.3896104,-206.3534,-119.05845)" stroke="#000" stroke-dasharray="none" stroke-miterlimit="4" stroke-width="0.63675201" fill="none"/>
 <path d="m135,87c-9.9168,0-15.386-1.0232-17,5l-6,38c0,7.318,3.2019,13,18,13h205v-10z" fill-opacity="0.19607843" filter="url(#3px-blur-filter)" fill="#000"/>
 <path fill="url(#linearGradient4117)" d="m135,82c-9.9168,0-15.386,3.9768-17,10l-6,37c0,7.318,3.2019,13,18,13h205v-10z"/>
 <path fill="url(#linearGradient4159)" d="m315,132,0,10,20,0,0-10z"/>
 <path fill="url(#linearGradient4169)" d="m135,82c-9.9168,0-15.386,3.9768-17,10l-6,37c0,7.318,3.2019,13,18,13h20v-10z"/>
 <path fill="url(#radialGradient4083)" d="m120,92-5,35c-1.3547,5.0557,4.2486,10,10,10h205l-27.625,69.062c-14.68-2.63-30.26-4.06-46.38-4.06-88.366,0-160,42.533-160,95s71.634,95,160,95,160-42.533,160-95c0-14.953-5.8215-29.103-16.188-41.688l-19.81-163.31c0-3.6543-2.6695-10-10-10h-240c-7.0014,0-10,6.6842-10,10z"/>
 <path fill="none" d="m120.5,92.5-5,34c-1.3547,5.0557,4.2486,10,10,10h205.05l-27.625,70.112c-14.676-2.6341-30.802-4.0625-46.926-4.0625-88.366,0-159.5,41.983-159.5,94.45s71.134,94.5,159.5,94.5,159.5-42.033,159.5-94.5c0-14.953-5.8215-28.553-16.188-41.138l-19.8-163.36c0-3.6543-2.6695-10-10-10h-239c-7.0014,0-10,6.6842-10,10z" stroke="url(#linearGradient4134)"/>
 <path d="m282,300a51,41,0,1,1,-102,0,51,41,0,1,1,102,0z" fill-rule="evenodd" fill-opacity="0.29411765" transform="matrix(1.8235294,0,0,1.3414634,-165.23529,-115.43902)" filter="url(#3px-blur-filter)" fill="#000"/>
 <path d="m282,300a51,41,0,1,1,-102,0,51,41,0,1,1,102,0z" fill-rule="evenodd" transform="matrix(1.8627451,0,0,1.4634146,-174.29411,-147.02439)" fill="url(#linearGradient4093)"/>
 <path d="m282,300a51,41,0,1,1,-102,0,51,41,0,1,1,102,0z" stroke-opacity="0.05882353" transform="matrix(1.8529412,0,0,1.4512195,-172.02942,-143.36585)" stroke="#000" stroke-dasharray="none" stroke-miterlimit="4" stroke-width="0.60982138" fill="none"/>
 <path d="m282,300a51,41,0,1,1,-102,0,51,41,0,1,1,102,0z" fill-rule="evenodd" transform="matrix(1.7647059,0,0,1.2195122,-151.64706,-83.85366)" fill="url(#radialGradient4081)"/>
 <path d="m282,300a51,41,0,1,1,-102,0,51,41,0,1,1,102,0z" transform="matrix(1.754902,0,0,1.2073171,-149.38236,-80.195131)" stroke="url(#linearGradient4108)" stroke-dasharray="none" stroke-miterlimit="4" stroke-width="0.68700975" fill="none"/>
 <path d="m80,468.25a11.75,9.75,0,1,1,-23.5,0,11.75,9.75,0,1,1,23.5,0z" fill-rule="evenodd" transform="matrix(0.76595745,0,0,0.71795019,18.723404,127.8198)" fill="url(#linearGradient3935)"/>
 <path d="m80,468.25a11.75,9.75,0,1,1,-23.5,0,11.75,9.75,0,1,1,23.5,0z" fill-rule="evenodd" fill-opacity="0.29411765" transform="matrix(0.42553191,0,0,0.41025725,41.957447,272.89703)" fill="#000"/>
 <path d="m80,468.25a11.75,9.75,0,1,1,-23.5,0,11.75,9.75,0,1,1,23.5,0z" fill-rule="evenodd" transform="matrix(0.76595745,0,0,0.71795019,18.723404,127.8198)" fill="url(#radialGradient3944)"/>
 <path d="m80,468.25a11.75,9.75,0,1,1,-23.5,0,11.75,9.75,0,1,1,23.5,0z" fill-rule="evenodd" transform="matrix(0.42553191,0,0,0.41025725,41.957447,271.89703)" fill="url(#radialGradient3938)"/>
 <path d="m54.801,430.59a4.4194,5.922,0,1,1,-8.8388,0,4.4194,5.922,0,1,1,8.8388,0z" fill-rule="evenodd" transform="matrix(2.71529,0,0,1.8574745,-81.800001,-369.81799)" fill="url(#linearGradient3159)"/>
 <path d="m54.801,430.59a4.4194,5.922,0,1,1,-8.8388,0,4.4194,5.922,0,1,1,8.8388,0z" fill-rule="evenodd" transform="matrix(2.0364675,0,0,1.1820292,-47.600001,-77.975071)" fill="#afafaf"/>
 <path d="m54.801,430.59a4.4194,5.922,0,1,1,-8.8388,0,4.4194,5.922,0,1,1,8.8388,0z" fill-rule="evenodd" transform="matrix(2.0364675,0,0,1.1820292,-47.600001,-78.975071)" fill="#f0f0f0"/>
 <path d="m54.801,430.59a4.4194,5.922,0,1,1,-8.8388,0,4.4194,5.922,0,1,1,8.8388,0z" fill-rule="evenodd" transform="matrix(2.0364675,0,0,1.1820292,-47.600001,-79.975071)" fill="url(#radialGradient3161)"/>
 <path d="m54,431.95-2.8144-7.1361-7.1361-2.8144,7.1361-2.8144,2.8144-7.1361,2.8144,7.1361,7.1361,2.8144-7.1361,2.8144z" fill-rule="evenodd" fill-opacity="0.49019608" transform="matrix(0.50248488,0,0,0.50248488,27.865816,217.95137)" fill="#FFF"/>
 <path d="m54,431.95-2.8144-7.1361-7.1361-2.8144,7.1361-2.8144,2.8144-7.1361,2.8144,7.1361,7.1361,2.8144-7.1361,2.8144z" fill-rule="evenodd" transform="matrix(0.50248488,0,0,0.50248488,27.865816,216.95137)" fill="url(#linearGradient3169)"/>
 <path d="m54.801,430.59a4.4194,5.922,0,1,1,-8.8388,0,4.4194,5.922,0,1,1,8.8388,0z" fill-rule="evenodd" transform="matrix(2.71529,0,0,1.8574745,320.2,-369.81799)" fill="url(#linearGradient3159)"/>
 <path d="m54.801,430.59a4.4194,5.922,0,1,1,-8.8388,0,4.4194,5.922,0,1,1,8.8388,0z" fill-rule="evenodd" transform="matrix(2.0364675,0,0,1.1820292,354.4,-77.975071)" fill="#afafaf"/>
 <path d="m54.801,430.59a4.4194,5.922,0,1,1,-8.8388,0,4.4194,5.922,0,1,1,8.8388,0z" fill-rule="evenodd" transform="matrix(2.0364675,0,0,1.1820292,354.4,-78.975071)" fill="#f0f0f0"/>
 <path d="m54.801,430.59a4.4194,5.922,0,1,1,-8.8388,0,4.4194,5.922,0,1,1,8.8388,0z" fill-rule="evenodd" transform="matrix(2.0364675,0,0,1.1820292,354.4,-79.975071)" fill="url(#radialGradient3161)"/>
 <path d="m54,431.95-2.8144-7.1361-7.1361-2.8144,7.1361-2.8144,2.8144-7.1361,2.8144,7.1361,7.1361,2.8144-7.1361,2.8144z" fill-rule="evenodd" fill-opacity="0.49019608" transform="matrix(0.43516467,0.25124244,-0.25124244,0.43516467,539.52555,232.79341)" fill="#FFF"/>
 <path d="m54,431.95-2.8144-7.1361-7.1361-2.8144,7.1361-2.8144,2.8144-7.1361,2.8144,7.1361,7.1361,2.8144-7.1361,2.8144z" fill-rule="evenodd" transform="matrix(0.43516467,0.25124244,-0.25124244,0.43516467,539.52555,231.79341)" fill="url(#linearGradient3163)"/>
 <path d="m54.801,430.59a4.4194,5.922,0,1,1,-8.8388,0,4.4194,5.922,0,1,1,8.8388,0z" fill-rule="evenodd" transform="matrix(2.0364675,0,0,1.3508905,-0.60000055,-524.68579)" fill="url(#linearGradient4006)"/>
 <path d="m54.801,430.59a4.4194,5.922,0,1,1,-8.8388,0,4.4194,5.922,0,1,1,8.8388,0z" fill-rule="evenodd" transform="matrix(1.357645,0,0,0.67544526,33.6,-232.8429)" fill="#afafaf"/>
 <path d="m54.801,430.59a4.4194,5.922,0,1,1,-8.8388,0,4.4194,5.922,0,1,1,8.8388,0z" fill-rule="evenodd" transform="matrix(1.357645,0,0,0.67544526,33.6,-233.8429)" fill="#e1e1e1"/>
 <path d="m54.801,430.59a4.4194,5.922,0,1,1,-8.8388,0,4.4194,5.922,0,1,1,8.8388,0z" fill-rule="evenodd" transform="matrix(1.357645,0,0,0.67544526,33.6,-234.8429)" fill="url(#radialGradient4008)"/>
 <path d="m54,431.95-2.8144-7.1361-7.1361-2.8144,7.1361-2.8144,2.8144-7.1361,2.8144,7.1361,7.1361,2.8144-7.1361,2.8144z" fill-rule="evenodd" fill-opacity="0.49019608" transform="matrix(0.2610988,0.15074546,-0.15074546,0.2610988,151.51526,-62.323959)" fill="#FFF"/>
 <path d="m54,431.95-2.8144-7.1361-7.1361-2.8144,7.1361-2.8144,2.8144-7.1361,2.8144,7.1361,7.1361,2.8144-7.1361,2.8144z" fill-rule="evenodd" transform="matrix(0.2610988,0.15074546,-0.15074546,0.2610988,151.51526,-63.323959)" fill="url(#linearGradient4012)"/>
 <path d="m54.801,430.59a4.4194,5.922,0,1,1,-8.8388,0,4.4194,5.922,0,1,1,8.8388,0z" fill-rule="evenodd" transform="matrix(2.0364675,0,0,1.3508905,307.4,-524.68579)" fill="url(#linearGradient4006)"/>
 <path d="m54.801,430.59a4.4194,5.922,0,1,1,-8.8388,0,4.4194,5.922,0,1,1,8.8388,0z" fill-rule="evenodd" transform="matrix(1.357645,0,0,0.67544526,341.6,-232.8429)" fill="#afafaf"/>
 <path d="m54.801,430.59a4.4194,5.922,0,1,1,-8.8388,0,4.4194,5.922,0,1,1,8.8388,0z" fill-rule="evenodd" transform="matrix(1.357645,0,0,0.67544526,341.6,-233.8429)" fill="#e1e1e1"/>
 <path d="m54.801,430.59a4.4194,5.922,0,1,1,-8.8388,0,4.4194,5.922,0,1,1,8.8388,0z" fill-rule="evenodd" transform="matrix(1.357645,0,0,0.67544526,341.6,-234.8429)" fill="url(#radialGradient4008)"/>
 <path d="m54,431.95-2.8144-7.1361-7.1361-2.8144,7.1361-2.8144,2.8144-7.1361,2.8144,7.1361,7.1361,2.8144-7.1361,2.8144z" fill-rule="evenodd" fill-opacity="0.49019608" transform="matrix(0.21318628,0.21318628,-0.21318628,0.21318628,488.45256,-45.476677)" fill="#FFF"/>
 <path d="m54,431.95-2.8144-7.1361-7.1361-2.8144,7.1361-2.8144,2.8144-7.1361,2.8144,7.1361,7.1361,2.8144-7.1361,2.8144z" fill-rule="evenodd" transform="matrix(0.21318628,0.21318628,-0.21318628,0.21318628,488.45256,-46.476677)" fill="url(#linearGradient4010)"/>
</svg>
