<?xml version="1.0" encoding="UTF-8" standalone="no"?>
<!-- Created with Inkscape (http://www.inkscape.org/) -->
<svg xmlns:rdf="http://www.w3.org/1999/02/22-rdf-syntax-ns#" xmlns="http://www.w3.org/2000/svg" height="512" width="512" version="1.1" xmlns:cc="http://creativecommons.org/ns#" xmlns:xlink="http://www.w3.org/1999/xlink" xmlns:dc="http://purl.org/dc/elements/1.1/">
 <title>Samée - 512px - Removable alt</title>
 <metadata>
  <rdf:RDF>
   <cc:Work rdf:about="">
    <dc:format>image/svg+xml</dc:format>
    <dc:type rdf:resource="http://purl.org/dc/dcmitype/StillImage"/>
    <dc:title>Samée - 512px - Removable alt</dc:title>
    <dc:date>2011-03-18</dc:date>
    <dc:creator>
     <cc:Agent>
      <dc:title>Harenome Ranaivoarivony Razanajato</dc:title>
     </cc:Agent>
    </dc:creator>
    <dc:description/>
    <cc:license rdf:resource="http://creativecommons.org/licenses/by/3.0/"/>
    <dc:subject>
     <rdf:Bag>
      <rdf:li>hard</rdf:li>
      <rdf:li>disk</rdf:li>
      <rdf:li>drive</rdf:li>
      <rdf:li>removable</rdf:li>
      <rdf:li>drive-removable</rdf:li>
     </rdf:Bag>
    </dc:subject>
   </cc:Work>
   <cc:License rdf:about="http://creativecommons.org/licenses/by/3.0/">
    <cc:permits rdf:resource="http://creativecommons.org/ns#Reproduction"/>
    <cc:permits rdf:resource="http://creativecommons.org/ns#Distribution"/>
    <cc:requires rdf:resource="http://creativecommons.org/ns#Notice"/>
    <cc:requires rdf:resource="http://creativecommons.org/ns#Attribution"/>
    <cc:permits rdf:resource="http://creativecommons.org/ns#DerivativeWorks"/>
   </cc:License>
  </rdf:RDF>
 </metadata>
 <defs>
  <linearGradient id="top-2-side-lights-gradient">
   <stop stop-color="#000" stop-opacity="0.03921569" offset="0"/>
   <stop stop-color="#FFF" stop-opacity="0.13725491" offset="0.35"/>
   <stop stop-color="#FFF" stop-opacity="0.39215687" offset="0.5"/>
   <stop stop-color="#FFF" stop-opacity="0" offset="1"/>
  </linearGradient>
  <linearGradient id="top-side-lights-gradient">
   <stop stop-color="#000" stop-opacity="0.03921569" offset="0"/>
   <stop stop-color="#FFF" stop-opacity="0.17647059" offset="0.4"/>
   <stop stop-color="#FFF" stop-opacity="0.56862748" offset="0.55"/>
   <stop stop-color="#FFF" stop-opacity="0" offset="1"/>
  </linearGradient>
  <linearGradient id="top-inlay-middle-gradient">
   <stop stop-color="#e1e1e1" offset="0"/>
   <stop stop-color="#b9b9b9" offset="1"/>
  </linearGradient>
  <linearGradient id="top-inlay-back-gradient">
   <stop stop-color="#dcdcdc" offset="0"/>
   <stop stop-color="#b4b4b4" offset="1"/>
  </linearGradient>
  <linearGradient id="top-inlay-gradient">
   <stop stop-color="#EEE" offset="0"/>
   <stop stop-color="#c5c5c5" offset="1"/>
  </linearGradient>
  <linearGradient id="screw-middle-gradient">
   <stop stop-color="#e1e1e1" offset="0"/>
   <stop stop-color="#bebebe" offset="1"/>
  </linearGradient>
  <linearGradient id="screw-hole-gradient">
   <stop stop-color="#828282" offset="0"/>
   <stop stop-color="#c3c3c3" offset="1"/>
  </linearGradient>
  <linearGradient id="screw-gradient">
   <stop stop-color="#ebebeb" offset="0"/>
   <stop stop-color="#c3c3c3" offset="1"/>
  </linearGradient>
  <linearGradient id="bottom-holes-sides-shadow-gradient">
   <stop stop-color="#000" stop-opacity="0.39215687" offset="0"/>
   <stop stop-color="#000" stop-opacity="0" offset="1"/>
  </linearGradient>
  <linearGradient id="floor-shadow-gradient">
   <stop stop-color="#000" stop-opacity="0.09803922" offset="0"/>
   <stop stop-color="#000" stop-opacity="0.07843138" offset="0.93"/>
   <stop stop-color="#000" stop-opacity="0" offset="1"/>
  </linearGradient>
  <linearGradient id="bottom-side-lights-gradient">
   <stop stop-color="#000" stop-opacity="0.09803922" offset="0"/>
   <stop stop-color="#555" stop-opacity="0.39215687" offset="0.1"/>
   <stop stop-color="#7d7d7d" stop-opacity="0.29411766" offset="0.16"/>
   <stop stop-color="#646464" stop-opacity="0.13725491" offset="0.3"/>
   <stop stop-color="#000" stop-opacity="0" offset="1"/>
  </linearGradient>
  <linearGradient id="bottom-inlay-gradient">
   <stop stop-color="#2d2d2d" offset="0"/>
   <stop stop-color="#3c3c3c" offset="1"/>
  </linearGradient>
  <filter id="3px-blur-filter" color-interpolation-filters="sRGB">
   <feGaussianBlur stdDeviation="1.3999999999999999" in="SourceGraphic"/>
  </filter>
  <linearGradient id="linearGradient3622" y2="120" gradientUnits="userSpaceOnUse" x2="64" gradientTransform="matrix(4,0,0,4,0,-2.00008)" y1="113.25" x1="64">
   <stop stop-color="#4b4b4b" offset="0"/>
   <stop stop-color="#232323" offset="0.85"/>
   <stop stop-color="#2d2d2d" offset="1"/>
  </linearGradient>
  <linearGradient id="linearGradient3632" y2="113.25" gradientUnits="userSpaceOnUse" x2="83" gradientTransform="matrix(4,0,0,4,0,-2.00016)" y1="11.75" x1="83">
   <stop stop-color="#b9b9b9" offset="0"/>
   <stop stop-color="#c3c3c3" offset="0.3"/>
   <stop stop-color="#cdcdcd" offset="1"/>
  </linearGradient>
  <linearGradient id="linearGradient3640" y2="107.25" gradientUnits="userSpaceOnUse" x2="41.794" gradientTransform="matrix(4,0,0,4,0,-2)" y1="16" x1="41.794">
   <stop stop-color="#c8c8c8" offset="0"/>
   <stop stop-color="#e1e1e1" offset="0.65"/>
   <stop stop-color="#ebebeb" offset="1"/>
  </linearGradient>
  <linearGradient id="linearGradient3656" y2="112.81" xlink:href="#bottom-side-lights-gradient" gradientUnits="userSpaceOnUse" x2="20.099" gradientTransform="matrix(4,0,0,4,0,-2.00008)" y1="115.53" x1="9.9519"/>
  <linearGradient id="linearGradient3686" y2="113.02" xlink:href="#bottom-side-lights-gradient" gradientUnits="userSpaceOnUse" x2="108.18" gradientTransform="matrix(4,0,0,4,0,-2.00008)" y1="115.65" x1="118.01"/>
  <linearGradient id="linearGradient3982" y2="88.5" xlink:href="#floor-shadow-gradient" spreadMethod="reflect" gradientUnits="userSpaceOnUse" x2="474" gradientTransform="matrix(1,0,0,1.3333333,0,352)" y1="88.5" x1="256"/>
  <linearGradient id="linearGradient3988" y2="88.5" xlink:href="#floor-shadow-gradient" spreadMethod="reflect" gradientUnits="userSpaceOnUse" x2="474" gradientTransform="matrix(1.0045872,0,0,1.4,-1.1743119,346.6)" y1="88.5" x1="256"/>
  <linearGradient id="linearGradient3992" y2="88.5" xlink:href="#floor-shadow-gradient" spreadMethod="reflect" gradientUnits="userSpaceOnUse" x2="474" gradientTransform="matrix(1.0091744,0,0,1.4666668,-2.3486238,341.2)" y1="88.5" x1="256"/>
  <linearGradient id="linearGradient3996" y2="88.5" xlink:href="#floor-shadow-gradient" spreadMethod="reflect" gradientUnits="userSpaceOnUse" x2="474" gradientTransform="matrix(1.0137616,0,0,1.5333335,-3.5229357,335.8)" y1="88.5" x1="256"/>
  <linearGradient id="linearGradient4000" y2="88.5" xlink:href="#floor-shadow-gradient" spreadMethod="reflect" gradientUnits="userSpaceOnUse" x2="474" gradientTransform="matrix(1.0183488,0,0,1.6000002,-4.6972476,330.4)" y1="88.5" x1="256"/>
  <linearGradient id="linearGradient4004" y2="88.5" xlink:href="#floor-shadow-gradient" spreadMethod="reflect" gradientUnits="userSpaceOnUse" x2="474" gradientTransform="matrix(1.022936,0,0,1.6666668,-5.8715595,325)" y1="88.5" x1="256"/>
  <linearGradient id="linearGradient3871" y2="112.25" gradientUnits="userSpaceOnUse" x2="83" gradientTransform="matrix(4,0,0,4,0,-2.00016)" y1="12" x1="83">
   <stop stop-color="#c3c3c3" offset="0"/>
   <stop stop-color="#cdcdcd" offset="0.3"/>
   <stop stop-color="#e6e6e6" offset="1"/>
  </linearGradient>
  <linearGradient id="linearGradient3881" y2="446.5" gradientUnits="userSpaceOnUse" x2="145" y1="46.5" x1="145">
   <stop stop-color="#FFF" stop-opacity="0.05882353" offset="0"/>
   <stop stop-color="#FFF" stop-opacity="0.19607843" offset="1"/>
  </linearGradient>
  <linearGradient id="linearGradient3897" y2="443.25" gradientUnits="userSpaceOnUse" x2="479" y1="443.25" x1="253.88">
   <stop stop-color="#FFF" stop-opacity="0.29411766" offset="0"/>
   <stop stop-color="#FFF" stop-opacity="0.19607843" offset="0.9"/>
   <stop stop-color="#FFF" stop-opacity="0.17647059" offset="1"/>
  </linearGradient>
  <linearGradient id="linearGradient3884" y2="429" gradientUnits="userSpaceOnUse" x2="335" y1="62" x1="335">
   <stop stop-color="#bebebe" offset="0"/>
   <stop stop-color="#d2d2d2" offset="1"/>
  </linearGradient>
  <linearGradient id="linearGradient3894" y2="427" gradientUnits="userSpaceOnUse" x2="256" y1="62" x1="256">
   <stop stop-color="#FFF" stop-opacity="0.05882353" offset="0"/>
   <stop stop-color="#FFF" stop-opacity="0.29411766" offset="1"/>
  </linearGradient>
  <linearGradient id="linearGradient3914" y2="477.92" gradientUnits="userSpaceOnUse" x2="77.389" y1="458.58" x1="77.389">
   <stop stop-color="#464646" offset="0"/>
   <stop stop-color="#191919" offset="1"/>
  </linearGradient>
  <linearGradient id="linearGradient3935" y2="478" xlink:href="#bottom-inlay-gradient" gradientUnits="userSpaceOnUse" x2="59.404" y1="458.5" x1="59.404"/>
  <linearGradient id="linearGradient3956" y2="469" gradientUnits="userSpaceOnUse" x2="178" y1="457" x1="178">
   <stop stop-color="#191919" offset="0"/>
   <stop stop-color="#282828" offset="0.45"/>
   <stop stop-color="#323232" offset="0.65"/>
   <stop stop-color="#414141" offset="1"/>
  </linearGradient>
  <linearGradient id="linearGradient3978" y2="470" gradientUnits="userSpaceOnUse" x2="268" y1="456" x1="268">
   <stop stop-color="#FFF" stop-opacity="0.01960784" offset="0"/>
   <stop stop-color="#FFF" stop-opacity="0.03921569" offset="0.75"/>
   <stop stop-color="#FFF" stop-opacity="0.13725491" offset="1"/>
  </linearGradient>
  <linearGradient id="linearGradient3926" y2="463" xlink:href="#bottom-holes-sides-shadow-gradient" gradientUnits="userSpaceOnUse" x2="102" y1="463" x1="96"/>
  <linearGradient id="linearGradient3930" y2="463" xlink:href="#bottom-holes-sides-shadow-gradient" gradientUnits="userSpaceOnUse" x2="410" y1="463" x1="416"/>
  <radialGradient id="radialGradient3938" gradientUnits="userSpaceOnUse" cy="456.5" cx="68.25" gradientTransform="matrix(2.626409,0,0,2.1793562,-111.00241,-536.3761)" r="11.75">
   <stop stop-color="#b6f78f" offset="0"/>
   <stop stop-color="#187e18" offset="1"/>
  </radialGradient>
  <radialGradient id="radialGradient3944" gradientUnits="userSpaceOnUse" cy="480" cx="68.25" gradientTransform="matrix(1.8646555,0,0,1.5472641,-59.012736,-264.68682)" r="11.75">
   <stop stop-color="#b6f78f" stop-opacity="0.29411766" offset="0"/>
   <stop stop-color="#187e18" stop-opacity="0.09803922" offset="1"/>
  </radialGradient>
  <linearGradient id="linearGradient3159" y2="436.54" xlink:href="#top-inlay-gradient" gradientUnits="userSpaceOnUse" x2="53.143" y1="424.82" x1="53.143"/>
  <radialGradient id="radialGradient3161" xlink:href="#screw-gradient" gradientUnits="userSpaceOnUse" cy="434.65" cx="50.353" gradientTransform="matrix(1.9977837,0,0,2.6770303,-50.212597,-727.04482)" r="4.4194"/>
  <linearGradient id="linearGradient3163" y2="424.92" xlink:href="#screw-hole-gradient" gradientUnits="userSpaceOnUse" x2="65.634" y1="410.23" x1="57.154"/>
  <linearGradient id="linearGradient3169" y2="433.58" xlink:href="#screw-hole-gradient" gradientUnits="userSpaceOnUse" x2="63.951" y1="412.05" x1="63.951"/>
  <linearGradient id="linearGradient4006" y2="436.54" xlink:href="#top-inlay-back-gradient" gradientUnits="userSpaceOnUse" x2="53.143" y1="424.82" x1="53.143"/>
  <radialGradient id="radialGradient4008" xlink:href="#top-inlay-middle-gradient" gradientUnits="userSpaceOnUse" cy="434.65" cx="50.353" gradientTransform="matrix(1.9977837,0,0,2.6770303,-50.212597,-727.04482)" r="4.4194"/>
  <linearGradient id="linearGradient4010" y2="421.93" xlink:href="#screw-hole-gradient" gradientUnits="userSpaceOnUse" x2="63.88" y1="412.05" x1="54"/>
  <linearGradient id="linearGradient4012" y2="424.93" xlink:href="#screw-hole-gradient" gradientUnits="userSpaceOnUse" x2="66.222" y1="410.1" x1="57.657"/>
  <linearGradient id="linearGradient3201" y2="418.95" xlink:href="#screw-hole-gradient" gradientUnits="userSpaceOnUse" x2="65.945" y1="410.23" x1="50.846"/>
  <linearGradient id="linearGradient3984" y2="451" xlink:href="#top-side-lights-gradient" gradientUnits="userSpaceOnUse" x2="57" y1="427" x1="33"/>
  <linearGradient id="linearGradient3997" y2="450.5" xlink:href="#top-side-lights-gradient" gradientUnits="userSpaceOnUse" x2="453.75" y1="425.25" x1="479"/>
  <linearGradient id="linearGradient4001" y2="430" xlink:href="#top-2-side-lights-gradient" gradientUnits="userSpaceOnUse" x2="102.5" y1="394.5" x1="67"/>
  <linearGradient id="linearGradient4005" y2="430" xlink:href="#top-2-side-lights-gradient" gradientUnits="userSpaceOnUse" x2="405.85" y1="390.85" x1="445"/>
  <linearGradient id="linearGradient4076" y2="436.54" xlink:href="#top-inlay-middle-gradient" gradientUnits="userSpaceOnUse" x2="53.143" y1="424.82" x1="53.143"/>
  <radialGradient id="radialGradient4078" xlink:href="#screw-middle-gradient" gradientUnits="userSpaceOnUse" cy="434.65" cx="50.353" gradientTransform="matrix(1.9977837,0,0,2.6770303,-50.212597,-727.04482)" r="4.4194"/>
  <linearGradient id="linearGradient4080" y2="421.81" xlink:href="#screw-hole-gradient" gradientUnits="userSpaceOnUse" x2="44.241" y1="412.05" x1="54"/>
  <linearGradient id="linearGradient4123" y2="433.77" xlink:href="#screw-hole-gradient" gradientUnits="userSpaceOnUse" x2="60.796" y1="415.2" x1="65.772"/>
 </defs>
 <rect fill-rule="evenodd" rx="12.5" ry="12.5" height="25" filter="url(#3px-blur-filter)" width="446" y="460" x="33" fill="url(#linearGradient4004)"/>
 <rect fill-rule="evenodd" rx="12" ry="12" height="24" filter="url(#3px-blur-filter)" width="444" y="460" x="34" fill="url(#linearGradient4000)"/>
 <rect fill-rule="evenodd" rx="11.5" ry="11.5" height="23" filter="url(#3px-blur-filter)" width="442" y="460" x="35" fill="url(#linearGradient3996)"/>
 <rect fill-rule="evenodd" rx="11" ry="11" height="22" filter="url(#3px-blur-filter)" width="440" y="460" x="36" fill="url(#linearGradient3992)"/>
 <rect fill-rule="evenodd" rx="10.5" ry="10.5" height="21" filter="url(#3px-blur-filter)" width="438" y="460" x="37" fill="url(#linearGradient3988)"/>
 <rect fill-rule="evenodd" rx="10" ry="10" height="20" filter="url(#3px-blur-filter)" width="436" y="460" x="38" fill="url(#linearGradient3982)"/>
 <path filter="url(#noise-filter)" fill="url(#linearGradient3622)" d="M34,439,43,470c1.3129,4.8999,4.045,8,13,8h400c9.0969,0,11.647-2.9512,13-8l9-31z"/>
 <path fill="url(#linearGradient3656)" d="M34,439,43,470c1.41,5.262,4.9289,8,13,8h24v-39z"/>
 <path fill="url(#linearGradient3686)" d="M432,439,432,478h24c7.506,0,11.38-1.9545,13-8l9-31z"/>
 <path fill="url(#linearGradient3632)" d="m33,436c0,12.652,9.9791,15,20,15h406c11.123,0,20-2.3593,20-15l-50-379c0-2.482-4.8882-12-16-12h-313c-11.122,0-16,9.564-16,12z"/>
 <path fill="url(#linearGradient3984)" d="m33,436c0,12.652,9.9791,15,20,15h406l-359-406c-11.122,0-16,9.564-16,12z"/>
 <path fill="url(#linearGradient3997)" d="m53,451,406,0c11.123,0,20-2.3593,20-15l-50-379c0-2.482-4.8882-12-16-12z"/>
 <path stroke-linejoin="round" d="m33.5,436c0,11.675,8.4241,14.5,20,14.5h405c12.656,0,20-2.7333,20-14.5" stroke="url(#linearGradient3897)" stroke-linecap="round" stroke-miterlimit="4" stroke-dasharray="none" stroke-width="1" fill="none"/>
 <path fill="url(#linearGradient3871)" d="m37,432c0,12.652,9.9791,15,20,15h398c11.123,0,20-2.3593,20-15l-47-374c0-2.482-4.8882-12-16-12h-311c-11.122,0-16,9.564-16,12z"/>
 <path fill="none" d="m37.5,431.5c0,12.652,9.9791,15,20,15h397c11.123,0,20-2.3593,20-15l-47-373c0-2.482-4.8882-12-16-12h-310c-11.122,0-16,9.564-16,12z" stroke="url(#linearGradient3881)"/>
 <path fill-opacity="0.1372549" fill="#000" d="m128,62c-11.636,0-18,8.0515-18,14l-15,116c0,14.972,22,16.975,22,36,0,22.359-33,26.798-33,42l-17,138c0,12.177,11.354,23,23,23h332c11.339,0,23-11.051,23-23l-17-138c0-15.175-33-19.618-33-42,0-19.249,22-20.872,22-36l-15-116c0-7.1417-7.7716-14-18-14h-97c-13.519,0-10.653,14-31,14-20.274,0-17.766-14-31-14z"/>
 <path fill="url(#linearGradient3884)" d="m128,61c-11.636,0-18,8.0515-18,14l-15,116c0,14.972,22,16.975,22,36,0,22.359-33,26.798-33,42l-17,138c0,12.177,11.354,23,23,23h332c11.339,0,23-11.051,23-23l-17-138c0-15.175-33-19.618-33-42,0-19.249,22-20.872,22-36l-15-116c0-7.1417-7.7716-14-18-14h-97c-13.519,0-10.653,14-31,14-20.274,0-17.766-14-31-14z"/>
 <path fill="url(#linearGradient4001)" d="m128,62c-11.636,0-18,7.0515-18,13l-15,117c0,14.972,21,15.975,21,35,0,22.359-32,26.798-32,42l-17,138c0,12.177,11.354,23,23,23h332z"/>
 <path fill="url(#linearGradient4005)" d="m90,430,332,0c11.339,0,23-11.051,23-23l-17-138c0-15.175-32-19.618-32-42,0-19.249,21-19.872,21-35l-15-117c0-7.1417-7.7716-13-18-13z"/>
 <path fill="url(#linearGradient3640)" d="m129,62c-11.636,0-18,8.0515-18,14l-14,116c0,14.972,21,14.975,21,34,0,22.359-32,26.798-32,42l-16,137c0,13.591,11.415,22,22,22h328c10.631,0,22-8.9904,22-22l-16-137c0-15.175-32-19.618-32-42,0-19.249,21-18.872,21-34l-14-116c0-7.1417-7.7716-14-18-14h-96c-13.519,0-10.653,14-31,14-20.274,0-17.766-14-31-14z"/>
 <path fill="none" d="m129.5,62.5c-11.636,0-18,8.0515-18,14l-14,115.5c0,14.972,21,14.975,21,34,0,22.359-32,26.798-32,42l-16,136.5c0,13.591,11.415,22,22,22h327c10.631,0,22-8.9904,22-22l-16-136.5c0-15.175-32-19.618-32-42,0-19.249,21-18.872,21-34l-14-115.5c0-7.1417-7.7716-14-18-14h-95.5c-13.519,0-10.653,14-31,14-20.274,0-17.766-14-31-14z" stroke="url(#linearGradient3894)"/>
 <path fill-rule="evenodd" fill="url(#linearGradient3978)" d="m95,456,322,0-3,14-316,0z"/>
 <path fill-rule="evenodd" fill="url(#linearGradient3956)" d="m96,457,320,0-3,12-314,0z"/>
 <path fill-rule="evenodd" fill="url(#linearGradient3926)" d="m96,457,6,0-3,12z"/>
 <path fill-rule="evenodd" fill="url(#linearGradient3930)" d="m410,457,6,0-3,12z"/>
 <path d="m80,468.25a11.75,9.75,0,1,1,-23.5,0,11.75,9.75,0,1,1,23.5,0z" fill-rule="evenodd" transform="matrix(1.0212766,0,0,1.0256431,369.29787,-16.257413)" fill="url(#linearGradient3935)"/>
 <path d="m80,468.25a11.75,9.75,0,1,1,-23.5,0,11.75,9.75,0,1,1,23.5,0z" fill-rule="evenodd" fill-opacity="0.29411765" transform="matrix(0.76595745,0,0,0.71795019,386.7234,128.8198)" fill="#000"/>
 <path d="m80,468.25a11.75,9.75,0,1,1,-23.5,0,11.75,9.75,0,1,1,23.5,0z" fill-rule="evenodd" transform="matrix(0.76595745,0,0,0.71795019,386.7234,127.8198)" fill="url(#linearGradient3914)"/>
 <path d="m80,468.25a11.75,9.75,0,1,1,-23.5,0,11.75,9.75,0,1,1,23.5,0z" stroke-opacity="0.07843137" transform="matrix(0.72340426,0,0,0.66666804,389.62766,151.83267)" stroke="#FFF" stroke-dasharray="none" stroke-miterlimit="4" stroke-width="1.43997407" fill="none"/>
 <path d="m439,460-4,4,8,0zm-4,6,0,2,8,0,0-2z" fill-opacity="0.05882353" fill-rule="evenodd" fill="#FFF"/>
 <path d="m80,468.25a11.75,9.75,0,1,1,-23.5,0,11.75,9.75,0,1,1,23.5,0z" fill-rule="evenodd" transform="matrix(0.76595745,0,0,0.71795019,18.723404,127.8198)" fill="url(#linearGradient3935)"/>
 <path d="m80,468.25a11.75,9.75,0,1,1,-23.5,0,11.75,9.75,0,1,1,23.5,0z" fill-rule="evenodd" fill-opacity="0.29411765" transform="matrix(0.42553191,0,0,0.41025725,41.957447,272.89703)" fill="#000"/>
 <path d="m80,468.25a11.75,9.75,0,1,1,-23.5,0,11.75,9.75,0,1,1,23.5,0z" fill-rule="evenodd" transform="matrix(0.76595745,0,0,0.71795019,18.723404,127.8198)" fill="url(#radialGradient3944)"/>
 <path d="m80,468.25a11.75,9.75,0,1,1,-23.5,0,11.75,9.75,0,1,1,23.5,0z" fill-rule="evenodd" transform="matrix(0.42553191,0,0,0.41025725,41.957447,271.89703)" fill="url(#radialGradient3938)"/>
 <path d="m54.801,430.59a4.4194,5.922,0,1,1,-8.8388,0,4.4194,5.922,0,1,1,8.8388,0z" fill-rule="evenodd" transform="matrix(2.71529,0,0,1.8574745,-81.800001,-369.81799)" fill="url(#linearGradient3159)"/>
 <path d="m54.801,430.59a4.4194,5.922,0,1,1,-8.8388,0,4.4194,5.922,0,1,1,8.8388,0z" fill-rule="evenodd" transform="matrix(2.0364675,0,0,1.1820292,-47.600001,-77.975071)" fill="#afafaf"/>
 <path d="m54.801,430.59a4.4194,5.922,0,1,1,-8.8388,0,4.4194,5.922,0,1,1,8.8388,0z" fill-rule="evenodd" transform="matrix(2.0364675,0,0,1.1820292,-47.600001,-78.975071)" fill="#f0f0f0"/>
 <path d="m54.801,430.59a4.4194,5.922,0,1,1,-8.8388,0,4.4194,5.922,0,1,1,8.8388,0z" fill-rule="evenodd" transform="matrix(2.0364675,0,0,1.1820292,-47.600001,-79.975071)" fill="url(#radialGradient3161)"/>
 <path d="m54,431.95-2.8144-7.1361-7.1361-2.8144,7.1361-2.8144,2.8144-7.1361,2.8144,7.1361,7.1361,2.8144-7.1361,2.8144z" fill-rule="evenodd" fill-opacity="0.49019608" transform="matrix(0.50248488,0,0,0.50248488,27.865816,217.95137)" fill="#FFF"/>
 <path d="m54,431.95-2.8144-7.1361-7.1361-2.8144,7.1361-2.8144,2.8144-7.1361,2.8144,7.1361,7.1361,2.8144-7.1361,2.8144z" fill-rule="evenodd" transform="matrix(0.50248488,0,0,0.50248488,27.865816,216.95137)" fill="url(#linearGradient3169)"/>
 <path d="m54.801,430.59a4.4194,5.922,0,1,1,-8.8388,0,4.4194,5.922,0,1,1,8.8388,0z" fill-rule="evenodd" transform="matrix(2.71529,0,0,1.8574745,320.2,-369.81799)" fill="url(#linearGradient3159)"/>
 <path d="m54.801,430.59a4.4194,5.922,0,1,1,-8.8388,0,4.4194,5.922,0,1,1,8.8388,0z" fill-rule="evenodd" transform="matrix(2.0364675,0,0,1.1820292,354.4,-77.975071)" fill="#afafaf"/>
 <path d="m54.801,430.59a4.4194,5.922,0,1,1,-8.8388,0,4.4194,5.922,0,1,1,8.8388,0z" fill-rule="evenodd" transform="matrix(2.0364675,0,0,1.1820292,354.4,-78.975071)" fill="#f0f0f0"/>
 <path d="m54.801,430.59a4.4194,5.922,0,1,1,-8.8388,0,4.4194,5.922,0,1,1,8.8388,0z" fill-rule="evenodd" transform="matrix(2.0364675,0,0,1.1820292,354.4,-79.975071)" fill="url(#radialGradient3161)"/>
 <path d="m54,431.95-2.8144-7.1361-7.1361-2.8144,7.1361-2.8144,2.8144-7.1361,2.8144,7.1361,7.1361,2.8144-7.1361,2.8144z" fill-rule="evenodd" fill-opacity="0.49019608" transform="matrix(0.43516467,0.25124244,-0.25124244,0.43516467,539.52555,232.79341)" fill="#FFF"/>
 <path d="m54,431.95-2.8144-7.1361-7.1361-2.8144,7.1361-2.8144,2.8144-7.1361,2.8144,7.1361,7.1361,2.8144-7.1361,2.8144z" fill-rule="evenodd" transform="matrix(0.43516467,0.25124244,-0.25124244,0.43516467,539.52555,231.79341)" fill="url(#linearGradient3163)"/>
 <path d="m54.801,430.59a4.4194,5.922,0,1,1,-8.8388,0,4.4194,5.922,0,1,1,8.8388,0z" fill-rule="evenodd" transform="matrix(2.0364675,0,0,1.3508905,-0.60000055,-524.68579)" fill="url(#linearGradient4006)"/>
 <path d="m54.801,430.59a4.4194,5.922,0,1,1,-8.8388,0,4.4194,5.922,0,1,1,8.8388,0z" fill-rule="evenodd" transform="matrix(1.357645,0,0,0.67544526,33.6,-232.8429)" fill="#afafaf"/>
 <path d="m54.801,430.59a4.4194,5.922,0,1,1,-8.8388,0,4.4194,5.922,0,1,1,8.8388,0z" fill-rule="evenodd" transform="matrix(1.357645,0,0,0.67544526,33.6,-233.8429)" fill="#e1e1e1"/>
 <path d="m54.801,430.59a4.4194,5.922,0,1,1,-8.8388,0,4.4194,5.922,0,1,1,8.8388,0z" fill-rule="evenodd" transform="matrix(1.357645,0,0,0.67544526,33.6,-234.8429)" fill="url(#radialGradient4008)"/>
 <path d="m54,431.95-2.8144-7.1361-7.1361-2.8144,7.1361-2.8144,2.8144-7.1361,2.8144,7.1361,7.1361,2.8144-7.1361,2.8144z" fill-rule="evenodd" fill-opacity="0.49019608" transform="matrix(0.2610988,0.15074546,-0.15074546,0.2610988,151.51526,-62.323959)" fill="#FFF"/>
 <path d="m54,431.95-2.8144-7.1361-7.1361-2.8144,7.1361-2.8144,2.8144-7.1361,2.8144,7.1361,7.1361,2.8144-7.1361,2.8144z" fill-rule="evenodd" transform="matrix(0.2610988,0.15074546,-0.15074546,0.2610988,151.51526,-63.323959)" fill="url(#linearGradient4012)"/>
 <path d="m54.801,430.59a4.4194,5.922,0,1,1,-8.8388,0,4.4194,5.922,0,1,1,8.8388,0z" fill-rule="evenodd" transform="matrix(2.0364675,0,0,1.3508905,307.4,-524.68579)" fill="url(#linearGradient4006)"/>
 <path d="m54.801,430.59a4.4194,5.922,0,1,1,-8.8388,0,4.4194,5.922,0,1,1,8.8388,0z" fill-rule="evenodd" transform="matrix(1.357645,0,0,0.67544526,341.6,-232.8429)" fill="#afafaf"/>
 <path d="m54.801,430.59a4.4194,5.922,0,1,1,-8.8388,0,4.4194,5.922,0,1,1,8.8388,0z" fill-rule="evenodd" transform="matrix(1.357645,0,0,0.67544526,341.6,-233.8429)" fill="#e1e1e1"/>
 <path d="m54.801,430.59a4.4194,5.922,0,1,1,-8.8388,0,4.4194,5.922,0,1,1,8.8388,0z" fill-rule="evenodd" transform="matrix(1.357645,0,0,0.67544526,341.6,-234.8429)" fill="url(#radialGradient4008)"/>
 <path d="m54,431.95-2.8144-7.1361-7.1361-2.8144,7.1361-2.8144,2.8144-7.1361,2.8144,7.1361,7.1361,2.8144-7.1361,2.8144z" fill-rule="evenodd" fill-opacity="0.49019608" transform="matrix(0.21318628,0.21318628,-0.21318628,0.21318628,488.45256,-45.476677)" fill="#FFF"/>
 <path d="m54,431.95-2.8144-7.1361-7.1361-2.8144,7.1361-2.8144,2.8144-7.1361,2.8144,7.1361,7.1361,2.8144-7.1361,2.8144z" fill-rule="evenodd" transform="matrix(0.21318628,0.21318628,-0.21318628,0.21318628,488.45256,-46.476677)" fill="url(#linearGradient4010)"/>
 <path d="m54.801,430.59a4.4194,5.922,0,1,1,-8.8388,0,4.4194,5.922,0,1,1,8.8388,0z" fill-rule="evenodd" transform="matrix(2.0364675,0,0,1.3508905,153.4,-524.68579)" fill="url(#linearGradient4006)"/>
 <path d="m54.801,430.59a4.4194,5.922,0,1,1,-8.8388,0,4.4194,5.922,0,1,1,8.8388,0z" fill-rule="evenodd" transform="matrix(1.357645,0,0,0.67544526,187.6,-232.8429)" fill="#afafaf"/>
 <path d="m54.801,430.59a4.4194,5.922,0,1,1,-8.8388,0,4.4194,5.922,0,1,1,8.8388,0z" fill-rule="evenodd" transform="matrix(1.357645,0,0,0.67544526,187.6,-233.8429)" fill="#e1e1e1"/>
 <path d="m54.801,430.59a4.4194,5.922,0,1,1,-8.8388,0,4.4194,5.922,0,1,1,8.8388,0z" fill-rule="evenodd" transform="matrix(1.357645,0,0,0.67544526,187.6,-234.8429)" fill="url(#radialGradient4008)"/>
 <path d="m54,431.95-2.8144-7.1361-7.1361-2.8144,7.1361-2.8144,2.8144-7.1361,2.8144,7.1361,7.1361,2.8144-7.1361,2.8144z" fill-rule="evenodd" fill-opacity="0.49019608" transform="matrix(0.15074546,0.2610988,-0.2610988,0.15074546,358.04377,-21.713927)" fill="#FFF"/>
 <path d="m54,431.95-2.8144-7.1361-7.1361-2.8144,7.1361-2.8144,2.8144-7.1361,2.8144,7.1361,7.1361,2.8144-7.1361,2.8144z" fill-rule="evenodd" transform="matrix(0.15074546,0.2610988,-0.2610988,0.15074546,358.04377,-22.713927)" fill="url(#linearGradient3201)"/>
 <path d="m54.801,430.59a4.4194,5.922,0,1,1,-8.8388,0,4.4194,5.922,0,1,1,8.8388,0z" fill-rule="evenodd" transform="matrix(2.4890159,0,0,1.6886132,-41.400001,-498.10727)" fill="url(#linearGradient4076)"/>
 <path d="m54.801,430.59a4.4194,5.922,0,1,1,-8.8388,0,4.4194,5.922,0,1,1,8.8388,0z" fill-rule="evenodd" transform="matrix(1.8101934,0,0,1.0131679,-7.2,-206.26435)" fill="#a5a5a5"/>
 <path d="m54.801,430.59a4.4194,5.922,0,1,1,-8.8388,0,4.4194,5.922,0,1,1,8.8388,0z" fill-rule="evenodd" transform="matrix(1.8101934,0,0,1.0131679,-7.2,-207.26435)" fill="#e6e6e6"/>
 <path d="m54.801,430.59a4.4194,5.922,0,1,1,-8.8388,0,4.4194,5.922,0,1,1,8.8388,0z" fill-rule="evenodd" transform="matrix(1.8101934,0,0,1.0131679,-7.2,-208.26435)" fill="url(#radialGradient4078)"/>
 <path d="m54,431.95-2.8144-7.1361-7.1361-2.8144,7.1361-2.8144,2.8144-7.1361,2.8144,7.1361,7.1361,2.8144-7.1361,2.8144z" fill-rule="evenodd" fill-opacity="0.49019608" transform="matrix(0.28424837,-0.28424837,0.28424837,0.28424837,-51.302233,124.39659)" fill="#FFF"/>
 <path d="m54,431.95-2.8144-7.1361-7.1361-2.8144,7.1361-2.8144,2.8144-7.1361,2.8144,7.1361,7.1361,2.8144-7.1361,2.8144z" fill-rule="evenodd" transform="matrix(0.28424837,-0.28424837,0.28424837,0.28424837,-51.302233,123.39659)" fill="url(#linearGradient4080)"/>
 <path d="m54.801,430.59a4.4194,5.922,0,1,1,-8.8388,0,4.4194,5.922,0,1,1,8.8388,0z" fill-rule="evenodd" transform="matrix(2.4890159,0,0,1.6886132,302.6,-498.10727)" fill="url(#linearGradient4076)"/>
 <path d="m54.801,430.59a4.4194,5.922,0,1,1,-8.8388,0,4.4194,5.922,0,1,1,8.8388,0z" fill-rule="evenodd" transform="matrix(1.8101934,0,0,1.0131679,336.8,-206.26435)" fill="#a5a5a5"/>
 <path d="m54.801,430.59a4.4194,5.922,0,1,1,-8.8388,0,4.4194,5.922,0,1,1,8.8388,0z" fill-rule="evenodd" transform="matrix(1.8101934,0,0,1.0131679,336.8,-207.26435)" fill="#e6e6e6"/>
 <path d="m54.801,430.59a4.4194,5.922,0,1,1,-8.8388,0,4.4194,5.922,0,1,1,8.8388,0z" fill-rule="evenodd" transform="matrix(1.8101934,0,0,1.0131679,336.8,-208.26435)" fill="url(#radialGradient4078)"/>
 <path d="m54,431.95-2.8144-7.1361-7.1361-2.8144,7.1361-2.8144,2.8144-7.1361,2.8144,7.1361,7.1361,2.8144-7.1361,2.8144z" fill-rule="evenodd" fill-opacity="0.49019608" transform="matrix(0.38829049,-0.10404212,0.10404212,0.38829049,363.12653,70.759674)" fill="#FFF"/>
 <path d="m54,431.95-2.8144-7.1361-7.1361-2.8144,7.1361-2.8144,2.8144-7.1361,2.8144,7.1361,7.1361,2.8144-7.1361,2.8144z" fill-rule="evenodd" transform="matrix(0.38829049,-0.10404212,0.10404212,0.38829049,363.12653,69.759674)" fill="url(#linearGradient4123)"/>
</svg>
