<?xml version="1.0" encoding="UTF-8" standalone="no"?>
<!-- Created with Inkscape (http://www.inkscape.org/) -->
<svg xmlns:rdf="http://www.w3.org/1999/02/22-rdf-syntax-ns#" xmlns="http://www.w3.org/2000/svg" height="16" width="16" version="1.1" xmlns:cc="http://creativecommons.org/ns#" xmlns:xlink="http://www.w3.org/1999/xlink" xmlns:dc="http://purl.org/dc/elements/1.1/">
 <title>Samée - 16 - File blank</title>
 <metadata>
  <rdf:RDF>
   <cc:Work rdf:about="">
    <dc:format>image/svg+xml</dc:format>
    <dc:type rdf:resource="http://purl.org/dc/dcmitype/StillImage"/>
    <dc:title>Samée - 16 - File blank</dc:title>
    <dc:date>2011-04-05</dc:date>
    <dc:creator>
     <cc:Agent>
      <dc:title>Harenome Ranaivoarivony Razanajato</dc:title>
     </cc:Agent>
    </dc:creator>
    <cc:license rdf:resource="http://creativecommons.org/licenses/by/3.0/"/>
    <dc:subject>
     <rdf:Bag>
      <rdf:li>empty</rdf:li>
      <rdf:li>gnome-fs-regular</rdf:li>
      <rdf:li>gtk-file</rdf:li>
      <rdf:li>text-x-preview</rdf:li>
     </rdf:Bag>
    </dc:subject>
   </cc:Work>
   <cc:License rdf:about="http://creativecommons.org/licenses/by/3.0/">
    <cc:permits rdf:resource="http://creativecommons.org/ns#Reproduction"/>
    <cc:permits rdf:resource="http://creativecommons.org/ns#Distribution"/>
    <cc:requires rdf:resource="http://creativecommons.org/ns#Notice"/>
    <cc:requires rdf:resource="http://creativecommons.org/ns#Attribution"/>
    <cc:permits rdf:resource="http://creativecommons.org/ns#DerivativeWorks"/>
   </cc:License>
  </rdf:RDF>
 </metadata>
 <defs>
  <linearGradient id="corner-shadow-gradient">
   <stop stop-color="#000" stop-opacity="0.03921569" offset="0"/>
   <stop stop-color="#000" stop-opacity="0.02745098" offset="1"/>
  </linearGradient>
  <radialGradient id="radialGradient3960" gradientUnits="userSpaceOnUse" cy="91.075" cx="414.85" gradientTransform="matrix(0.04499237,0,0,0.05586257,-5.9500948,109.69045)" r="40.5">
   <stop stop-color="#ebebeb" offset="0"/>
   <stop stop-color="#FFF" offset="1"/>
  </radialGradient>
  <radialGradient id="radialGradient3986" xlink:href="#corner-shadow-gradient" gradientUnits="userSpaceOnUse" cy="101.75" cx="379.3" gradientTransform="matrix(0.03234139,0,0,0.04015511,-0.27115871,111.14014)" r="40.5"/>
  <radialGradient id="radialGradient4004" spreadMethod="reflect" gradientUnits="userSpaceOnUse" cy="415.69" cx="377" gradientTransform="matrix(0.04205364,3.5651423e-4,-3.4921394e-4,0.04166326,-3.7835226,108.52032)" r="185">
   <stop stop-color="#FFF" offset="0"/>
   <stop stop-color="#f0f0f0" offset="1"/>
  </radialGradient>
  <radialGradient id="radialGradient3060" xlink:href="#corner-shadow-gradient" gradientUnits="userSpaceOnUse" cy="101.75" cx="379.3" gradientTransform="matrix(0.03234139,0,0,0.04015511,-0.27115871,111.0491)" r="40.5"/>
  <radialGradient id="radialGradient3062" xlink:href="#corner-shadow-gradient" gradientUnits="userSpaceOnUse" cy="101.75" cx="379.3" gradientTransform="matrix(0.03234139,0,0,0.04015511,-0.27115871,111.14143)" r="40.5"/>
  <radialGradient id="radialGradient3064" xlink:href="#corner-shadow-gradient" gradientUnits="userSpaceOnUse" cy="101.75" cx="379.3" gradientTransform="matrix(0.03234139,0,0,0.04015511,-0.27115871,111.23395)" r="40.5"/>
  <radialGradient id="radialGradient3066" xlink:href="#corner-shadow-gradient" gradientUnits="userSpaceOnUse" cy="101.75" cx="379.3" gradientTransform="matrix(0.03234139,0,0,0.04015511,-0.27115871,111.3264)" r="40.5"/>
  <radialGradient id="radialGradient3068" xlink:href="#corner-shadow-gradient" gradientUnits="userSpaceOnUse" cy="101.75" cx="379.3" gradientTransform="matrix(0.03234139,0,0,0.04015511,-0.27115871,111.04762)" r="40.5"/>
  <radialGradient id="radialGradient3829" spreadMethod="reflect" gradientUnits="userSpaceOnUse" cy="114.21" cx="49.25" gradientTransform="matrix(0.29109538,0,0,0.35292811,-1.7487994,85.180459)" r="24">
   <stop stop-color="#e1e1e1" offset="0"/>
   <stop stop-color="#d2d2d2" offset="1"/>
  </radialGradient>
 </defs>
 <g transform="translate(0,-112)" stroke-width="1">
  <path d="m1.5,112.5,9.5,0c0.61876,0,3.5,3.8796,3.5,4.5v10.5h-13z" stroke="url(#radialGradient3829)" fill="url(#radialGradient4004)"/>
  <path d="m2.5,113.5,8,0c0.61876,0,3,3.3796,3,4v9h-11z" stroke-opacity="0.88235294" stroke="#FFF" fill="none"/>
 </g>
 <g transform="translate(0,-112)">
  <path d="m8.5,113c0.60675,0,5.5,4.8847,5.5,5.5-0.15788-0.59255-4.76-1.1994-5.5-1,0.23781-0.89259,0.6641-4.1144,0-4.5z" fill="url(#radialGradient3060)"/>
  <path fill="url(#radialGradient3062)" d="m8.75,113c0.60674,0,5.25,4.6347,5.25,5.25-0.15788-0.59255-4.51-1.1994-5.25-1,0.23781-0.89257,0.6641-3.8644,0-4.25z"/>
  <path d="m9,113c0.60675,0,5,4.3847,5,5-0.15788-0.59255-4.26-1.1994-5-1,0.23781-0.89258,0.6641-3.6144,0-4z" fill="url(#radialGradient3064)"/>
  <path fill="url(#radialGradient3066)" d="m9.25,113c0.60675,0,4.75,4.1347,4.75,4.75-0.15788-0.59255-4.01-1.1994-4.75-1,0.23781-0.89258,0.6641-3.3644,0-3.75z"/>
  <path d="m9.5,113c0.60674,0,4.5,3.8848,4.5,4.5-0.15788-0.59255-3.76-1.1994-4.5-1,0.23781-0.89259,0.6641-3.1144,0-3.5z" fill="url(#radialGradient3068)"/>
  <path fill="url(#radialGradient3986)" d="m9.75,113c0.60674,0,4.25,3.6348,4.25,4.25-0.15788-0.59255-3.51-1.1994-4.25-1,0.23781-0.89258,0.6641-2.8644,0-3.25z"/>
  <path fill="url(#radialGradient3960)" d="m10,113c0.60674,0,4,3.3847,4,4-0.15788-0.59255-3.26-1.1994-4-1,0.23781-0.89258,0.6641-2.6144,0-3z"/>
  <path d="m10,113.5c0.60674,0,3.5,2.8847,3.5,3.5-0.15787-0.59255-2.26-1.6994-3-1.5,0.23781-0.89258,0.1641-1.6144-0.5-2z" stroke-opacity="0.29411765" stroke="#FFF" stroke-width="1" fill="none"/>
 </g>
</svg>
