<?xml version="1.0" encoding="UTF-8" standalone="no"?>
<!-- Created with Inkscape (http://www.inkscape.org/) -->
<svg xmlns:rdf="http://www.w3.org/1999/02/22-rdf-syntax-ns#" xmlns="http://www.w3.org/2000/svg" height="96" width="96" version="1.1" xmlns:cc="http://creativecommons.org/ns#" xmlns:xlink="http://www.w3.org/1999/xlink" xmlns:dc="http://purl.org/dc/elements/1.1/">
 <title>Samée - 96 - File blank</title>
 <metadata>
  <rdf:RDF>
   <cc:Work rdf:about="">
    <dc:format>image/svg+xml</dc:format>
    <dc:type rdf:resource="http://purl.org/dc/dcmitype/StillImage"/>
    <dc:title>Samée - 96 - File blank</dc:title>
    <dc:date>2011-04-05</dc:date>
    <dc:creator>
     <cc:Agent>
      <dc:title>Harenome Ranaivoarivony Razanajato</dc:title>
     </cc:Agent>
    </dc:creator>
    <cc:license rdf:resource="http://creativecommons.org/licenses/by/3.0/"/>
    <dc:subject>
     <rdf:Bag>
      <rdf:li>empty</rdf:li>
      <rdf:li>gnome-fs-regular</rdf:li>
      <rdf:li>gtk-file</rdf:li>
      <rdf:li>text-x-preview</rdf:li>
     </rdf:Bag>
    </dc:subject>
   </cc:Work>
   <cc:License rdf:about="http://creativecommons.org/licenses/by/3.0/">
    <cc:permits rdf:resource="http://creativecommons.org/ns#Reproduction"/>
    <cc:permits rdf:resource="http://creativecommons.org/ns#Distribution"/>
    <cc:requires rdf:resource="http://creativecommons.org/ns#Notice"/>
    <cc:requires rdf:resource="http://creativecommons.org/ns#Attribution"/>
    <cc:permits rdf:resource="http://creativecommons.org/ns#DerivativeWorks"/>
   </cc:License>
  </rdf:RDF>
 </metadata>
 <defs>
  <linearGradient id="corner-shadow-gradient">
   <stop stop-color="#000" stop-opacity="0.02745098" offset="0"/>
   <stop stop-color="#000" stop-opacity="0.00392157" offset="1"/>
  </linearGradient>
  <linearGradient id="bottom-shadow-gradient">
   <stop stop-color="#000" stop-opacity="0.04705882" offset="0"/>
   <stop stop-color="#000" stop-opacity="0.02352941" offset="0.9"/>
   <stop stop-color="#000" stop-opacity="0" offset="1"/>
  </linearGradient>
  <linearGradient id="back-shadow-gradient">
   <stop stop-color="#000" stop-opacity="0.00784314" offset="0"/>
   <stop stop-color="#000" stop-opacity="0.03137255" offset="1"/>
  </linearGradient>
  <linearGradient id="linearGradient3886" y2="482.01" xlink:href="#back-shadow-gradient" gradientUnits="userSpaceOnUse" x2="145.95" gradientTransform="matrix(0.18440961,0,0,0.18468506,0.7869988,32.557175)" y1="31.026" x1="145.95"/>
  <linearGradient id="linearGradient3898" y2="484.01" xlink:href="#back-shadow-gradient" gradientUnits="userSpaceOnUse" x2="145.95" gradientTransform="matrix(0.18440961,0,0,0.18468506,0.7869988,32.00242)" y1="31.023" x1="145.95"/>
  <linearGradient id="linearGradient3900" y2="486.02" xlink:href="#back-shadow-gradient" gradientUnits="userSpaceOnUse" x2="145.95" gradientTransform="matrix(0.18440961,0,0,0.18468506,0.7869988,31.448022)" y1="31.022" x1="145.95"/>
  <linearGradient id="linearGradient3902" y2="488.02" xlink:href="#back-shadow-gradient" gradientUnits="userSpaceOnUse" x2="145.95" gradientTransform="matrix(0.18440961,0,0,0.18468506,0.7869988,32.380446)" y1="31.019" x1="145.95"/>
  <linearGradient id="linearGradient3904" y2="490.02" xlink:href="#back-shadow-gradient" gradientUnits="userSpaceOnUse" x2="145.95" gradientTransform="matrix(0.18440961,0,0,0.18468506,0.7869988,31.825319)" y1="31.018" x1="145.95"/>
  <linearGradient id="linearGradient3906" y2="492.02" xlink:href="#back-shadow-gradient" gradientUnits="userSpaceOnUse" x2="145.95" gradientTransform="matrix(0.18440961,0,0,0.18468506,0.7869988,31.270557)" y1="31.015" x1="145.95"/>
  <linearGradient id="linearGradient3928" y2="480" xlink:href="#bottom-shadow-gradient" spreadMethod="reflect" gradientUnits="userSpaceOnUse" x2="444" gradientTransform="matrix(0.19414893,0,0,0.125,-1.7021261,62.00001)" y1="480" x1="255.99"/>
  <linearGradient id="linearGradient3932" y2="480" xlink:href="#bottom-shadow-gradient" spreadMethod="reflect" gradientUnits="userSpaceOnUse" x2="444" gradientTransform="matrix(0.19680849,0,0,0.25,-2.3829789,2.000004)" y1="480" x1="255.99"/>
  <linearGradient id="linearGradient3936" y2="480" xlink:href="#bottom-shadow-gradient" spreadMethod="reflect" gradientUnits="userSpaceOnUse" x2="444" gradientTransform="matrix(0.19946807,0,0,0.37499996,-3.0638289,-58.000015)" y1="480" x1="255.99"/>
  <linearGradient id="linearGradient3940" y2="480" xlink:href="#bottom-shadow-gradient" spreadMethod="reflect" gradientUnits="userSpaceOnUse" x2="444" gradientTransform="matrix(0.20212765,0,0,0.50000002,-3.74468,-118.00002)" y1="480" x1="255.99"/>
  <linearGradient id="linearGradient3944" y2="480" xlink:href="#bottom-shadow-gradient" spreadMethod="reflect" gradientUnits="userSpaceOnUse" x2="444" gradientTransform="matrix(0.20478723,0,0,0.625,-4.4255326,-178)" y1="480" x1="255.99"/>
  <linearGradient id="linearGradient3948" y2="480" xlink:href="#bottom-shadow-gradient" spreadMethod="reflect" gradientUnits="userSpaceOnUse" x2="444" gradientTransform="matrix(0.20744681,0,0,0.74999998,-5.1063833,-238.00003)" y1="480" x1="255.99"/>
  <radialGradient id="radialGradient3960" gradientUnits="userSpaceOnUse" cy="98.61" cx="423.83" gradientTransform="matrix(0.27110458,0,0,0.33519696,-35.957328,18.144324)" r="40.5">
   <stop stop-color="#ebebeb" offset="0"/>
   <stop stop-color="#FFF" offset="1"/>
  </radialGradient>
  <linearGradient id="linearGradient3971" y2="98.553" gradientUnits="userSpaceOnUse" x2="364.86" gradientTransform="matrix(0.18440961,0,0,0.18468506,0.7869988,32.266736)" y1="67.902" x1="401.38">
   <stop stop-color="#FFF" stop-opacity="0.68627453" offset="0"/>
   <stop stop-color="#f0f0f0" stop-opacity="0.39215687" offset="0.25"/>
   <stop stop-color="#FFF" stop-opacity="0.09803922" offset="0.45"/>
   <stop stop-color="#323232" stop-opacity="0.19607843" offset="1"/>
  </linearGradient>
  <radialGradient id="radialGradient3986" xlink:href="#corner-shadow-gradient" gradientUnits="userSpaceOnUse" cy="101.75" cx="379.3" gradientTransform="matrix(0.19487526,0,0,0.2409461,-3.1825985,26.843015)" r="40.5"/>
  <radialGradient id="radialGradient4004" spreadMethod="reflect" gradientUnits="userSpaceOnUse" cy="415.69" cx="377" gradientTransform="matrix(0.25339711,0.00213923,-0.00210422,0.24999565,-24.346587,11.123114)" r="185">
   <stop stop-color="#FFF" offset="0"/>
   <stop stop-color="#f0f0f0" offset="1"/>
  </radialGradient>
  <radialGradient id="radialGradient3844" gradientUnits="userSpaceOnUse" cy="97.135" cx="401.35" gradientTransform="matrix(0.70772051,0,0,0.90553996,-82.528325,-42.94878)" r="43">
   <stop stop-color="#000" stop-opacity="0.19607843" offset="0"/>
   <stop stop-color="#000" stop-opacity="0" offset="1"/>
  </radialGradient>
  <radialGradient id="radialGradient3060" xlink:href="#corner-shadow-gradient" gradientUnits="userSpaceOnUse" cy="101.75" cx="379.3" gradientTransform="matrix(0.19487526,0,0,0.2409461,-3.1825985,26.296752)" r="40.5"/>
  <radialGradient id="radialGradient3062" xlink:href="#corner-shadow-gradient" gradientUnits="userSpaceOnUse" cy="101.75" cx="379.3" gradientTransform="matrix(0.19487526,0,0,0.2409461,-3.1825985,26.850771)" r="40.5"/>
  <radialGradient id="radialGradient3064" xlink:href="#corner-shadow-gradient" gradientUnits="userSpaceOnUse" cy="101.75" cx="379.3" gradientTransform="matrix(0.19487526,0,0,0.2409461,-3.1825985,27.405898)" r="40.5"/>
  <radialGradient id="radialGradient3066" xlink:href="#corner-shadow-gradient" gradientUnits="userSpaceOnUse" cy="101.75" cx="379.3" gradientTransform="matrix(0.19487526,0,0,0.2409461,-3.1825985,27.96066)" r="40.5"/>
  <radialGradient id="radialGradient3068" xlink:href="#corner-shadow-gradient" gradientUnits="userSpaceOnUse" cy="101.75" cx="379.3" gradientTransform="matrix(0.19487526,0,0,0.2409461,-3.1825985,26.287881)" r="40.5"/>
  <filter id="filter3858" color-interpolation-filters="sRGB">
   <feGaussianBlur stdDeviation="1.125"/>
  </filter>
 </defs>
 <g transform="translate(0,-32)">
  <rect fill-rule="evenodd" rx="0.82979" ry="3" height="6" width="78" y="119" x="9" fill="url(#linearGradient3948)"/>
  <rect fill-rule="evenodd" rx="0.81915" ry="2.5" height="5" width="77" y="119.5" x="9.5" fill="url(#linearGradient3944)"/>
  <rect fill-rule="evenodd" rx="0.80851" ry="2" height="4" width="76" y="120" x="10" fill="url(#linearGradient3940)"/>
  <rect fill-rule="evenodd" rx="0.79787" ry="1.5" height="3" width="75" y="120.5" x="10.5" fill="url(#linearGradient3936)"/>
  <rect fill-rule="evenodd" rx="0.78723" ry="1" height="2" width="74" y="121" x="11" fill="url(#linearGradient3932)"/>
  <rect fill-rule="evenodd" rx="0.7766" ry="0.5" height="1" width="73" y="121.5" x="11.5" fill="url(#linearGradient3928)"/>
  <path fill="url(#linearGradient3906)" d="m12,36,55,0c3.7284,0,17,17.277,17,21v67h-72z"/>
  <path d="m12.25,36.25,54.75,0c3.7284,0,16.75,17.027,16.75,20.75v66.75h-71.5z" fill="url(#linearGradient3904)"/>
  <path fill="url(#linearGradient3902)" d="m12.5,36.5,54.5,0c3.7284,0,16.5,16.777,16.5,20.5v66.5h-71z"/>
  <path d="m12.75,36.75,54.25,0c3.7284,0,16.25,16.527,16.25,20.25v66.25h-70.5z" fill="url(#linearGradient3900)"/>
  <path fill="url(#linearGradient3898)" d="m13,37,54,0c3.7284,0,16,16.277,16,20v66h-70z"/>
  <path d="m13.25,37.25,53.75,0c3.7284,0,15.75,16.027,15.75,19.75v65.75h-69.5z" fill="url(#linearGradient3886)"/>
  <path fill="url(#radialGradient4004)" d="m14,38,53,0c3.7284,0,15,15.277,15,19v65h-68z"/>
  <path d="m14.5,38.5,52,0c3.7284,0,15,15.277,15,19v64h-67z" stroke-opacity="0.19607843" stroke="#FFF" stroke-width="1" fill="none"/>
 </g>
 <g transform="translate(0,-32)">
  <path d="m180.15,16.625c3.7071,0,40.567,47.442,40.567,51.327-2.5727-9.6049-25.804-11.336-37.863-8.1042,3.8754-14.468,8.1178-36.972-2.7045-43.222z" transform="matrix(0.36975531,0,0,0.37017837,0.3900967,31.845699)" filter="url(#filter3858)" fill="url(#radialGradient3844)"/>
  <path d="M64,38c3.656,0,18,18.308,18,22-0.951-3.556-11.541-5.696-16-4.5,1.433-5.356,2.002-15.186-2-17.5z" fill="url(#radialGradient3060)"/>
  <path fill="url(#radialGradient3062)" d="M64.5,38c3.656,0,17.5,17.808,17.5,21.5-0.951-3.556-11.041-5.697-15.5-4.5,1.4329-5.3558,2.0016-14.686-2-17z"/>
  <path d="M65,38c3.656,0,17,17.308,17,21-0.951-3.556-10.541-5.697-15-4.5,1.433-5.356,2.002-14.186-2-16.5z" fill="url(#radialGradient3064)"/>
  <path fill="url(#radialGradient3066)" d="M65.5,38c3.656,0,16.5,16.808,16.5,20.5-0.951-3.556-10.041-5.697-14.5-4.5,1.433-5.3558,2.0016-13.686-2-16z"/>
  <path d="M66,38c3.656,0,16,16.308,16,20-0.951-3.556-9.541-5.697-14-4.5,1.433-5.356,2.002-13.186-2-15.5z" fill="url(#radialGradient3068)"/>
  <path fill="url(#radialGradient3986)" d="M66.5,38c3.656,0,15.5,15.808,15.5,19.5-0.951-3.556-9.041-5.697-13.5-4.5,1.433-5.3558,2.0016-12.686-2-15z"/>
  <path fill="url(#radialGradient3960)" d="m67,38c3.656,0,15,15.308,15,19-0.95128-3.5555-8.5412-6.1965-13-5,1.433-5.3558,2.0016-11.686-2-14z"/>
  <path d="m67,38c3.656,0,15,15.308,15,19-0.95128-3.5555-8.5412-6.1965-13-5,1.433-5.3558,2.0016-11.686-2-14z" fill="url(#linearGradient3971)"/>
  <path d="m67.5,38.5c3.656,0,14,14.308,14,18-0.95128-3.5555-7.5413-6.1965-12-5,1.433-5.356,2.002-10.686-2-13z" stroke-opacity="0.29411765" stroke="#FFF" stroke-width="1" fill="none"/>
 </g>
</svg>
