<?xml version="1.0" encoding="UTF-8" standalone="no"?>
<!-- Created with Inkscape (http://www.inkscape.org/) -->
<svg xmlns:rdf="http://www.w3.org/1999/02/22-rdf-syntax-ns#" xmlns="http://www.w3.org/2000/svg" height="96" width="96" version="1.1" xmlns:cc="http://creativecommons.org/ns#" xmlns:xlink="http://www.w3.org/1999/xlink" xmlns:dc="http://purl.org/dc/elements/1.1/">
 <title>Samée - 96px - Removable</title>
 <metadata>
  <rdf:RDF>
   <cc:Work rdf:about="">
    <dc:format>image/svg+xml</dc:format>
    <dc:type rdf:resource="http://purl.org/dc/dcmitype/StillImage"/>
    <dc:title>Samée - 96px - Removable</dc:title>
    <dc:date>2011-03-25</dc:date>
    <dc:creator>
     <cc:Agent>
      <dc:title>Harenome Ranaivoarivony Razanajato</dc:title>
     </cc:Agent>
    </dc:creator>
    <dc:description/>
    <cc:license rdf:resource="http://creativecommons.org/licenses/by/3.0/"/>
    <dc:subject>
     <rdf:Bag>
      <rdf:li>hard</rdf:li>
      <rdf:li>disk</rdf:li>
      <rdf:li>drive</rdf:li>
      <rdf:li>removable</rdf:li>
      <rdf:li>drive-removable</rdf:li>
     </rdf:Bag>
    </dc:subject>
   </cc:Work>
   <cc:License rdf:about="http://creativecommons.org/licenses/by/3.0/">
    <cc:permits rdf:resource="http://creativecommons.org/ns#Reproduction"/>
    <cc:permits rdf:resource="http://creativecommons.org/ns#Distribution"/>
    <cc:requires rdf:resource="http://creativecommons.org/ns#Notice"/>
    <cc:requires rdf:resource="http://creativecommons.org/ns#Attribution"/>
    <cc:permits rdf:resource="http://creativecommons.org/ns#DerivativeWorks"/>
   </cc:License>
  </rdf:RDF>
 </metadata>
 <defs>
  <linearGradient id="screw-middle-gradient">
   <stop stop-color="#ebebeb" offset="0"/>
   <stop stop-color="#b4b4b4" offset="1"/>
  </linearGradient>
  <linearGradient id="screw-gradient">
   <stop stop-color="#f5f5f5" offset="0"/>
   <stop stop-color="#b9b9b9" offset="1"/>
  </linearGradient>
  <linearGradient id="screw-back-gradient">
   <stop stop-color="#ebebeb" offset="0"/>
   <stop stop-color="#afafaf" offset="1"/>
  </linearGradient>
  <linearGradient id="floor-shadow-gradient">
   <stop stop-color="#000" stop-opacity="0.09803922" offset="0"/>
   <stop stop-color="#000" stop-opacity="0.07843138" offset="0.93"/>
   <stop stop-color="#000" stop-opacity="0" offset="1"/>
  </linearGradient>
  <linearGradient id="linearGradient3622" y2="120.25" gradientUnits="userSpaceOnUse" x2="64" gradientTransform="matrix(0.7982267,0,0,0.79811353,-2.5842417,-6.97043)" y1="108.97" x1="64">
   <stop stop-color="#4b4b4b" offset="0"/>
   <stop stop-color="#1e1e1e" offset="1"/>
  </linearGradient>
  <linearGradient id="linearGradient3640" y2="107.25" gradientUnits="userSpaceOnUse" x2="41.794" gradientTransform="matrix(0.79822673,0,0,0.79811352,-2.4509497,-9.424885)" y1="17.157" x1="41.794">
   <stop stop-color="#c8c8c8" offset="0"/>
   <stop stop-color="#ebebeb" offset="1"/>
  </linearGradient>
  <linearGradient id="linearGradient3982" y2="88.5" xlink:href="#floor-shadow-gradient" spreadMethod="reflect" gradientUnits="userSpaceOnUse" x2="474" gradientTransform="matrix(0.19724771,0,0,0.26666667,-2.4954135,63.649943)" y1="88.5" x1="256"/>
  <linearGradient id="linearGradient3988" y2="88.5" xlink:href="#floor-shadow-gradient" spreadMethod="reflect" gradientUnits="userSpaceOnUse" x2="474" gradientTransform="matrix(0.19839451,0,0,0.3,-2.7889915,60.699947)" y1="88.5" x1="256"/>
  <linearGradient id="linearGradient3992" y2="88.5" xlink:href="#floor-shadow-gradient" spreadMethod="reflect" gradientUnits="userSpaceOnUse" x2="474" gradientTransform="matrix(0.1995413,0,0,0.33333339,-3.0825695,57.749966)" y1="88.5" x1="256"/>
  <linearGradient id="linearGradient3996" y2="88.5" xlink:href="#floor-shadow-gradient" spreadMethod="reflect" gradientUnits="userSpaceOnUse" x2="474" gradientTransform="matrix(0.20068805,0,0,0.36666669,-3.3761461,54.799955)" y1="88.5" x1="256"/>
  <linearGradient id="linearGradient4000" y2="88.5" xlink:href="#floor-shadow-gradient" spreadMethod="reflect" gradientUnits="userSpaceOnUse" x2="474" gradientTransform="matrix(0.2018349,0,0,0.40000008,-3.6697252,51.849908)" y1="88.5" x1="256"/>
  <linearGradient id="linearGradient4004" y2="88.5" xlink:href="#floor-shadow-gradient" spreadMethod="reflect" gradientUnits="userSpaceOnUse" x2="474" gradientTransform="matrix(0.20298168,0,0,0.43333336,-3.9633028,48.899931)" y1="88.5" x1="256"/>
  <linearGradient id="linearGradient3871" y2="112.25" gradientUnits="userSpaceOnUse" x2="83" gradientTransform="matrix(0.79822673,0,0,0.79811352,-3.081796,-7.404661)" y1="12" x1="83">
   <stop stop-color="#c3c3c3" offset="0"/>
   <stop stop-color="#e1e1e1" offset="1"/>
  </linearGradient>
  <linearGradient id="linearGradient3881" y2="451.2" gradientUnits="userSpaceOnUse" x2="145" gradientTransform="matrix(0.19955669,0,0,0.19952839,-2.7851365,-7.608324)" y1="53.39" x1="145">
   <stop stop-color="#FFF" stop-opacity="0.11764706" offset="0"/>
   <stop stop-color="#FFF" stop-opacity="0.25490198" offset="1"/>
  </linearGradient>
  <linearGradient id="linearGradient3897" y2="443.25" spreadMethod="reflect" gradientUnits="userSpaceOnUse" x2="479" gradientTransform="matrix(0.19955669,0,0,0.19952839,-3.1851489,-7.600267)" y1="443.25" x1="253.88">
   <stop stop-color="#f5f5f5" offset="0"/>
   <stop stop-color="#ebebeb" offset="0.95"/>
   <stop stop-color="#dcdcdc" stop-opacity="0" offset="1"/>
  </linearGradient>
  <linearGradient id="linearGradient3894" y2="427" gradientUnits="userSpaceOnUse" x2="256" gradientTransform="matrix(0.19955669,0,0,0.19952839,-2.7851365,-10.024009)" y1="62" x1="256">
   <stop stop-color="#FFF" stop-opacity="0.07843138" offset="0"/>
   <stop stop-color="#FFF" stop-opacity="0.33333334" offset="1"/>
  </linearGradient>
  <radialGradient id="radialGradient3938" gradientUnits="userSpaceOnUse" cy="456.5" cx="68.25" gradientTransform="matrix(2.626409,0,0,2.1793562,-111.00241,-536.3761)" r="11.75">
   <stop stop-color="#b6f78f" offset="0"/>
   <stop stop-color="#187e18" offset="1"/>
  </radialGradient>
  <radialGradient id="radialGradient3161" xlink:href="#screw-gradient" gradientUnits="userSpaceOnUse" cy="434.65" cx="50.353" gradientTransform="matrix(1.9977837,0,0,2.6770303,-50.212597,-727.04482)" r="4.4194"/>
  <radialGradient id="radialGradient4008" xlink:href="#screw-back-gradient" gradientUnits="userSpaceOnUse" cy="434.65" cx="50.353" gradientTransform="matrix(1.9977837,0,0,2.6770303,-50.212597,-727.04482)" r="4.4194"/>
  <radialGradient id="radialGradient4078" xlink:href="#screw-middle-gradient" gradientUnits="userSpaceOnUse" cy="434.65" cx="50.353" gradientTransform="matrix(1.9977837,0,0,2.6770303,-50.212597,-727.04482)" r="4.4194"/>
  <linearGradient id="linearGradient4192" y2="111" gradientUnits="userSpaceOnUse" x2="70" gradientTransform="matrix(0.80180184,0,0,0.80176204,-3.3153157,-6.576697)" y1="11" x1="70">
   <stop stop-color="#bebebe" offset="0"/>
   <stop stop-color="#c3c3c3" offset="1"/>
  </linearGradient>
  <linearGradient id="linearGradient4202" y2="106" gradientUnits="userSpaceOnUse" x2="77.751" gradientTransform="matrix(0.80180184,0,0,0.80176204,-3.3153157,-8.559887)" y1="16" x1="77.751">
   <stop stop-color="#bebebe" offset="0"/>
   <stop stop-color="#d2d2d2" offset="1"/>
  </linearGradient>
  <linearGradient id="linearGradient4117" y2="85" gradientUnits="userSpaceOnUse" x2="63.69" gradientTransform="translate(0,3)" y1="78" x1="63.69">
   <stop stop-color="#FFF" stop-opacity="0.35294119" offset="0"/>
   <stop stop-color="#FFF" stop-opacity="0.11764706" offset="1"/>
  </linearGradient>
  <linearGradient id="linearGradient4125" y2="86.002" gradientUnits="userSpaceOnUse" x2="70.822" gradientTransform="translate(0,3)" y1="77" x1="70.822">
   <stop stop-color="#373737" offset="0"/>
   <stop stop-color="#1e1e1e" offset="1"/>
  </linearGradient>
 </defs>
 <rect fill-rule="evenodd" rx="2.4804" ry="3.25" height="6.5" width="88.5" y="84" x="3.75" fill="url(#linearGradient4004)"/>
 <rect fill-rule="evenodd" rx="2.3784" ry="3" height="6" width="88" y="84.25" x="4" fill="url(#linearGradient4000)"/>
 <rect fill-rule="evenodd" rx="2.2766" ry="2.75" height="5.5" width="87.5" y="84.5" x="4.25" fill="url(#linearGradient3996)"/>
 <rect fill-rule="evenodd" rx="2.175" ry="2.5" height="5" width="87" y="84.75" x="4.5" fill="url(#linearGradient3992)"/>
 <rect fill-rule="evenodd" rx="2.0736" ry="2.25" height="4.5" width="86.5" y="85" x="4.75" fill="url(#linearGradient3988)"/>
 <rect fill-rule="evenodd" rx="1.9725" ry="2" height="4" width="86" y="85.25" x="5" fill="url(#linearGradient3982)"/>
 <path d="m4.5,79.5,1,7c0.262,0.97767,0.71298,2,2.5,2h80c1.8154,0,2.23-0.99262,2.5-2l1-7z" stroke="url(#linearGradient4125)" fill="url(#linearGradient3622)"/>
 <path d="m5.5,80.5,1,6.5c0.262,0.97767,0.21298,1.5,2,1.5h79c1.8154,0,1.73-0.49262,2-1.5l1-6.5z" stroke="url(#linearGradient4117)" fill="none"/>
 <path d="m4.5,77.5c0,2.5245,2.0003,4,4,4h79c2.2196,0,4-1.4778,4-4l-10.5-65.5c0-0.495-0.783-2.5-3-2.5h-60c-2.2195,0-3,2.0139-3,2.5z" stroke="url(#linearGradient4192)" stroke-width="1" fill="url(#linearGradient3871)"/>
 <path d="m5.5,78c0,2.5245,1.0003,3.5,3,3.5h79c2.2196,0,3-0.97782,3-3.5l-10.5-65.55c0-0.495-0.283-1.95-2.5-1.95h-59c-2.2195,0-2.5,1.5139-2.5,2z" stroke="url(#linearGradient3881)" stroke-width="1" fill="none"/>
 <path stroke-linejoin="round" d="m4.5,77.5c0,2.3294,1.6899,4,4,4h79c2.5256,0,4-1.6522,4-4" stroke="url(#linearGradient3897)" stroke-linecap="round" stroke-miterlimit="4" stroke-dasharray="none" stroke-width="1" fill="none"/>
 <path d="M26.5,14.5c-2.322,0-3.5,2.313-3.5,3.5l-3,17.5c0,2.9874,4,3.2039,4,7,0,4.4612-6,4.9667-6,8l-3.5,22c0,2.7119,2.3876,4,4.5,4h58c2.1216,0,4.5-1.4042,4.5-4l-3.5-22c0-3.0278-6-3.5342-6-8,0-3.8407,4-3.9815,4-7l-3-17.5c0-1.425-1.4588-3.5-3.5-3.5h-15.5c-2.698,0-1.94,3.5-6,3.5-4.046,0-3.359-3.5-6-3.5z" stroke="url(#linearGradient4202)" stroke-width="1" fill="url(#linearGradient3640)"/>
 <path d="m27,15.5c-2.3221,0-3,1.6127-3,2.7996l-3,16.7c0,2.9874,4,3.7039,4,7.5,0,4.4612-6,5.4667-6,8.5l-3.5,21c0,2.7119,1.716,3.5,3.8284,3.5h57.172c2.1216,0,4-0.90422,4-3.5l-3.5-21c0-3.0278-6-4.0342-6-8.5,0-3.8407,4-4.4815,4-7.5l-3-16.7c0-1.425-0.459-2.8-2.5-2.8h-15c-2.698,0-2.44,3.5-6.5,3.5-4.046,0-3.859-3.5-6.5-3.5z" stroke="url(#linearGradient3894)" stroke-width="1" fill="none"/>
 <path d="m80,468.25a11.75,9.75,0,1,1,-23.5,0,11.75,9.75,0,1,1,23.5,0z" fill-rule="evenodd" transform="matrix(0.12765957,0,0,0.15383884,2.7872343,13.465033)" fill="url(#radialGradient3938)"/>
 <path d="m54.801,430.59a4.4194,5.922,0,1,1,-8.8388,0,4.4194,5.922,0,1,1,8.8388,0z" fill-rule="evenodd" transform="matrix(0.45254834,0,0,0.25329197,-13.8,-31.566086)" fill="#b9b9b9"/>
 <path d="m54.801,430.59a4.4194,5.922,0,1,1,-8.8388,0,4.4194,5.922,0,1,1,8.8388,0z" fill-rule="evenodd" transform="matrix(0.45254834,0,0,0.25329197,-13.8,-32.566086)" fill="url(#radialGradient3161)"/>
 <path d="m14.571,105.5a1.0762,1.3057,0,1,1,-2.1525,0,1.0762,1.3057,0,1,1,2.1525,0z" fill-rule="evenodd" transform="matrix(0.92916937,0,0,0.76583611,-3.5387312,-4.7972551)" fill="#afafaf"/>
 <path d="m54.801,430.59a4.4194,5.922,0,1,1,-8.8388,0,4.4194,5.922,0,1,1,8.8388,0z" fill-rule="evenodd" transform="matrix(0.45254834,0,0,0.25329197,63.2,-31.566086)" fill="#afafaf"/>
 <path d="m54.801,430.59a4.4194,5.922,0,1,1,-8.8388,0,4.4194,5.922,0,1,1,8.8388,0z" fill-rule="evenodd" transform="matrix(0.45254834,0,0,0.25329197,63.2,-32.566086)" fill="url(#radialGradient3161)"/>
 <path d="m14.571,105.5a1.0762,1.3057,0,1,1,-2.1525,0,1.0762,1.3057,0,1,1,2.1525,0z" fill-rule="evenodd" transform="matrix(0.92916937,0,0,0.76583611,73.461269,-4.7972551)" fill="#afafaf"/>
 <path d="m54.801,430.59a4.4194,5.922,0,1,1,-8.8388,0,4.4194,5.922,0,1,1,8.8388,0z" fill-rule="evenodd" transform="matrix(0.33941126,0,0,0.16886132,2.3999994,-59.710727)" fill="#a5a5a5"/>
 <path d="m54.801,430.59a4.4194,5.922,0,1,1,-8.8388,0,4.4194,5.922,0,1,1,8.8388,0z" fill-rule="evenodd" transform="matrix(0.33941126,0,0,0.16886132,2.3999994,-60.710727)" fill="url(#radialGradient4008)"/>
 <path d="m27.75,14.726a0.83562,0.64892,0,1,1,-1.6712,0,0.83562,0.64892,0,1,1,1.6712,0z" fill-rule="evenodd" transform="matrix(0.59835901,0,0,0.7705081,3.3955376,0.15343833)" fill="#969696"/>
 <path d="m54.801,430.59a4.4194,5.922,0,1,1,-8.8388,0,4.4194,5.922,0,1,1,8.8388,0z" fill-rule="evenodd" transform="matrix(0.33941126,0,0,0.16886132,59.399999,-59.710727)" fill="#a5a5a5"/>
 <path d="m54.801,430.59a4.4194,5.922,0,1,1,-8.8388,0,4.4194,5.922,0,1,1,8.8388,0z" fill-rule="evenodd" transform="matrix(0.33941126,0,0,0.16886132,59.399999,-60.710725)" fill="url(#radialGradient4008)"/>
 <path d="m27.75,14.726a0.83562,0.64892,0,1,1,-1.6712,0,0.83562,0.64892,0,1,1,1.6712,0z" fill-rule="evenodd" transform="matrix(0.59835901,0,0,0.7704699,60.395538,0.15402565)" fill="#969696"/>
 <path d="m54.801,430.59a4.4194,5.922,0,1,1,-8.8388,0,4.4194,5.922,0,1,1,8.8388,0z" fill-rule="evenodd" transform="matrix(0.33941126,0,0,0.16886132,30.899999,-59.710727)" fill="#a5a5a5"/>
 <path d="m54.801,430.59a4.4194,5.922,0,1,1,-8.8388,0,4.4194,5.922,0,1,1,8.8388,0z" fill-rule="evenodd" transform="matrix(0.33941126,0,0,0.16886132,30.899999,-60.710725)" fill="url(#radialGradient4008)"/>
 <path d="m59.22,13.869a0.64082,0.46404,0,1,1,-1.2816,0,0.64082,0.46404,0,1,1,1.2816,0z" fill-rule="evenodd" transform="matrix(0.78025579,0,0,1.0774427,2.2931025,-3.4425384)" fill="#969696"/>
 <path d="m54.801,430.59a4.4194,5.922,0,1,1,-8.8388,0,4.4194,5.922,0,1,1,8.8388,0z" fill-rule="evenodd" transform="matrix(0.33941126,0,0,0.21107664,-2.6000006,-48.138404)" fill="#9b9b9b"/>
 <path d="m54.801,430.59a4.4194,5.922,0,1,1,-8.8388,0,4.4194,5.922,0,1,1,8.8388,0z" fill-rule="evenodd" transform="matrix(0.33941126,0,0,0.21107664,-2.6000006,-49.138404)" fill="url(#radialGradient4078)"/>
 <path d="m20.948,52.693a0.64082,0.35355,0,1,1,-1.2816,0,0.64082,0.35355,0,1,1,1.2816,0z" fill-rule="evenodd" transform="matrix(1.1703837,0,0,2.1212152,-9.267242,-70.523424)" fill="#afafaf"/>
 <path d="m54.801,430.59a4.4194,5.922,0,1,1,-8.8388,0,4.4194,5.922,0,1,1,8.8388,0z" fill-rule="evenodd" transform="matrix(0.33941126,0,0,0.21107664,64.399999,-48.138404)" fill="#9b9b9b"/>
 <path d="m54.801,430.59a4.4194,5.922,0,1,1,-8.8388,0,4.4194,5.922,0,1,1,8.8388,0z" fill-rule="evenodd" transform="matrix(0.33941126,0,0,0.21107664,64.399999,-49.138404)" fill="url(#radialGradient4078)"/>
 <path d="m20.948,52.693a0.64082,0.35355,0,1,1,-1.2816,0,0.64082,0.35355,0,1,1,1.2816,0z" fill-rule="evenodd" transform="matrix(1.1703837,0,0,2.1212152,57.732758,-70.523424)" fill="#afafaf"/>
</svg>
