<?xml version="1.0" encoding="UTF-8" standalone="no"?>
<!-- Created with Inkscape (http://www.inkscape.org/) -->
<svg xmlns:rdf="http://www.w3.org/1999/02/22-rdf-syntax-ns#" xmlns="http://www.w3.org/2000/svg" height="512" width="512" version="1.1" xmlns:cc="http://creativecommons.org/ns#" xmlns:xlink="http://www.w3.org/1999/xlink" xmlns:dc="http://purl.org/dc/elements/1.1/">
 <title>Samée - 512 - File blank</title>
 <metadata>
  <rdf:RDF>
   <cc:Work rdf:about="">
    <dc:format>image/svg+xml</dc:format>
    <dc:type rdf:resource="http://purl.org/dc/dcmitype/StillImage"/>
    <dc:title>Samée - 512 - File blank</dc:title>
    <dc:date>2011-04-01</dc:date>
    <dc:creator>
     <cc:Agent>
      <dc:title>Harenome Ranaivoarivony Razanajato</dc:title>
     </cc:Agent>
    </dc:creator>
    <cc:license rdf:resource="http://creativecommons.org/licenses/by/3.0/"/>
    <dc:subject>
     <rdf:Bag>
      <rdf:li>empty</rdf:li>
      <rdf:li>gnome-fs-regular</rdf:li>
      <rdf:li>gtk-file</rdf:li>
      <rdf:li>text-x-preview</rdf:li>
     </rdf:Bag>
    </dc:subject>
   </cc:Work>
   <cc:License rdf:about="http://creativecommons.org/licenses/by/3.0/">
    <cc:permits rdf:resource="http://creativecommons.org/ns#Reproduction"/>
    <cc:permits rdf:resource="http://creativecommons.org/ns#Distribution"/>
    <cc:requires rdf:resource="http://creativecommons.org/ns#Notice"/>
    <cc:requires rdf:resource="http://creativecommons.org/ns#Attribution"/>
    <cc:permits rdf:resource="http://creativecommons.org/ns#DerivativeWorks"/>
   </cc:License>
  </rdf:RDF>
 </metadata>
 <defs>
  <linearGradient id="bottom-shadow-gradient">
   <stop stop-color="#000" stop-opacity="0.04705882" offset="0"/>
   <stop stop-color="#000" stop-opacity="0.02352941" offset="0.9"/>
   <stop stop-color="#000" stop-opacity="0" offset="1"/>
  </linearGradient>
  <linearGradient id="back-shadow-gradient">
   <stop stop-color="#000" stop-opacity="0.00784314" offset="0"/>
   <stop stop-color="#000" stop-opacity="0.03137255" offset="1"/>
  </linearGradient>
  <linearGradient id="linearGradient3886" x1="145.95" xlink:href="#back-shadow-gradient" gradientUnits="userSpaceOnUse" x2="145.95" y1="31.5" y2="482.5"/>
  <linearGradient id="linearGradient3898" x1="145.95" xlink:href="#back-shadow-gradient" gradientUnits="userSpaceOnUse" x2="145.95" y1="31" y2="483"/>
  <linearGradient id="linearGradient3900" x1="145.95" xlink:href="#back-shadow-gradient" gradientUnits="userSpaceOnUse" x2="145.95" y1="30.5" y2="483.5"/>
  <linearGradient id="linearGradient3902" x1="145.95" xlink:href="#back-shadow-gradient" gradientUnits="userSpaceOnUse" x2="145.95" y1="30" y2="484"/>
  <linearGradient id="linearGradient3904" x1="145.95" xlink:href="#back-shadow-gradient" gradientUnits="userSpaceOnUse" x2="145.95" y1="29.5" y2="484.5"/>
  <linearGradient id="linearGradient3906" x1="145.95" xlink:href="#back-shadow-gradient" gradientUnits="userSpaceOnUse" x2="145.95" y1="29" y2="485"/>
  <linearGradient id="linearGradient3928" x1="255.99" xlink:href="#bottom-shadow-gradient" spreadMethod="reflect" gradientUnits="userSpaceOnUse" y1="480" gradientTransform="matrix(1.0398936,0,0,0.875,-11.212766,62)" x2="444" y2="480"/>
  <linearGradient id="linearGradient3932" x1="255.99" xlink:href="#bottom-shadow-gradient" spreadMethod="reflect" gradientUnits="userSpaceOnUse" y1="480" gradientTransform="matrix(1.0425531,0,0,1,-11.893617,2)" x2="444" y2="480"/>
  <linearGradient id="linearGradient3936" x1="255.99" xlink:href="#bottom-shadow-gradient" spreadMethod="reflect" gradientUnits="userSpaceOnUse" y1="480" gradientTransform="matrix(1.0452127,0,0,1.125,-11.574468,-58)" x2="444" y2="480"/>
  <linearGradient id="linearGradient3940" x1="255.99" xlink:href="#bottom-shadow-gradient" spreadMethod="reflect" gradientUnits="userSpaceOnUse" y1="480" gradientTransform="matrix(1.0478723,0,0,1.25,-12.25532,-118)" x2="444" y2="480"/>
  <linearGradient id="linearGradient3944" x1="255.99" xlink:href="#bottom-shadow-gradient" spreadMethod="reflect" gradientUnits="userSpaceOnUse" y1="480" gradientTransform="matrix(1.0505319,0,0,1.375,-12.936171,-178)" x2="444" y2="480"/>
  <linearGradient id="linearGradient3948" x1="255.99" xlink:href="#bottom-shadow-gradient" spreadMethod="reflect" gradientUnits="userSpaceOnUse" y1="480" gradientTransform="matrix(1.0531915,0,0,1.5,-13.617022,-238)" x2="444" y2="480"/>
  <radialGradient id="radialGradient3960" gradientUnits="userSpaceOnUse" cy="98.61" cx="423.83" gradientTransform="matrix(1.4701218,0,0,1.8149652,-199.25386,-76.467517)" r="40.5">
   <stop stop-color="#ebebeb" offset="0"/>
   <stop stop-color="#FFF" offset="1"/>
  </radialGradient>
  <linearGradient id="linearGradient3971" y2="101.69" gradientUnits="userSpaceOnUse" y1="67.291" x2="360" x1="401.83">
   <stop stop-color="#FFF" stop-opacity="0.68627453" offset="0"/>
   <stop stop-color="#ebebeb" stop-opacity="0.29411766" offset="0.1"/>
   <stop stop-color="#f5f5f5" stop-opacity="0" offset="0.2"/>
   <stop stop-color="#FFF" stop-opacity="0.09803922" offset="0.55"/>
   <stop stop-color="#323232" stop-opacity="0.09803922" offset="1"/>
  </linearGradient>
  <radialGradient id="radialGradient3986" gradientUnits="userSpaceOnUse" cy="101.75" cx="379.3" gradientTransform="matrix(1.0567522,0,0,1.3046323,-21.525978,-26.363574)" r="40.5">
   <stop stop-color="#000" stop-opacity="0.02745098" offset="0"/>
   <stop stop-color="#000" stop-opacity="0.00392157" offset="1"/>
  </radialGradient>
  <radialGradient id="radialGradient4004" spreadMethod="reflect" gradientUnits="userSpaceOnUse" cy="415.69" cx="377" gradientTransform="matrix(1.3740993,0.01158314,-0.01141061,1.3536322,-136.29217,-117.05674)" r="185">
   <stop stop-color="#FFF" offset="0"/>
   <stop stop-color="#f0f0f0" offset="1"/>
  </radialGradient>
  <radialGradient id="radialGradient3844" gradientUnits="userSpaceOnUse" cy="110.7" cx="400.03" gradientTransform="matrix(1.4190335,0,0,1.8150429,-167.62786,-83.613243)" r="43">
   <stop stop-color="#000" stop-opacity="0.19607843" offset="0"/>
   <stop stop-color="#000" stop-opacity="0" offset="1"/>
  </radialGradient>
  <filter id="filter3893" width="1.2665116" y="-0.10914286" x="-0.13325581" height="1.2182857" color-interpolation-filters="sRGB">
   <feGaussianBlur stdDeviation="4.775"/>
  </filter>
 </defs>
 <rect fill-rule="evenodd" rx="4.2128" ry="6" height="12" width="396" y="476" x="58" fill="url(#linearGradient3948)"/>
 <rect fill-rule="evenodd" rx="4.2021" ry="5.5" height="11" width="395" y="476.5" x="58.5" fill="url(#linearGradient3944)"/>
 <rect fill-rule="evenodd" rx="4.1915" ry="5" height="10" width="394" y="477" x="59" fill="url(#linearGradient3940)"/>
 <rect fill-rule="evenodd" rx="4.1809" ry="4.5" height="9" width="393" y="477.5" x="59.5" fill="url(#linearGradient3936)"/>
 <rect fill-rule="evenodd" rx="4.1702" ry="4" height="8" width="392" y="478" x="59" fill="url(#linearGradient3932)"/>
 <rect fill-rule="evenodd" rx="4.1596" ry="3.5" height="7" width="391" y="478.5" x="59.5" fill="url(#linearGradient3928)"/>
 <path d="m68,29,292,0c20.218,0,84,82.843,84,103v353h-376z" fill="url(#linearGradient3906)"/>
 <path d="m68.5,29.5,291.5,0c20.218,0,83.5,82.343,83.5,102.5v352.5h-375z" fill="url(#linearGradient3904)"/>
 <path d="m69,30,291,0c20.218,0,83,81.843,83,102v352h-374z" fill="url(#linearGradient3902)"/>
 <path d="m69.5,30.5,290.5,0c20.218,0,82.5,81.343,82.5,101.5v351.5h-373z" fill="url(#linearGradient3900)"/>
 <path d="m70,31,290,0c20.218,0,82,80.843,82,101v351h-372z" fill="url(#linearGradient3898)"/>
 <path d="m70.5,31.5,289.5,0c20.218,0,81.5,80.343,81.5,100.5v350.5h-371z" fill="url(#linearGradient3886)"/>
 <path d="m71,32,289,0c20.218,0,81,79.843,81,100v350h-370z" fill="url(#radialGradient4004)"/>
 <path stroke="#FFF" d="m71.5,32.5,288.5,0c20.218,0,80.5,79.343,80.5,99.5v349.5h-369z" stroke-opacity="0.19607843" fill="none"/>
 <path filter="url(#filter3893)" d="m355,32c7.433,0,86,97.214,86,105-5.1585-19.252-49.322-31.479-73.5-25,7.7705-29,9.1995-67.472-12.5-80z" fill="url(#radialGradient3844)"/>
 <path d="m357,32c19.825,0,84,83.01,84,103-5.1585-19.252-49.822-29.979-74-23.5,7.7705-29,11.7-66.972-10-79.5z" fill="url(#radialGradient3986)"/>
 <path d="m357.5,32c19.825,0,83.5,82.51,83.5,102.5-5.1585-19.252-49.322-29.979-73.5-23.5,7.7705-29,11.7-66.472-10-79z" fill="url(#radialGradient3986)"/>
 <path d="m358,32c19.825,0,83,82.01,83,102-5.1585-19.252-48.822-29.979-73-23.5,7.7705-29,11.7-65.972-10-78.5z" fill="url(#radialGradient3986)"/>
 <path d="m358.5,32c19.825,0,82.5,81.51,82.5,101.5-5.1585-19.252-48.322-29.979-72.5-23.5,7.7705-29,11.7-65.472-10-78z" fill="url(#radialGradient3986)"/>
 <path d="m359,32c19.825,0,82,81.01,82,101-5.1585-19.252-47.822-29.979-72-23.5,7.7705-29,11.7-64.972-10-77.5z" fill="url(#radialGradient3986)"/>
 <path d="m359.5,32c19.825,0,81.5,80.51,81.5,100.5-5.1585-19.252-47.322-29.979-71.5-23.5,7.7705-29,11.7-64.472-10-77z" fill="url(#radialGradient3986)"/>
 <path d="m360,32c19.825,0,81,80.01,81,100-5.1585-19.252-46.822-31.479-71-25,7.7705-29,11.7-62.472-10-75z" fill="url(#radialGradient3960)"/>
 <path d="m360,32c19.825,0,81,80.01,81,100-5.1585-19.252-46.822-31.479-71-25,7.7705-29,11.7-62.472-10-75z" fill="url(#linearGradient3971)"/>
 <path stroke="#FFF" d="m360.5,32.5c19.825,0,80,79.01,80,99-5.1585-19.252-45.822-31.479-70-25,7.7705-29,11.7-61.472-10-74z" stroke-opacity="0.29411765" fill="none"/>
</svg>
