<?xml version="1.0" encoding="UTF-8" standalone="no"?>
<!-- Created with Inkscape (http://www.inkscape.org/) -->
<svg xmlns:rdf="http://www.w3.org/1999/02/22-rdf-syntax-ns#" xmlns="http://www.w3.org/2000/svg" height="16" width="16" version="1.1" xmlns:cc="http://creativecommons.org/ns#" xmlns:xlink="http://www.w3.org/1999/xlink" xmlns:dc="http://purl.org/dc/elements/1.1/">
 <title>Samée - 16 - Folder grey</title>
 <metadata>
  <rdf:RDF>
   <cc:Work rdf:about="">
    <dc:format>image/svg+xml</dc:format>
    <dc:type rdf:resource="http://purl.org/dc/dcmitype/StillImage"/>
    <dc:title>Samée - 16 - Folder grey</dc:title>
    <dc:date>2011-04-15</dc:date>
    <dc:creator>
     <cc:Agent>
      <dc:title>Harenome Ranaivoarivony Razanajato</dc:title>
     </cc:Agent>
    </dc:creator>
    <cc:license rdf:resource="http://creativecommons.org/licenses/by/3.0/"/>
    <dc:subject>
     <rdf:Bag>
      <rdf:li>folder</rdf:li>
      <rdf:li>gnome-folder</rdf:li>
      <rdf:li>gnome-fs-directory</rdf:li>
      <rdf:li>gtk-directory</rdf:li>
      <rdf:li>inode-directory</rdf:li>
      <rdf:li>stock-folder</rdf:li>
     </rdf:Bag>
    </dc:subject>
   </cc:Work>
   <cc:License rdf:about="http://creativecommons.org/licenses/by/3.0/">
    <cc:permits rdf:resource="http://creativecommons.org/ns#Reproduction"/>
    <cc:permits rdf:resource="http://creativecommons.org/ns#Distribution"/>
    <cc:requires rdf:resource="http://creativecommons.org/ns#Notice"/>
    <cc:requires rdf:resource="http://creativecommons.org/ns#Attribution"/>
    <cc:permits rdf:resource="http://creativecommons.org/ns#DerivativeWorks"/>
   </cc:License>
  </rdf:RDF>
 </metadata>
 <defs>
  <linearGradient id="radial-light-gradient">
   <stop stop-color="#FFF" stop-opacity="0.29411766" offset="0"/>
   <stop stop-color="#FFF" stop-opacity="0" offset="1"/>
  </linearGradient>
  <linearGradient id="linearGradient3835" y2="195.14" spreadMethod="reflect" gradientUnits="userSpaceOnUse" x2="543.52" gradientTransform="matrix(0.02928781,0,0,0.02897846,0.58152929,496.84504)" y1="195.14" x1="253.3">
   <stop stop-color="#FFF" stop-opacity="0.58823532" offset="0"/>
   <stop stop-color="#FFF" stop-opacity="0.58823532" offset="0.75"/>
   <stop stop-color="#FFF" stop-opacity="0" offset="1"/>
  </linearGradient>
  <radialGradient id="radialGradient3850" xlink:href="#radial-light-gradient" gradientUnits="userSpaceOnUse" cy="96.531" cx="257.88" gradientTransform="matrix(0.04860549,0,0,0.03085556,-4.3637985,499.02149)" r="226"/>
  <radialGradient id="radialGradient3894" xlink:href="#radial-light-gradient" gradientUnits="userSpaceOnUse" cy="60.963" cx="253.78" gradientTransform="matrix(0.04100343,0,0,0.03562273,-2.4059541,496.82832)" r="205"/>
  <linearGradient id="linearGradient4058" y2="488.46" gradientUnits="userSpaceOnUse" x2="197.22" gradientTransform="matrix(0.02928781,0,0,0.02897846,0.58152929,496.84504)" y1="177.89" x1="197.22">
   <stop stop-color="#FFF" stop-opacity="0.29411766" offset="0"/>
   <stop stop-color="#FFF" stop-opacity="0.07843138" offset="0.8"/>
   <stop stop-color="#FFF" stop-opacity="0.15686275" offset="1"/>
  </linearGradient>
  <linearGradient id="linearGradient3964" y2="115" gradientUnits="userSpaceOnUse" x2="492.3" gradientTransform="matrix(0.02928781,0,0,0.02897846,0.58152929,496.84504)" y1="115" x1="14.288">
   <stop stop-color="#FFF" stop-opacity="0" offset="0"/>
   <stop stop-color="#FFF" stop-opacity="0.39215687" offset="0.05"/>
   <stop stop-color="#FFF" stop-opacity="0.39215687" offset="0.35"/>
   <stop stop-color="#FFF" stop-opacity="0.15686275" offset="0.4"/>
   <stop stop-color="#FFF" stop-opacity="0.09803922" offset="0.53"/>
   <stop stop-color="#FFF" stop-opacity="0.39215687" offset="0.6"/>
   <stop stop-color="#FFF" stop-opacity="0.39215687" offset="0.95"/>
   <stop stop-color="#FFF" stop-opacity="0" offset="1"/>
  </linearGradient>
  <linearGradient id="linearGradient3965" y2="177.89" gradientUnits="userSpaceOnUse" x2="95.413" gradientTransform="matrix(0.02928781,0,0,0.02897846,0.58152929,496.84504)" y1="39.856" x1="95.413">
   <stop stop-color="#bebebe" offset="0"/>
   <stop stop-color="#969696" offset="1"/>
  </linearGradient>
  <linearGradient id="linearGradient3967" y2="177.89" gradientUnits="userSpaceOnUse" x2="158" gradientTransform="matrix(0.02928781,0,0,0.02897846,0.58152929,496.84504)" y1="39.856" x1="158">
   <stop stop-color="#d2d2d2" offset="0"/>
   <stop stop-color="#a0a0a0" offset="1"/>
  </linearGradient>
  <linearGradient id="linearGradient4001" y2="522.97" gradientUnits="userSpaceOnUse" x2="109.55" gradientTransform="matrix(0.02928781,0,0,0.02897846,0.58152929,496.84504)" y1="177.89" x1="109.55">
   <stop stop-color="#bebebe" offset="0"/>
   <stop stop-color="#b4b4b4" offset="0.7"/>
   <stop stop-color="#a0a0a0" offset="1"/>
  </linearGradient>
  <linearGradient id="linearGradient4003" y2="522.97" gradientUnits="userSpaceOnUse" x2="349" gradientTransform="matrix(0.02928781,0,0,0.02897846,0.58152929,496.84504)" y1="177.89" x1="349">
   <stop stop-color="#d2d2d2" offset="0"/>
   <stop stop-color="#c8c8c8" offset="0.7"/>
   <stop stop-color="#b4b4b4" offset="1"/>
  </linearGradient>
 </defs>
 <g transform="translate(0,-496)">
  <path d="m0.5,499.5c0-0.47785,0.40548-1,1-1h5c0.87863,0,2.1214,3,3,3h4c1.0799,0,2,1.1534,2,2v6h-15z" stroke="url(#linearGradient3965)" stroke-miterlimit="4" stroke-dasharray="none" stroke-width="0.99999988" fill="url(#linearGradient3967)"/>
  <path d="m1.0002,500c0-0.26158,0.70618-1,0.99985-1h4c0.87863,0,2.1214,3,3,3h4.5c0.29458,0,1.5,1.239,1.5,1.5v5.5h-14z" fill="url(#radialGradient3894)"/>
  <path d="m1.5,500c0-0.26158,0.20634-0.5,0.5-0.5h3.5c0.87863,0,2.6214,3,3.5,3h4.5c0.29458,0,1,0.73896,1,1v5h-13z" stroke-opacity="0.19607843" stroke="#FFF" stroke-dasharray="none" stroke-miterlimit="4" stroke-width="0.99999988" fill="none"/>
  <path stroke-linejoin="miter" d="m1.5,500c0-0.27809,0.22955-0.5,0.5-0.5h3.5c0.88421,0,2.6136,3,3.5,3h4.5c0.27236,0,1,0.71701,1,1" stroke="url(#linearGradient3964)" stroke-linecap="butt" stroke-width="0.99999976px" fill="none"/>
  <path d="m0.5,502.5,15,0,0,7c0,1.0515-0.99974,2-2,2h-11c-1.0995,0-2-0.87035-2-2z" stroke="url(#linearGradient4001)" stroke-miterlimit="4" stroke-dasharray="none" stroke-width="0.99999988" fill="url(#linearGradient4003)"/>
  <path d="m1,502,14,0v7.5c0,0.20772-1.0622,1.5-1.5,1.5h-11c-0.4366,0-1.5-1.3-1.5-1.5z" fill="url(#radialGradient3850)"/>
  <path d="m1.5,502.5,13,0,0,7c0,0.20771-0.56223,1-1,1h-11c-0.43658,0-1-0.79843-1-1z" stroke="url(#linearGradient4058)" stroke-dasharray="none" stroke-miterlimit="4" stroke-width="0.99999988" fill="none"/>
  <path stroke-linejoin="miter" d="m0,502.5,16,0" stroke="url(#linearGradient3835)" stroke-linecap="butt" stroke-width="0.99999976px" fill="none"/>
 </g>
</svg>
