<?xml version="1.0" encoding="UTF-8" standalone="no"?>
<!-- Created with Inkscape (http://www.inkscape.org/) -->
<svg xmlns:rdf="http://www.w3.org/1999/02/22-rdf-syntax-ns#" xmlns="http://www.w3.org/2000/svg" height="16" width="16" version="1.1" xmlns:cc="http://creativecommons.org/ns#" xmlns:xlink="http://www.w3.org/1999/xlink" xmlns:dc="http://purl.org/dc/elements/1.1/">
 <title>Samée - 16 - Folder gnome</title>
 <metadata>
  <rdf:RDF>
   <cc:Work rdf:about="">
    <dc:format>image/svg+xml</dc:format>
    <dc:type rdf:resource="http://purl.org/dc/dcmitype/StillImage"/>
    <dc:title>Samée - 16 - Folder gnome</dc:title>
    <dc:date>2011-04-07</dc:date>
    <dc:creator>
     <cc:Agent>
      <dc:title>Harenome Ranaivoarivony Razanajato</dc:title>
     </cc:Agent>
    </dc:creator>
    <cc:license rdf:resource="http://creativecommons.org/licenses/by/3.0/"/>
    <dc:subject>
     <rdf:Bag>
      <rdf:li>folder</rdf:li>
      <rdf:li>gnome-folder</rdf:li>
      <rdf:li>gnome-fs-directory</rdf:li>
      <rdf:li>gtk-directory</rdf:li>
      <rdf:li>inode-directory</rdf:li>
      <rdf:li>stock-folder</rdf:li>
     </rdf:Bag>
    </dc:subject>
   </cc:Work>
   <cc:License rdf:about="http://creativecommons.org/licenses/by/3.0/">
    <cc:permits rdf:resource="http://creativecommons.org/ns#Reproduction"/>
    <cc:permits rdf:resource="http://creativecommons.org/ns#Distribution"/>
    <cc:requires rdf:resource="http://creativecommons.org/ns#Notice"/>
    <cc:requires rdf:resource="http://creativecommons.org/ns#Attribution"/>
    <cc:permits rdf:resource="http://creativecommons.org/ns#DerivativeWorks"/>
   </cc:License>
  </rdf:RDF>
 </metadata>
 <defs>
  <linearGradient id="radial-light-gradient">
   <stop stop-color="#FFF" stop-opacity="0.29411766" offset="0"/>
   <stop stop-color="#FFF" stop-opacity="0" offset="1"/>
  </linearGradient>
  <linearGradient id="linearGradient3835" y2="195.14" spreadMethod="reflect" gradientUnits="userSpaceOnUse" x2="543.52" gradientTransform="matrix(0.02928781,0,0,0.02897846,0.58152929,496.84504)" y1="195.14" x1="253.3">
   <stop stop-color="#FFF" stop-opacity="0.58823532" offset="0"/>
   <stop stop-color="#FFF" stop-opacity="0.58823532" offset="0.75"/>
   <stop stop-color="#FFF" stop-opacity="0" offset="1"/>
  </linearGradient>
  <radialGradient id="radialGradient3850" xlink:href="#radial-light-gradient" gradientUnits="userSpaceOnUse" cy="91" cx="256" gradientTransform="matrix(0.04860549,0,0,0.03085556,-4.3637985,499.02149)" r="226"/>
  <radialGradient id="radialGradient3894" xlink:href="#radial-light-gradient" gradientUnits="userSpaceOnUse" cy="67.175" cx="255" gradientTransform="matrix(0.04100343,0,0,0.03562273,-2.4059541,496.82832)" r="205"/>
  <linearGradient id="linearGradient3917" y2="522.97" gradientUnits="userSpaceOnUse" x2="349" gradientTransform="matrix(0.02928781,0,0,0.02897846,0.58152929,496.84504)" y1="143.38" x1="349">
   <stop stop-color="#bec0b2" offset="0"/>
   <stop stop-color="#b4b7a7" offset="0.7"/>
   <stop stop-color="#a1a591" offset="1"/>
  </linearGradient>
  <linearGradient id="linearGradient3931" y2="173.97" gradientUnits="userSpaceOnUse" x2="158" gradientTransform="matrix(0.02928781,0,0,0.02897846,0.58152929,496.84504)" y1="5.3474" x1="158">
   <stop stop-color="#b2b6a8" offset="0"/>
   <stop stop-color="#9ea492" offset="0.8"/>
   <stop stop-color="#909583" offset="1"/>
  </linearGradient>
  <linearGradient id="linearGradient3960" y2="522.97" gradientUnits="userSpaceOnUse" x2="109.55" gradientTransform="matrix(0.02928781,0,0,0.02897846,0.58152929,496.84504)" y1="143.38" x1="109.55">
   <stop stop-color="#b0b3a1" offset="0"/>
   <stop stop-color="#a6aa96" offset="0.7"/>
   <stop stop-color="#939880" offset="1"/>
  </linearGradient>
  <linearGradient id="linearGradient4058" y2="470.01" gradientUnits="userSpaceOnUse" x2="197.22" gradientTransform="matrix(0.02928781,0,0,0.02897846,0.58152929,496.84504)" y1="168.75" x1="197.22">
   <stop stop-color="#FFF" stop-opacity="0.29411766" offset="0"/>
   <stop stop-color="#FFF" stop-opacity="0.07843138" offset="0.8"/>
   <stop stop-color="#FFF" stop-opacity="0.15686275" offset="1"/>
  </linearGradient>
  <linearGradient id="linearGradient4110" y2="173.97" gradientUnits="userSpaceOnUse" x2="95.413" gradientTransform="matrix(0.02928781,0,0,0.02897846,0.58152929,496.84504)" y1="5.3474" x1="95.413">
   <stop stop-color="#c5c8be" offset="0"/>
   <stop stop-color="#b1b7a7" offset="0.8"/>
   <stop stop-color="#a3a898" offset="1"/>
  </linearGradient>
  <linearGradient id="linearGradient3964" y2="115" gradientUnits="userSpaceOnUse" x2="492.3" gradientTransform="matrix(0.02928781,0,0,0.02897846,0.58152929,496.84504)" y1="115" x1="14.288">
   <stop stop-color="#FFF" stop-opacity="0" offset="0"/>
   <stop stop-color="#FFF" stop-opacity="0.39215687" offset="0.05"/>
   <stop stop-color="#FFF" stop-opacity="0.39215687" offset="0.35"/>
   <stop stop-color="#FFF" stop-opacity="0.15686275" offset="0.4"/>
   <stop stop-color="#FFF" stop-opacity="0.09803922" offset="0.53"/>
   <stop stop-color="#FFF" stop-opacity="0.39215687" offset="0.6"/>
   <stop stop-color="#FFF" stop-opacity="0.39215687" offset="0.95"/>
   <stop stop-color="#FFF" stop-opacity="0" offset="1"/>
  </linearGradient>
 </defs>
 <g transform="translate(0,-496)">
  <path d="m0.5,500.5c0-0.79192,0.96608-2,2-2h3.5c0.87863,0,3.1214,3,4,3h3.5c1.0459,0,2,1.204,2,2v6h-15z" stroke="url(#linearGradient4110)" stroke-miterlimit="4" stroke-dasharray="none" stroke-width="0.99999988" fill="url(#linearGradient3931)"/>
  <path d="m1.0002,500.5c0-0.26158,1.2062-1.5,1.4998-1.5h3c0.87863,0,3.6214,3,4.5,3h3.5c0.29458,0,1.5,1.239,1.5,1.5v5.5h-14z" fill="url(#radialGradient3894)"/>
  <path d="m1.5,500.5c0-0.26158,0.70634-1,1-1h3c0.87863,0,3.6214,3,4.5,3h3.5c0.29458,0,1,0.73896,1,1v5h-13z" stroke-opacity="0.19607843" stroke="#FFF" stroke-dasharray="none" stroke-miterlimit="4" stroke-width="0.99999988" fill="none"/>
  <path stroke-linejoin="miter" d="m1.5,500.5c0-0.27809,0.72955-1,1-1h3c0.88421,0,3.6136,3,4.5,3h3.5c0.27236,0,1,0.71701,1,1" stroke="url(#linearGradient3964)" stroke-linecap="butt" stroke-width="0.99999976px" fill="none"/>
  <path d="m0.5,502.5,15,0,0,7c0,0.95772-0.84348,2-2,2h-11c-1.0616,0-2-0.64218-2-2z" stroke="url(#linearGradient3960)" stroke-miterlimit="4" stroke-dasharray="none" stroke-width="0.99999988" fill="url(#linearGradient3917)"/>
  <path d="m1,502,14,0v7.5c0,0.20772-1.0622,1.5-1.5,1.5h-11c-0.4366,0-1.5-1.3-1.5-1.5z" fill="url(#radialGradient3850)"/>
  <path d="m1.5,502.5,13,0,0,7c0,0.20771-0.56223,1-1,1h-11c-0.43658,0-1-0.79843-1-1z" stroke="url(#linearGradient4058)" stroke-dasharray="none" stroke-miterlimit="4" stroke-width="0.99999988" fill="none"/>
  <path stroke-linejoin="miter" d="m0,502.5,16,0" stroke="url(#linearGradient3835)" stroke-linecap="butt" stroke-width="0.99999976px" fill="none"/>
 </g>
</svg>
