<?xml version="1.0" encoding="UTF-8" standalone="no"?>
<!-- Created with Inkscape (http://www.inkscape.org/) -->
<svg xmlns:rdf="http://www.w3.org/1999/02/22-rdf-syntax-ns#" xmlns="http://www.w3.org/2000/svg" height="48" width="48" version="1.1" xmlns:cc="http://creativecommons.org/ns#" xmlns:xlink="http://www.w3.org/1999/xlink" xmlns:dc="http://purl.org/dc/elements/1.1/">
 <title>Samée - 48px - HDD alt</title>
 <metadata>
  <rdf:RDF>
   <cc:Work rdf:about="">
    <dc:format>image/svg+xml</dc:format>
    <dc:type rdf:resource="http://purl.org/dc/dcmitype/StillImage"/>
    <dc:title>Samée - 48px - HDD alt</dc:title>
    <dc:date>2011-03-26</dc:date>
    <dc:creator>
     <cc:Agent>
      <dc:title>Harenome Ranaivoarivony Razanajato</dc:title>
     </cc:Agent>
    </dc:creator>
    <dc:description/>
    <cc:license rdf:resource="http://creativecommons.org/licenses/by/3.0/"/>
    <dc:subject>
     <rdf:Bag>
      <rdf:li>hard</rdf:li>
      <rdf:li>disk</rdf:li>
      <rdf:li>drive</rdf:li>
      <rdf:li>drive-harddisk</rdf:li>
      <rdf:li>harddisk</rdf:li>
     </rdf:Bag>
    </dc:subject>
   </cc:Work>
   <cc:License rdf:about="http://creativecommons.org/licenses/by/3.0/">
    <cc:permits rdf:resource="http://creativecommons.org/ns#Reproduction"/>
    <cc:permits rdf:resource="http://creativecommons.org/ns#Distribution"/>
    <cc:requires rdf:resource="http://creativecommons.org/ns#Notice"/>
    <cc:requires rdf:resource="http://creativecommons.org/ns#Attribution"/>
    <cc:permits rdf:resource="http://creativecommons.org/ns#DerivativeWorks"/>
   </cc:License>
  </rdf:RDF>
 </metadata>
 <defs>
  <linearGradient id="floor-shadow-gradient">
   <stop stop-color="#000" stop-opacity="0.09803922" offset="0"/>
   <stop stop-color="#000" stop-opacity="0.07843138" offset="0.93"/>
   <stop stop-color="#000" stop-opacity="0" offset="1"/>
  </linearGradient>
  <linearGradient id="linearGradient3622" y2="120.25" gradientUnits="userSpaceOnUse" x2="64" gradientTransform="matrix(0.37632541,0,0,0.37570634,-0.8398785,-0.442036)" y1="108.97" x1="64">
   <stop stop-color="#4b4b4b" offset="0"/>
   <stop stop-color="#1e1e1e" offset="1"/>
  </linearGradient>
  <linearGradient id="linearGradient3982" y2="88.5" xlink:href="#floor-shadow-gradient" spreadMethod="reflect" gradientUnits="userSpaceOnUse" x2="474" gradientTransform="matrix(0.10091743,0,0,0.13333333,-1.8348629,32.449976)" y1="88.5" x1="256"/>
  <linearGradient id="linearGradient3988" y2="88.5" xlink:href="#floor-shadow-gradient" spreadMethod="reflect" gradientUnits="userSpaceOnUse" x2="474" gradientTransform="matrix(0.10206422,0,0,0.16666666,-2.1284409,29.49997)" y1="88.5" x1="256"/>
  <linearGradient id="linearGradient3992" y2="88.5" xlink:href="#floor-shadow-gradient" spreadMethod="reflect" gradientUnits="userSpaceOnUse" x2="474" gradientTransform="matrix(0.10321102,0,0,0.20000004,-2.4220187,26.549985)" y1="88.5" x1="256"/>
  <linearGradient id="linearGradient3996" y2="88.5" xlink:href="#floor-shadow-gradient" spreadMethod="reflect" gradientUnits="userSpaceOnUse" x2="474" gradientTransform="matrix(0.10435778,0,0,0.23333335,-2.715596,23.599976)" y1="88.5" x1="256"/>
  <linearGradient id="linearGradient4000" y2="88.5" xlink:href="#floor-shadow-gradient" spreadMethod="reflect" gradientUnits="userSpaceOnUse" x2="474" gradientTransform="matrix(0.1055046,0,0,0.26666671,-3.0091745,20.649942)" y1="88.5" x1="256"/>
  <linearGradient id="linearGradient4004" y2="88.5" xlink:href="#floor-shadow-gradient" spreadMethod="reflect" gradientUnits="userSpaceOnUse" x2="474" gradientTransform="matrix(0.10665139,0,0,0.30000002,-3.3027521,17.699955)" y1="88.5" x1="256"/>
  <linearGradient id="linearGradient3871" y2="112.25" gradientUnits="userSpaceOnUse" x2="83" gradientTransform="matrix(0.37632543,0,0,0.37570634,-1.0744513,-1.351245)" y1="12" x1="83">
   <stop stop-color="#c3c3c3" offset="0"/>
   <stop stop-color="#e1e1e1" offset="1"/>
  </linearGradient>
  <linearGradient id="linearGradient3881" y2="451.2" gradientUnits="userSpaceOnUse" x2="145" gradientTransform="matrix(0.09408136,0,0,0.09392659,-0.4060424,-1.447118)" y1="53.39" x1="145">
   <stop stop-color="#FFF" stop-opacity="0.11764706" offset="0"/>
   <stop stop-color="#FFF" stop-opacity="0.25490198" offset="1"/>
  </linearGradient>
  <linearGradient id="linearGradient3897" y2="443.25" spreadMethod="reflect" gradientUnits="userSpaceOnUse" x2="494.65" gradientTransform="matrix(0.09408136,0,0,0.09392659,-1.1231772,-1.443325)" y1="443.25" x1="267.93">
   <stop stop-color="#f5f5f5" offset="0"/>
   <stop stop-color="#ebebeb" offset="0.95"/>
   <stop stop-color="#dcdcdc" stop-opacity="0" offset="1"/>
  </linearGradient>
  <radialGradient id="radialGradient4044" gradientUnits="userSpaceOnUse" cy="456.5" cx="68.25" gradientTransform="matrix(2.626409,0,0,2.1793562,-111.00241,-536.3761)" r="11.75">
   <stop stop-color="#aff3ff" offset="0"/>
   <stop stop-color="#0f5cd7" offset="1"/>
  </radialGradient>
  <linearGradient id="linearGradient4085" y2="389" spreadMethod="reflect" gradientUnits="userSpaceOnUse" x2="356" y1="389" x1="260.5">
   <stop stop-color="#fafafa" offset="0"/>
   <stop stop-color="#e1e1e1" offset="0.65"/>
   <stop stop-color="#AAA" offset="1"/>
  </linearGradient>
  <linearGradient id="linearGradient4134" y2="392" gradientUnits="userSpaceOnUse" x2="198" gradientTransform="matrix(0.09408136,0,0,0.09392659,-0.3329947,-0.889522)" y1="82.5" x1="198">
   <stop stop-color="#FFF" stop-opacity="0.07843138" offset="0"/>
   <stop stop-color="#FFF" stop-opacity="0.13725491" offset="0.5"/>
   <stop stop-color="#FFF" stop-opacity="0.92156863" offset="1"/>
  </linearGradient>
  <radialGradient id="radialGradient4083" gradientUnits="userSpaceOnUse" cy="397" cx="256" gradientTransform="matrix(0.19424315,0,0,0.1878635,-26.021666,-37.945655)" r="160">
   <stop stop-color="#f5f5f5" offset="0"/>
   <stop stop-color="#c3c3c3" offset="1"/>
  </radialGradient>
  <linearGradient id="linearGradient4187" y2="341" gradientUnits="userSpaceOnUse" x2="259.33" y1="259" x1="259.33">
   <stop stop-color="#e6e6e6" offset="0"/>
   <stop stop-color="#d2d2d2" offset="1"/>
  </linearGradient>
  <radialGradient id="radialGradient4197" gradientUnits="userSpaceOnUse" cy="351" cx="231" gradientTransform="matrix(2.0003682,0,0,1.6081391,-231.08505,-223.45683)" r="51">
   <stop stop-color="#f5f5f5" offset="0"/>
   <stop stop-color="#d2d2d2" offset="1"/>
  </radialGradient>
  <linearGradient id="linearGradient4243" y2="478" gradientUnits="userSpaceOnUse" x2="377.01" gradientTransform="matrix(0.09408136,0,0,0.09392659,-1.1066929,0.103095)" y1="463" x1="377.01">
   <stop stop-color="#141414" offset="0"/>
   <stop stop-color="#414141" offset="1"/>
  </linearGradient>
  <linearGradient id="linearGradient4860" y2="474" gradientUnits="userSpaceOnUse" x2="272" gradientTransform="matrix(0.08920187,0,0,0.27272729,0.96244083,-84.272803)" y1="463" x1="272">
   <stop stop-color="#4b2e19" offset="0"/>
   <stop stop-color="#8e6830" offset="1"/>
  </linearGradient>
  <linearGradient id="linearGradient4192" y2="111" gradientUnits="userSpaceOnUse" x2="70" gradientTransform="matrix(0.37801092,0,0,0.37742385,-1.1845446,-0.961487)" y1="11" x1="70">
   <stop stop-color="#bebebe" offset="0"/>
   <stop stop-color="#c3c3c3" offset="1"/>
  </linearGradient>
  <linearGradient id="linearGradient4117" y2="85" gradientUnits="userSpaceOnUse" x2="63.69" gradientTransform="matrix(0.4714518,0,0,0.47074298,0.23018585,3.251475)" y1="78" x1="63.69">
   <stop stop-color="#FFF" stop-opacity="0.35294119" offset="0"/>
   <stop stop-color="#FFF" stop-opacity="0.11764706" offset="1"/>
  </linearGradient>
  <linearGradient id="linearGradient4125" y2="86.002" gradientUnits="userSpaceOnUse" x2="70.822" gradientTransform="matrix(0.4714518,0,0,0.47074298,0.37846695,4.251475)" y1="77" x1="70.822">
   <stop stop-color="#373737" offset="0"/>
   <stop stop-color="#1e1e1e" offset="1"/>
  </linearGradient>
  <linearGradient id="linearGradient3206" y2="471" gradientUnits="userSpaceOnUse" x2="195" gradientTransform="matrix(0.25000001,0,0,0.25,-29.250009,-73.750036)" y1="463" x1="195">
   <stop stop-color="#cd680f" offset="0"/>
   <stop stop-color="#f8f298" offset="1"/>
  </linearGradient>
 </defs>
 <rect fill-rule="evenodd" rx="1.3033" ry="2.25" height="4.5" width="46.5" y="42" x="0.75" fill="url(#linearGradient4004)"/>
 <rect fill-rule="evenodd" rx="1.2432" ry="2" height="4" width="46" y="42.25" x="1" fill="url(#linearGradient4000)"/>
 <rect fill-rule="evenodd" rx="1.1838" ry="1.75" height="3.5" width="45.5" y="42.5" x="1.25" fill="url(#linearGradient3996)"/>
 <rect fill-rule="evenodd" rx="1.125" ry="1.5" height="3" width="45" y="42.75" x="1.5" fill="url(#linearGradient3992)"/>
 <rect fill-rule="evenodd" rx="1.0668" ry="1.25" height="2.5" width="44.5" y="43" x="1.75" fill="url(#linearGradient3988)"/>
 <rect fill-rule="evenodd" rx="1.0092" ry="1" height="2" width="44" y="43.25" x="2" fill="url(#linearGradient3982)"/>
 <path d="m2.5,39.5,0.5,4c0.12352,0.46023,0.65751,1,1.5,1h39c0.85585,0,1.3727-0.52578,1.5-1l0.5-4z" stroke="url(#linearGradient4125)" stroke-width="1" fill="url(#linearGradient3622)"/>
 <path d="m3.5,40.5,0.5,3c0.12352,0.46023,0.65751,1,1.5,1h37c0.85586,0,1.3727-0.52578,1.5-1l0.5-3z" stroke="url(#linearGradient4117)" stroke-width="1" fill="none"/>
 <path d="m2.5,38.5c0,1.1884,1.0572,2,2,2h39c1.0464,0,2-0.8127,2-2l-5-29.5c0-0.2331-0.455-1.5-1.5-1.5h-30c-1.0464,0-1.5,1.2712-1.5,1.5z" stroke="url(#linearGradient4192)" stroke-width="1" fill="url(#linearGradient3871)"/>
 <path d="m3.5,38.5c0,1.1884,0.057221,2,1,2h39c1.0464,0,1-0.8127,1-2l-5-29c0-0.23313,0.04538-1-1-1h-29c-1.0464,0-1,0.77119-1,1z" stroke="url(#linearGradient3881)" stroke-width="1" fill="none"/>
 <path stroke-linejoin="round" d="m2.5,38.5c0,1.0966,0.91092,2,2,2h39c1.1907,0,2-0.89479,2-2" stroke="url(#linearGradient3897)" stroke-linecap="round" stroke-miterlimit="4" stroke-dasharray="none" stroke-width="1" fill="none"/>
 <path d="M15.5,44,15,41,40,41,39.5,44z" fill-opacity="0.07843137" fill="#FFF"/>
 <path fill="url(#linearGradient4243)" d="M16.5,45,16,42,39,42,38.5,45z"/>
 <rect fill-rule="evenodd" fill-opacity="0.19608" rx="0" ry="0" height="3" width="21" y="42" x="17" fill="#000"/>
 <rect fill-rule="evenodd" rx="0" ry="0" height="3" width="19" y="42" x="18" fill="url(#linearGradient4860)"/>
 <path stroke-linejoin="miter" d="m18,44.5,19,0" stroke-opacity="0.09803922" stroke="#FFF" stroke-linecap="butt" stroke-width="1px" fill="none"/>
 <rect id="rect4261" fill-rule="evenodd" rx="0" ry="0" height="2" width="1" y="42" x="19" fill="url(#linearGradient3206)"/>
 <use xlink:href="#rect4261" transform="translate(2,0)" height="48" width="48" y="0" x="0"/>
 <use xlink:href="#rect4261" transform="translate(4,0)" height="48" width="48" y="0" x="0"/>
 <use xlink:href="#rect4261" transform="translate(6,0)" height="48" width="48" y="0" x="0"/>
 <use xlink:href="#rect4261" transform="translate(8,0)" height="48" width="48" y="0" x="0"/>
 <use xlink:href="#rect4261" transform="translate(10,0)" height="48" width="48" y="0" x="0"/>
 <use xlink:href="#rect4261" transform="translate(12,0)" height="48" width="48" y="0" x="0"/>
 <use xlink:href="#rect4261" transform="translate(14,0)" height="48" width="48" y="0" x="0"/>
 <use xlink:href="#rect4261" transform="translate(16,0)" height="48" width="48" y="0" x="0"/>
 <path d="m356,312a95.5,77,0,1,1,-191,0,95.5,77,0,1,1,191,0z" fill-rule="evenodd" transform="matrix(0.17277487,0,0,0.11688312,-21.007854,-5.9675325)" stroke="#bebebe" stroke-miterlimit="4" stroke-dasharray="none" stroke-width="7.03693962" fill="url(#linearGradient4085)"/>
 <path d="m12,12.5-0.5,3c-0.12745,0.47486,0.9589,1.0002,1.5,1.0002h17.5l-2,4.5c-1.3807-0.24742-2.9831-0.5-4.5-0.5-5.3472,0-14.5,2.072-14.5,7,0,5.2223,7.1883,8,14.5,8s14.5-2.8954,14.5-8c0-1.4045-1.0248-1.818-2-3l-2-12c0-0.34323-0.81034-1-1.5-1h-19.5c-0.6587,0-1.5,0.68856-1.5,1z" stroke="#bebebe" stroke-width="1" fill="url(#radialGradient4083)"/>
 <path d="m13,13-0.5,2c-0.12745,0.47486,0.4589,0.5,1,0.5h18.5l-3,6.5c-1.3807-0.24742-3.4831-0.5-5-0.5-3.6143,0-14.5,1.822-14.5,6,0,5.4881,7.6409,8,14.5,8s14.5-2.6716,14.5-8c0-1.4045-1.0248-1.818-2-3l-3-11.5c0-0.34323-0.31033-0.5-1-0.5h-18.5c-0.6587,0-1,0.18856-1,0.5z" stroke="url(#linearGradient4134)" stroke-width="1" fill="none"/>
 <path d="m282,300a51,41,0,1,1,-102,0,51,41,0,1,1,102,0z" fill-rule="evenodd" transform="matrix(0.17647059,0,0,0.14634146,-16.764706,-15.902438)" fill="url(#linearGradient4187)"/>
 <path d="m282,300a51,41,0,1,1,-102,0,51,41,0,1,1,102,0z" fill-rule="evenodd" transform="matrix(0.11764706,0,0,0.09756098,-3.1764708,-1.2682942)" fill="url(#radialGradient4197)"/>
 <path d="m80,468.25a11.75,9.75,0,1,1,-23.5,0,11.75,9.75,0,1,1,23.5,0z" fill-rule="evenodd" transform="matrix(0.08510638,0,0,0.10256432,0.19148913,-5.0257429)" fill="url(#radialGradient4044)"/>
 <rect fill-rule="evenodd" rx="0" ry="0" height="1" width="2" y="38" x="5" fill="#c3c3c3"/>
 <rect fill-rule="evenodd" rx="0" ry="0" height="1" width="2" y="37" x="5" fill="#ebebeb"/>
 <rect fill-rule="evenodd" rx="0" ry="0" height="1" width="2" y="38" x="41" fill="#c3c3c3"/>
 <rect fill-rule="evenodd" rx="0" ry="0" height="1" width="2" y="37" x="41" fill="#ebebeb"/>
 <rect fill-rule="evenodd" rx="0" ry="0" height="1" width="1" y="10" x="9" fill="#b4b4b4"/>
 <rect fill-rule="evenodd" rx="0" ry="0" height="1" width="1" y="9" x="9" fill="#d7d7d7"/>
 <rect fill-rule="evenodd" rx="0" ry="0" height="1" width="1" y="10" x="38" fill="#b4b4b4"/>
 <rect fill-rule="evenodd" rx="0" ry="0" height="1" width="1" y="9" x="38" fill="#d7d7d7"/>
</svg>
