<?xml version="1.0" encoding="UTF-8" standalone="no"?>
<!-- Created with Inkscape (http://www.inkscape.org/) -->
<svg xmlns:rdf="http://www.w3.org/1999/02/22-rdf-syntax-ns#" xmlns="http://www.w3.org/2000/svg" height="24" width="24" version="1.1" xmlns:cc="http://creativecommons.org/ns#" xmlns:xlink="http://www.w3.org/1999/xlink" xmlns:dc="http://purl.org/dc/elements/1.1/">
 <title>Samée - 24 - File blank</title>
 <metadata>
  <rdf:RDF>
   <cc:Work rdf:about="">
    <dc:format>image/svg+xml</dc:format>
    <dc:type rdf:resource="http://purl.org/dc/dcmitype/StillImage"/>
    <dc:title>Samée - 24 - File blank</dc:title>
    <dc:date>2011-04-05</dc:date>
    <dc:creator>
     <cc:Agent>
      <dc:title>Harenome Ranaivoarivony Razanajato</dc:title>
     </cc:Agent>
    </dc:creator>
    <cc:license rdf:resource="http://creativecommons.org/licenses/by/3.0/"/>
    <dc:subject>
     <rdf:Bag>
      <rdf:li>empty</rdf:li>
      <rdf:li>gnome-fs-regular</rdf:li>
      <rdf:li>gtk-file</rdf:li>
      <rdf:li>text-x-preview</rdf:li>
     </rdf:Bag>
    </dc:subject>
   </cc:Work>
   <cc:License rdf:about="http://creativecommons.org/licenses/by/3.0/">
    <cc:permits rdf:resource="http://creativecommons.org/ns#Reproduction"/>
    <cc:permits rdf:resource="http://creativecommons.org/ns#Distribution"/>
    <cc:requires rdf:resource="http://creativecommons.org/ns#Notice"/>
    <cc:requires rdf:resource="http://creativecommons.org/ns#Attribution"/>
    <cc:permits rdf:resource="http://creativecommons.org/ns#DerivativeWorks"/>
   </cc:License>
  </rdf:RDF>
 </metadata>
 <defs>
  <linearGradient id="corner-shadow-gradient">
   <stop stop-color="#000" stop-opacity="0.03921569" offset="0"/>
   <stop stop-color="#000" stop-opacity="0.01960784" offset="1"/>
  </linearGradient>
  <linearGradient id="bottom-shadow-gradient">
   <stop stop-color="#000" stop-opacity="0.05098039" offset="0"/>
   <stop stop-color="#000" stop-opacity="0.03137255" offset="0.8"/>
   <stop stop-color="#000" stop-opacity="0" offset="1"/>
  </linearGradient>
  <linearGradient id="linearGradient3928" x1="255.99" xlink:href="#bottom-shadow-gradient" spreadMethod="reflect" gradientUnits="userSpaceOnUse" y1="480" gradientTransform="matrix(0.04920213,0,0,0.06249999,-1.5957443,96.999999)" x2="444" y2="480"/>
  <linearGradient id="linearGradient3932" x1="255.99" xlink:href="#bottom-shadow-gradient" spreadMethod="reflect" gradientUnits="userSpaceOnUse" y1="480" gradientTransform="matrix(0.05053192,0,0,0.125,-1.9361705,67.000008)" x2="444" y2="480"/>
  <linearGradient id="linearGradient3936" x1="255.99" xlink:href="#bottom-shadow-gradient" spreadMethod="reflect" gradientUnits="userSpaceOnUse" y1="480" gradientTransform="matrix(0.0518617,0,0,0.18749997,-2.2765954,37.000004)" x2="444" y2="480"/>
  <linearGradient id="linearGradient3940" x1="255.99" xlink:href="#bottom-shadow-gradient" spreadMethod="reflect" gradientUnits="userSpaceOnUse" y1="480" gradientTransform="matrix(0.0531915,0,0,0.25000002,-2.6170213,7.0000186)" x2="444" y2="480"/>
  <radialGradient id="radialGradient3960" gradientUnits="userSpaceOnUse" cy="91.075" cx="414.85" gradientTransform="matrix(0.06304663,0,0,0.0782076,-8.7389863,102.56663)" r="40.5">
   <stop stop-color="#ebebeb" offset="0"/>
   <stop stop-color="#FFF" offset="1"/>
  </radialGradient>
  <radialGradient id="radialGradient3986" xlink:href="#corner-shadow-gradient" gradientUnits="userSpaceOnUse" cy="101.75" cx="379.3" gradientTransform="matrix(0.04531914,0,0,0.05621715,-0.78124151,104.5962)" r="40.5"/>
  <radialGradient id="radialGradient4004" spreadMethod="reflect" gradientUnits="userSpaceOnUse" cy="415.69" cx="377" gradientTransform="matrix(0.05892867,4.9911992e-4,-4.8934438e-4,0.05832857,-5.7030254,100.92845)" r="185">
   <stop stop-color="#FFF" offset="0"/>
   <stop stop-color="#f0f0f0" offset="1"/>
  </radialGradient>
  <radialGradient id="radialGradient3060" xlink:href="#corner-shadow-gradient" gradientUnits="userSpaceOnUse" cy="101.75" cx="379.3" gradientTransform="matrix(0.04531914,0,0,0.05621715,-0.78124151,104.46874)" r="40.5"/>
  <radialGradient id="radialGradient3062" xlink:href="#corner-shadow-gradient" gradientUnits="userSpaceOnUse" cy="101.75" cx="379.3" gradientTransform="matrix(0.04531914,0,0,0.05621715,-0.78124151,104.598)" r="40.5"/>
  <radialGradient id="radialGradient3064" xlink:href="#corner-shadow-gradient" gradientUnits="userSpaceOnUse" cy="101.75" cx="379.3" gradientTransform="matrix(0.04531914,0,0,0.05621715,-0.78124151,104.72753)" r="40.5"/>
  <radialGradient id="radialGradient3066" xlink:href="#corner-shadow-gradient" gradientUnits="userSpaceOnUse" cy="101.75" cx="379.3" gradientTransform="matrix(0.04531914,0,0,0.05621715,-0.78124151,104.85696)" r="40.5"/>
  <radialGradient id="radialGradient3068" xlink:href="#corner-shadow-gradient" gradientUnits="userSpaceOnUse" cy="101.75" cx="379.3" gradientTransform="matrix(0.04531914,0,0,0.05621715,-0.78124151,104.46667)" r="40.5"/>
  <radialGradient id="radialGradient3829" spreadMethod="reflect" gradientUnits="userSpaceOnUse" cy="114.21" cx="49.25" gradientTransform="matrix(0.40790435,0,0,0.49409936,-2.8518209,68.252643)" r="24">
   <stop stop-color="#e1e1e1" offset="0"/>
   <stop stop-color="#d2d2d2" offset="1"/>
  </radialGradient>
  <linearGradient id="linearGradient3049" x1="255.99" xlink:href="#bottom-shadow-gradient" spreadMethod="reflect" gradientUnits="userSpaceOnUse" y1="480" gradientTransform="matrix(0.05452128,0,0,0.25000002,-2.9574471,7.0000115)" x2="444" y2="480"/>
  <linearGradient id="linearGradient3051" x1="255.99" xlink:href="#bottom-shadow-gradient" spreadMethod="reflect" gradientUnits="userSpaceOnUse" y1="480" gradientTransform="matrix(0.05585107,0,0,0.24999999,-3.2978723,6.9999943)" x2="444" y2="480"/>
 </defs>
 <g transform="translate(1,-105)">
  <rect fill-rule="evenodd" rx="0.2234" ry="1" height="2" width="21" y="126" x="0.5" fill="url(#linearGradient3051)"/>
  <rect fill-rule="evenodd" rx="0.21809" ry="1" height="2" width="20.5" y="126" x="0.75" fill="url(#linearGradient3049)"/>
  <rect fill-rule="evenodd" rx="0.21277" ry="1" height="2" width="20" y="126" x="1" fill="url(#linearGradient3940)"/>
  <rect fill-rule="evenodd" rx="0.20745" ry="0.75" height="1.5" width="19.5" y="126.25" x="1.25" fill="url(#linearGradient3936)"/>
  <rect fill-rule="evenodd" rx="0.20213" ry="0.5" height="1" width="19" y="126.5" x="1.5" fill="url(#linearGradient3932)"/>
  <rect fill-rule="evenodd" rx="0.19681" ry="0.25" height="0.5" width="18.5" y="126.75" x="1.75" fill="url(#linearGradient3928)"/>
  <path d="m2.5,106.5,12.5,0c0.86705,0,4.5,4.6314,4.5,5.5v14.5h-17z" stroke="url(#radialGradient3829)" stroke-width="1" fill="url(#radialGradient4004)"/>
  <path d="m3.5,107.5,11,0c0.86705,0,4,4.1314,4,5v14h-15z" stroke-opacity="0.88235294" stroke="#FFF" stroke-width="1" fill="none"/>
 </g>
 <g transform="translate(1,-105)">
  <path fill="url(#radialGradient3060)" d="m13.5,107c0.85022,0,5.5,5.6386,5.5,6.5-0.22122-0.82957-4.4631-1.0292-5.5-0.75,0.33324-1.2496,0.93059-5.2102,0-5.75z"/>
  <path fill="url(#radialGradient3062)" d="m13.75,107c0.85022,0,5.25,5.3886,5.25,6.25-0.22122-0.82957-4.2131-1.0292-5.25-0.75,0.33324-1.2496,0.93059-4.9602,0-5.5z"/>
  <path fill="url(#radialGradient3064)" d="m14,107c0.85022,0,5,5.1386,5,6-0.22122-0.82957-3.9631-1.0292-5-0.75,0.33324-1.2496,0.93059-4.7102,0-5.25z"/>
  <path fill="url(#radialGradient3066)" d="m14.25,107c0.85022,0,4.75,4.8886,4.75,5.75-0.22122-0.82957-3.7131-1.0292-4.75-0.75,0.33324-1.2496,0.93059-4.4602,0-5z"/>
  <path fill="url(#radialGradient3068)" d="m14.5,107c0.85022,0,4.5,4.6386,4.5,5.5-0.22122-0.82957-3.4631-1.0292-4.5-0.75,0.33324-1.2496,0.93059-4.2102,0-4.75z"/>
  <path fill="url(#radialGradient3986)" d="m14.75,107c0.85022,0,4.25,4.3886,4.25,5.25-0.22122-0.82957-3.2131-1.0292-4.25-0.75,0.33324-1.2496,0.93059-3.9602,0-4.5z"/>
  <path fill="url(#radialGradient3960)" d="m15,107c0.85022,0,4,4.1386,4,5-0.22122-0.82957-2.9631-1.2792-4-1,0.33324-1.2496,0.93059-3.4602,0-4z"/>
  <path d="m15,107.5c0.85022,0,3.5,3.6386,3.5,4.5-0.22122-0.82957-1.9631-1.7792-3-1.5,0.33324-1.2496,0.43059-2.4602-0.5-3z" stroke-opacity="0.29411765" stroke="#FFF" stroke-width="1" fill="none"/>
 </g>
</svg>
