<?xml version="1.0" encoding="UTF-8" standalone="no"?>
<!-- Created with Inkscape (http://www.inkscape.org/) -->
<svg xmlns:rdf="http://www.w3.org/1999/02/22-rdf-syntax-ns#" xmlns="http://www.w3.org/2000/svg" height="32" width="32" version="1.1" xmlns:cc="http://creativecommons.org/ns#" xmlns:xlink="http://www.w3.org/1999/xlink" xmlns:dc="http://purl.org/dc/elements/1.1/">
 <title>Samée - 32px - HDD alt</title>
 <metadata>
  <rdf:RDF>
   <cc:Work rdf:about="">
    <dc:format>image/svg+xml</dc:format>
    <dc:type rdf:resource="http://purl.org/dc/dcmitype/StillImage"/>
    <dc:title>Samée - 32px - HDD alt</dc:title>
    <dc:date>2011-03-28</dc:date>
    <dc:creator>
     <cc:Agent>
      <dc:title>Harenome Ranaivoarivony Razanajato</dc:title>
     </cc:Agent>
    </dc:creator>
    <dc:description/>
    <cc:license rdf:resource="http://creativecommons.org/licenses/by/3.0/"/>
    <dc:subject>
     <rdf:Bag>
      <rdf:li>hard</rdf:li>
      <rdf:li>disk</rdf:li>
      <rdf:li>drive</rdf:li>
      <rdf:li>drive-harddisk</rdf:li>
      <rdf:li>harddisk</rdf:li>
     </rdf:Bag>
    </dc:subject>
   </cc:Work>
   <cc:License rdf:about="http://creativecommons.org/licenses/by/3.0/">
    <cc:permits rdf:resource="http://creativecommons.org/ns#Reproduction"/>
    <cc:permits rdf:resource="http://creativecommons.org/ns#Distribution"/>
    <cc:requires rdf:resource="http://creativecommons.org/ns#Notice"/>
    <cc:requires rdf:resource="http://creativecommons.org/ns#Attribution"/>
    <cc:permits rdf:resource="http://creativecommons.org/ns#DerivativeWorks"/>
   </cc:License>
  </rdf:RDF>
 </metadata>
 <defs>
  <linearGradient id="floor-shadow-gradient">
   <stop stop-color="#000" stop-opacity="0.09803922" offset="0"/>
   <stop stop-color="#000" stop-opacity="0.07843138" offset="0.93"/>
   <stop stop-color="#000" stop-opacity="0" offset="1"/>
  </linearGradient>
  <linearGradient id="linearGradient3622" y2="120.25" gradientUnits="userSpaceOnUse" x2="64" gradientTransform="matrix(0.23985576,0,0,0.23892846,-0.08201048,0.919351)" y1="108.97" x1="64">
   <stop stop-color="#4b4b4b" offset="0"/>
   <stop stop-color="#1e1e1e" offset="1"/>
  </linearGradient>
  <linearGradient id="linearGradient3982" y2="88.5" xlink:href="#floor-shadow-gradient" spreadMethod="reflect" gradientUnits="userSpaceOnUse" x2="474" gradientTransform="matrix(0.06995413,0,0,0.13333331,-1.9082572,17.449979)" y1="88.5" x1="256"/>
  <linearGradient id="linearGradient3988" y2="88.5" xlink:href="#floor-shadow-gradient" spreadMethod="reflect" gradientUnits="userSpaceOnUse" x2="474" gradientTransform="matrix(0.07110092,0,0,0.16666666,-2.2018354,14.499968)" y1="88.5" x1="256"/>
  <linearGradient id="linearGradient3992" y2="88.5" xlink:href="#floor-shadow-gradient" spreadMethod="reflect" gradientUnits="userSpaceOnUse" x2="474" gradientTransform="matrix(0.07224772,0,0,0.20000005,-2.495413,11.549988)" y1="88.5" x1="256"/>
  <linearGradient id="linearGradient3996" y2="88.5" xlink:href="#floor-shadow-gradient" spreadMethod="reflect" gradientUnits="userSpaceOnUse" x2="474" gradientTransform="matrix(0.07339448,0,0,0.23333335,-2.7889906,8.5999775)" y1="88.5" x1="256"/>
  <linearGradient id="linearGradient3871" y2="112.25" gradientUnits="userSpaceOnUse" x2="83" gradientTransform="matrix(0.23985577,0,0,0.23892846,-0.23151842,-1.115077)" y1="12" x1="83">
   <stop stop-color="#c3c3c3" offset="0"/>
   <stop stop-color="#e1e1e1" offset="1"/>
  </linearGradient>
  <linearGradient id="linearGradient3881" y2="451.2" gradientUnits="userSpaceOnUse" x2="145" gradientTransform="matrix(0.05996394,0,0,0.05973212,0.19450044,-1.176047)" y1="53.39" x1="145">
   <stop stop-color="#FFF" stop-opacity="0.11764706" offset="0"/>
   <stop stop-color="#FFF" stop-opacity="0.25490198" offset="1"/>
  </linearGradient>
  <linearGradient id="linearGradient3897" y2="443.25" spreadMethod="reflect" gradientUnits="userSpaceOnUse" x2="521.36" gradientTransform="matrix(0.05996394,0,0,0.05973212,-0.26257449,-1.173635)" y1="443.25" x1="272.33">
   <stop stop-color="#f5f5f5" offset="0"/>
   <stop stop-color="#ebebeb" offset="0.95"/>
   <stop stop-color="#dcdcdc" stop-opacity="0" offset="1"/>
  </linearGradient>
  <radialGradient id="radialGradient4044" gradientUnits="userSpaceOnUse" cy="456.5" cx="68.25" gradientTransform="matrix(2.626409,0,0,2.1793562,-111.00241,-536.3761)" r="11.75">
   <stop stop-color="#aff3ff" offset="0"/>
   <stop stop-color="#0f5cd7" offset="1"/>
  </radialGradient>
  <linearGradient id="linearGradient4085" y2="389" spreadMethod="reflect" gradientUnits="userSpaceOnUse" x2="356" y1="389" x1="260.5">
   <stop stop-color="#fafafa" offset="0"/>
   <stop stop-color="#e1e1e1" offset="0.65"/>
   <stop stop-color="#AAA" offset="1"/>
  </linearGradient>
  <linearGradient id="linearGradient4134" y2="392" gradientUnits="userSpaceOnUse" x2="198" gradientTransform="matrix(0.05996394,0,0,0.05973212,0.24105832,-1.464724)" y1="158.45" x1="198">
   <stop stop-color="#FFF" stop-opacity="0.09803922" offset="0"/>
   <stop stop-color="#FFF" stop-opacity="0.17647059" offset="0.7"/>
   <stop stop-color="#FFF" stop-opacity="0.92156863" offset="1"/>
  </linearGradient>
  <radialGradient id="radialGradient4083" gradientUnits="userSpaceOnUse" cy="397" cx="256" gradientTransform="matrix(0.12380333,0,0,0.1194708,-16.131941,-25.207375)" r="160">
   <stop stop-color="#f5f5f5" offset="0"/>
   <stop stop-color="#c3c3c3" offset="1"/>
  </radialGradient>
  <radialGradient id="radialGradient4197" gradientUnits="userSpaceOnUse" cy="351" cx="231" gradientTransform="matrix(2.0003682,0,0,1.6081391,-231.08505,-223.45683)" r="51">
   <stop stop-color="#f5f5f5" offset="0"/>
   <stop stop-color="#d2d2d2" offset="1"/>
  </radialGradient>
  <linearGradient id="linearGradient4243" y2="478" gradientUnits="userSpaceOnUse" x2="377.01" gradientTransform="matrix(0.05996394,0,0,0.05973212,-0.252068,0.448051)" y1="463" x1="377.01">
   <stop stop-color="#141414" offset="0"/>
   <stop stop-color="#414141" offset="1"/>
  </linearGradient>
  <linearGradient id="linearGradient4860" y2="474" gradientUnits="userSpaceOnUse" x2="272" gradientTransform="matrix(0.05164319,0,0,0.18181819,3.1361498,-57.181874)" y1="463" x1="272">
   <stop stop-color="#4b2e19" offset="0"/>
   <stop stop-color="#8e6830" offset="1"/>
  </linearGradient>
  <linearGradient id="linearGradient4192" y2="111" gradientUnits="userSpaceOnUse" x2="70" gradientTransform="matrix(0.24093004,0,0,0.2400207,-0.30168777,-0.867213)" y1="11" x1="70">
   <stop stop-color="#bebebe" offset="0"/>
   <stop stop-color="#c3c3c3" offset="1"/>
  </linearGradient>
  <linearGradient id="linearGradient4117" y2="85" gradientUnits="userSpaceOnUse" x2="63.69" gradientTransform="matrix(0.30048576,0,0,0.2993665,0.60000856,3.268219)" y1="78" x1="63.69">
   <stop stop-color="#FFF" stop-opacity="0.35294119" offset="0"/>
   <stop stop-color="#FFF" stop-opacity="0.11764706" offset="1"/>
  </linearGradient>
  <linearGradient id="linearGradient4125" y2="86.002" gradientUnits="userSpaceOnUse" x2="70.822" gradientTransform="matrix(0.30048576,0,0,0.2993665,0.69451739,3.904164)" y1="77" x1="70.822">
   <stop stop-color="#373737" offset="0"/>
   <stop stop-color="#1e1e1e" offset="1"/>
  </linearGradient>
  <linearGradient id="linearGradient3242" y2="471" gradientUnits="userSpaceOnUse" x2="195" gradientTransform="matrix(0.25000001,0,0,0.25,-34.250007,-88.750033)" y1="463" x1="195">
   <stop stop-color="#cd680f" offset="0"/>
   <stop stop-color="#f8f298" offset="1"/>
  </linearGradient>
  <linearGradient id="linearGradient4040" y2="345.76" gradientUnits="userSpaceOnUse" x2="287.67" y1="252.17" x1="287.67">
   <stop stop-color="#e6e6e6" offset="0"/>
   <stop stop-color="#d2d2d2" offset="1"/>
  </linearGradient>
 </defs>
 <rect fill-rule="evenodd" rx="0.83258" ry="1.75" height="3.5" width="32" y="27.5" x="0" fill="url(#linearGradient3996)"/>
 <rect fill-rule="evenodd" rx="0.7875" ry="1.5" height="3" width="31.5" y="27.75" x="0.25" fill="url(#linearGradient3992)"/>
 <rect fill-rule="evenodd" rx="0.74315" ry="1.25" height="2.5" width="31" y="28" x="0.5" fill="url(#linearGradient3988)"/>
 <rect fill-rule="evenodd" rx="0.69954" ry="1" height="2" width="30.5" y="28.25" x="0.75" fill="url(#linearGradient3982)"/>
 <path d="m1.5,24.5,0.5,4c0.078727,0.29268,0.96303,1,1.5,1h25c0.54549,0,1.4189-0.69842,1.5-1l0.5-4z" stroke="url(#linearGradient4125)" stroke-width="1" fill="url(#linearGradient3622)"/>
 <path d="m2.5,25.5,0.5,3c0.078727,0.29268,0.96303,1,1.5,1h23c0.54549,0,1.4189-0.69842,1.5-1l0.5-3z" stroke="url(#linearGradient4117)" stroke-width="1" fill="none"/>
 <path d="m1.5,24.5c0,0.75576,0.89911,1,1.5,1h26c0.66696,0,1.5-0.24494,1.5-1l-3.5-19c0-0.14826-0.8337-1-1.5-1h-19c-0.6669,0-1.5,0.8545-1.5,1z" stroke="url(#linearGradient4192)" stroke-width="1" fill="url(#linearGradient3871)"/>
 <path d="m2.5,24c0,0.75576,0.22054,1.5,0.82143,1.5h24.857c0.668,0,1.322-0.745,1.322-1.5l-3.5-18c0-0.1483-0.334-0.5-1-0.5h-18c-0.6669,0-1,0.3545-1,0.5z" stroke="url(#linearGradient3881)" stroke-width="1" fill="none"/>
 <path stroke-linejoin="round" d="m1.5,24.5c0,0.69736,0.80586,1,1.5,1h26c0.7589,0,1.5-0.29715,1.5-1" stroke="url(#linearGradient3897)" stroke-linecap="round" stroke-miterlimit="4" stroke-dasharray="none" stroke-width="1" fill="none"/>
 <path d="M10.5,29,10,26,27,26,26.5,29z" fill-opacity="0.07843137" fill="#FFF"/>
 <path fill="url(#linearGradient4243)" d="M11.5,29,11,27,26,27,25.5,29z"/>
 <rect fill-rule="evenodd" fill-opacity="0.19608" rx="0" ry="0" height="2" width="13" y="27" x="12" fill="#000"/>
 <rect fill-rule="evenodd" rx="0" ry="0" height="2" width="11" y="27" x="13" fill="url(#linearGradient4860)"/>
 <path stroke-linejoin="miter" d="m13,28.5,11,0" stroke-opacity="0.09803922" stroke="#FFF" stroke-linecap="butt" stroke-width="1px" fill="none"/>
 <rect id="rect4261" fill-rule="evenodd" rx="0" ry="0" height="2" width="1" y="27" x="14" fill="url(#linearGradient3242)"/>
 <use xlink:href="#rect4261" transform="translate(2,0)" height="32" width="32" y="0" x="0"/>
 <use xlink:href="#rect4261" transform="translate(4,0)" height="32" width="32" y="0" x="0"/>
 <use xlink:href="#rect4261" transform="translate(6,0)" height="32" width="32" y="0" x="0"/>
 <use xlink:href="#rect4261" transform="translate(8,0)" height="32" width="32" y="0" x="0"/>
 <path d="m356,312a95.5,77,0,1,1,-191,0,95.5,77,0,1,1,191,0z" fill-rule="evenodd" transform="matrix(0.10994764,0,0,0.07142857,-12.641361,-2.2857138)" stroke="#c8c8c8" stroke-miterlimit="4" stroke-dasharray="none" stroke-width="11.2842083" fill="url(#linearGradient4085)"/>
 <path stroke-linejoin="round" d="M8.5,11.5,19,11.5,18,14.5h-2c-3.4081,0-8.5,0.86603-8.5,4,0,2.7024,3.4125,4,8.5,4s8.5-1.4167,8.5-4c0-0.89318-0.37841-1.2483-1-2l-1.5-9h-13z" stroke="#c3c3c3" stroke-width="1" fill="url(#radialGradient4083)"/>
 <path stroke-linejoin="round" d="m9.5,10.5,10.5,0-1.5,5h-2.5c-2.4512,0-8.5,1.218-8.5,3,0,2.8026,3.8782,4,8.5,4s8.5-1.3614,8.5-4c0-0.89318-0.37842-1.2483-1-2l-2-8h-11.5z" stroke="url(#linearGradient4134)" stroke-width="1" fill="none"/>
 <path d="m282,300a51,41,0,1,1,-102,0,51,41,0,1,1,102,0z" fill-rule="evenodd" transform="matrix(0.08823529,0,0,0.07317073,-4.3823522,-3.451219)" stroke="url(#linearGradient4040)" stroke-miterlimit="4" stroke-dasharray="none" stroke-width="12.44543743" fill="url(#radialGradient4197)"/>
 <path d="m80,468.25a11.75,9.75,0,1,1,-23.5,0,11.75,9.75,0,1,1,23.5,0z" fill-rule="evenodd" transform="matrix(0.08510638,0,0,0.10256431,-0.80851047,-20.025741)" fill="url(#radialGradient4044)"/>
 <rect fill-rule="evenodd" rx="0" ry="0" height="1" width="1" y="24" x="3" fill="#c3c3c3"/>
 <rect fill-rule="evenodd" rx="0" ry="0" height="1" width="1" y="23" x="3" fill="#ebebeb"/>
 <rect fill-rule="evenodd" rx="0" ry="0" height="1" width="1" y="24" x="28" fill="#c3c3c3"/>
 <rect fill-rule="evenodd" rx="0" ry="0" height="1" width="1" y="23" x="28" fill="#ebebeb"/>
 <rect fill-rule="evenodd" rx="0" ry="0" height="1" width="1" y="7" x="6" fill="#b4b4b4"/>
 <rect fill-rule="evenodd" rx="0" ry="0" height="1" width="1" y="6" x="6" fill="#d7d7d7"/>
 <rect fill-rule="evenodd" rx="0" ry="0" height="1" width="1" y="7" x="25" fill="#b4b4b4"/>
 <rect fill-rule="evenodd" rx="0" ry="0" height="1" width="1" y="6" x="25" fill="#d7d7d7"/>
</svg>
