<?xml version="1.0" encoding="UTF-8" standalone="no"?>
<!-- Created with Inkscape (http://www.inkscape.org/) -->
<svg xmlns:rdf="http://www.w3.org/1999/02/22-rdf-syntax-ns#" xmlns="http://www.w3.org/2000/svg" height="256" width="256" version="1.1" xmlns:cc="http://creativecommons.org/ns#" xmlns:xlink="http://www.w3.org/1999/xlink" xmlns:dc="http://purl.org/dc/elements/1.1/">
 <title>Samée - 256px - Removable alt</title>
 <metadata>
  <rdf:RDF>
   <cc:Work rdf:about="">
    <dc:format>image/svg+xml</dc:format>
    <dc:type rdf:resource="http://purl.org/dc/dcmitype/StillImage"/>
    <dc:title>Samée - 256px - Removable alt</dc:title>
    <dc:date>2011-03-22</dc:date>
    <dc:creator>
     <cc:Agent>
      <dc:title>Harenome Ranaivoarivony Razanajato</dc:title>
     </cc:Agent>
    </dc:creator>
    <dc:description/>
    <cc:license rdf:resource="http://creativecommons.org/licenses/by/3.0/"/>
    <dc:subject>
     <rdf:Bag>
      <rdf:li>hard</rdf:li>
      <rdf:li>disk</rdf:li>
      <rdf:li>drive</rdf:li>
      <rdf:li>removable</rdf:li>
      <rdf:li>drive-removable</rdf:li>
     </rdf:Bag>
    </dc:subject>
   </cc:Work>
   <cc:License rdf:about="http://creativecommons.org/licenses/by/3.0/">
    <cc:permits rdf:resource="http://creativecommons.org/ns#Reproduction"/>
    <cc:permits rdf:resource="http://creativecommons.org/ns#Distribution"/>
    <cc:requires rdf:resource="http://creativecommons.org/ns#Notice"/>
    <cc:requires rdf:resource="http://creativecommons.org/ns#Attribution"/>
    <cc:permits rdf:resource="http://creativecommons.org/ns#DerivativeWorks"/>
   </cc:License>
  </rdf:RDF>
 </metadata>
 <defs>
  <linearGradient id="top-2-side-lights-gradient">
   <stop stop-color="#000" stop-opacity="0.03921569" offset="0"/>
   <stop stop-color="#FFF" stop-opacity="0.13725491" offset="0.35"/>
   <stop stop-color="#FFF" stop-opacity="0.39215687" offset="0.5"/>
   <stop stop-color="#FFF" stop-opacity="0" offset="1"/>
  </linearGradient>
  <linearGradient id="top-side-lights-gradient">
   <stop stop-color="#000" stop-opacity="0.03921569" offset="0"/>
   <stop stop-color="#FFF" stop-opacity="0.17647059" offset="0.4"/>
   <stop stop-color="#FFF" stop-opacity="0.56862748" offset="0.55"/>
   <stop stop-color="#FFF" stop-opacity="0" offset="1"/>
  </linearGradient>
  <linearGradient id="screw-middle-gradient">
   <stop stop-color="#e1e1e1" offset="0"/>
   <stop stop-color="#bebebe" offset="1"/>
  </linearGradient>
  <linearGradient id="screw-hole-gradient">
   <stop stop-color="#828282" offset="0"/>
   <stop stop-color="#c3c3c3" offset="1"/>
  </linearGradient>
  <linearGradient id="screw-gradient">
   <stop stop-color="#ebebeb" offset="0"/>
   <stop stop-color="#c3c3c3" offset="1"/>
  </linearGradient>
  <linearGradient id="screw-back-gradient">
   <stop stop-color="#e1e1e1" offset="0"/>
   <stop stop-color="#b9b9b9" offset="1"/>
  </linearGradient>
  <linearGradient id="bottom-holes-sides-shadow-gradient">
   <stop stop-color="#000" stop-opacity="0.39215687" offset="0"/>
   <stop stop-color="#000" stop-opacity="0" offset="1"/>
  </linearGradient>
  <linearGradient id="floor-shadow-gradient">
   <stop stop-color="#000" stop-opacity="0.09803922" offset="0"/>
   <stop stop-color="#000" stop-opacity="0.07843138" offset="0.93"/>
   <stop stop-color="#000" stop-opacity="0" offset="1"/>
  </linearGradient>
  <linearGradient id="bottom-side-lights-gradient">
   <stop stop-color="#000" stop-opacity="0.09803922" offset="0"/>
   <stop stop-color="#555" stop-opacity="0.39215687" offset="0.1"/>
   <stop stop-color="#7d7d7d" stop-opacity="0.29411766" offset="0.16"/>
   <stop stop-color="#646464" stop-opacity="0.13725491" offset="0.3"/>
   <stop stop-color="#000" stop-opacity="0" offset="1"/>
  </linearGradient>
  <linearGradient id="bottom-inlay-gradient">
   <stop stop-color="#2d2d2d" offset="0"/>
   <stop stop-color="#3c3c3c" offset="1"/>
  </linearGradient>
  <filter id="3px-blur-filter" color-interpolation-filters="sRGB">
   <feGaussianBlur stdDeviation="1.3999999999999999" in="SourceGraphic"/>
  </filter>
  <linearGradient id="linearGradient3622" y2="120" gradientUnits="userSpaceOnUse" x2="64" gradientTransform="matrix(1.9955056,0,0,1.9954442,0.787641,-1.94536)" y1="113.25" x1="64">
   <stop stop-color="#4b4b4b" offset="0"/>
   <stop stop-color="#232323" offset="0.85"/>
   <stop stop-color="#2d2d2d" offset="1"/>
  </linearGradient>
  <linearGradient id="linearGradient3632" y2="113.25" gradientUnits="userSpaceOnUse" x2="83" gradientTransform="matrix(1.9955056,0,0,1.9954442,0.537078,-2.02313)" y1="11.75" x1="83">
   <stop stop-color="#b9b9b9" offset="0"/>
   <stop stop-color="#c3c3c3" offset="0.3"/>
   <stop stop-color="#cdcdcd" offset="1"/>
  </linearGradient>
  <linearGradient id="linearGradient3640" y2="107.25" gradientUnits="userSpaceOnUse" x2="41.794" gradientTransform="matrix(1.9955056,0,0,1.9954442,1.078651,-2.07739)" y1="16" x1="41.794">
   <stop stop-color="#c8c8c8" offset="0"/>
   <stop stop-color="#e1e1e1" offset="0.65"/>
   <stop stop-color="#ebebeb" offset="1"/>
  </linearGradient>
  <linearGradient id="linearGradient3656" y2="113.06" xlink:href="#bottom-side-lights-gradient" gradientUnits="userSpaceOnUse" x2="19.149" gradientTransform="matrix(1.9955056,0,0,1.9954442,1.787641,-1.94536)" y1="115.72" x1="9.2196"/>
  <linearGradient id="linearGradient3686" y2="112.79" xlink:href="#bottom-side-lights-gradient" gradientUnits="userSpaceOnUse" x2="107.35" gradientTransform="matrix(1.9955056,0,0,1.9954442,1.787641,-1.94536)" y1="115.5" x1="117.45"/>
  <linearGradient id="linearGradient3982" y2="88.5" xlink:href="#floor-shadow-gradient" spreadMethod="reflect" gradientUnits="userSpaceOnUse" x2="474" gradientTransform="matrix(0.49999999,0,0,0.66666668,0.99999727,174.99999)" y1="88.5" x1="256"/>
  <linearGradient id="linearGradient3988" y2="88.5" xlink:href="#floor-shadow-gradient" spreadMethod="reflect" gradientUnits="userSpaceOnUse" x2="474" gradientTransform="matrix(0.50229362,0,0,0.73333335,0.41284295,169.10001)" y1="88.5" x1="256"/>
  <linearGradient id="linearGradient3992" y2="88.5" xlink:href="#floor-shadow-gradient" spreadMethod="reflect" gradientUnits="userSpaceOnUse" x2="474" gradientTransform="matrix(0.50458721,0,0,0.80000007,-0.17431488,163.20001)" y1="88.5" x1="256"/>
  <linearGradient id="linearGradient3996" y2="88.5" xlink:href="#floor-shadow-gradient" spreadMethod="reflect" gradientUnits="userSpaceOnUse" x2="474" gradientTransform="matrix(0.50688079,0,0,0.86666674,-0.76146788,157.3)" y1="88.5" x1="256"/>
  <linearGradient id="linearGradient4000" y2="88.5" xlink:href="#floor-shadow-gradient" spreadMethod="reflect" gradientUnits="userSpaceOnUse" x2="474" gradientTransform="matrix(0.50917439,0,0,0.93333348,-1.3486257,151.4)" y1="88.5" x1="256"/>
  <linearGradient id="linearGradient4004" y2="88.5" xlink:href="#floor-shadow-gradient" spreadMethod="reflect" gradientUnits="userSpaceOnUse" x2="474" gradientTransform="matrix(0.51146801,0,0,1.0000001,-1.9357801,145.50001)" y1="88.5" x1="256"/>
  <linearGradient id="linearGradient3871" y2="112.25" gradientUnits="userSpaceOnUse" x2="83" gradientTransform="matrix(1.9955056,0,0,1.9954442,0.541573,-2.03169)" y1="12" x1="83">
   <stop stop-color="#c3c3c3" offset="0"/>
   <stop stop-color="#cdcdcd" offset="0.3"/>
   <stop stop-color="#e6e6e6" offset="1"/>
  </linearGradient>
  <linearGradient id="linearGradient3881" y2="446.5" gradientUnits="userSpaceOnUse" x2="145" gradientTransform="matrix(0.4988764,0,0,0.49886105,1.787641,-1.53546)" y1="46.5" x1="145">
   <stop stop-color="#FFF" stop-opacity="0.05882353" offset="0"/>
   <stop stop-color="#FFF" stop-opacity="0.19607843" offset="1"/>
  </linearGradient>
  <linearGradient id="linearGradient3897" y2="443.25" gradientUnits="userSpaceOnUse" x2="479" gradientTransform="matrix(0.4988764,0,0,0.49886105,0.787641,-1.5259)" y1="443.25" x1="253.88">
   <stop stop-color="#FFF" stop-opacity="0.29411766" offset="0"/>
   <stop stop-color="#FFF" stop-opacity="0.19607843" offset="0.9"/>
   <stop stop-color="#FFF" stop-opacity="0.17647059" offset="1"/>
  </linearGradient>
  <linearGradient id="linearGradient3884" y2="429" gradientUnits="userSpaceOnUse" x2="335" gradientTransform="matrix(0.4988764,0,0,0.49886105,1.787641,-1.07325)" y1="62" x1="335">
   <stop stop-color="#bebebe" offset="0"/>
   <stop stop-color="#d2d2d2" offset="1"/>
  </linearGradient>
  <linearGradient id="linearGradient3894" y2="427" gradientUnits="userSpaceOnUse" x2="256" gradientTransform="matrix(0.4988764,0,0,0.49886105,1.787641,-1.58124)" y1="62" x1="256">
   <stop stop-color="#FFF" stop-opacity="0.05882353" offset="0"/>
   <stop stop-color="#FFF" stop-opacity="0.29411766" offset="1"/>
  </linearGradient>
  <linearGradient id="linearGradient3914" y2="477.92" gradientUnits="userSpaceOnUse" x2="77.389" y1="458.58" x1="77.389">
   <stop stop-color="#464646" offset="0"/>
   <stop stop-color="#191919" offset="1"/>
  </linearGradient>
  <linearGradient id="linearGradient3935" y2="478" xlink:href="#bottom-inlay-gradient" gradientUnits="userSpaceOnUse" x2="59.404" y1="458.5" x1="59.404"/>
  <linearGradient id="linearGradient3956" y2="469" gradientUnits="userSpaceOnUse" x2="178" gradientTransform="matrix(0.4988764,0,0,0.49886105,0.107865,0.01617)" y1="457" x1="178">
   <stop stop-color="#191919" offset="0"/>
   <stop stop-color="#282828" offset="0.45"/>
   <stop stop-color="#323232" offset="0.65"/>
   <stop stop-color="#414141" offset="1"/>
  </linearGradient>
  <linearGradient id="linearGradient3978" y2="470" gradientUnits="userSpaceOnUse" x2="268" gradientTransform="matrix(0.4988764,0,0,0.49886105,-0.393259,0.53531)" y1="453.96" x1="268">
   <stop stop-color="#FFF" stop-opacity="0.01960784" offset="0"/>
   <stop stop-color="#FFF" stop-opacity="0.03921569" offset="0.75"/>
   <stop stop-color="#FFF" stop-opacity="0.13725491" offset="1"/>
  </linearGradient>
  <linearGradient id="linearGradient3926" y2="463" xlink:href="#bottom-holes-sides-shadow-gradient" gradientUnits="userSpaceOnUse" x2="102" gradientTransform="matrix(0.4988764,0,0,0.49886105,0.107865,0.03417)" y1="463" x1="96"/>
  <linearGradient id="linearGradient3930" y2="463" xlink:href="#bottom-holes-sides-shadow-gradient" gradientUnits="userSpaceOnUse" x2="410" gradientTransform="matrix(0.4988764,0,0,0.49886105,0.460671,0.03417)" y1="463" x1="416"/>
  <radialGradient id="radialGradient3938" gradientUnits="userSpaceOnUse" cy="456.5" cx="68.25" gradientTransform="matrix(2.626409,0,0,2.1793562,-111.00241,-536.3761)" r="11.75">
   <stop stop-color="#b6f78f" offset="0"/>
   <stop stop-color="#187e18" offset="1"/>
  </radialGradient>
  <radialGradient id="radialGradient3944" gradientUnits="userSpaceOnUse" cy="480" cx="68.25" gradientTransform="matrix(1.8646555,0,0,1.5472641,-59.012736,-264.68682)" r="11.75">
   <stop stop-color="#b6f78f" stop-opacity="0.29411766" offset="0"/>
   <stop stop-color="#187e18" stop-opacity="0.09803922" offset="1"/>
  </radialGradient>
  <radialGradient id="radialGradient3161" xlink:href="#screw-gradient" gradientUnits="userSpaceOnUse" cy="434.65" cx="50.353" gradientTransform="matrix(1.9977837,0,0,2.6770303,-50.212597,-727.04482)" r="4.4194"/>
  <linearGradient id="linearGradient3163" y2="424.92" xlink:href="#screw-hole-gradient" gradientUnits="userSpaceOnUse" x2="65.634" y1="410.23" x1="57.154"/>
  <linearGradient id="linearGradient3169" y2="433.58" xlink:href="#screw-hole-gradient" gradientUnits="userSpaceOnUse" x2="63.951" y1="412.05" x1="63.951"/>
  <radialGradient id="radialGradient4008" xlink:href="#screw-back-gradient" gradientUnits="userSpaceOnUse" cy="434.65" cx="50.353" gradientTransform="matrix(1.9977837,0,0,2.6770303,-50.212597,-727.04482)" r="4.4194"/>
  <linearGradient id="linearGradient4010" y2="421.93" xlink:href="#screw-hole-gradient" gradientUnits="userSpaceOnUse" x2="63.88" y1="412.05" x1="54"/>
  <linearGradient id="linearGradient4012" y2="424.93" xlink:href="#screw-hole-gradient" gradientUnits="userSpaceOnUse" x2="66.222" y1="410.1" x1="57.657"/>
  <linearGradient id="linearGradient3201" y2="418.95" xlink:href="#screw-hole-gradient" gradientUnits="userSpaceOnUse" x2="65.945" y1="410.23" x1="50.846"/>
  <linearGradient id="linearGradient3984" y2="451" xlink:href="#top-side-lights-gradient" gradientUnits="userSpaceOnUse" x2="57" gradientTransform="matrix(0.4988764,0,0,0.49886105,0.537078,-1.02533)" y1="427" x1="33"/>
  <linearGradient id="linearGradient3997" y2="450.5" xlink:href="#top-side-lights-gradient" gradientUnits="userSpaceOnUse" x2="453.75" gradientTransform="matrix(0.4988764,0,0,0.49886105,0.05955,-1.02533)" y1="425.25" x1="479"/>
  <linearGradient id="linearGradient4001" y2="430" xlink:href="#top-2-side-lights-gradient" gradientUnits="userSpaceOnUse" x2="102.5" gradientTransform="matrix(0.4988764,0,0,0.49886105,1.787641,-1.07325)" y1="394.5" x1="67"/>
  <linearGradient id="linearGradient4005" y2="430" xlink:href="#top-2-side-lights-gradient" gradientUnits="userSpaceOnUse" x2="405.85" gradientTransform="matrix(0.4988764,0,0,0.49886105,1.787641,-1.07325)" y1="390.85" x1="445"/>
  <radialGradient id="radialGradient4078" xlink:href="#screw-middle-gradient" gradientUnits="userSpaceOnUse" cy="434.65" cx="50.353" gradientTransform="matrix(1.9977837,0,0,2.6770303,-50.212597,-727.04482)" r="4.4194"/>
  <linearGradient id="linearGradient4080" y2="421.81" xlink:href="#screw-hole-gradient" gradientUnits="userSpaceOnUse" x2="44.241" y1="412.05" x1="54"/>
  <linearGradient id="linearGradient4123" y2="433.77" xlink:href="#screw-hole-gradient" gradientUnits="userSpaceOnUse" x2="60.796" y1="415.2" x1="65.772"/>
 </defs>
 <rect fill-rule="evenodd" rx="6.25" ry="7.5" height="15" filter="url(#3px-blur-filter)" width="223" y="226.5" x="17.5" fill="url(#linearGradient4004)"/>
 <rect fill-rule="evenodd" rx="6" ry="7" height="14" filter="url(#3px-blur-filter)" width="222" y="227" x="18" fill="url(#linearGradient4000)"/>
 <rect fill-rule="evenodd" rx="5.75" ry="6.5" height="13" filter="url(#3px-blur-filter)" width="221" y="227.5" x="18.5" fill="url(#linearGradient3996)"/>
 <rect fill-rule="evenodd" rx="5.5" ry="6" height="12" filter="url(#3px-blur-filter)" width="220" y="228" x="19" fill="url(#linearGradient3992)"/>
 <rect fill-rule="evenodd" rx="5.25" ry="5.5" height="11" filter="url(#3px-blur-filter)" width="219" y="228.5" x="19.5" fill="url(#linearGradient3988)"/>
 <rect fill-rule="evenodd" rx="5" ry="5" height="10" filter="url(#3px-blur-filter)" width="218" y="229" x="20" fill="url(#linearGradient3982)"/>
 <path fill="url(#linearGradient3622)" d="m17,218,4.5,15.5c0.65498,2.4444,2.0326,4.5,6.5,4.5h201c4.5382,0,4.8251-1.9814,5.5-4.5l4.5-15.5z"/>
 <path fill="url(#linearGradient3656)" d="m17,218,4.5,15.5c0.70339,2.625,2.4735,4.5,6.5,4.5h12v-20z"/>
 <path fill="url(#linearGradient3686)" d="M216,218,216,238h13c3.7445,0,4.6919-1.4841,5.5-4.5l4.5-15.5z"/>
 <path fill="url(#linearGradient3632)" d="m17,216.5c0,6.3118,5.0008,7.5,10,7.5h202c5.5489,0,10-1.194,10-7.5l-25.5-189c0-1.2382-3.4566-6.5-9-6.5h-153c-5.5486,0-9,5.2848-9,6.5z"/>
 <path fill="url(#linearGradient3984)" d="m17,216.5c0,6.3118,5.0008,7.5,10,7.5h202l-177.5-203c-5.5486,0-9,5.2848-9,6.5z"/>
 <path fill="url(#linearGradient3997)" d="m27,224,202,0c5.5489,0,10-1.194,10-7.5l-25.5-189c0-1.2382-3.4566-6.5-9-6.5z"/>
 <path stroke-linejoin="round" d="m17.5,216c0,5.8241,4.225,7.5,10,7.5h201c6.3137,0,10-1.63,10-7.5" stroke="url(#linearGradient3897)" stroke-linecap="round" stroke-miterlimit="4" stroke-dasharray="none" stroke-width="1" fill="none"/>
 <path fill="url(#linearGradient3871)" d="m19,214.5c0,6.3118,5.0008,7.5,10,7.5h198c5.5489,0,10-1.194,10-7.5l-24-186.5c0-1.2382-3.4566-6-9-6h-153c-5.5486,0-8,4.7848-8,6z"/>
 <path d="m19.5,213.5c0,6.3118,5.0008,8,10,8h197c5.5489,0,10-1.694,10-8l-24-185c0-1.2382-3.4566-6-9-6h-152c-5.5486,0-8,4.7848-8,6z" stroke="url(#linearGradient3881)" stroke-width="1" fill="none"/>
 <path fill-opacity="0.1372549" fill="#000" d="m65.5,30c-5.805,0-10,4.5326-10,7.5l-7,58.5c0,7.469,11.5,8.509,11.5,18,0,11.154-17,12.416-17,20l-9,69c0,6.0748,4.1901,12,10,12h168c5.6566,0,10-6.0392,10-12l-9-69c0-7.5702-17-8.8347-17-20,0-9.6026,11.5-10.453,11.5-18l-7-58.5c0-3.5627-4.8973-7.5-10-7.5h-46.5c-6.7441,0-5.8494,7-16,7-10.114,0-8.3978-7-15-7z"/>
 <path fill="url(#linearGradient3884)" d="m65.5,29c-5.805,0-10,4.5326-10,7.5l-7,58.5c0,7.469,11.5,8.509,11.5,18,0,11.154-17,12.416-17,20l-9,69c0,6.0748,4.1901,12,10,12h168c5.6566,0,10-6.0392,10-12l-9-69c0-7.5702-17-8.8347-17-20,0-9.6026,11.5-10.453,11.5-18l-7-58.5c0-3.5627-4.8973-7.5-10-7.5h-46.5c-6.7441,0-5.8494,7-16,7-10.114,0-8.3978-7-15-7z"/>
 <path fill="url(#linearGradient4001)" d="m65.5,29c-5.805,0-10,4.5326-10,7.5l-7,58.5c0,7.469,11.5,8.509,11.5,18,0,11.154-17,12.416-17,20l-9,69c0,6.0748,4.1901,12,10,12h168z"/>
 <path fill="url(#linearGradient4005)" d="m44,214,168,0c5.6566,0,10-6.0392,10-12l-9-69c0-7.5702-17-8.8347-17-20,0-9.6026,11.5-10.453,11.5-18l-7-58.5c0-3.5627-4.8973-7.5-10-7.5z"/>
 <path fill="url(#linearGradient3640)" d="m65.5,30c-5.805,0-9,4.0326-9,7l-7,58c0,7.469,10.5,7.509,10.5,17,0,11.154-16,13.416-16,21l-8,68c0,6.7803,5.7193,11,11,11h162c5.3038,0,11-4.51,11-11l-8-68c0-7.5702-16-9.8347-16-21,0-9.6026,10.5-9.4532,10.5-17l-7-58c0-3.5627-3.8973-7-9-7h-47.5c-6.7441,0-4.8494,7-15,7-10.114,0-8.3978-7-15-7z"/>
 <path d="m67,30.5c-5.805,0-10,4.0326-10,7l-7,57c0,7.469,10.5,8.009,10.5,17.5,0,11.154-16,13.916-16,21.5l-8,67c0,6.7803,5.7193,11,11,11h161c5.3038,0,11-4.51,11-11l-8-67c0-7.5702-16-10.335-16-21.5,0-9.6026,10.5-9.9532,10.5-17.5l-7-57c0-3.5627-3.8973-7-9-7h-46.5c-6.7441,0-5.3494,7-15.5,7-10.114,0-8.8978-7-15.5-7z" stroke="url(#linearGradient3894)" stroke-width="1" fill="none"/>
 <path fill-rule="evenodd" fill="url(#linearGradient3978)" d="m47,227,162,0-1.5,8-159,0z"/>
 <path fill-rule="evenodd" fill="url(#linearGradient3956)" d="m48,228,160,0-1.5,6-157,0z"/>
 <path fill-rule="evenodd" fill="url(#linearGradient3926)" d="m48,228,3-0.00033l-1.5,6z"/>
 <path fill-rule="evenodd" fill="url(#linearGradient3930)" d="m205,228,3,0-1.5,6z"/>
 <path d="m80,468.25a11.75,9.75,0,1,1,-23.5,0,11.75,9.75,0,1,1,23.5,0z" fill-rule="evenodd" transform="matrix(0.5106383,0,0,0.51282157,186.14894,-9.128714)" fill="url(#linearGradient3935)"/>
 <path d="m80,468.25a11.75,9.75,0,1,1,-23.5,0,11.75,9.75,0,1,1,23.5,0z" fill-rule="evenodd" fill-opacity="0.29411765" transform="matrix(0.38297872,0,0,0.3589751,194.8617,63.909898)" fill="#000"/>
 <path d="m80,468.25a11.75,9.75,0,1,1,-23.5,0,11.75,9.75,0,1,1,23.5,0z" fill-rule="evenodd" transform="matrix(0.38297872,0,0,0.3589751,194.8617,62.909898)" fill="url(#linearGradient3914)"/>
 <path d="m80,468.25a11.75,9.75,0,1,1,-23.5,0,11.75,9.75,0,1,1,23.5,0z" stroke-opacity="0.07843137" transform="matrix(0.34042553,0,0,0.30769294,197.76596,86.922771)" stroke="#FFF" stroke-dasharray="none" stroke-miterlimit="4" stroke-width="3.08979869" fill="none"/>
 <path d="M221,229,219,231h4zm0,1,0,1h4v-0.99997z" fill-opacity="0.05882353" fill-rule="evenodd" fill="#FFF"/>
 <path d="m80,468.25a11.75,9.75,0,1,1,-23.5,0,11.75,9.75,0,1,1,23.5,0z" fill-rule="evenodd" transform="matrix(0.38297872,0,0,0.3589751,9.3617023,63.409898)" fill="url(#linearGradient3935)"/>
 <path d="m80,468.25a11.75,9.75,0,1,1,-23.5,0,11.75,9.75,0,1,1,23.5,0z" fill-rule="evenodd" fill-opacity="0.29411765" transform="matrix(0.21276596,0,0,0.20512863,20.978723,135.94851)" fill="#000"/>
 <path d="m80,468.25a11.75,9.75,0,1,1,-23.5,0,11.75,9.75,0,1,1,23.5,0z" fill-rule="evenodd" transform="matrix(0.38297872,0,0,0.3589751,9.3617022,63.409901)" fill="url(#radialGradient3944)"/>
 <path d="m80,468.25a11.75,9.75,0,1,1,-23.5,0,11.75,9.75,0,1,1,23.5,0z" fill-rule="evenodd" transform="matrix(0.21276596,0,0,0.20512863,20.978723,134.94851)" fill="url(#radialGradient3938)"/>
 <path d="m54.801,430.59a4.4194,5.922,0,1,1,-8.8388,0,4.4194,5.922,0,1,1,8.8388,0z" fill-rule="evenodd" transform="matrix(1.0182338,0,0,0.5910146,-22.300003,-40.987536)" fill="#afafaf"/>
 <path d="m54.801,430.59a4.4194,5.922,0,1,1,-8.8388,0,4.4194,5.922,0,1,1,8.8388,0z" fill-rule="evenodd" transform="matrix(1.0182338,0,0,0.5910146,-22.300001,-41.987538)" fill="#f0f0f0"/>
 <path d="m54.801,430.59a4.4194,5.922,0,1,1,-8.8388,0,4.4194,5.922,0,1,1,8.8388,0z" fill-rule="evenodd" transform="matrix(1.0182338,0,0,0.5910146,-22.300003,-42.987536)" fill="url(#radialGradient3161)"/>
 <path d="m54,431.95-2.8144-7.1361-7.1361-2.8144,7.1361-2.8144,2.8144-7.1361,2.8144,7.1361,7.1361,2.8144-7.1361,2.8144z" fill-rule="evenodd" fill-opacity="0.49019608" transform="matrix(0.25124244,0,0,0.2512347,15.432908,106.47903)" fill="#FFF"/>
 <path d="m54,431.95-2.8144-7.1361-7.1361-2.8144,7.1361-2.8144,2.8144-7.1361,2.8144,7.1361,7.1361,2.8144-7.1361,2.8144z" fill-rule="evenodd" transform="matrix(0.25124244,0,0,0.2512347,15.432908,105.47903)" fill="url(#linearGradient3169)"/>
 <path d="m54.801,430.59a4.4194,5.922,0,1,1,-8.8388,0,4.4194,5.922,0,1,1,8.8388,0z" fill-rule="evenodd" transform="matrix(1.0182338,0,0,0.5910146,175.7,-40.987538)" fill="#afafaf"/>
 <path d="m54.801,430.59a4.4194,5.922,0,1,1,-8.8388,0,4.4194,5.922,0,1,1,8.8388,0z" fill-rule="evenodd" transform="matrix(1.0182338,0,0,0.5910146,175.7,-41.987536)" fill="#f0f0f0"/>
 <path d="m54.801,430.59a4.4194,5.922,0,1,1,-8.8388,0,4.4194,5.922,0,1,1,8.8388,0z" fill-rule="evenodd" transform="matrix(1.0182338,0,0,0.5910146,175.7,-42.987536)" fill="url(#radialGradient3161)"/>
 <path d="m54,431.95-2.8144-7.1361-7.1361-2.8144,7.1361-2.8144,2.8144-7.1361,2.8144,7.1361,7.1361,2.8144-7.1361,2.8144z" fill-rule="evenodd" fill-opacity="0.49019608" transform="matrix(0.21758401,0.12561832,-0.12562219,0.2175773,268.26303,113.89902)" fill="#FFF"/>
 <path d="m54,431.95-2.8144-7.1361-7.1361-2.8144,7.1361-2.8144,2.8144-7.1361,2.8144,7.1361,7.1361,2.8144-7.1361,2.8144z" fill-rule="evenodd" transform="matrix(0.21758401,0.12561832,-0.12562219,0.2175773,268.26303,112.89902)" fill="url(#linearGradient3163)"/>
 <path d="m54.801,430.59a4.4194,5.922,0,1,1,-8.8388,0,4.4194,5.922,0,1,1,8.8388,0z" fill-rule="evenodd" transform="matrix(0.67882251,0,0,0.33772263,17.299999,-117.42145)" fill="#afafaf"/>
 <path d="m54.801,430.59a4.4194,5.922,0,1,1,-8.8388,0,4.4194,5.922,0,1,1,8.8388,0z" fill-rule="evenodd" transform="matrix(0.67882251,0,0,0.33772263,17.299999,-118.42145)" fill="#e1e1e1"/>
 <path d="m54.801,430.59a4.4194,5.922,0,1,1,-8.8388,0,4.4194,5.922,0,1,1,8.8388,0z" fill-rule="evenodd" transform="matrix(0.67882251,0,0,0.33772263,17.299999,-119.42145)" fill="url(#radialGradient4008)"/>
 <path d="m54,431.95-2.8144-7.1361-7.1361-2.8144,7.1361-2.8144,2.8144-7.1361,2.8144,7.1361,7.1361,2.8144-7.1361,2.8144z" fill-rule="evenodd" fill-opacity="0.49019608" transform="matrix(0.1305504,0.07537099,-0.07537447,0.13054839,76.258306,-32.661462)" fill="#FFF"/>
 <path d="m54,431.95-2.8144-7.1361-7.1361-2.8144,7.1361-2.8144,2.8144-7.1361,2.8144,7.1361,7.1361,2.8144-7.1361,2.8144z" fill-rule="evenodd" transform="matrix(0.1305504,0.07537099,-0.07537331,0.13054639,76.257817,-33.660589)" fill="url(#linearGradient4012)"/>
 <path d="m54.801,430.59a4.4194,5.922,0,1,1,-8.8388,0,4.4194,5.922,0,1,1,8.8388,0z" fill-rule="evenodd" transform="matrix(0.67882251,0,0,0.33772263,170.3,-117.42145)" fill="#afafaf"/>
 <path d="m54.801,430.59a4.4194,5.922,0,1,1,-8.8388,0,4.4194,5.922,0,1,1,8.8388,0z" fill-rule="evenodd" transform="matrix(0.67882251,0,0,0.33772263,170.3,-118.42145)" fill="#e1e1e1"/>
 <path d="m54.801,430.59a4.4194,5.922,0,1,1,-8.8388,0,4.4194,5.922,0,1,1,8.8388,0z" fill-rule="evenodd" transform="matrix(0.67882251,0,0,0.33772263,170.3,-119.42145)" fill="url(#radialGradient4008)"/>
 <path d="m54,431.95-2.8144-7.1361-7.1361-2.8144,7.1361-2.8144,2.8144-7.1361,2.8144,7.1361,7.1361,2.8144-7.1361,2.8144z" fill-rule="evenodd" fill-opacity="0.49019608" transform="matrix(0.10659478,0.1065915,-0.10659478,0.1065915,243.72688,-24.237557)" fill="#FFF"/>
 <path d="m54,431.95-2.8144-7.1361-7.1361-2.8144,7.1361-2.8144,2.8144-7.1361,2.8144,7.1361,7.1361,2.8144-7.1361,2.8144z" fill-rule="evenodd" transform="matrix(0.10659478,0.1065915,-0.10659478,0.1065915,243.72688,-25.237557)" fill="url(#linearGradient4010)"/>
 <path d="m54.801,430.59a4.4194,5.922,0,1,1,-8.8388,0,4.4194,5.922,0,1,1,8.8388,0z" fill-rule="evenodd" transform="matrix(0.67882251,0,0,0.33772263,93.799999,-117.42145)" fill="#afafaf"/>
 <path d="m54.801,430.59a4.4194,5.922,0,1,1,-8.8388,0,4.4194,5.922,0,1,1,8.8388,0z" fill-rule="evenodd" transform="matrix(0.67882251,0,0,0.33772263,93.799999,-118.42145)" fill="#e1e1e1"/>
 <path d="m54.801,430.59a4.4194,5.922,0,1,1,-8.8388,0,4.4194,5.922,0,1,1,8.8388,0z" fill-rule="evenodd" transform="matrix(0.67882251,0,0,0.33772263,93.799999,-119.42145)" fill="url(#radialGradient4008)"/>
 <path d="m54,431.95-2.8144-7.1361-7.1361-2.8144,7.1361-2.8144,2.8144-7.1361,2.8144,7.1361,7.1361,2.8144-7.1361,2.8144z" fill-rule="evenodd" fill-opacity="0.49019608" transform="matrix(0.07537331,0.13054639,-0.1305504,0.07537099,179.02211,-12.356042)" fill="#FFF"/>
 <path d="m54,431.95-2.8144-7.1361-7.1361-2.8144,7.1361-2.8144,2.8144-7.1361,2.8144,7.1361,7.1361,2.8144-7.1361,2.8144z" fill-rule="evenodd" transform="matrix(0.07537331,0.13054639,-0.1305504,0.07537099,179.02211,-13.356042)" fill="url(#linearGradient3201)"/>
 <path d="m54.801,430.59a4.4194,5.922,0,1,1,-8.8388,0,4.4194,5.922,0,1,1,8.8388,0z" fill-rule="evenodd" transform="matrix(0.90509668,0,0,0.50658395,-2.6000009,-105.13218)" fill="#a5a5a5"/>
 <path d="m54.801,430.59a4.4194,5.922,0,1,1,-8.8388,0,4.4194,5.922,0,1,1,8.8388,0z" fill-rule="evenodd" transform="matrix(0.90509668,0,0,0.50658395,-2.6000009,-106.13218)" fill="#e6e6e6"/>
 <path d="m54.801,430.59a4.4194,5.922,0,1,1,-8.8388,0,4.4194,5.922,0,1,1,8.8388,0z" fill-rule="evenodd" transform="matrix(0.90509668,0,0,0.50658395,-2.6000009,-107.13218)" fill="url(#radialGradient4078)"/>
 <path d="m54,431.95-2.8144-7.1361-7.1361-2.8144,7.1361-2.8144,2.8144-7.1361,2.8144,7.1361,7.1361,2.8144-7.1361,2.8144z" fill-rule="evenodd" fill-opacity="0.49019608" transform="matrix(0.14212637,-0.142122,0.14212637,0.142122,-24.652157,59.699102)" fill="#FFF"/>
 <path d="m54,431.95-2.8144-7.1361-7.1361-2.8144,7.1361-2.8144,2.8144-7.1361,2.8144,7.1361,7.1361,2.8144-7.1361,2.8144z" fill-rule="evenodd" transform="matrix(0.14212637,-0.142122,0.14212637,0.142122,-24.652157,58.699102)" fill="url(#linearGradient4080)"/>
 <path d="m54.801,430.59a4.4194,5.922,0,1,1,-8.8388,0,4.4194,5.922,0,1,1,8.8388,0z" fill-rule="evenodd" transform="matrix(0.90509668,0,0,0.50658395,167.4,-105.13218)" fill="#a5a5a5"/>
 <path d="m54.801,430.59a4.4194,5.922,0,1,1,-8.8388,0,4.4194,5.922,0,1,1,8.8388,0z" fill-rule="evenodd" transform="matrix(0.90509668,0,0,0.50658395,167.4,-106.13218)" fill="#e6e6e6"/>
 <path d="m54.801,430.59a4.4194,5.922,0,1,1,-8.8388,0,4.4194,5.922,0,1,1,8.8388,0z" fill-rule="evenodd" transform="matrix(0.90509668,0,0,0.50658395,167.4,-107.13218)" fill="url(#radialGradient4078)"/>
 <path d="m54,431.95-2.8144-7.1361-7.1361-2.8144,7.1361-2.8144,2.8144-7.1361,2.8144,7.1361,7.1361,2.8144-7.1361,2.8144z" fill-rule="evenodd" fill-opacity="0.49019608" transform="matrix(0.19414565,-0.05201957,0.05202117,0.19413968,180.5632,32.88216)" fill="#FFF"/>
 <path d="m54,431.95-2.8144-7.1361-7.1361-2.8144,7.1361-2.8144,2.8144-7.1361,2.8144,7.1361,7.1361,2.8144-7.1361,2.8144z" fill-rule="evenodd" transform="matrix(0.19414565,-0.05201957,0.05202117,0.19413968,180.5632,31.882159)" fill="url(#linearGradient4123)"/>
</svg>
