<?xml version="1.0" encoding="UTF-8" standalone="no"?>
<!-- Created with Inkscape (http://www.inkscape.org/) -->
<svg xmlns:rdf="http://www.w3.org/1999/02/22-rdf-syntax-ns#" xmlns="http://www.w3.org/2000/svg" height="256" width="256" version="1.1" xmlns:cc="http://creativecommons.org/ns#" xmlns:xlink="http://www.w3.org/1999/xlink" xmlns:dc="http://purl.org/dc/elements/1.1/">
 <title>Samée - 256px - HDD</title>
 <metadata>
  <rdf:RDF>
   <cc:Work rdf:about="">
    <dc:format>image/svg+xml</dc:format>
    <dc:type rdf:resource="http://purl.org/dc/dcmitype/StillImage"/>
    <dc:title>Samée - 256px - HDD</dc:title>
    <dc:date>2011-03-22</dc:date>
    <dc:creator>
     <cc:Agent>
      <dc:title>Harenome Ranaivoarivony Razanajato</dc:title>
     </cc:Agent>
    </dc:creator>
    <dc:description/>
    <cc:license rdf:resource="http://creativecommons.org/licenses/by/3.0/"/>
    <dc:subject>
     <rdf:Bag>
      <rdf:li>hard</rdf:li>
      <rdf:li>disk</rdf:li>
      <rdf:li>drive</rdf:li>
      <rdf:li>drive-harddisk</rdf:li>
      <rdf:li>harddisk</rdf:li>
     </rdf:Bag>
    </dc:subject>
   </cc:Work>
   <cc:License rdf:about="http://creativecommons.org/licenses/by/3.0/">
    <cc:permits rdf:resource="http://creativecommons.org/ns#Reproduction"/>
    <cc:permits rdf:resource="http://creativecommons.org/ns#Distribution"/>
    <cc:requires rdf:resource="http://creativecommons.org/ns#Notice"/>
    <cc:requires rdf:resource="http://creativecommons.org/ns#Attribution"/>
    <cc:permits rdf:resource="http://creativecommons.org/ns#DerivativeWorks"/>
   </cc:License>
  </rdf:RDF>
 </metadata>
 <defs>
  <linearGradient id="top-side-lights-gradient">
   <stop stop-color="#000" stop-opacity="0.03921569" offset="0"/>
   <stop stop-color="#FFF" stop-opacity="0.17647059" offset="0.4"/>
   <stop stop-color="#FFF" stop-opacity="0.56862748" offset="0.55"/>
   <stop stop-color="#FFF" stop-opacity="0" offset="1"/>
  </linearGradient>
  <linearGradient id="screw-hole-gradient">
   <stop stop-color="#828282" offset="0"/>
   <stop stop-color="#c3c3c3" offset="1"/>
  </linearGradient>
  <linearGradient id="screw-gradient">
   <stop stop-color="#ebebeb" offset="0"/>
   <stop stop-color="#c3c3c3" offset="1"/>
  </linearGradient>
  <linearGradient id="screw-back-gradient">
   <stop stop-color="#e1e1e1" offset="0"/>
   <stop stop-color="#b9b9b9" offset="1"/>
  </linearGradient>
  <linearGradient id="bottom-holes-sides-shadow-gradient">
   <stop stop-color="#000" stop-opacity="0.39215687" offset="0"/>
   <stop stop-color="#000" stop-opacity="0" offset="1"/>
  </linearGradient>
  <linearGradient id="floor-shadow-gradient">
   <stop stop-color="#000" stop-opacity="0.09803922" offset="0"/>
   <stop stop-color="#000" stop-opacity="0.07843138" offset="0.93"/>
   <stop stop-color="#000" stop-opacity="0" offset="1"/>
  </linearGradient>
  <linearGradient id="bottom-side-lights-gradient">
   <stop stop-color="#000" stop-opacity="0.09803922" offset="0"/>
   <stop stop-color="#555" stop-opacity="0.39215687" offset="0.1"/>
   <stop stop-color="#7d7d7d" stop-opacity="0.29411766" offset="0.16"/>
   <stop stop-color="#646464" stop-opacity="0.13725491" offset="0.3"/>
   <stop stop-color="#000" stop-opacity="0" offset="1"/>
  </linearGradient>
  <filter id="3px-blur-filter" color-interpolation-filters="sRGB">
   <feGaussianBlur stdDeviation="1.3999999999999999" in="SourceGraphic"/>
  </filter>
  <linearGradient id="linearGradient3622" y2="120" gradientUnits="userSpaceOnUse" x2="64" gradientTransform="matrix(1.9955056,0,0,1.9954442,0.787641,-1.94536)" y1="113.25" x1="64">
   <stop stop-color="#4b4b4b" offset="0"/>
   <stop stop-color="#232323" offset="0.85"/>
   <stop stop-color="#2d2d2d" offset="1"/>
  </linearGradient>
  <linearGradient id="linearGradient3632" y2="113.25" gradientUnits="userSpaceOnUse" x2="83" gradientTransform="matrix(1.9955056,0,0,1.9954442,0.537078,-2.02313)" y1="11.75" x1="83">
   <stop stop-color="#b9b9b9" offset="0"/>
   <stop stop-color="#c3c3c3" offset="0.3"/>
   <stop stop-color="#cdcdcd" offset="1"/>
  </linearGradient>
  <linearGradient id="linearGradient3656" y2="113.06" xlink:href="#bottom-side-lights-gradient" gradientUnits="userSpaceOnUse" x2="19.149" gradientTransform="matrix(1.9955056,0,0,1.9954442,1.787641,-1.94536)" y1="115.72" x1="9.2196"/>
  <linearGradient id="linearGradient3686" y2="112.79" xlink:href="#bottom-side-lights-gradient" gradientUnits="userSpaceOnUse" x2="107.35" gradientTransform="matrix(1.9955056,0,0,1.9954442,1.787641,-1.94536)" y1="115.5" x1="117.45"/>
  <linearGradient id="linearGradient3982" y2="88.5" xlink:href="#floor-shadow-gradient" spreadMethod="reflect" gradientUnits="userSpaceOnUse" x2="474" gradientTransform="matrix(0.49999999,0,0,0.66666668,0.99999727,174.99999)" y1="88.5" x1="256"/>
  <linearGradient id="linearGradient3988" y2="88.5" xlink:href="#floor-shadow-gradient" spreadMethod="reflect" gradientUnits="userSpaceOnUse" x2="474" gradientTransform="matrix(0.50229362,0,0,0.73333335,0.41284295,169.10001)" y1="88.5" x1="256"/>
  <linearGradient id="linearGradient3992" y2="88.5" xlink:href="#floor-shadow-gradient" spreadMethod="reflect" gradientUnits="userSpaceOnUse" x2="474" gradientTransform="matrix(0.50458721,0,0,0.80000007,-0.17431488,163.20001)" y1="88.5" x1="256"/>
  <linearGradient id="linearGradient3996" y2="88.5" xlink:href="#floor-shadow-gradient" spreadMethod="reflect" gradientUnits="userSpaceOnUse" x2="474" gradientTransform="matrix(0.50688079,0,0,0.86666674,-0.76146788,157.3)" y1="88.5" x1="256"/>
  <linearGradient id="linearGradient4000" y2="88.5" xlink:href="#floor-shadow-gradient" spreadMethod="reflect" gradientUnits="userSpaceOnUse" x2="474" gradientTransform="matrix(0.50917439,0,0,0.93333348,-1.3486257,151.4)" y1="88.5" x1="256"/>
  <linearGradient id="linearGradient4004" y2="88.5" xlink:href="#floor-shadow-gradient" spreadMethod="reflect" gradientUnits="userSpaceOnUse" x2="474" gradientTransform="matrix(0.51146801,0,0,1.0000001,-1.9357801,145.50001)" y1="88.5" x1="256"/>
  <linearGradient id="linearGradient3871" y2="112.25" gradientUnits="userSpaceOnUse" x2="83" gradientTransform="matrix(1.9955056,0,0,1.9954442,0.541573,-2.03169)" y1="12" x1="83">
   <stop stop-color="#c3c3c3" offset="0"/>
   <stop stop-color="#cdcdcd" offset="0.3"/>
   <stop stop-color="#e6e6e6" offset="1"/>
  </linearGradient>
  <linearGradient id="linearGradient3881" y2="446.5" gradientUnits="userSpaceOnUse" x2="145" gradientTransform="matrix(0.4988764,0,0,0.49886105,1.787641,-1.53546)" y1="46.5" x1="145">
   <stop stop-color="#FFF" stop-opacity="0.05882353" offset="0"/>
   <stop stop-color="#FFF" stop-opacity="0.19607843" offset="1"/>
  </linearGradient>
  <linearGradient id="linearGradient3897" y2="443.25" gradientUnits="userSpaceOnUse" x2="479" gradientTransform="matrix(0.4988764,0,0,0.49886105,0.787641,-1.5259)" y1="443.25" x1="253.88">
   <stop stop-color="#FFF" stop-opacity="0.29411766" offset="0"/>
   <stop stop-color="#FFF" stop-opacity="0.19607843" offset="0.9"/>
   <stop stop-color="#FFF" stop-opacity="0.17647059" offset="1"/>
  </linearGradient>
  <linearGradient id="linearGradient3935" y2="478" gradientUnits="userSpaceOnUse" x2="59.404" y1="458.5" x1="59.404">
   <stop stop-color="#2d2d2d" offset="0"/>
   <stop stop-color="#3c3c3c" offset="1"/>
  </linearGradient>
  <radialGradient id="radialGradient3938" gradientUnits="userSpaceOnUse" cy="456.5" cx="68.25" gradientTransform="matrix(2.626409,0,0,2.1793562,-111.00241,-536.3761)" r="11.75">
   <stop stop-color="#b6f78f" offset="0"/>
   <stop stop-color="#187e18" offset="1"/>
  </radialGradient>
  <radialGradient id="radialGradient3944" gradientUnits="userSpaceOnUse" cy="480" cx="68.25" gradientTransform="matrix(1.8646555,0,0,1.5472641,-59.012736,-264.68682)" r="11.75">
   <stop stop-color="#b6f78f" stop-opacity="0.29411766" offset="0"/>
   <stop stop-color="#187e18" stop-opacity="0.09803922" offset="1"/>
  </radialGradient>
  <radialGradient id="radialGradient3161" xlink:href="#screw-gradient" gradientUnits="userSpaceOnUse" cy="434.65" cx="50.353" gradientTransform="matrix(1.9977837,0,0,2.6770303,-50.212597,-727.04482)" r="4.4194"/>
  <linearGradient id="linearGradient3163" y2="424.92" xlink:href="#screw-hole-gradient" gradientUnits="userSpaceOnUse" x2="65.634" y1="410.23" x1="57.154"/>
  <linearGradient id="linearGradient3169" y2="433.58" xlink:href="#screw-hole-gradient" gradientUnits="userSpaceOnUse" x2="63.951" y1="412.05" x1="63.951"/>
  <radialGradient id="radialGradient4008" xlink:href="#screw-back-gradient" gradientUnits="userSpaceOnUse" cy="434.65" cx="50.353" gradientTransform="matrix(1.9977837,0,0,2.6770303,-50.212597,-727.04482)" r="4.4194"/>
  <linearGradient id="linearGradient4010" y2="421.93" xlink:href="#screw-hole-gradient" gradientUnits="userSpaceOnUse" x2="63.88" y1="412.05" x1="54"/>
  <linearGradient id="linearGradient4012" y2="424.93" xlink:href="#screw-hole-gradient" gradientUnits="userSpaceOnUse" x2="66.222" y1="410.1" x1="57.657"/>
  <linearGradient id="linearGradient3984" y2="451" xlink:href="#top-side-lights-gradient" gradientUnits="userSpaceOnUse" x2="57" gradientTransform="matrix(0.4988764,0,0,0.49886105,0.537078,-1.02533)" y1="427" x1="33"/>
  <linearGradient id="linearGradient3997" y2="450.5" xlink:href="#top-side-lights-gradient" gradientUnits="userSpaceOnUse" x2="453.75" gradientTransform="matrix(0.4988764,0,0,0.49886105,0.05955,-1.02533)" y1="425.25" x1="479"/>
  <linearGradient id="linearGradient4085" y2="389" spreadMethod="reflect" gradientUnits="userSpaceOnUse" x2="356" y1="389" x1="260.5">
   <stop stop-color="#fafafa" offset="0"/>
   <stop stop-color="#e1e1e1" offset="0.7"/>
   <stop stop-color="#afafaf" offset="1"/>
  </linearGradient>
  <linearGradient id="linearGradient4101" y2="264" gradientUnits="userSpaceOnUse" x2="385" gradientTransform="matrix(0.4988764,0,0,0.49886105,1.787641,-2.45132)" y1="82" x1="385">
   <stop stop-color="#afafaf" offset="0"/>
   <stop stop-color="#b9b9b9" offset="0.92"/>
   <stop stop-color="#969696" offset="1"/>
  </linearGradient>
  <linearGradient id="linearGradient4117" y2="140" gradientUnits="userSpaceOnUse" x2="223.5" gradientTransform="matrix(0.4988764,0,0,0.49886105,1.787641,-2.72927)" y1="82" x1="223.5">
   <stop stop-color="#a5a5a5" offset="0"/>
   <stop stop-color="#bebebe" offset="1"/>
  </linearGradient>
  <linearGradient id="linearGradient4134" y2="392" gradientUnits="userSpaceOnUse" x2="198" gradientTransform="matrix(0.4988764,0,0,0.49886105,0.358427,-2.6601)" y1="82.5" x1="198">
   <stop stop-color="#FFF" stop-opacity="0.07843138" offset="0"/>
   <stop stop-color="#FFF" stop-opacity="0.19607843" offset="1"/>
  </linearGradient>
  <radialGradient id="radialGradient4081" gradientUnits="userSpaceOnUse" cy="351" cx="231" gradientTransform="matrix(1.8888888,0,0,1.5185184,-205.3333,-191.99997)" r="51">
   <stop stop-color="#f0f0f0" offset="0"/>
   <stop stop-color="#d2d2d2" offset="1"/>
  </radialGradient>
  <radialGradient id="radialGradient4083" gradientUnits="userSpaceOnUse" cy="397" cx="256" gradientTransform="matrix(1.029995,0,0,0.99777692,-135.85849,-202.72342)" r="160">
   <stop stop-color="#f0f0f0" offset="0"/>
   <stop stop-color="#c5c5c5" offset="1"/>
  </radialGradient>
  <linearGradient id="linearGradient4093" y2="341" spreadMethod="reflect" gradientUnits="userSpaceOnUse" x2="282" y1="341" x1="231">
   <stop stop-color="#fafafa" offset="0"/>
   <stop stop-color="#e1e1e1" offset="0.7"/>
   <stop stop-color="#afafaf" offset="1"/>
  </linearGradient>
  <linearGradient id="linearGradient4108" y2="341.41" gradientUnits="userSpaceOnUse" x2="282.28" y1="258.59" x1="282.28">
   <stop stop-color="#FFF" stop-opacity="0.07843138" offset="0"/>
   <stop stop-color="#FFF" stop-opacity="0.19607843" offset="1"/>
  </linearGradient>
  <linearGradient id="linearGradient4159" y2="137" gradientUnits="userSpaceOnUse" x2="313.13" gradientTransform="matrix(0.4988764,0,0,0.49886105,1.787641,-2.72927)" y1="137" x1="333.17">
   <stop stop-color="#000" stop-opacity="0.15686275" offset="0"/>
   <stop stop-color="#000" stop-opacity="0" offset="1"/>
  </linearGradient>
  <linearGradient id="linearGradient4169" y2="142" gradientUnits="userSpaceOnUse" x2="132.45" gradientTransform="matrix(0.4988764,0,0,0.49886105,-0.212158,-2.72927)" y1="121.55" x1="112">
   <stop stop-color="#000" stop-opacity="0" offset="0"/>
   <stop stop-color="#FFF" stop-opacity="0" offset="0.2"/>
   <stop stop-color="#FFF" stop-opacity="0.29411766" offset="0.5"/>
   <stop stop-color="#FFF" stop-opacity="0" offset="0.7"/>
   <stop stop-color="#000" stop-opacity="0" offset="1"/>
  </linearGradient>
  <linearGradient id="linearGradient4243" y2="478" gradientUnits="userSpaceOnUse" x2="377.01" gradientTransform="matrix(0.4988764,0,0,0.49886105,1.787641,-0.45558)" y1="463" x1="377.01">
   <stop stop-color="#141414" offset="0"/>
   <stop stop-color="#414141" offset="1"/>
  </linearGradient>
  <linearGradient id="linearGradient4251" y2="470.5" xlink:href="#bottom-holes-sides-shadow-gradient" gradientUnits="userSpaceOnUse" x2="410" gradientTransform="matrix(0.4988764,0,0,0.49886105,0.787641,-0.45558)" y1="470.5" x1="415"/>
  <linearGradient id="linearGradient4794" y2="470.5" xlink:href="#bottom-holes-sides-shadow-gradient" gradientUnits="userSpaceOnUse" x2="185" gradientTransform="matrix(0.4988764,0,0,0.49886105,1.787641,-0.45558)" y1="470.5" x1="180"/>
  <linearGradient id="linearGradient4860" y2="474" gradientUnits="userSpaceOnUse" x2="272" gradientTransform="matrix(0.49295774,0,0,0.54545454,2.8450679,-22.54544)" y1="463" x1="272">
   <stop stop-color="#462f1e" offset="0"/>
   <stop stop-color="#643c1e" offset="0.25"/>
   <stop stop-color="#7f572b" offset="0.75"/>
   <stop stop-color="#84663a" offset="1"/>
  </linearGradient>
  <linearGradient id="linearGradient3411" y2="471" gradientUnits="userSpaceOnUse" x2="195" gradientTransform="matrix(0.50000001,0,0,0.50000001,2.4999916,-1.5000001)" y1="463" x1="195">
   <stop stop-color="#8f4b11" offset="0"/>
   <stop stop-color="#bc740c" offset="0.25"/>
   <stop stop-color="#eeba70" offset="0.85"/>
   <stop stop-color="#fcefcf" offset="1"/>
  </linearGradient>
 </defs>
 <rect fill-rule="evenodd" rx="6.25" ry="7.5" height="15" filter="url(#3px-blur-filter)" width="223" y="226.5" x="17.5" fill="url(#linearGradient4004)"/>
 <rect fill-rule="evenodd" rx="6" ry="7" height="14" filter="url(#3px-blur-filter)" width="222" y="227" x="18" fill="url(#linearGradient4000)"/>
 <rect fill-rule="evenodd" rx="5.75" ry="6.5" height="13" filter="url(#3px-blur-filter)" width="221" y="227.5" x="18.5" fill="url(#linearGradient3996)"/>
 <rect fill-rule="evenodd" rx="5.5" ry="6" height="12" filter="url(#3px-blur-filter)" width="220" y="228" x="19" fill="url(#linearGradient3992)"/>
 <rect fill-rule="evenodd" rx="5.25" ry="5.5" height="11" filter="url(#3px-blur-filter)" width="219" y="228.5" x="19.5" fill="url(#linearGradient3988)"/>
 <rect fill-rule="evenodd" rx="5" ry="5" height="10" filter="url(#3px-blur-filter)" width="218" y="229" x="20" fill="url(#linearGradient3982)"/>
 <path fill="url(#linearGradient3622)" d="m17,218,4.5,15.5c0.65498,2.4444,2.0326,4.5,6.5,4.5h201c4.5382,0,4.8251-1.9814,5.5-4.5l4.5-15.5z"/>
 <path fill="url(#linearGradient3656)" d="m17,218,4.5,15.5c0.70339,2.625,2.4735,4.5,6.5,4.5h12v-20z"/>
 <path fill="url(#linearGradient3686)" d="M216,218,216,238h13c3.7445,0,4.6919-1.4841,5.5-4.5l4.5-15.5z"/>
 <path fill="url(#linearGradient3632)" d="m17,216.5c0,6.3118,5.0008,7.5,10,7.5h202c5.5489,0,10-1.194,10-7.5l-25.5-189c0-1.2382-3.4566-6.5-9-6.5h-153c-5.5486,0-9,5.2848-9,6.5z"/>
 <path fill="url(#linearGradient3984)" d="m17,216.5c0,6.3118,5.0008,7.5,10,7.5h202l-177.5-203c-5.5486,0-9,5.2848-9,6.5z"/>
 <path fill="url(#linearGradient3997)" d="m27,224,202,0c5.5489,0,10-1.194,10-7.5l-25.5-189c0-1.2382-3.4566-6.5-9-6.5z"/>
 <path stroke-linejoin="round" d="m17.5,216c0,5.8241,4.225,7.5,10,7.5h201c6.3137,0,10-1.63,10-7.5" stroke="url(#linearGradient3897)" stroke-linecap="round" stroke-miterlimit="4" stroke-dasharray="none" stroke-width="1" fill="none"/>
 <path fill="url(#linearGradient3871)" d="m19,214.5c0,6.3118,5.0008,7.5,10,7.5h198c5.5489,0,10-1.194,10-7.5l-24-186.5c0-1.2382-3.4566-6-9-6h-153c-5.5486,0-8,4.7848-8,6z"/>
 <path d="m19.5,213.5c0,6.3118,5.0008,8,10,8h197c5.5489,0,10-1.694,10-8l-24-185c0-1.2382-3.4566-6-9-6h-152c-5.5486,0-8,4.7848-8,6z" stroke="url(#linearGradient3881)" stroke-width="1" fill="none"/>
 <path fill-opacity="0.07843137" fill="#FFF" d="m92,238-2-9,119,0-2,9z"/>
 <path fill="url(#linearGradient4243)" d="m93,238-2-8,117,0-2,8z"/>
 <path fill="url(#linearGradient4251)" d="m205,230,3,0-2,8z"/>
 <path fill="url(#linearGradient4794)" d="m93,238-2-8,3,0z"/>
 <rect fill-rule="evenodd" fill-opacity="0.19608" rx="0" ry="0" height="7" width="107" y="230" x="96" fill="#000"/>
 <rect fill-rule="evenodd" rx="0" ry="0" height="6" width="105" y="230" x="97" fill="url(#linearGradient4860)"/>
 <path stroke-linejoin="miter" d="m97,235.5,105,0" stroke-opacity="0.09803922" stroke="#FFF" stroke-linecap="butt" stroke-width="1px" fill="none"/>
 <rect fill-rule="evenodd" fill-opacity="0.19608" rx="0" ry="0" height="5" width="103" y="230" x="98" fill="#000"/>
 <rect id="rect4261" fill-rule="evenodd" rx="0" ry="0" height="4" width="2" y="230" x="99" fill="url(#linearGradient3411)"/>
 <use xlink:href="#rect4261" transform="translate(3,0)" height="256" width="256" y="0" x="0"/>
 <use xlink:href="#rect4261" transform="translate(6,0)" height="256" width="256" y="0" x="0"/>
 <use xlink:href="#rect4261" transform="translate(9,0)" height="256" width="256" y="0" x="0"/>
 <use xlink:href="#rect4261" transform="translate(12,0)" height="256" width="256" y="0" x="0"/>
 <use xlink:href="#rect4261" transform="translate(15,0)" height="256" width="256" y="0" x="0"/>
 <use xlink:href="#rect4261" transform="translate(18,0)" height="256" width="256" y="0" x="0"/>
 <use xlink:href="#rect4261" transform="translate(21,0)" height="256" width="256" y="0" x="0"/>
 <use xlink:href="#rect4261" transform="translate(24,0)" height="256" width="256" y="0" x="0"/>
 <use xlink:href="#rect4261" transform="translate(27,0)" height="256" width="256" y="0" x="0"/>
 <use xlink:href="#rect4261" transform="translate(30,0)" height="256" width="256" y="0" x="0"/>
 <use xlink:href="#rect4261" transform="translate(33,0)" height="256" width="256" y="0" x="0"/>
 <use xlink:href="#rect4261" transform="translate(36,0)" height="256" width="256" y="0" x="0"/>
 <use xlink:href="#rect4261" transform="translate(39,0)" height="256" width="256" y="0" x="0"/>
 <use xlink:href="#rect4261" transform="translate(42,0)" height="256" width="256" y="0" x="0"/>
 <use xlink:href="#rect4261" transform="translate(45,0)" height="256" width="256" y="0" x="0"/>
 <use xlink:href="#rect4261" transform="translate(48,0)" height="256" width="256" y="0" x="0"/>
 <use xlink:href="#rect4261" transform="translate(51,0)" height="256" width="256" y="0" x="0"/>
 <use xlink:href="#rect4261" transform="translate(54,0)" height="256" width="256" y="0" x="0"/>
 <use xlink:href="#rect4261" transform="translate(57,0)" height="256" width="256" y="0" x="0"/>
 <use xlink:href="#rect4261" transform="translate(60,0)" height="256" width="256" y="0" x="0"/>
 <use xlink:href="#rect4261" transform="translate(63,0)" height="256" width="256" y="0" x="0"/>
 <use xlink:href="#rect4261" transform="translate(66,0)" height="256" width="256" y="0" x="0"/>
 <use xlink:href="#rect4261" transform="translate(69,0)" height="256" width="256" y="0" x="0"/>
 <use xlink:href="#rect4261" transform="translate(72,0)" height="256" width="256" y="0" x="0"/>
 <use xlink:href="#rect4261" transform="translate(75,0)" height="256" width="256" y="0" x="0"/>
 <use xlink:href="#rect4261" transform="translate(78,0)" height="256" width="256" y="0" x="0"/>
 <use xlink:href="#rect4261" transform="translate(81,0)" height="256" width="256" y="0" x="0"/>
 <use xlink:href="#rect4261" transform="translate(84,0)" height="256" width="256" y="0" x="0"/>
 <use xlink:href="#rect4261" transform="translate(87,0)" height="256" width="256" y="0" x="0"/>
 <use xlink:href="#rect4261" transform="translate(90,0)" height="256" width="256" y="0" x="0"/>
 <use xlink:href="#rect4261" transform="translate(93,0)" height="256" width="256" y="0" x="0"/>
 <use xlink:href="#rect4261" transform="translate(96,0)" height="256" width="256" y="0" x="0"/>
 <use xlink:href="#rect4261" transform="translate(99,0)" height="256" width="256" y="0" x="0"/>
 <path fill-opacity="0.05882353" fill="#000" d="m60,43-2.5,17c-0.67581,2.5221,2.1307,5,5,5h102.5l-14,34.5c-7.3216-1.3141-14.956-2-23-2-44.083,0-80,21.326-80,47.5s35.917,47.5,80,47.5,80-21.326,80-47.5c0-7.4595-2.8288-14.722-8.0002-21l-10-81c0-1.823-1.343-5-5-5h-120c-3.4928,0-5,3.3459-5,5z"/>
 <path fill="url(#linearGradient4101)" d="M204,130,191,45c-0.39232-2.9816-2.7968-6-8-6l13.5,84.5z"/>
 <path d="m356,312a95.5,77,0,1,1,-191,0,95.5,77,0,1,1,191,0z" fill-rule="evenodd" transform="matrix(0.89005236,0,0,0.7012987,-103.85864,-63.805194)" fill="url(#linearGradient4085)"/>
 <path d="m356,312a95.5,77,0,1,1,-191,0,95.5,77,0,1,1,191,0z" stroke-opacity="0.05882353" transform="matrix(0.88481675,0,0,0.69480519,-102.49476,-61.779219)" stroke="#000" stroke-dasharray="none" stroke-miterlimit="4" stroke-width="1.27538645" fill="none"/>
 <path fill-opacity="0.19607843" fill="#000" d="m67,41c-4.9473,0-8.1949-0.0047-9,3l-3.5,19c0,3.6506,3.1176,6,10.5,6h104v-5z"/>
 <path fill="url(#linearGradient4117)" d="m67.5,39c-4.9473,0-8.1949,2.4953-9,5.5l-3,17c0,3.6506,1.6177,6.5,9.0001,6.5h104.5v-5z"/>
 <path fill="url(#linearGradient4159)" d="m158,63,0,5,10,0,0-5z"/>
 <path fill="url(#linearGradient4169)" d="m67.5,39c-4.9473,0-8.1949,2.4953-9,5.5l-3,17c0,3.6506,1.7594,6.5,9.1418,6.5h10.358v-5z"/>
 <path fill="url(#radialGradient4083)" d="m60,44-2.5,17c-0.67581,2.5221,2.1307,5,5,5h102.5l-14,34.5c-7.3216-1.3141-14.956-2-23-2-44.083,0-80,21.326-80,47.5s35.917,47.5,80,47.5,80-21.326,80-47.5c0-7.4595-2.8288-14.722-8.0002-21l-10-81c0-1.823-1.343-5-5-5h-120c-3.4928,0-5,3.3459-5,5z"/>
 <path d="M60.5,44,58,60.5c-0.67581,2.5221,2.1307,5,5,5h102.5l-14,35c-7.32-1.314-15.46-1.5-23.5-1.5-44.083,0-79.5,20.826-79.5,47s35.417,48,79.5,48,79.5-21.826,79.5-48c0-7.4595-2.8286-14.722-8-21l-10-81.5c0-1.823-1.343-4-5-4h-119c-3.4928,0-5,2.8459-5,4.5z" stroke="url(#linearGradient4134)" stroke-width="1" fill="none"/>
 <path d="m282,300a51,41,0,1,1,-102,0,51,41,0,1,1,102,0z" fill-rule="evenodd" fill-opacity="0.07843137" transform="matrix(0.92156863,0,0,0.68292683,-84.882353,-64.878049)" fill="#000"/>
 <path d="m282,300a51,41,0,1,1,-102,0,51,41,0,1,1,102,0z" fill-rule="evenodd" transform="matrix(0.94117647,0,0,0.73170732,-89.411765,-75.512196)" fill="url(#linearGradient4093)"/>
 <path d="m282,300a51,41,0,1,1,-102,0,51,41,0,1,1,102,0z" stroke-opacity="0.05882353" transform="matrix(0.93137255,0,0,0.71951219,-87.147059,-71.853657)" stroke="#000" stroke-dasharray="none" stroke-miterlimit="4" stroke-width="1.22157252" fill="none"/>
 <path d="m282,300a51,41,0,1,1,-102,0,51,41,0,1,1,102,0z" fill-rule="evenodd" transform="matrix(0.88235294,0,0,0.6097561,-75.823529,-44.92683)" fill="url(#radialGradient4081)"/>
 <path d="m282,300a51,41,0,1,1,-102,0,51,41,0,1,1,102,0z" transform="matrix(0.87254902,0,0,0.59756097,-73.558824,-41.268291)" stroke="url(#linearGradient4108)" stroke-dasharray="none" stroke-miterlimit="4" stroke-width="1.38488591" fill="none"/>
 <path d="m80,468.25a11.75,9.75,0,1,1,-23.5,0,11.75,9.75,0,1,1,23.5,0z" fill-rule="evenodd" transform="matrix(0.38297872,0,0,0.3589751,9.3617023,63.409898)" fill="url(#linearGradient3935)"/>
 <path d="m80,468.25a11.75,9.75,0,1,1,-23.5,0,11.75,9.75,0,1,1,23.5,0z" fill-rule="evenodd" fill-opacity="0.29411765" transform="matrix(0.21276596,0,0,0.20512863,20.978723,135.94851)" fill="#000"/>
 <path d="m80,468.25a11.75,9.75,0,1,1,-23.5,0,11.75,9.75,0,1,1,23.5,0z" fill-rule="evenodd" transform="matrix(0.38297872,0,0,0.3589751,9.3617022,63.409901)" fill="url(#radialGradient3944)"/>
 <path d="m80,468.25a11.75,9.75,0,1,1,-23.5,0,11.75,9.75,0,1,1,23.5,0z" fill-rule="evenodd" transform="matrix(0.21276596,0,0,0.20512863,20.978723,134.94851)" fill="url(#radialGradient3938)"/>
 <path d="m54.801,430.59a4.4194,5.922,0,1,1,-8.8388,0,4.4194,5.922,0,1,1,8.8388,0z" fill-rule="evenodd" transform="matrix(1.0182338,0,0,0.5910146,-22.300003,-40.987536)" fill="#afafaf"/>
 <path d="m54.801,430.59a4.4194,5.922,0,1,1,-8.8388,0,4.4194,5.922,0,1,1,8.8388,0z" fill-rule="evenodd" transform="matrix(1.0182338,0,0,0.5910146,-22.300001,-41.987538)" fill="#f0f0f0"/>
 <path d="m54.801,430.59a4.4194,5.922,0,1,1,-8.8388,0,4.4194,5.922,0,1,1,8.8388,0z" fill-rule="evenodd" transform="matrix(1.0182338,0,0,0.5910146,-22.300003,-42.987536)" fill="url(#radialGradient3161)"/>
 <path d="m54,431.95-2.8144-7.1361-7.1361-2.8144,7.1361-2.8144,2.8144-7.1361,2.8144,7.1361,7.1361,2.8144-7.1361,2.8144z" fill-rule="evenodd" fill-opacity="0.49019608" transform="matrix(0.25124244,0,0,0.2512347,15.432908,106.47903)" fill="#FFF"/>
 <path d="m54,431.95-2.8144-7.1361-7.1361-2.8144,7.1361-2.8144,2.8144-7.1361,2.8144,7.1361,7.1361,2.8144-7.1361,2.8144z" fill-rule="evenodd" transform="matrix(0.25124244,0,0,0.2512347,15.432908,105.47903)" fill="url(#linearGradient3169)"/>
 <path d="m54.801,430.59a4.4194,5.922,0,1,1,-8.8388,0,4.4194,5.922,0,1,1,8.8388,0z" fill-rule="evenodd" transform="matrix(1.0182338,0,0,0.5910146,175.7,-40.987538)" fill="#afafaf"/>
 <path d="m54.801,430.59a4.4194,5.922,0,1,1,-8.8388,0,4.4194,5.922,0,1,1,8.8388,0z" fill-rule="evenodd" transform="matrix(1.0182338,0,0,0.5910146,175.7,-41.987536)" fill="#f0f0f0"/>
 <path d="m54.801,430.59a4.4194,5.922,0,1,1,-8.8388,0,4.4194,5.922,0,1,1,8.8388,0z" fill-rule="evenodd" transform="matrix(1.0182338,0,0,0.5910146,175.7,-42.987536)" fill="url(#radialGradient3161)"/>
 <path d="m54,431.95-2.8144-7.1361-7.1361-2.8144,7.1361-2.8144,2.8144-7.1361,2.8144,7.1361,7.1361,2.8144-7.1361,2.8144z" fill-rule="evenodd" fill-opacity="0.49019608" transform="matrix(0.21758401,0.12561832,-0.12562219,0.2175773,268.26303,113.89902)" fill="#FFF"/>
 <path d="m54,431.95-2.8144-7.1361-7.1361-2.8144,7.1361-2.8144,2.8144-7.1361,2.8144,7.1361,7.1361,2.8144-7.1361,2.8144z" fill-rule="evenodd" transform="matrix(0.21758401,0.12561832,-0.12562219,0.2175773,268.26303,112.89902)" fill="url(#linearGradient3163)"/>
 <path d="m54.801,430.59a4.4194,5.922,0,1,1,-8.8388,0,4.4194,5.922,0,1,1,8.8388,0z" fill-rule="evenodd" transform="matrix(0.67882251,0,0,0.33772263,17.299999,-117.42145)" fill="#afafaf"/>
 <path d="m54.801,430.59a4.4194,5.922,0,1,1,-8.8388,0,4.4194,5.922,0,1,1,8.8388,0z" fill-rule="evenodd" transform="matrix(0.67882251,0,0,0.33772263,17.299999,-118.42145)" fill="#e1e1e1"/>
 <path d="m54.801,430.59a4.4194,5.922,0,1,1,-8.8388,0,4.4194,5.922,0,1,1,8.8388,0z" fill-rule="evenodd" transform="matrix(0.67882251,0,0,0.33772263,17.299999,-119.42145)" fill="url(#radialGradient4008)"/>
 <path d="m54,431.95-2.8144-7.1361-7.1361-2.8144,7.1361-2.8144,2.8144-7.1361,2.8144,7.1361,7.1361,2.8144-7.1361,2.8144z" fill-rule="evenodd" fill-opacity="0.49019608" transform="matrix(0.1305504,0.07537099,-0.07537447,0.13054839,76.258306,-32.661462)" fill="#FFF"/>
 <path d="m54,431.95-2.8144-7.1361-7.1361-2.8144,7.1361-2.8144,2.8144-7.1361,2.8144,7.1361,7.1361,2.8144-7.1361,2.8144z" fill-rule="evenodd" transform="matrix(0.1305504,0.07537099,-0.07537331,0.13054639,76.257817,-33.660589)" fill="url(#linearGradient4012)"/>
 <path d="m54.801,430.59a4.4194,5.922,0,1,1,-8.8388,0,4.4194,5.922,0,1,1,8.8388,0z" fill-rule="evenodd" transform="matrix(0.67882251,0,0,0.33772263,170.3,-117.42145)" fill="#afafaf"/>
 <path d="m54.801,430.59a4.4194,5.922,0,1,1,-8.8388,0,4.4194,5.922,0,1,1,8.8388,0z" fill-rule="evenodd" transform="matrix(0.67882251,0,0,0.33772263,170.3,-118.42145)" fill="#e1e1e1"/>
 <path d="m54.801,430.59a4.4194,5.922,0,1,1,-8.8388,0,4.4194,5.922,0,1,1,8.8388,0z" fill-rule="evenodd" transform="matrix(0.67882251,0,0,0.33772263,170.3,-119.42145)" fill="url(#radialGradient4008)"/>
 <path d="m54,431.95-2.8144-7.1361-7.1361-2.8144,7.1361-2.8144,2.8144-7.1361,2.8144,7.1361,7.1361,2.8144-7.1361,2.8144z" fill-rule="evenodd" fill-opacity="0.49019608" transform="matrix(0.10659478,0.1065915,-0.10659478,0.1065915,243.72688,-24.237557)" fill="#FFF"/>
 <path d="m54,431.95-2.8144-7.1361-7.1361-2.8144,7.1361-2.8144,2.8144-7.1361,2.8144,7.1361,7.1361,2.8144-7.1361,2.8144z" fill-rule="evenodd" transform="matrix(0.10659478,0.1065915,-0.10659478,0.1065915,243.72688,-25.237557)" fill="url(#linearGradient4010)"/>
</svg>
