<?xml version="1.0" encoding="UTF-8" standalone="no"?>
<!-- Created with Inkscape (http://www.inkscape.org/) -->
<svg xmlns:rdf="http://www.w3.org/1999/02/22-rdf-syntax-ns#" xmlns="http://www.w3.org/2000/svg" height="96" width="96" version="1.1" xmlns:cc="http://creativecommons.org/ns#" xmlns:xlink="http://www.w3.org/1999/xlink" xmlns:dc="http://purl.org/dc/elements/1.1/">
 <title>Samée - 96 - Folder grey</title>
 <metadata>
  <rdf:RDF>
   <cc:Work rdf:about="">
    <dc:format>image/svg+xml</dc:format>
    <dc:type rdf:resource="http://purl.org/dc/dcmitype/StillImage"/>
    <dc:title>Samée - 96 - Folder grey</dc:title>
    <dc:date/>
    <dc:creator>
     <cc:Agent>
      <dc:title>Harenome Ranaivoarivony Razanajato</dc:title>
     </cc:Agent>
    </dc:creator>
    <cc:license rdf:resource="http://creativecommons.org/licenses/by/3.0/"/>
    <dc:identifier>https://github.com/HarnoRanaivo/Samee-icons</dc:identifier>
    <dc:subject>
     <rdf:Bag>
      <rdf:li>folder</rdf:li>
      <rdf:li>gnome-folder</rdf:li>
      <rdf:li>gnome-fs-directory</rdf:li>
      <rdf:li>gtk-directory</rdf:li>
      <rdf:li>inode-directory</rdf:li>
      <rdf:li>stock-folder</rdf:li>
     </rdf:Bag>
    </dc:subject>
   </cc:Work>
   <cc:License rdf:about="http://creativecommons.org/licenses/by/3.0/">
    <cc:permits rdf:resource="http://creativecommons.org/ns#Reproduction"/>
    <cc:permits rdf:resource="http://creativecommons.org/ns#Distribution"/>
    <cc:requires rdf:resource="http://creativecommons.org/ns#Notice"/>
    <cc:requires rdf:resource="http://creativecommons.org/ns#Attribution"/>
    <cc:permits rdf:resource="http://creativecommons.org/ns#DerivativeWorks"/>
   </cc:License>
  </rdf:RDF>
 </metadata>
 <defs>
  <linearGradient id="shadow-gradient">
   <stop stop-color="#000" stop-opacity="0.03921569" offset="0"/>
   <stop stop-color="#000" stop-opacity="0.02352941" offset="0.87"/>
   <stop stop-color="#000" stop-opacity="0" offset="1"/>
  </linearGradient>
  <linearGradient id="radial-light-gradient">
   <stop stop-color="#FFF" stop-opacity="0.29411766" offset="0"/>
   <stop stop-color="#FFF" stop-opacity="0" offset="1"/>
  </linearGradient>
  <linearGradient id="linearGradient3813" y2="176.66" spreadMethod="reflect" gradientUnits="userSpaceOnUse" x2="479.27" y1="176.66" x1="253.29">
   <stop stop-color="#f5f5f5" offset="0"/>
   <stop stop-color="#f5f5f5" offset="0.9"/>
   <stop stop-color="#FFF" offset="0.93"/>
   <stop stop-color="#f0f0f0" offset="0.95"/>
   <stop stop-color="#c8c8c8" offset="1"/>
  </linearGradient>
  <linearGradient id="linearGradient3835" y2="179.75" spreadMethod="reflect" gradientUnits="userSpaceOnUse" x2="482" gradientTransform="matrix(0.18585636,0,0,0.1855259,0.92529259,416.97483)" y1="179.75" x1="256">
   <stop stop-color="#FFF" stop-opacity="0.78431374" offset="0"/>
   <stop stop-color="#FFF" stop-opacity="0.78431374" offset="0.9"/>
   <stop stop-color="#FFF" stop-opacity="0" offset="1"/>
  </linearGradient>
  <radialGradient id="radialGradient3850" xlink:href="#radial-light-gradient" gradientUnits="userSpaceOnUse" cy="91.581" cx="254.36" gradientTransform="matrix(0.30844369,0,0,0.19754344,-30.457066,430.90884)" r="226"/>
  <radialGradient id="radialGradient3894" xlink:href="#radial-light-gradient" gradientUnits="userSpaceOnUse" cy="66.351" cx="253.78" gradientTransform="matrix(0.26020203,0,0,0.22806388,-18.032859,416.86777)" r="205"/>
  <linearGradient id="linearGradient3904" y2="115" gradientUnits="userSpaceOnUse" x2="457.74" gradientTransform="matrix(0.18585636,0,0,0.1855259,0.92529259,416.97483)" y1="115" x1="48.826">
   <stop stop-color="#FFF" stop-opacity="0" offset="0"/>
   <stop stop-color="#FFF" stop-opacity="0.78431374" offset="0.04"/>
   <stop stop-color="#FFF" stop-opacity="0.78431374" offset="0.35"/>
   <stop stop-color="#FFF" stop-opacity="0.35294119" offset="0.4"/>
   <stop stop-color="#FFF" stop-opacity="0.29411766" offset="0.53"/>
   <stop stop-color="#FFF" stop-opacity="0.78431374" offset="0.6"/>
   <stop stop-color="#FFF" stop-opacity="0.78431374" offset="0.96"/>
   <stop stop-color="#FFF" stop-opacity="0" offset="1"/>
  </linearGradient>
  <linearGradient id="linearGradient3926" y2="454" xlink:href="#shadow-gradient" spreadMethod="reflect" gradientUnits="userSpaceOnUse" x2="473" gradientTransform="matrix(0.18778804,0,0,0.12499999,-0.07373281,445.75002)" y1="454" x1="256"/>
  <linearGradient id="linearGradient3932" y2="454" xlink:href="#shadow-gradient" spreadMethod="reflect" gradientUnits="userSpaceOnUse" x2="473" gradientTransform="matrix(0.1889401,0,0,0.15,-0.3686644,434.39999)" y1="454" x1="256"/>
  <linearGradient id="linearGradient3936" y2="454" xlink:href="#shadow-gradient" spreadMethod="reflect" gradientUnits="userSpaceOnUse" x2="473" gradientTransform="matrix(0.19009214,0,0,0.17500001,-0.66359408,423.05001)" y1="454" x1="256"/>
  <linearGradient id="linearGradient3940" y2="454" xlink:href="#shadow-gradient" spreadMethod="reflect" gradientUnits="userSpaceOnUse" x2="473" gradientTransform="matrix(0.19124423,0,0,0.19999999,-0.95852452,411.7)" y1="454" x1="256"/>
  <linearGradient id="linearGradient3944" y2="454" xlink:href="#shadow-gradient" spreadMethod="reflect" gradientUnits="userSpaceOnUse" x2="473" gradientTransform="matrix(0.19239627,0,0,0.22500001,-1.2534559,400.34997)" y1="454" x1="256"/>
  <linearGradient id="linearGradient3948" y2="454" xlink:href="#shadow-gradient" spreadMethod="reflect" gradientUnits="userSpaceOnUse" x2="473" gradientTransform="matrix(0.19354839,0,0,0.25000002,-1.5483879,388.99997)" y1="454" x1="256"/>
  <filter id="folder-texture-filter" color-interpolation-filters="sRGB">
   <feTurbulence numOctaves="8" seed="1" type="fractalNoise" baseFrequency="0.40000000000000002"/>
   <feColorMatrix values="0 0 0 1 1 0 0 0 1 1 0 0 0 1 1 0 0 0 2.5 -0.15 " result="result0"/>
   <feFlood result="result1" flood-color="rgb(255,255,255)" flood-opacity="0.10000000000000001"/>
   <feBlend result="result2" in="result1" in2="SourceGraphic" mode="normal"/>
   <feComposite operator="out" in2="result0" result="result3"/>
   <feComposite operator="atop" in2="SourceGraphic" result="fbSourceGraphic"/>
   <feTurbulence numOctaves="8" seed="2" type="fractalNoise" baseFrequency="0.40000000000000002"/>
   <feColorMatrix values="0 0 0 1 1 0 0 0 1 1 0 0 0 1 1 0 0 0 2.5 -0.05 " result="result0"/>
   <feFlood result="result1" flood-color="rgb(0,0,0)" flood-opacity="0.089999999999999997"/>
   <feBlend result="result4" in="result1" in2="fbSourceGraphic" mode="normal"/>
   <feComposite operator="out" in2="result0" result="result5"/>
   <feComposite operator="atop" in2="fbSourceGraphic"/>
  </filter>
  <linearGradient id="linearGradient3169" y2="463.68" gradientUnits="userSpaceOnUse" x2="349" y1="166.88" x1="349">
   <stop stop-color="#cdcdcd" offset="0"/>
   <stop stop-color="#d2d2d2" offset="0.15"/>
   <stop stop-color="#c8c8c8" offset="0.7"/>
   <stop stop-color="#b4b4b4" offset="0.93"/>
   <stop stop-color="#bebebe" offset="1"/>
  </linearGradient>
  <linearGradient id="linearGradient3194" y2="166.88" gradientUnits="userSpaceOnUse" x2="158" y1="80.987" x1="158">
   <stop stop-color="#d2d2d2" offset="0"/>
   <stop stop-color="#b4b4b4" offset="0.8"/>
   <stop stop-color="#a0a0a0" offset="1"/>
  </linearGradient>
 </defs>
 <g transform="translate(0,-416)">
  <rect fill-rule="evenodd" rx="1.6875" ry="2.5" height="5" width="84" y="500" x="6" fill="url(#linearGradient3948)"/>
  <rect fill-rule="evenodd" rx="1.5914" ry="2.25" height="4.5" width="83.5" y="500.25" x="6.25" fill="url(#linearGradient3944)"/>
  <rect fill-rule="evenodd" rx="1.9124" ry="2" height="4" width="83" y="500.5" x="6.5" fill="url(#linearGradient3940)"/>
  <rect fill-rule="evenodd" rx="1.3999" ry="1.75" height="3.5" width="82.5" y="500.75" x="6.75" fill="url(#linearGradient3936)"/>
  <rect fill-rule="evenodd" rx="1.3045" ry="1.5" height="3" width="82" y="501" x="7" fill="url(#linearGradient3932)"/>
  <rect fill-rule="evenodd" rx="1.2095" ry="1.25" height="2.5" width="81.5" y="501.25" x="7.25" fill="url(#linearGradient3926)"/>
  <path d="M48.826,94.462c0-9.027,6.115-13.475,16.142-13.475h123.75c30,0,61.47,48.513,91.47,48.513h161.41c10.06,0,16.14,4.46,16.14,13.47v299.26h-408.91z" transform="matrix(0.18585635,0,0,0.1855259,0.92529259,416.97483)" filter="url(#folder-texture-filter)" fill="url(#linearGradient3194)"/>
  <path d="M10,434.5c0-1.67,1.136-2.5,3-2.5h23c5.576,0,11.424,9,17,9h30c1.869,0,3,0.83,3,2.5v55.52h-76z" fill="url(#radialGradient3894)"/>
  <path stroke-linejoin="miter" d="M10.5,435c0-1.78,1.071-2.5,2.787-2.5h22.213c5.611,0,12.375,9,18,9h29c1.728,0,3,0.69,3,2.5" stroke="url(#linearGradient3904)" stroke-linecap="butt" stroke-width="0.99999982px" fill="none"/>
  <path d="M27.304,186.09c0-8.94,8.546-18.86,21.522-18.86h408.91c13.02,0,21.53,9.77,21.53,18.86z" transform="matrix(0.18585635,0,0,0.1855259,0.92529259,416.97483)" filter="url(#folder-texture-filter)" fill="url(#linearGradient3813)"/>
  <path d="M27.304,186.09c0-8.94,6.17-13.47,16.142-13.47h419.67c10.03,0,16.15,4.38,16.15,13.47,0,0-10.76,105.53-10.76,256.03,0,7.17-0.77,21.56-15.71,21.56h-393.21c-14.906,0-21.522-14.6-21.522-21.56,0-149.27-10.761-256.03-10.761-256.03z" transform="matrix(0.18585635,0,0,0.1855259,0.92529259,416.97483)" filter="url(#folder-texture-filter)" fill="url(#linearGradient3169)"/>
  <path d="M6,451.5c0-1.66,1.1467-2.5,3-2.5h78c1.862,0,3,0.81,3,2.5,0,0-2,19.58-2,47.5,0,1.33-1.222,4-4,4h-72c-2.7705,0-4-2.71-4-4,0-27.69-2-47.5-2-47.5z" fill="url(#radialGradient3850)"/>
  <path stroke-linejoin="miter" d="M6.5,452c0-1.77,1.252-2.5,3-2.5h77c1.762,0,3,0.74,3,2.5" stroke="url(#linearGradient3835)" stroke-linecap="butt" stroke-width="0.99999982px" fill="none"/>
 </g>
</svg>
