<?xml version="1.0" encoding="UTF-8" standalone="no"?>
<!-- Created with Inkscape (http://www.inkscape.org/) -->
<svg xmlns:rdf="http://www.w3.org/1999/02/22-rdf-syntax-ns#" xmlns="http://www.w3.org/2000/svg" height="48" width="48" version="1.1" xmlns:cc="http://creativecommons.org/ns#" xmlns:xlink="http://www.w3.org/1999/xlink" xmlns:dc="http://purl.org/dc/elements/1.1/">
 <title>Samée - 48 - Folder gnome</title>
 <metadata>
  <rdf:RDF>
   <cc:Work rdf:about="">
    <dc:format>image/svg+xml</dc:format>
    <dc:type rdf:resource="http://purl.org/dc/dcmitype/StillImage"/>
    <dc:title>Samée - 48 - Folder gnome</dc:title>
    <dc:date/>
    <dc:creator>
     <cc:Agent>
      <dc:title>Harenome Ranaivoarivony Razanajato</dc:title>
     </cc:Agent>
    </dc:creator>
    <cc:license rdf:resource="http://creativecommons.org/licenses/by/3.0/"/>
    <dc:identifier>https://github.com/HarnoRanaivo/Samee-icons</dc:identifier>
    <dc:subject>
     <rdf:Bag>
      <rdf:li>folder</rdf:li>
      <rdf:li>gnome-folder</rdf:li>
      <rdf:li>gnome-fs-directory</rdf:li>
      <rdf:li>gtk-directory</rdf:li>
      <rdf:li>inode-directory</rdf:li>
      <rdf:li>stock-folder</rdf:li>
     </rdf:Bag>
    </dc:subject>
   </cc:Work>
   <cc:License rdf:about="http://creativecommons.org/licenses/by/3.0/">
    <cc:permits rdf:resource="http://creativecommons.org/ns#Reproduction"/>
    <cc:permits rdf:resource="http://creativecommons.org/ns#Distribution"/>
    <cc:requires rdf:resource="http://creativecommons.org/ns#Notice"/>
    <cc:requires rdf:resource="http://creativecommons.org/ns#Attribution"/>
    <cc:permits rdf:resource="http://creativecommons.org/ns#DerivativeWorks"/>
   </cc:License>
  </rdf:RDF>
 </metadata>
 <defs>
  <linearGradient id="shadow-gradient">
   <stop stop-color="#000" stop-opacity="0.05490196" offset="0"/>
   <stop stop-color="#000" stop-opacity="0.03529412" offset="0.85"/>
   <stop stop-color="#000" stop-opacity="0" offset="1"/>
  </linearGradient>
  <linearGradient id="radial-light-gradient">
   <stop stop-color="#FFF" stop-opacity="0.29411766" offset="0"/>
   <stop stop-color="#FFF" stop-opacity="0" offset="1"/>
  </linearGradient>
  <linearGradient id="linearGradient3835" y2="179.75" spreadMethod="reflect" gradientUnits="userSpaceOnUse" x2="477" gradientTransform="matrix(0.09279612,0,0,0.0924508,0.73654087,464.38182)" y1="178.94" x1="249.37">
   <stop stop-color="#FFF" stop-opacity="0.58823532" offset="0"/>
   <stop stop-color="#FFF" stop-opacity="0.58823532" offset="0.9"/>
   <stop stop-color="#FFF" stop-opacity="0" offset="1"/>
  </linearGradient>
  <radialGradient id="radialGradient3850" xlink:href="#radial-light-gradient" gradientUnits="userSpaceOnUse" cy="98.28" cx="252.8" gradientTransform="matrix(0.15400268,0,0,0.09843935,-14.93234,471.32538)" r="226"/>
  <radialGradient id="radialGradient3894" xlink:href="#radial-light-gradient" gradientUnits="userSpaceOnUse" cy="67.502" cx="251.92" gradientTransform="matrix(0.12991613,0,0,0.11364822,-8.7290643,464.32847)" r="205"/>
  <linearGradient id="linearGradient3904" y2="115" gradientUnits="userSpaceOnUse" x2="444.67" gradientTransform="matrix(0.09279612,0,0,0.0924508,0.73654087,464.38182)" y1="115" x1="56.721">
   <stop stop-color="#FFF" stop-opacity="0" offset="0"/>
   <stop stop-color="#FFF" stop-opacity="0.49019608" offset="0.05"/>
   <stop stop-color="#FFF" stop-opacity="0.49019608" offset="0.35"/>
   <stop stop-color="#FFF" stop-opacity="0.15686275" offset="0.4"/>
   <stop stop-color="#FFF" stop-opacity="0.09803922" offset="0.53"/>
   <stop stop-color="#FFF" stop-opacity="0.49019608" offset="0.6"/>
   <stop stop-color="#FFF" stop-opacity="0.49019608" offset="0.95"/>
   <stop stop-color="#FFF" stop-opacity="0" offset="1"/>
  </linearGradient>
  <linearGradient id="linearGradient3926" y2="454" xlink:href="#shadow-gradient" spreadMethod="reflect" gradientUnits="userSpaceOnUse" x2="473" gradientTransform="matrix(0.09562214,0,0,0.075,-0.47926303,473.94997)" y1="454" x1="256"/>
  <linearGradient id="linearGradient3932" y2="454" xlink:href="#shadow-gradient" spreadMethod="reflect" gradientUnits="userSpaceOnUse" x2="473" gradientTransform="matrix(0.0967742,0,0,0.1,-0.77419395,462.59996)" y1="454" x1="256"/>
  <linearGradient id="linearGradient3936" y2="454" xlink:href="#shadow-gradient" spreadMethod="reflect" gradientUnits="userSpaceOnUse" x2="473" gradientTransform="matrix(0.09792626,0,0,0.125,-1.0691243,451.24995)" y1="454" x1="256"/>
  <linearGradient id="linearGradient3940" y2="454" xlink:href="#shadow-gradient" spreadMethod="reflect" gradientUnits="userSpaceOnUse" x2="473" gradientTransform="matrix(0.09907834,0,0,0.15,-1.364055,439.89991)" y1="454" x1="256"/>
  <linearGradient id="linearGradient3944" y2="454" xlink:href="#shadow-gradient" spreadMethod="reflect" gradientUnits="userSpaceOnUse" x2="473" gradientTransform="matrix(0.10023038,0,0,0.17499999,-1.6589858,428.54992)" y1="454" x1="256"/>
  <linearGradient id="linearGradient3948" y2="454" xlink:href="#shadow-gradient" spreadMethod="reflect" gradientUnits="userSpaceOnUse" x2="473" gradientTransform="matrix(0.10138249,0,0,0.20000001,-1.9539173,417.19993)" y1="454" x1="256"/>
  <linearGradient id="linearGradient4058" y2="460.98" gradientUnits="userSpaceOnUse" x2="197.22" gradientTransform="matrix(0.09279612,0,0,0.0924508,0.73654087,464.38182)" y1="168.94" x1="197.22">
   <stop stop-color="#FFF" stop-opacity="0.29411766" offset="0"/>
   <stop stop-color="#FFF" stop-opacity="0.07843138" offset="0.8"/>
   <stop stop-color="#FFF" stop-opacity="0.15686275" offset="1"/>
  </linearGradient>
  <linearGradient id="linearGradient3982" y2="471.8" gradientUnits="userSpaceOnUse" x2="109.55" gradientTransform="matrix(0.09279612,0,0,0.0924508,0.73654087,464.38182)" y1="168.94" x1="109.55">
   <stop stop-color="#a2a492" offset="0"/>
   <stop stop-color="#a7aa96" offset="0.2"/>
   <stop stop-color="#9da18b" offset="0.7"/>
   <stop stop-color="#8a8f75" offset="1"/>
  </linearGradient>
  <linearGradient id="linearGradient3985" y2="471.8" gradientUnits="userSpaceOnUse" x2="349" gradientTransform="matrix(0.09279612,0,0,0.0924508,0.73654087,464.38182)" y1="168.94" x1="349">
   <stop stop-color="#b9bbad" offset="0"/>
   <stop stop-color="#bec0b2" offset="0.2"/>
   <stop stop-color="#b4b7a7" offset="0.7"/>
   <stop stop-color="#a1a591" offset="1"/>
  </linearGradient>
  <linearGradient id="linearGradient4024" y2="168.94" gradientUnits="userSpaceOnUse" x2="158" gradientTransform="matrix(0.09279612,0,0,0.0924508,0.73654087,464.38182)" y1="71.586" x1="158">
   <stop stop-color="#b2b6a8" offset="0"/>
   <stop stop-color="#9ea492" offset="0.8"/>
   <stop stop-color="#909583" offset="1"/>
  </linearGradient>
  <linearGradient id="linearGradient4026" y2="168.94" gradientUnits="userSpaceOnUse" x2="95.413" gradientTransform="matrix(0.09279612,0,0,0.0924508,0.73654087,464.38182)" y1="71.586" x1="95.413">
   <stop stop-color="#bbbfb3" offset="0"/>
   <stop stop-color="#a7ae9c" offset="0.8"/>
   <stop stop-color="#999f8d" offset="1"/>
  </linearGradient>
 </defs>
 <g transform="translate(0,-464)">
  <rect fill-rule="evenodd" rx="0.88393" ry="2" height="4" width="44" y="506" x="2" fill="url(#linearGradient3948)"/>
  <rect fill-rule="evenodd" rx="0.82904" ry="1.75" height="3.5" width="43.5" y="506.25" x="2.25" fill="url(#linearGradient3944)"/>
  <rect fill-rule="evenodd" rx="0.99078" ry="1.5" height="3" width="43" y="506.5" x="2.5" fill="url(#linearGradient3940)"/>
  <rect fill-rule="evenodd" rx="0.72115" ry="1.25" height="2.5" width="42.5" y="506.75" x="2.75" fill="url(#linearGradient3936)"/>
  <rect fill-rule="evenodd" rx="0.66818" ry="1" height="2" width="42" y="507" x="3" fill="url(#linearGradient3932)"/>
  <rect fill-rule="evenodd" rx="0.61587" ry="0.75" height="1.5" width="41.5" y="507.25" x="3.25" fill="url(#linearGradient3926)"/>
  <path d="M5.5,473.5c0-0.83,0.5695-2,1.5-2h11.5c2.784,0,5.216,5,8,5h14.5c0.933,0,1.5,1.17,1.5,2v26h-37z" stroke="url(#linearGradient4026)" stroke-miterlimit="4" stroke-dasharray="none" stroke-width="0.99999994" fill="url(#linearGradient4024)"/>
  <path d="M6,474c0-0.83,1.0695-2,2-2h10c2.784,0,6.216,5,9,5h13c0.933,0,1.982,0.67,1.982,1.5l0.018,25.5h-36z" fill="url(#radialGradient3894)"/>
  <path d="M6.5,474c0-0.83,0.5695-1.5,1.5-1.5h10c2.784,0,6.216,5,9,5h13c0.933,0,1.5,0.14,1.5,0.98v25.02h-35z" stroke-opacity="0.1372549" stroke="#FFF" stroke-dasharray="none" stroke-miterlimit="4" stroke-width="0.99999994" fill="none"/>
  <path stroke-linejoin="miter" d="M6.5,474c0-0.89,0.6431-1.5,1.5-1.5h10c2.802,0,6.191,5,9,5h13c0.863,0,1.5,0.6,1.5,1.5" stroke="url(#linearGradient3904)" stroke-linecap="butt" stroke-width="0.99999976px" fill="none"/>
  <path d="M3.5,482.5c0-0.83,0.5747-2,1.5-2h38c0.93,0,1.5,1.16,1.5,2,0,0-1,9.09-1,23,0,0.66-0.613,2-2,2h-35c-1.3833,0-2-1.36-2-2,0-13.8-1-23-1-23z" stroke="url(#linearGradient3982)" stroke-miterlimit="4" stroke-dasharray="none" stroke-width="0.99999994" fill="url(#linearGradient3985)"/>
  <path d="M4,483c0-0.83,0.5747-2,1.5-2h37c0.93,0,1.5,1.16,1.5,2,0,0-1,8.09-1,22,0,0.66-0.613,2-2,2h-34c-1.3833,0-2-1.36-2-2,0-13.8-1-22-1-22z" fill="url(#radialGradient3850)"/>
  <path d="M4.5,483c0-0.83,0.5747-2.5,1.5-2.5h36c0.93,0,1.5,1.66,1.5,2.5,0,0-1,7.59-1,21.5,0,0.66-0.613,2-2,2h-33c-1.3833,0-2-1.36-2-2,0-13.8-1-21.5-1-21.5z" stroke="url(#linearGradient4058)" stroke-dasharray="none" stroke-miterlimit="4" stroke-width="0.99999994" fill="none"/>
  <path stroke-linejoin="miter" d="M3.5,482.5c0-0.88,0.6272-2,1.5-2h38c0.88,0,1.5,1.12,1.5,2" stroke="url(#linearGradient3835)" stroke-linecap="butt" stroke-width="0.99999976px" fill="none"/>
 </g>
</svg>
