<?xml version="1.0" encoding="UTF-8" standalone="no"?>
<!-- Created with Inkscape (http://www.inkscape.org/) -->
<svg xmlns:rdf="http://www.w3.org/1999/02/22-rdf-syntax-ns#" xmlns="http://www.w3.org/2000/svg" height="256" width="256" version="1.1" xmlns:cc="http://creativecommons.org/ns#" xmlns:xlink="http://www.w3.org/1999/xlink" xmlns:dc="http://purl.org/dc/elements/1.1/">
 <title>Samée - 256 - Folder orange</title>
 <metadata>
  <rdf:RDF>
   <cc:Work rdf:about="">
    <dc:format>image/svg+xml</dc:format>
    <dc:type rdf:resource="http://purl.org/dc/dcmitype/StillImage"/>
    <dc:title>Samée - 256 - Folder orange</dc:title>
    <dc:date/>
    <dc:creator>
     <cc:Agent>
      <dc:title>Harenome Ranaivoarivony Razanajato</dc:title>
     </cc:Agent>
    </dc:creator>
    <cc:license rdf:resource="http://creativecommons.org/licenses/by/3.0/"/>
    <dc:publisher>
     <cc:Agent>
      <dc:title>https://github.com/HarnoRanaivo/Samee-icons</dc:title>
     </cc:Agent>
    </dc:publisher>
    <dc:subject>
     <rdf:Bag>
      <rdf:li>folder</rdf:li>
      <rdf:li>gnome-folder</rdf:li>
      <rdf:li>gnome-fs-directory</rdf:li>
      <rdf:li>gtk-directory</rdf:li>
      <rdf:li>inode-directory</rdf:li>
      <rdf:li>stock-folder</rdf:li>
     </rdf:Bag>
    </dc:subject>
   </cc:Work>
   <cc:License rdf:about="http://creativecommons.org/licenses/by/3.0/">
    <cc:permits rdf:resource="http://creativecommons.org/ns#Reproduction"/>
    <cc:permits rdf:resource="http://creativecommons.org/ns#Distribution"/>
    <cc:requires rdf:resource="http://creativecommons.org/ns#Notice"/>
    <cc:requires rdf:resource="http://creativecommons.org/ns#Attribution"/>
    <cc:permits rdf:resource="http://creativecommons.org/ns#DerivativeWorks"/>
   </cc:License>
  </rdf:RDF>
 </metadata>
 <defs>
  <linearGradient id="shadow-gradient">
   <stop stop-color="#000" stop-opacity="0.03921569" offset="0"/>
   <stop stop-color="#000" stop-opacity="0.02352941" offset="0.87"/>
   <stop stop-color="#000" stop-opacity="0" offset="1"/>
  </linearGradient>
  <linearGradient id="radial-light-gradient">
   <stop stop-color="#FFF" stop-opacity="0.29411766" offset="0"/>
   <stop stop-color="#FFF" stop-opacity="0" offset="1"/>
  </linearGradient>
  <linearGradient id="linearGradient3813" y2="176.29" spreadMethod="reflect" gradientUnits="userSpaceOnUse" x2="482.88" y1="176.29" x1="255.9">
   <stop stop-color="#f5f5f5" offset="0"/>
   <stop stop-color="#f5f5f5" offset="0.9"/>
   <stop stop-color="#FFF" offset="0.93"/>
   <stop stop-color="#f0f0f0" offset="0.95"/>
   <stop stop-color="#c8c8c8" offset="1"/>
  </linearGradient>
  <linearGradient id="linearGradient3835" y2="179.75" spreadMethod="reflect" gradientUnits="userSpaceOnUse" x2="482" gradientTransform="matrix(0.49907647,0,0,0.49887387,0.2860009,256.30289)" y1="179.75" x1="256">
   <stop stop-color="#FFF" stop-opacity="0.78431374" offset="0"/>
   <stop stop-color="#FFF" stop-opacity="0.78431374" offset="0.95"/>
   <stop stop-color="#FFF" stop-opacity="0" offset="1"/>
  </linearGradient>
  <radialGradient id="radialGradient3850" xlink:href="#radial-light-gradient" gradientUnits="userSpaceOnUse" cy="90.794" cx="255.97" gradientTransform="matrix(0.82825787,0,0,0.53118868,-83.984438,293.77103)" r="226"/>
  <linearGradient id="linearGradient3858" y2="113" gradientUnits="userSpaceOnUse" x2="460" y1="113" x1="50">
   <stop stop-color="#c8c8c8" offset="0"/>
   <stop stop-color="#e6e6e6" offset="0.02"/>
   <stop stop-color="#FFF" offset="0.04"/>
   <stop stop-color="#f5f5f5" offset="0.05"/>
   <stop stop-color="#f5f5f5" offset="0.34"/>
   <stop stop-color="#e6e6e6" offset="0.38"/>
   <stop stop-color="#c8c8c8" offset="0.5"/>
   <stop stop-color="#f5f5f5" offset="0.56"/>
   <stop stop-color="#f5f5f5" offset="0.93"/>
   <stop stop-color="#FFF" offset="0.96"/>
   <stop stop-color="#e6e6e6" offset="0.98"/>
   <stop stop-color="#c8c8c8" offset="1"/>
  </linearGradient>
  <radialGradient id="radialGradient3894" xlink:href="#radial-light-gradient" gradientUnits="userSpaceOnUse" cy="66.832" cx="255.64" gradientTransform="matrix(0.69871549,0,0,0.61325727,-50.621955,256.01499)" r="205"/>
  <linearGradient id="linearGradient3904" y2="115" gradientUnits="userSpaceOnUse" x2="462.28" gradientTransform="matrix(0.49907647,0,0,0.49887387,0.2860009,256.30289)" y1="115" x1="49.519">
   <stop stop-color="#FFF" stop-opacity="0" offset="0"/>
   <stop stop-color="#FFF" stop-opacity="0.78431374" offset="0.03"/>
   <stop stop-color="#FFF" stop-opacity="0.78431374" offset="0.35"/>
   <stop stop-color="#FFF" stop-opacity="0.35294119" offset="0.4"/>
   <stop stop-color="#FFF" stop-opacity="0.29411766" offset="0.53"/>
   <stop stop-color="#FFF" stop-opacity="0.78431374" offset="0.6"/>
   <stop stop-color="#FFF" stop-opacity="0.78431374" offset="0.97"/>
   <stop stop-color="#FFF" stop-opacity="0" offset="1"/>
  </linearGradient>
  <linearGradient id="linearGradient3926" y2="454" xlink:href="#shadow-gradient" spreadMethod="reflect" gradientUnits="userSpaceOnUse" x2="473" gradientTransform="matrix(0.50691246,0,0,0.30000001,-1.7695845,348.80001)" y1="454" x1="256"/>
  <linearGradient id="linearGradient3932" y2="454" xlink:href="#shadow-gradient" spreadMethod="reflect" gradientUnits="userSpaceOnUse" x2="473" gradientTransform="matrix(0.51152075,0,0,0.34999999,-2.9493094,326.60003)" y1="454" x1="256"/>
  <linearGradient id="linearGradient3936" y2="454" xlink:href="#shadow-gradient" spreadMethod="reflect" gradientUnits="userSpaceOnUse" x2="473" gradientTransform="matrix(0.51612899,0,0,0.40000001,-4.1290326,304.40003)" y1="454" x1="256"/>
  <linearGradient id="linearGradient3940" y2="454" xlink:href="#shadow-gradient" spreadMethod="reflect" gradientUnits="userSpaceOnUse" x2="473" gradientTransform="matrix(0.52073729,0,0,0.45000001,-5.3087555,282.20003)" y1="454" x1="256"/>
  <linearGradient id="linearGradient3944" y2="454" xlink:href="#shadow-gradient" spreadMethod="reflect" gradientUnits="userSpaceOnUse" x2="473" gradientTransform="matrix(0.52534553,0,0,0.49999999,-6.4884783,260.00003)" y1="454" x1="256"/>
  <linearGradient id="linearGradient3948" y2="454" xlink:href="#shadow-gradient" spreadMethod="reflect" gradientUnits="userSpaceOnUse" x2="473" gradientTransform="matrix(0.52995384,0,0,0.55000001,-7.6682021,237.80004)" y1="454" x1="256"/>
  <filter id="folder-texture-filter" color-interpolation-filters="sRGB">
   <feTurbulence numOctaves="8" seed="1" type="fractalNoise" baseFrequency="0.40000000000000002"/>
   <feColorMatrix values="0 0 0 1 1 0 0 0 1 1 0 0 0 1 1 0 0 0 2.5 -0.15 " result="result0"/>
   <feFlood result="result1" flood-color="rgb(255,255,255)" flood-opacity="0.14999999999999999"/>
   <feBlend result="result2" in="result1" in2="SourceGraphic" mode="normal"/>
   <feComposite operator="out" in2="result0" result="result3"/>
   <feComposite operator="atop" in2="SourceGraphic" result="fbSourceGraphic"/>
   <feTurbulence numOctaves="8" seed="2" type="fractalNoise" baseFrequency="0.40000000000000002"/>
   <feColorMatrix values="0 0 0 1 1 0 0 0 1 1 0 0 0 1 1 0 0 0 2.5 -0.05 " result="result0"/>
   <feFlood result="result1" flood-color="rgb(0,0,0)" flood-opacity="0.10000000000000001"/>
   <feBlend result="result4" in="result1" in2="fbSourceGraphic" mode="normal"/>
   <feComposite operator="out" in2="result0" result="result5"/>
   <feComposite operator="atop" in2="fbSourceGraphic"/>
  </filter>
  <linearGradient id="linearGradient3174" y2="462" gradientUnits="userSpaceOnUse" x2="349" y1="172" x1="349">
   <stop stop-color="#ffcf69" offset="0"/>
   <stop stop-color="#ffd45f" offset="0.1"/>
   <stop stop-color="#f8b452" offset="0.7"/>
   <stop stop-color="#fba33b" offset="0.96"/>
   <stop stop-color="#ffbe69" offset="1"/>
  </linearGradient>
  <linearGradient id="linearGradient3199" y2="165.77" gradientUnits="userSpaceOnUse" x2="158" y1="81.578" x1="158">
   <stop stop-color="#fad46e" offset="0"/>
   <stop stop-color="#f5ab41" offset="0.83"/>
   <stop stop-color="#f29526" offset="1"/>
  </linearGradient>
 </defs>
 <g transform="translate(0,-256)">
  <rect fill-rule="evenodd" rx="4.6205" ry="5.5" height="11" width="230" y="482" x="13" fill="url(#linearGradient3948)"/>
  <rect fill-rule="evenodd" rx="4.3453" ry="5" height="10" width="228" y="482" x="14" fill="url(#linearGradient3944)"/>
  <rect fill-rule="evenodd" rx="5.2074" ry="4.5" height="9" width="226" y="482" x="15" fill="url(#linearGradient3940)"/>
  <rect fill-rule="evenodd" rx="3.8009" ry="4" height="8" width="224" y="482" x="16" fill="url(#linearGradient3936)"/>
  <rect fill-rule="evenodd" rx="3.5318" ry="3.5" height="7" width="222" y="482" x="17" fill="url(#linearGradient3932)"/>
  <rect fill-rule="evenodd" rx="3.2648" ry="3" height="6" width="220" y="482" x="18" fill="url(#linearGradient3926)"/>
  <path d="M49.519,95.61c0-9.027,6.009-18.041,19.036-18.041h117.22c35.3,0,49.51,50.111,90.17,50.111h167.31c13.05,0,19.03,9.03,19.03,18.04h-412.76z" transform="matrix(0.49907647,0,0,0.49887387,0.2860009,256.30289)" filter="url(#folder-texture-filter)" fill="url(#linearGradient3858)"/>
  <path d="M49.519,95.61c0-9.027,5.001-14.032,15.028-14.032h125.23c30,0,60.17,50.112,90.17,50.112h167.3c10.06,0,15.03,5.02,15.03,14.03v296.67h-412.76z" transform="matrix(0.49907647,0,0,0.49887387,0.2860009,256.30289)" filter="url(#folder-texture-filter)" fill="url(#linearGradient3199)"/>
  <path d="M25,304c0-4.5,2.496-7,7.5-7h62.5c14.97,0,30.03,25,45,25h83.5c5.02,0,7.5,2.51,7.5,7v148h-206z" fill="url(#radialGradient3894)"/>
  <path stroke-linejoin="miter" d="M25.5,304.5c0-4.79,2.891-7,7.5-7h61.5c15.07,0,30.89,25,46,25h82.5c4.64,0,7.5,2.63,7.5,7.5" stroke="url(#linearGradient3904)" stroke-linecap="butt" stroke-width="0.99999994px" fill="none"/>
  <path d="M29.482,186.81c0-8.94,7.061-21.04,20.037-21.04h412.76c13.02,0,20.04,11.95,20.04,21.04z" transform="matrix(0.49907647,0,0,0.49887387,0.2860009,256.30289)" filter="url(#folder-texture-filter)" fill="url(#linearGradient3813)"/>
  <path d="M29.482,186.81c0-8.94,5.057-15.03,15.028-15.03h422.78c10.02,0,15.03,5.94,15.03,15.03,0,0-10.02,105.08-10.02,255.58,0,7.17-5.09,20.05-20.04,20.05h-392.72c-14.907,0-20.037-13.09-20.037-20.05,0-149.27-10.019-255.58-10.019-255.58z" transform="matrix(0.49907647,0,0,0.49887387,0.2860009,256.30289)" filter="url(#folder-texture-filter)" fill="url(#linearGradient3174)"/>
  <path d="M15,349.5c0-4.46,2.523-7.5,7.5-7.5h211c5,0,7.5,2.96,7.5,7.5,0,0-5,52.42-5,127.5,0,3.58-2.54,10-10,10h-196c-7.44,0-10-6.53-10-10,0-74.47-5-127.5-5-127.5z" fill="url(#radialGradient3850)"/>
  <path stroke-linejoin="miter" d="M15.5,350c0-4.75,2.806-7.5,7.5-7.5h210c4.73,0,7.55,2.76,7.55,7.5" stroke="url(#linearGradient3835)" stroke-linecap="butt" stroke-width="0.99999994px" fill="none"/>
 </g>
</svg>
