<?xml version="1.0" encoding="UTF-8" standalone="no"?>
<!-- Created with Inkscape (http://www.inkscape.org/) -->

<svg
   xmlns:dc="http://purl.org/dc/elements/1.1/"
   xmlns:cc="http://creativecommons.org/ns#"
   xmlns:rdf="http://www.w3.org/1999/02/22-rdf-syntax-ns#"
   xmlns:svg="http://www.w3.org/2000/svg"
   xmlns="http://www.w3.org/2000/svg"
   xmlns:xlink="http://www.w3.org/1999/xlink"
   version="1.1"
   width="256"
   height="256"
   id="samee_256_removable"
   style="display:inline">
  <title
     id="title">Samée - 256px - Removable</title>
  <metadata
     id="metadata">
    <rdf:RDF>
      <cc:Work
         rdf:about="">
        <dc:format>image/svg+xml</dc:format>
        <dc:type
           rdf:resource="http://purl.org/dc/dcmitype/StillImage" />
        <dc:title>Samée - 256px - Removable</dc:title>
        <dc:date>2011-03-22</dc:date>
        <dc:creator>
          <cc:Agent>
            <dc:title>Harenome Ranaivoarivony Razanajato</dc:title>
          </cc:Agent>
        </dc:creator>
        <dc:description />
        <cc:license
           rdf:resource="http://creativecommons.org/licenses/by/3.0/" />
        <dc:subject>
          <rdf:Bag>
            <rdf:li>hard</rdf:li>
            <rdf:li>disk</rdf:li>
            <rdf:li>drive</rdf:li>
            <rdf:li>removable</rdf:li>
            <rdf:li>drive-removable</rdf:li>
          </rdf:Bag>
        </dc:subject>
      </cc:Work>
      <cc:License
         rdf:about="http://creativecommons.org/licenses/by/3.0/">
        <cc:permits
           rdf:resource="http://creativecommons.org/ns#Reproduction" />
        <cc:permits
           rdf:resource="http://creativecommons.org/ns#Distribution" />
        <cc:requires
           rdf:resource="http://creativecommons.org/ns#Notice" />
        <cc:requires
           rdf:resource="http://creativecommons.org/ns#Attribution" />
        <cc:permits
           rdf:resource="http://creativecommons.org/ns#DerivativeWorks" />
      </cc:License>
    </rdf:RDF>
  </metadata>
  <defs
     id="defs">
    <linearGradient
       id="top-2-side-lights-gradient">
      <stop
         id="stop4009"
         style="stop-color:#000000;stop-opacity:0.03921569"
         offset="0" />
      <stop
         id="stop4011"
         style="stop-color:#ffffff;stop-opacity:0.13725491"
         offset="0.34999999" />
      <stop
         id="stop4013"
         style="stop-color:#ffffff;stop-opacity:0.39215687"
         offset="0.5" />
      <stop
         id="stop4015"
         style="stop-color:#ffffff;stop-opacity:0"
         offset="1" />
    </linearGradient>
    <linearGradient
       id="top-2-border-gradient">
      <stop
         id="stop3880"
         style="stop-color:#bebebe;stop-opacity:1"
         offset="0" />
      <stop
         id="stop4025"
         style="stop-color:#d2d2d2;stop-opacity:1"
         offset="1" />
    </linearGradient>
    <linearGradient
       id="top-2-base-stroke-gradient">
      <stop
         id="stop3890"
         style="stop-color:#ffffff;stop-opacity:0.05882353"
         offset="0" />
      <stop
         id="stop3892"
         style="stop-color:#ffffff;stop-opacity:0.29411766"
         offset="1" />
    </linearGradient>
    <linearGradient
       id="top-2-base-gradient">
      <stop
         id="stop3636"
         style="stop-color:#c8c8c8;stop-opacity:1"
         offset="0" />
      <stop
         id="stop3642"
         style="stop-color:#e1e1e1;stop-opacity:1"
         offset="0.64999998" />
      <stop
         id="stop3638"
         style="stop-color:#ebebeb;stop-opacity:1"
         offset="1" />
    </linearGradient>
    <linearGradient
       id="top-side-lights-gradient">
      <stop
         id="stop3979"
         style="stop-color:#000000;stop-opacity:0.03921569"
         offset="0" />
      <stop
         id="stop3986"
         style="stop-color:#ffffff;stop-opacity:0.17647059"
         offset="0.40000001" />
      <stop
         id="stop3990"
         style="stop-color:#ffffff;stop-opacity:0.56862748"
         offset="0.55000001" />
      <stop
         id="stop3982"
         style="stop-color:#ffffff;stop-opacity:0"
         offset="1" />
    </linearGradient>
    <linearGradient
       id="top-border-stroke-gradient">
      <stop
         id="stop3885"
         style="stop-color:#ffffff;stop-opacity:0.29411766"
         offset="0" />
      <stop
         id="stop3911"
         style="stop-color:#ffffff;stop-opacity:0.19607843"
         offset="0.89999998" />
      <stop
         id="stop3887"
         style="stop-color:#ffffff;stop-opacity:0.17647059"
         offset="1" />
    </linearGradient>
    <linearGradient
       id="top-border-gradient">
      <stop
         id="stop3628"
         style="stop-color:#b9b9b9;stop-opacity:1"
         offset="0" />
      <stop
         id="stop3644"
         style="stop-color:#c3c3c3;stop-opacity:1"
         offset="0.30000001" />
      <stop
         id="stop3630"
         style="stop-color:#cdcdcd;stop-opacity:1"
         offset="1" />
    </linearGradient>
    <linearGradient
       id="top-base-stroke-gradient">
      <stop
         id="stop3877"
         style="stop-color:#ffffff;stop-opacity:0.05882353"
         offset="0" />
      <stop
         id="stop3879"
         style="stop-color:#ffffff;stop-opacity:0.19607843"
         offset="1" />
    </linearGradient>
    <linearGradient
       id="top-base-gradient">
      <stop
         id="stop3865"
         style="stop-color:#c3c3c3;stop-opacity:1"
         offset="0" />
      <stop
         id="stop3867"
         style="stop-color:#cdcdcd;stop-opacity:1"
         offset="0.30000001" />
      <stop
         id="stop3869"
         style="stop-color:#e6e6e6;stop-opacity:1"
         offset="1" />
    </linearGradient>
    <linearGradient
       id="screw-middle-gradient">
      <stop
         id="stop4090"
         style="stop-color:#e1e1e1;stop-opacity:1"
         offset="0" />
      <stop
         id="stop4092"
         style="stop-color:#bebebe;stop-opacity:1"
         offset="1" />
    </linearGradient>
    <linearGradient
       id="screw-hole-gradient">
      <stop
         id="stop4005"
         style="stop-color:#828282;stop-opacity:1"
         offset="0" />
      <stop
         id="stop4007"
         style="stop-color:#c3c3c3;stop-opacity:1"
         offset="1" />
    </linearGradient>
    <linearGradient
       id="screw-gradient">
      <stop
         id="stop3997"
         style="stop-color:#ebebeb;stop-opacity:1"
         offset="0" />
      <stop
         id="stop3999"
         style="stop-color:#c3c3c3;stop-opacity:1"
         offset="1" />
    </linearGradient>
    <linearGradient
       id="screw-back-gradient">
      <stop
         id="stop3975"
         style="stop-color:#e1e1e1;stop-opacity:1"
         offset="0" />
      <stop
         id="stop3977"
         style="stop-color:#b9b9b9;stop-opacity:1"
         offset="1" />
    </linearGradient>
    <linearGradient
       id="green-led-glow-gradient">
      <stop
         id="stop3948"
         style="stop-color:#b6f78f;stop-opacity:0.29411766"
         offset="0" />
      <stop
         id="stop3950"
         style="stop-color:#187e18;stop-opacity:0.09803922"
         offset="1" />
    </linearGradient>
    <linearGradient
       id="green-led-base-gradient">
      <stop
         id="stop3934"
         style="stop-color:#b6f78f;stop-opacity:1"
         offset="0" />
      <stop
         id="stop3936"
         style="stop-color:#187e18;stop-opacity:1"
         offset="1" />
    </linearGradient>
    <linearGradient
       id="floor-shadow-gradient">
      <stop
         id="stop3978"
         style="stop-color:#000000;stop-opacity:0.09803922"
         offset="0" />
      <stop
         id="stop3984"
         style="stop-color:#000000;stop-opacity:0.07843138"
         offset="0.93000001" />
      <stop
         id="stop3980"
         style="stop-color:#000000;stop-opacity:0"
         offset="1" />
    </linearGradient>
    <linearGradient
       id="bottom-side-lights-gradient">
      <stop
         id="stop3674"
         style="stop-color:#000000;stop-opacity:0.09803922"
         offset="0" />
      <stop
         id="stop3678"
         style="stop-color:#555555;stop-opacity:0.39215687"
         offset="0.1" />
      <stop
         id="stop3682"
         style="stop-color:#7d7d7d;stop-opacity:0.29411766"
         offset="0.16" />
      <stop
         id="stop3672"
         style="stop-color:#646464;stop-opacity:0.13725491"
         offset="0.30000001" />
      <stop
         id="stop3654"
         style="stop-color:#000000;stop-opacity:0"
         offset="1" />
    </linearGradient>
    <linearGradient
       id="bottom-inlay-gradient">
      <stop
         id="stop3918"
         style="stop-color:#2d2d2d;stop-opacity:1"
         offset="0" />
      <stop
         id="stop3920"
         style="stop-color:#3c3c3c;stop-opacity:1"
         offset="1" />
    </linearGradient>
    <linearGradient
       id="bottom-base-gradient">
      <stop
         id="stop3618"
         style="stop-color:#4b4b4b;stop-opacity:1"
         offset="0" />
      <stop
         id="stop3624"
         style="stop-color:#232323;stop-opacity:1"
         offset="0.85000002" />
      <stop
         id="stop3620"
         style="stop-color:#2d2d2d;stop-opacity:1"
         offset="1" />
    </linearGradient>
    <filter
       color-interpolation-filters="sRGB"
       id="3px-blur-filter">
      <feGaussianBlur
         in="SourceGraphic"
         id="feGaussianBlur4008"
         stdDeviation="1.3999999999999999" />
    </filter>
    <linearGradient
       x1="64"
       y1="113.25002"
       x2="64"
       y2="120.00002"
       id="linearGradient3622"
       xlink:href="#bottom-base-gradient"
       gradientUnits="userSpaceOnUse"
       gradientTransform="matrix(1.9955056,0,0,1.9954442,0.787641,-1.94536)" />
    <linearGradient
       x1="83"
       y1="11.75004"
       x2="83"
       y2="113.25004"
       id="linearGradient3632"
       xlink:href="#top-border-gradient"
       gradientUnits="userSpaceOnUse"
       gradientTransform="matrix(1.9955056,0,0,1.9954442,0.537078,-2.02313)" />
    <linearGradient
       x1="41.793625"
       y1="16"
       x2="41.793625"
       y2="107.25"
       id="linearGradient3640"
       xlink:href="#top-2-base-gradient"
       gradientUnits="userSpaceOnUse"
       gradientTransform="matrix(1.9955056,0,0,1.9954442,1.078651,-2.07739)" />
    <linearGradient
       x1="9.2195501"
       y1="115.72208"
       x2="19.149212"
       y2="113.06135"
       id="linearGradient3656"
       xlink:href="#bottom-side-lights-gradient"
       gradientUnits="userSpaceOnUse"
       gradientTransform="matrix(1.9955056,0,0,1.9954442,1.787641,-1.94536)" />
    <linearGradient
       x1="117.44554"
       y1="115.50002"
       x2="107.34741"
       y2="112.79415"
       id="linearGradient3686"
       xlink:href="#bottom-side-lights-gradient"
       gradientUnits="userSpaceOnUse"
       gradientTransform="matrix(1.9955056,0,0,1.9954442,1.787641,-1.94536)" />
    <linearGradient
       x1="256"
       y1="88.5"
       x2="474"
       y2="88.5"
       id="linearGradient3982"
       xlink:href="#floor-shadow-gradient"
       gradientUnits="userSpaceOnUse"
       gradientTransform="matrix(0.49999999,0,0,0.66666668,0.99999727,174.99999)"
       spreadMethod="reflect" />
    <linearGradient
       x1="256"
       y1="88.5"
       x2="474"
       y2="88.5"
       id="linearGradient3988"
       xlink:href="#floor-shadow-gradient"
       gradientUnits="userSpaceOnUse"
       gradientTransform="matrix(0.50229362,0,0,0.73333335,0.41284295,169.10001)"
       spreadMethod="reflect" />
    <linearGradient
       x1="256"
       y1="88.5"
       x2="474"
       y2="88.5"
       id="linearGradient3992"
       xlink:href="#floor-shadow-gradient"
       gradientUnits="userSpaceOnUse"
       gradientTransform="matrix(0.50458721,0,0,0.80000007,-0.17431488,163.20001)"
       spreadMethod="reflect" />
    <linearGradient
       x1="256"
       y1="88.5"
       x2="474"
       y2="88.5"
       id="linearGradient3996"
       xlink:href="#floor-shadow-gradient"
       gradientUnits="userSpaceOnUse"
       gradientTransform="matrix(0.50688079,0,0,0.86666674,-0.76146788,157.3)"
       spreadMethod="reflect" />
    <linearGradient
       x1="256"
       y1="88.5"
       x2="474"
       y2="88.5"
       id="linearGradient4000"
       xlink:href="#floor-shadow-gradient"
       gradientUnits="userSpaceOnUse"
       gradientTransform="matrix(0.50917439,0,0,0.93333348,-1.3486257,151.4)"
       spreadMethod="reflect" />
    <linearGradient
       x1="256"
       y1="88.5"
       x2="474"
       y2="88.5"
       id="linearGradient4004"
       xlink:href="#floor-shadow-gradient"
       gradientUnits="userSpaceOnUse"
       gradientTransform="matrix(0.51146801,0,0,1.0000001,-1.9357801,145.50001)"
       spreadMethod="reflect" />
    <linearGradient
       x1="83"
       y1="12.00004"
       x2="83"
       y2="112.25004"
       id="linearGradient3871"
       xlink:href="#top-base-gradient"
       gradientUnits="userSpaceOnUse"
       gradientTransform="matrix(1.9955056,0,0,1.9954442,0.541573,-2.03169)" />
    <linearGradient
       x1="145"
       y1="46.5"
       x2="145"
       y2="446.5"
       id="linearGradient3881"
       xlink:href="#top-base-stroke-gradient"
       gradientUnits="userSpaceOnUse"
       gradientTransform="matrix(0.4988764,0,0,0.49886105,1.787641,-1.53546)" />
    <linearGradient
       x1="253.88271"
       y1="443.25"
       x2="479"
       y2="443.25"
       id="linearGradient3897"
       xlink:href="#top-border-stroke-gradient"
       gradientUnits="userSpaceOnUse"
       gradientTransform="matrix(0.4988764,0,0,0.49886105,0.787641,-1.5259)" />
    <linearGradient
       x1="335"
       y1="62"
       x2="335"
       y2="429"
       id="linearGradient3884"
       xlink:href="#top-2-border-gradient"
       gradientUnits="userSpaceOnUse"
       gradientTransform="matrix(0.4988764,0,0,0.49886105,1.787641,-1.07325)" />
    <linearGradient
       x1="256"
       y1="62"
       x2="256"
       y2="427"
       id="linearGradient3894"
       xlink:href="#top-2-base-stroke-gradient"
       gradientUnits="userSpaceOnUse"
       gradientTransform="matrix(0.4988764,0,0,0.49886105,1.787641,-1.58124)" />
    <linearGradient
       x1="59.404121"
       y1="458.50006"
       x2="59.404121"
       y2="478"
       id="linearGradient3935"
       xlink:href="#bottom-inlay-gradient"
       gradientUnits="userSpaceOnUse" />
    <radialGradient
       cx="68.25"
       cy="456.50003"
       r="11.75"
       fx="68.25"
       fy="456.50003"
       id="radialGradient3938"
       xlink:href="#green-led-base-gradient"
       gradientUnits="userSpaceOnUse"
       gradientTransform="matrix(2.626409,0,0,2.1793562,-111.00241,-536.3761)" />
    <radialGradient
       cx="68.25"
       cy="480.00003"
       r="11.75"
       fx="68.25"
       fy="480.00003"
       id="radialGradient3944"
       xlink:href="#green-led-glow-gradient"
       gradientUnits="userSpaceOnUse"
       gradientTransform="matrix(1.8646555,0,0,1.5472641,-59.012736,-264.68682)" />
    <radialGradient
       cx="50.352776"
       cy="434.64624"
       r="4.4194174"
       fx="50.352776"
       fy="434.64624"
       id="radialGradient3161"
       xlink:href="#screw-gradient"
       gradientUnits="userSpaceOnUse"
       gradientTransform="matrix(1.9977837,0,0,2.6770303,-50.212597,-727.04482)" />
    <linearGradient
       x1="57.154198"
       y1="410.22839"
       x2="65.634193"
       y2="424.91617"
       id="linearGradient3163"
       xlink:href="#screw-hole-gradient"
       gradientUnits="userSpaceOnUse" />
    <radialGradient
       cx="50.352776"
       cy="434.64624"
       r="4.4194174"
       fx="50.352776"
       fy="434.64624"
       id="radialGradient3167"
       xlink:href="#screw-gradient"
       gradientUnits="userSpaceOnUse"
       gradientTransform="matrix(1.9977837,0,0,2.6770303,-50.212597,-727.04482)" />
    <linearGradient
       x1="63.95055"
       y1="412.04947"
       x2="63.95055"
       y2="433.58493"
       id="linearGradient3169"
       xlink:href="#screw-hole-gradient"
       gradientUnits="userSpaceOnUse" />
    <radialGradient
       cx="50.352776"
       cy="434.64624"
       r="4.4194174"
       fx="50.352776"
       fy="434.64624"
       id="radialGradient4008"
       xlink:href="#screw-back-gradient"
       gradientUnits="userSpaceOnUse"
       gradientTransform="matrix(1.9977837,0,0,2.6770303,-50.212597,-727.04482)" />
    <linearGradient
       x1="54"
       y1="412.04947"
       x2="63.879845"
       y2="421.92932"
       id="linearGradient4010"
       xlink:href="#screw-hole-gradient"
       gradientUnits="userSpaceOnUse" />
    <linearGradient
       x1="57.657181"
       y1="410.09775"
       x2="66.221603"
       y2="424.93176"
       id="linearGradient4012"
       xlink:href="#screw-hole-gradient"
       gradientUnits="userSpaceOnUse" />
    <radialGradient
       cx="50.352776"
       cy="434.64624"
       r="4.4194174"
       fx="50.352776"
       fy="434.64624"
       id="radialGradient4014"
       xlink:href="#screw-back-gradient"
       gradientUnits="userSpaceOnUse"
       gradientTransform="matrix(1.9977837,0,0,2.6770303,-50.212597,-727.04482)" />
    <radialGradient
       cx="50.352776"
       cy="434.64624"
       r="4.4194174"
       fx="50.352776"
       fy="434.64624"
       id="radialGradient3199"
       xlink:href="#screw-back-gradient"
       gradientUnits="userSpaceOnUse"
       gradientTransform="matrix(1.9977837,0,0,2.6770303,-50.212597,-727.04482)" />
    <linearGradient
       x1="50.845802"
       y1="410.22839"
       x2="65.945152"
       y2="418.94601"
       id="linearGradient3201"
       xlink:href="#screw-hole-gradient"
       gradientUnits="userSpaceOnUse" />
    <linearGradient
       x1="33"
       y1="427"
       x2="57"
       y2="451"
       id="linearGradient3984"
       xlink:href="#top-side-lights-gradient"
       gradientUnits="userSpaceOnUse"
       gradientTransform="matrix(0.4988764,0,0,0.49886105,0.537078,-1.02533)" />
    <linearGradient
       x1="479"
       y1="425.25"
       x2="453.75"
       y2="450.5"
       id="linearGradient3997"
       xlink:href="#top-side-lights-gradient"
       gradientUnits="userSpaceOnUse"
       gradientTransform="matrix(0.4988764,0,0,0.49886105,0.05955,-1.02533)" />
    <linearGradient
       x1="67"
       y1="394.5"
       x2="102.5"
       y2="430"
       id="linearGradient4001"
       xlink:href="#top-2-side-lights-gradient"
       gradientUnits="userSpaceOnUse"
       gradientTransform="matrix(0.4988764,0,0,0.49886105,1.787641,-1.07325)" />
    <linearGradient
       x1="445"
       y1="390.84882"
       x2="405.84882"
       y2="430"
       id="linearGradient4005"
       xlink:href="#top-2-side-lights-gradient"
       gradientUnits="userSpaceOnUse"
       gradientTransform="matrix(0.4988764,0,0,0.49886105,1.787641,-1.07325)" />
    <radialGradient
       cx="50.352776"
       cy="434.64624"
       r="4.4194174"
       fx="50.352776"
       fy="434.64624"
       id="radialGradient4078"
       xlink:href="#screw-middle-gradient"
       gradientUnits="userSpaceOnUse"
       gradientTransform="matrix(1.9977837,0,0,2.6770303,-50.212597,-727.04482)" />
    <linearGradient
       x1="54"
       y1="412.04947"
       x2="44.24078"
       y2="421.80869"
       id="linearGradient4080"
       xlink:href="#screw-hole-gradient"
       gradientUnits="userSpaceOnUse" />
    <radialGradient
       cx="50.352776"
       cy="434.64624"
       r="4.4194174"
       fx="50.352776"
       fy="434.64624"
       id="radialGradient4121"
       xlink:href="#screw-middle-gradient"
       gradientUnits="userSpaceOnUse"
       gradientTransform="matrix(1.9977837,0,0,2.6770303,-50.212597,-727.04482)" />
    <linearGradient
       x1="65.771622"
       y1="415.20367"
       x2="60.796345"
       y2="433.77167"
       id="linearGradient4123"
       xlink:href="#screw-hole-gradient"
       gradientUnits="userSpaceOnUse" />
  </defs>
  <g
     id="hdd"
     style="display:inline">
    <g
       id="floor-shadow"
       style="display:inline">
      <rect
         width="223"
         height="15"
         rx="6.2500005"
         ry="7.5"
         x="17.5"
         y="226.5"
         id="floor-shadow-6"
         style="fill:url(#linearGradient4004);fill-opacity:1;fill-rule:evenodd;stroke:none;display:inline;filter:url(#3px-blur-filter)" />
      <rect
         width="222"
         height="14"
         rx="6"
         ry="7"
         x="18"
         y="227"
         id="floor-shadow-5"
         style="fill:url(#linearGradient4000);fill-opacity:1;fill-rule:evenodd;stroke:none;display:inline;filter:url(#3px-blur-filter)" />
      <rect
         width="221"
         height="13"
         rx="5.75"
         ry="6.5"
         x="18.5"
         y="227.5"
         id="floor-shadow-4"
         style="fill:url(#linearGradient3996);fill-opacity:1;fill-rule:evenodd;stroke:none;display:inline;filter:url(#3px-blur-filter)" />
      <rect
         width="220"
         height="12"
         rx="5.5"
         ry="6"
         x="19"
         y="228"
         id="floor-shadow-3"
         style="fill:url(#linearGradient3992);fill-opacity:1;fill-rule:evenodd;stroke:none;display:inline;filter:url(#3px-blur-filter)" />
      <rect
         width="219"
         height="11"
         rx="5.25"
         ry="5.5"
         x="19.5"
         y="228.5"
         id="floor-shadow-2"
         style="fill:url(#linearGradient3988);fill-opacity:1;fill-rule:evenodd;stroke:none;display:inline;filter:url(#3px-blur-filter)" />
      <rect
         width="218"
         height="10"
         rx="4.9999995"
         ry="5"
         x="20"
         y="229"
         id="floor-shadow-1"
         style="fill:url(#linearGradient3982);fill-opacity:1;fill-rule:evenodd;stroke:none;display:inline;filter:url(#3px-blur-filter)" />
    </g>
    <g
       id="bottom"
       style="display:inline">
      <path
         d="m 17,218 4.5,15.5 c 0.654983,2.44437 2.032582,4.5 6.5,4.5 l 201,0 c 4.53825,0 4.82511,-1.98135 5.5,-4.5 L 239,218 z"
         id="bottom-base"
         style="fill:url(#linearGradient3622);fill-opacity:1;stroke:none;display:inline" />
      <path
         d="m 17,218 4.5,15.5 c 0.703394,2.62501 2.473531,4.5 6.5,4.5 l 12,0 0,-20 z"
         id="bottom-left-light"
         style="fill:url(#linearGradient3656);fill-opacity:1;stroke:none;display:inline" />
      <path
         d="M 216,218.00022 216,238 l 13,0 c 3.74454,0 4.69187,-1.48413 5.5,-4.5 l 4.5,-15.50022 z"
         id="bottom-right-light"
         style="fill:url(#linearGradient3686);fill-opacity:1;stroke:none;display:inline" />
    </g>
    <g
       id="top"
       style="display:inline">
      <path
         d="m 17,216.5 c 0,6.31184 5.00081,7.5 10,7.5 l 202,0 c 5.54888,0 10,-1.19405 10,-7.5 l -25.5,-189 c 0,-1.2382 -3.45661,-6.5 -9,-6.5 l -153,0 c -5.548557,0 -9,5.28476 -9,6.5 z"
         id="top-border"
         style="fill:url(#linearGradient3632);fill-opacity:1;stroke:none;display:inline" />
      <path
         d="m 17,216.5 c 0,6.31184 5.00081,7.5 10,7.5 L 229,224 51.5,21 c -5.548557,0 -9,5.28476 -9,6.5 z"
         id="top-left-light"
         style="fill:url(#linearGradient3984);fill-opacity:1;stroke:none;display:inline" />
      <path
         d="m 27,224 202,0 c 5.54888,0 10,-1.19405 10,-7.5 l -25.5,-189 c 0,-1.2382 -3.45661,-6.5 -9,-6.5 z"
         id="top-right-light"
         style="fill:url(#linearGradient3997);fill-opacity:1;stroke:none;display:inline" />
      <path
         d="m 17.5,216 c 0,5.82409 4.225034,7.5 10,7.5 l 201,0 c 6.31374,0 10,-1.63004 10,-7.5"
         id="top-border-stroke"
         style="fill:none;stroke:url(#linearGradient3897);stroke-width:1;stroke-linecap:round;stroke-linejoin:round;stroke-miterlimit:4;stroke-opacity:1;stroke-dasharray:none" />
      <path
         d="m 19,214.5 c 0,6.31184 5.000809,7.5 10,7.5 l 198,0 c 5.54889,0 10,-1.19404 10,-7.5 L 213,28 c 0,-1.23819 -3.45661,-6 -9,-6 L 51,22 c -5.548557,0 -8,4.78476 -8,6 z"
         id="top-base"
         style="fill:url(#linearGradient3871);fill-opacity:1;stroke:none;display:inline" />
      <path
         d="m 19.5,213.5 c 0,6.31184 5.00081,8 10,8 l 197,0 c 5.54889,0 10,-1.69404 10,-8 l -24,-185 c 0,-1.2382 -3.45661,-6 -9,-6 l -152,0 c -5.548558,0 -8,4.78476 -8,6 z"
         id="top-base-stroke"
         style="fill:none;stroke:url(#linearGradient3881);stroke-width:1;stroke-opacity:1;display:inline" />
    </g>
    <g
       id="top-2"
       style="display:inline">
      <path
         d="m 65.5,30 c -5.80499,0 -10,4.53255 -10,7.5 l -7,58.5 c 0,7.46904 11.5,8.50899 11.5,18 0,11.15398 -17,12.41608 -17,20 l -9,69 c 0,6.07476 4.190145,12 10,12 l 168,0 c 5.65656,0 10,-6.03916 10,-12 l -9,-69 c 0,-7.57016 -17,-8.83469 -17,-20 0,-9.60255 11.5,-10.45321 11.5,-18 l -7,-58.5 c 0,-3.56273 -4.89728,-7.5 -10,-7.5 L 144,30 c -6.74409,0 -5.84938,7 -16,7 -10.11405,0 -8.39776,-7 -15,-7 z"
         id="top-2-shadow"
         style="fill:#000000;fill-opacity:0.1372549;stroke:none;display:inline" />
      <path
         d="m 65.5,29 c -5.80499,0 -10,4.53255 -10,7.5 l -7,58.5 c 0,7.46904 11.5,8.50899 11.5,18 0,11.15398 -17,12.41608 -17,20 l -9,69 c 0,6.07476 4.190145,12 10,12 l 168,0 c 5.65656,0 10,-6.03916 10,-12 l -9,-69 c 0,-7.57016 -17,-8.83469 -17,-20 0,-9.60255 11.5,-10.45321 11.5,-18 l -7,-58.5 c 0,-3.56273 -4.89728,-7.5 -10,-7.5 L 144,29 c -6.74409,0 -5.84938,7 -16,7 -10.11405,0 -8.39776,-7 -15,-7 z"
         id="top-2-border"
         style="fill:url(#linearGradient3884);fill-opacity:1;stroke:none;display:inline" />
      <path
         d="m 65.5,29 c -5.80499,0 -10,4.53255 -10,7.5 l -7,58.5 c 0,7.46904 11.5,8.50899 11.5,18 0,11.15398 -17,12.41608 -17,20 l -9,69 c 0,6.07476 4.190145,12 10,12 l 168,0 z"
         id="top-2-left-light"
         style="fill:url(#linearGradient4001);fill-opacity:1;stroke:none;display:inline" />
      <path
         d="m 44,214 168,0 c 5.65656,0 10,-6.03916 10,-12 l -9,-69 c 0,-7.57016 -17,-8.83469 -17,-20 0,-9.60255 11.5,-10.45321 11.5,-18 l -7,-58.5 c 0,-3.56273 -4.89728,-7.5 -10,-7.5 z"
         id="top-2-right-light"
         style="fill:url(#linearGradient4005);fill-opacity:1;stroke:none;display:inline" />
      <path
         d="m 65.5,30 c -5.804991,0 -9,4.03255 -9,7 l -7,58 c 0,7.46904 10.5,7.50899 10.5,17 0,11.15398 -16,13.41608 -16,21 l -8,68 c 0,6.78026 5.719283,11 11,11 l 162,0 c 5.30379,0 11,-4.51004 11,-11 l -8,-68 c 0,-7.57016 -16,-9.83469 -16,-21 0,-9.60255 10.5,-9.45321 10.5,-17 l -7,-58 c 0,-3.56272 -3.89727,-7 -9,-7 L 143,30 c -6.74409,0 -4.84938,7 -15,7 -10.11405,0 -8.39776,-7 -15,-7 z"
         id="top-2-base"
         style="fill:url(#linearGradient3640);fill-opacity:1;stroke:none;display:inline" />
      <path
         d="m 67,30.5 c -5.804991,0 -10,4.03255 -10,7 l -7,57 c 0,7.46904 10.5,8.00899 10.5,17.5 0,11.15398 -16,13.91608 -16,21.5 l -8,67 c 0,6.78026 5.719284,11 11,11 l 161,0 c 5.30379,0 11,-4.51003 11,-11 l -8,-67 c 0,-7.57017 -16,-10.33469 -16,-21.5 0,-9.60255 10.5,-9.95321 10.5,-17.5 l -7,-57 c 0,-3.56273 -3.89727,-7 -9,-7 l -46.5,0 c -6.74409,0 -5.34938,7 -15.5,7 -10.11405,0 -8.89776,-7 -15.5,-7 z"
         id="top-2-base-stroke"
         style="fill:none;stroke:url(#linearGradient3894);stroke-width:1;stroke-opacity:1;display:inline" />
    </g>
    <g
       id="led"
       style="display:inline">
      <g
         id="led-common"
         style="display:inline">
        <path
           d="m 80,468.25003 a 11.75,9.74998 0 1 1 -23.5,0 11.75,9.74998 0 1 1 23.5,0 z"
           transform="matrix(0.38297872,0,0,0.3589751,9.3617023,63.409898)"
           id="led-inlay"
           style="fill:url(#linearGradient3935);fill-opacity:1;fill-rule:evenodd;stroke:none;display:inline" />
        <path
           d="m 80,468.25003 a 11.75,9.74998 0 1 1 -23.5,0 11.75,9.74998 0 1 1 23.5,0 z"
           transform="matrix(0.21276596,0,0,0.20512863,20.978723,135.94851)"
           id="led-shadow"
           style="fill:#000000;fill-opacity:0.29411765;fill-rule:evenodd;stroke:none;display:inline" />
      </g>
      <g
         id="green-led"
         style="display:inline">
        <path
           d="m 80,468.25003 a 11.75,9.74998 0 1 1 -23.5,0 11.75,9.74998 0 1 1 23.5,0 z"
           transform="matrix(0.38297872,0,0,0.3589751,9.3617022,63.409901)"
           id="green-led-glow"
           style="fill:url(#radialGradient3944);fill-opacity:1;fill-rule:evenodd;stroke:none;display:inline" />
        <path
           d="m 80,468.25003 a 11.75,9.74998 0 1 1 -23.5,0 11.75,9.74998 0 1 1 23.5,0 z"
           transform="matrix(0.21276596,0,0,0.20512863,20.978723,134.94851)"
           id="green-led-base"
           style="fill:url(#radialGradient3938);fill-opacity:1;fill-rule:evenodd;stroke:none;display:inline" />
      </g>
    </g>
    <g
       id="screws"
       style="display:inline">
      <g
         id="main-screws"
         style="display:inline">
        <g
           id="screw-1"
           style="display:inline">
          <path
             d="m 54.800776,430.59433 a 4.4194174,5.9220195 0 1 1 -8.838834,0 4.4194174,5.9220195 0 1 1 8.838834,0 z"
             transform="matrix(1.0182338,0,0,0.5910146,-22.300003,-40.987536)"
             id="screw-1-shadow"
             style="fill:#afafaf;fill-opacity:1;fill-rule:evenodd;stroke:none;display:inline" />
          <path
             d="m 54.800776,430.59433 a 4.4194174,5.9220195 0 1 1 -8.838834,0 4.4194174,5.9220195 0 1 1 8.838834,0 z"
             transform="matrix(1.0182338,0,0,0.5910146,-22.300001,-41.987538)"
             id="screw-1-stroke"
             style="fill:#f0f0f0;fill-opacity:1;fill-rule:evenodd;stroke:none;display:inline" />
          <path
             d="m 54.800776,430.59433 a 4.4194174,5.9220195 0 1 1 -8.838834,0 4.4194174,5.9220195 0 1 1 8.838834,0 z"
             transform="matrix(1.0182338,0,0,0.5910146,-22.300003,-42.987536)"
             id="screw-1-top"
             style="fill:url(#radialGradient3167);fill-opacity:1;fill-rule:evenodd;stroke:none;display:inline" />
          <path
             d="m 54,431.95058 -2.81444,-7.13611 -7.136108,-2.81444 7.136108,-2.81444 2.81444,-7.13611 2.81444,7.13611 7.136108,2.81444 -7.136108,2.81444 z"
             transform="matrix(0.25124244,0,0,0.2512347,15.432908,106.47903)"
             id="screw-1-hole-stroke"
             style="fill:#ffffff;fill-opacity:0.49019608;fill-rule:evenodd;stroke:none;display:inline" />
          <path
             d="m 54,431.95058 -2.81444,-7.13611 -7.136108,-2.81444 7.136108,-2.81444 2.81444,-7.13611 2.81444,7.13611 7.136108,2.81444 -7.136108,2.81444 z"
             transform="matrix(0.25124244,0,0,0.2512347,15.432908,105.47903)"
             id="screw-1-hole"
             style="fill:url(#linearGradient3169);fill-opacity:1;fill-rule:evenodd;stroke:none;display:inline" />
        </g>
        <g
           id="screw-2"
           style="display:inline">
          <path
             d="m 54.800776,430.59433 a 4.4194174,5.9220195 0 1 1 -8.838834,0 4.4194174,5.9220195 0 1 1 8.838834,0 z"
             transform="matrix(1.0182338,0,0,0.5910146,175.7,-40.987538)"
             id="screw-2-shadow"
             style="fill:#afafaf;fill-opacity:1;fill-rule:evenodd;stroke:none;display:inline" />
          <path
             d="m 54.800776,430.59433 a 4.4194174,5.9220195 0 1 1 -8.838834,0 4.4194174,5.9220195 0 1 1 8.838834,0 z"
             transform="matrix(1.0182338,0,0,0.5910146,175.7,-41.987536)"
             id="screw-2-stroke"
             style="fill:#f0f0f0;fill-opacity:1;fill-rule:evenodd;stroke:none;display:inline" />
          <path
             d="m 54.800776,430.59433 a 4.4194174,5.9220195 0 1 1 -8.838834,0 4.4194174,5.9220195 0 1 1 8.838834,0 z"
             transform="matrix(1.0182338,0,0,0.5910146,175.7,-42.987536)"
             id="screw-2-top"
             style="fill:url(#radialGradient3161);fill-opacity:1;fill-rule:evenodd;stroke:none;display:inline" />
          <path
             d="m 54,431.95058 -2.81444,-7.13611 -7.136108,-2.81444 7.136108,-2.81444 2.81444,-7.13611 2.81444,7.13611 7.136108,2.81444 -7.136108,2.81444 z"
             transform="matrix(0.21758401,0.12561832,-0.12562219,0.2175773,268.26303,113.89902)"
             id="screw-2-hole-stroke"
             style="fill:#ffffff;fill-opacity:0.49019608;fill-rule:evenodd;stroke:none;display:inline" />
          <path
             d="m 54,431.95058 -2.81444,-7.13611 -7.136108,-2.81444 7.136108,-2.81444 2.81444,-7.13611 2.81444,7.13611 7.136108,2.81444 -7.136108,2.81444 z"
             transform="matrix(0.21758401,0.12561832,-0.12562219,0.2175773,268.26303,112.89902)"
             id="screw-2-hole"
             style="fill:url(#linearGradient3163);fill-opacity:1;fill-rule:evenodd;stroke:none;display:inline" />
        </g>
        <g
           id="screw-3"
           style="display:inline">
          <path
             d="m 54.800776,430.59433 a 4.4194174,5.9220195 0 1 1 -8.838834,0 4.4194174,5.9220195 0 1 1 8.838834,0 z"
             transform="matrix(0.67882251,0,0,0.33772263,17.299999,-117.42145)"
             id="screw-3-shadow"
             style="fill:#afafaf;fill-opacity:1;fill-rule:evenodd;stroke:none;display:inline" />
          <path
             d="m 54.800776,430.59433 a 4.4194174,5.9220195 0 1 1 -8.838834,0 4.4194174,5.9220195 0 1 1 8.838834,0 z"
             transform="matrix(0.67882251,0,0,0.33772263,17.299999,-118.42145)"
             id="screw-3-stroke"
             style="fill:#e1e1e1;fill-opacity:1;fill-rule:evenodd;stroke:none;display:inline" />
          <path
             d="m 54.800776,430.59433 a 4.4194174,5.9220195 0 1 1 -8.838834,0 4.4194174,5.9220195 0 1 1 8.838834,0 z"
             transform="matrix(0.67882251,0,0,0.33772263,17.299999,-119.42145)"
             id="screw-3-top"
             style="fill:url(#radialGradient4014);fill-opacity:1;fill-rule:evenodd;stroke:none;display:inline" />
          <path
             d="m 54,431.95058 -2.81444,-7.13611 -7.136108,-2.81444 7.136108,-2.81444 2.81444,-7.13611 2.81444,7.13611 7.136108,2.81444 -7.136108,2.81444 z"
             transform="matrix(0.1305504,0.07537099,-0.07537447,0.13054839,76.258306,-32.661462)"
             id="screw-3-hole-stroke"
             style="fill:#ffffff;fill-opacity:0.49019608;fill-rule:evenodd;stroke:none;display:inline" />
          <path
             d="m 54,431.95058 -2.81444,-7.13611 -7.136108,-2.81444 7.136108,-2.81444 2.81444,-7.13611 2.81444,7.13611 7.136108,2.81444 -7.136108,2.81444 z"
             transform="matrix(0.1305504,0.07537099,-0.07537331,0.13054639,76.257817,-33.660589)"
             id="screw-3-hole"
             style="fill:url(#linearGradient4012);fill-opacity:1;fill-rule:evenodd;stroke:none;display:inline" />
        </g>
        <g
           id="screw-4"
           style="display:inline">
          <path
             d="m 54.800776,430.59433 a 4.4194174,5.9220195 0 1 1 -8.838834,0 4.4194174,5.9220195 0 1 1 8.838834,0 z"
             transform="matrix(0.67882251,0,0,0.33772263,170.3,-117.42145)"
             id="screw-4-shadow"
             style="fill:#afafaf;fill-opacity:1;fill-rule:evenodd;stroke:none;display:inline" />
          <path
             d="m 54.800776,430.59433 a 4.4194174,5.9220195 0 1 1 -8.838834,0 4.4194174,5.9220195 0 1 1 8.838834,0 z"
             transform="matrix(0.67882251,0,0,0.33772263,170.3,-118.42145)"
             id="screw-4-stroke"
             style="fill:#e1e1e1;fill-opacity:1;fill-rule:evenodd;stroke:none;display:inline" />
          <path
             d="m 54.800776,430.59433 a 4.4194174,5.9220195 0 1 1 -8.838834,0 4.4194174,5.9220195 0 1 1 8.838834,0 z"
             transform="matrix(0.67882251,0,0,0.33772263,170.3,-119.42145)"
             id="screw-4-top"
             style="fill:url(#radialGradient4008);fill-opacity:1;fill-rule:evenodd;stroke:none;display:inline" />
          <path
             d="m 54,431.95058 -2.81444,-7.13611 -7.136108,-2.81444 7.136108,-2.81444 2.81444,-7.13611 2.81444,7.13611 7.136108,2.81444 -7.136108,2.81444 z"
             transform="matrix(0.10659478,0.1065915,-0.10659478,0.1065915,243.72688,-24.237557)"
             id="screw-4-hole-stroke"
             style="fill:#ffffff;fill-opacity:0.49019608;fill-rule:evenodd;stroke:none;display:inline" />
          <path
             d="m 54,431.95058 -2.81444,-7.13611 -7.136108,-2.81444 7.136108,-2.81444 2.81444,-7.13611 2.81444,7.13611 7.136108,2.81444 -7.136108,2.81444 z"
             transform="matrix(0.10659478,0.1065915,-0.10659478,0.1065915,243.72688,-25.237557)"
             id="screw-4-hole"
             style="fill:url(#linearGradient4010);fill-opacity:1;fill-rule:evenodd;stroke:none;display:inline" />
        </g>
      </g>
      <g
         id="additionnal-screws"
         style="display:inline">
        <g
           id="screw-5"
           style="display:inline">
          <path
             d="m 54.800776,430.59433 a 4.4194174,5.9220195 0 1 1 -8.838834,0 4.4194174,5.9220195 0 1 1 8.838834,0 z"
             transform="matrix(0.67882251,0,0,0.33772263,93.799999,-117.42145)"
             id="screw-5-shadow"
             style="fill:#afafaf;fill-opacity:1;fill-rule:evenodd;stroke:none;display:inline" />
          <path
             d="m 54.800776,430.59433 a 4.4194174,5.9220195 0 1 1 -8.838834,0 4.4194174,5.9220195 0 1 1 8.838834,0 z"
             transform="matrix(0.67882251,0,0,0.33772263,93.799999,-118.42145)"
             id="screw-5-stroke"
             style="fill:#e1e1e1;fill-opacity:1;fill-rule:evenodd;stroke:none;display:inline" />
          <path
             d="m 54.800776,430.59433 a 4.4194174,5.9220195 0 1 1 -8.838834,0 4.4194174,5.9220195 0 1 1 8.838834,0 z"
             transform="matrix(0.67882251,0,0,0.33772263,93.799999,-119.42145)"
             id="screw-5-top"
             style="fill:url(#radialGradient3199);fill-opacity:1;fill-rule:evenodd;stroke:none;display:inline" />
          <path
             d="m 54,431.95058 -2.81444,-7.13611 -7.136108,-2.81444 7.136108,-2.81444 2.81444,-7.13611 2.81444,7.13611 7.136108,2.81444 -7.136108,2.81444 z"
             transform="matrix(0.07537331,0.13054639,-0.1305504,0.07537099,179.02211,-12.356042)"
             id="screw-5-hole-stroke"
             style="fill:#ffffff;fill-opacity:0.49019608;fill-rule:evenodd;stroke:none;display:inline" />
          <path
             d="m 54,431.95058 -2.81444,-7.13611 -7.136108,-2.81444 7.136108,-2.81444 2.81444,-7.13611 2.81444,7.13611 7.136108,2.81444 -7.136108,2.81444 z"
             transform="matrix(0.07537331,0.13054639,-0.1305504,0.07537099,179.02211,-13.356042)"
             id="screw-5-hole"
             style="fill:url(#linearGradient3201);fill-opacity:1;fill-rule:evenodd;stroke:none;display:inline" />
        </g>
        <g
           id="screw-6"
           style="display:inline">
          <path
             d="m 54.800776,430.59433 a 4.4194174,5.9220195 0 1 1 -8.838834,0 4.4194174,5.9220195 0 1 1 8.838834,0 z"
             transform="matrix(0.90509668,0,0,0.50658395,-2.6000009,-105.13218)"
             id="screw-6-shadow"
             style="fill:#a5a5a5;fill-opacity:1;fill-rule:evenodd;stroke:none;display:inline" />
          <path
             d="m 54.800776,430.59433 a 4.4194174,5.9220195 0 1 1 -8.838834,0 4.4194174,5.9220195 0 1 1 8.838834,0 z"
             transform="matrix(0.90509668,0,0,0.50658395,-2.6000009,-106.13218)"
             id="screw-6-stroke"
             style="fill:#e6e6e6;fill-opacity:1;fill-rule:evenodd;stroke:none;display:inline" />
          <path
             d="m 54.800776,430.59433 a 4.4194174,5.9220195 0 1 1 -8.838834,0 4.4194174,5.9220195 0 1 1 8.838834,0 z"
             transform="matrix(0.90509668,0,0,0.50658395,-2.6000009,-107.13218)"
             id="screw-6-top"
             style="fill:url(#radialGradient4078);fill-opacity:1;fill-rule:evenodd;stroke:none;display:inline" />
          <path
             d="m 54,431.95058 -2.81444,-7.13611 -7.136108,-2.81444 7.136108,-2.81444 2.81444,-7.13611 2.81444,7.13611 7.136108,2.81444 -7.136108,2.81444 z"
             transform="matrix(0.14212637,-0.142122,0.14212637,0.142122,-24.652157,59.699102)"
             id="screw-6-hole-stroke"
             style="fill:#ffffff;fill-opacity:0.49019608;fill-rule:evenodd;stroke:none;display:inline" />
          <path
             d="m 54,431.95058 -2.81444,-7.13611 -7.136108,-2.81444 7.136108,-2.81444 2.81444,-7.13611 2.81444,7.13611 7.136108,2.81444 -7.136108,2.81444 z"
             transform="matrix(0.14212637,-0.142122,0.14212637,0.142122,-24.652157,58.699102)"
             id="screw-6-hole"
             style="fill:url(#linearGradient4080);fill-opacity:1;fill-rule:evenodd;stroke:none;display:inline" />
        </g>
        <g
           id="screw-7"
           style="display:inline">
          <path
             d="m 54.800776,430.59433 a 4.4194174,5.9220195 0 1 1 -8.838834,0 4.4194174,5.9220195 0 1 1 8.838834,0 z"
             transform="matrix(0.90509668,0,0,0.50658395,167.4,-105.13218)"
             id="screw-7-shadow"
             style="fill:#a5a5a5;fill-opacity:1;fill-rule:evenodd;stroke:none;display:inline" />
          <path
             d="m 54.800776,430.59433 a 4.4194174,5.9220195 0 1 1 -8.838834,0 4.4194174,5.9220195 0 1 1 8.838834,0 z"
             transform="matrix(0.90509668,0,0,0.50658395,167.4,-106.13218)"
             id="screw-7-stroke"
             style="fill:#e6e6e6;fill-opacity:1;fill-rule:evenodd;stroke:none;display:inline" />
          <path
             d="m 54.800776,430.59433 a 4.4194174,5.9220195 0 1 1 -8.838834,0 4.4194174,5.9220195 0 1 1 8.838834,0 z"
             transform="matrix(0.90509668,0,0,0.50658395,167.4,-107.13218)"
             id="screw-7-top"
             style="fill:url(#radialGradient4121);fill-opacity:1;fill-rule:evenodd;stroke:none;display:inline" />
          <path
             d="m 54,431.95058 -2.81444,-7.13611 -7.136108,-2.81444 7.136108,-2.81444 2.81444,-7.13611 2.81444,7.13611 7.136108,2.81444 -7.136108,2.81444 z"
             transform="matrix(0.19414565,-0.05201957,0.05202117,0.19413968,180.5632,32.88216)"
             id="screw-7-hole-stroke"
             style="fill:#ffffff;fill-opacity:0.49019608;fill-rule:evenodd;stroke:none;display:inline" />
          <path
             d="m 54,431.95058 -2.81444,-7.13611 -7.136108,-2.81444 7.136108,-2.81444 2.81444,-7.13611 2.81444,7.13611 7.136108,2.81444 -7.136108,2.81444 z"
             transform="matrix(0.19414565,-0.05201957,0.05202117,0.19413968,180.5632,31.882159)"
             id="screw-7-hole"
             style="fill:url(#linearGradient4123);fill-opacity:1;fill-rule:evenodd;stroke:none;display:inline" />
        </g>
      </g>
    </g>
  </g>
</svg>
