<?xml version="1.0" encoding="UTF-8" standalone="no"?>
<!-- Created with Inkscape (http://www.inkscape.org/) -->
<svg xmlns:rdf="http://www.w3.org/1999/02/22-rdf-syntax-ns#" xmlns="http://www.w3.org/2000/svg" height="256" width="256" version="1.1" xmlns:cc="http://creativecommons.org/ns#" xmlns:xlink="http://www.w3.org/1999/xlink" xmlns:dc="http://purl.org/dc/elements/1.1/">
 <title>Samée - 256 - File blank</title>
 <metadata>
  <rdf:RDF>
   <cc:Work rdf:about="">
    <dc:format>image/svg+xml</dc:format>
    <dc:type rdf:resource="http://purl.org/dc/dcmitype/StillImage"/>
    <dc:title>Samée - 256 - File blank</dc:title>
    <dc:date>2011-04-01</dc:date>
    <dc:creator>
     <cc:Agent>
      <dc:title>Harenome Ranaivoarivony Razanajato</dc:title>
     </cc:Agent>
    </dc:creator>
    <cc:license rdf:resource="http://creativecommons.org/licenses/by/3.0/"/>
    <dc:subject>
     <rdf:Bag>
      <rdf:li>empty</rdf:li>
      <rdf:li>gnome-fs-regular</rdf:li>
      <rdf:li>gtk-file</rdf:li>
      <rdf:li>text-x-preview</rdf:li>
     </rdf:Bag>
    </dc:subject>
   </cc:Work>
   <cc:License rdf:about="http://creativecommons.org/licenses/by/3.0/">
    <cc:permits rdf:resource="http://creativecommons.org/ns#Reproduction"/>
    <cc:permits rdf:resource="http://creativecommons.org/ns#Distribution"/>
    <cc:requires rdf:resource="http://creativecommons.org/ns#Notice"/>
    <cc:requires rdf:resource="http://creativecommons.org/ns#Attribution"/>
    <cc:permits rdf:resource="http://creativecommons.org/ns#DerivativeWorks"/>
   </cc:License>
  </rdf:RDF>
 </metadata>
 <defs>
  <linearGradient id="corner-shadow-gradient">
   <stop stop-color="#000" stop-opacity="0.02745098" offset="0"/>
   <stop stop-color="#000" stop-opacity="0.00392157" offset="1"/>
  </linearGradient>
  <linearGradient id="bottom-shadow-gradient">
   <stop stop-color="#000" stop-opacity="0.04705882" offset="0"/>
   <stop stop-color="#000" stop-opacity="0.02352941" offset="0.9"/>
   <stop stop-color="#000" stop-opacity="0" offset="1"/>
  </linearGradient>
  <linearGradient id="back-shadow-gradient">
   <stop stop-color="#000" stop-opacity="0.00784314" offset="0"/>
   <stop stop-color="#000" stop-opacity="0.03137255" offset="1"/>
  </linearGradient>
  <linearGradient id="linearGradient3886" x1="145.95" xlink:href="#back-shadow-gradient" gradientUnits="userSpaceOnUse" y1="31.026" gradientTransform="matrix(0.49873418,0,0,0.4989083,1.0734178,0.02075)" x2="145.95" y2="482.01"/>
  <linearGradient id="linearGradient3898" x1="145.95" xlink:href="#back-shadow-gradient" gradientUnits="userSpaceOnUse" y1="31.023" gradientTransform="matrix(0.49873418,0,0,0.4989083,1.0734178,-0.4777)" x2="145.95" y2="484.01"/>
  <linearGradient id="linearGradient3900" x1="145.95" xlink:href="#back-shadow-gradient" gradientUnits="userSpaceOnUse" y1="31.022" gradientTransform="matrix(0.49873418,0,0,0.4989083,1.0734178,-0.97716)" x2="145.95" y2="486.02"/>
  <linearGradient id="linearGradient3902" x1="145.95" xlink:href="#back-shadow-gradient" gradientUnits="userSpaceOnUse" y1="31.019" gradientTransform="matrix(0.49873418,0,0,0.4989083,1.0734178,-1.47561)" x2="145.95" y2="488.02"/>
  <linearGradient id="linearGradient3904" x1="145.95" xlink:href="#back-shadow-gradient" gradientUnits="userSpaceOnUse" y1="31.018" gradientTransform="matrix(0.49873418,0,0,0.4989083,1.0734178,-1.97507)" x2="145.95" y2="490.02"/>
  <linearGradient id="linearGradient3906" x1="145.95" xlink:href="#back-shadow-gradient" gradientUnits="userSpaceOnUse" y1="31.015" gradientTransform="matrix(0.49873418,0,0,0.4989083,1.0734178,-2.47352)" x2="145.95" y2="492.02"/>
  <linearGradient id="linearGradient3928" x1="255.99" xlink:href="#bottom-shadow-gradient" spreadMethod="reflect" gradientUnits="userSpaceOnUse" y1="480" gradientTransform="matrix(0.51861701,0,0,0.37500001,-4.7659563,60.000017)" x2="444" y2="480"/>
  <linearGradient id="linearGradient3932" x1="255.99" xlink:href="#bottom-shadow-gradient" spreadMethod="reflect" gradientUnits="userSpaceOnUse" y1="480" gradientTransform="matrix(0.52127654,0,0,0.49999999,-5.4468081,2.5233317e-5)" x2="444" y2="480"/>
  <linearGradient id="linearGradient3936" x1="255.99" xlink:href="#bottom-shadow-gradient" spreadMethod="reflect" gradientUnits="userSpaceOnUse" y1="480" gradientTransform="matrix(0.52393614,0,0,0.62499998,-6.1276585,-59.999985)" x2="444" y2="480"/>
  <linearGradient id="linearGradient3940" x1="255.99" xlink:href="#bottom-shadow-gradient" spreadMethod="reflect" gradientUnits="userSpaceOnUse" y1="480" gradientTransform="matrix(0.52659572,0,0,0.75000002,-6.8085102,-120.00001)" x2="444" y2="480"/>
  <linearGradient id="linearGradient3944" x1="255.99" xlink:href="#bottom-shadow-gradient" spreadMethod="reflect" gradientUnits="userSpaceOnUse" y1="480" gradientTransform="matrix(0.52925531,0,0,0.87499999,-7.4893621,-179.99998)" x2="444" y2="480"/>
  <linearGradient id="linearGradient3948" x1="255.99" xlink:href="#bottom-shadow-gradient" spreadMethod="reflect" gradientUnits="userSpaceOnUse" y1="480" gradientTransform="matrix(0.5319149,0,0,1,-8.1702139,-239.99997)" x2="444" y2="480"/>
  <radialGradient id="radialGradient3960" gradientUnits="userSpaceOnUse" cy="98.61" cx="423.83" gradientTransform="matrix(0.73319999,0,0,0.9055012,-98.301292,-38.39517)" r="40.5">
   <stop stop-color="#ebebeb" offset="0"/>
   <stop stop-color="#FFF" offset="1"/>
  </radialGradient>
  <linearGradient id="linearGradient3971" x1="401.38" gradientUnits="userSpaceOnUse" y1="67.902" gradientTransform="matrix(0.49873418,0,0,0.4989083,1.0734178,-0.24489)" x2="361.33" y2="101.07">
   <stop stop-color="#FFF" stop-opacity="0.68627453" offset="0"/>
   <stop stop-color="#ebebeb" stop-opacity="0.29411766" offset="0.1"/>
   <stop stop-color="#f5f5f5" stop-opacity="0" offset="0.2"/>
   <stop stop-color="#FFF" stop-opacity="0.09803922" offset="0.55"/>
   <stop stop-color="#323232" stop-opacity="0.09803922" offset="1"/>
  </linearGradient>
  <radialGradient id="radialGradient3986" xlink:href="#corner-shadow-gradient" gradientUnits="userSpaceOnUse" cy="101.75" cx="379.3" gradientTransform="matrix(0.52703844,0,0,0.65089188,-9.6623232,-13.89635)" r="40.5"/>
  <radialGradient id="radialGradient4004" spreadMethod="reflect" gradientUnits="userSpaceOnUse" cy="415.69" cx="377" gradientTransform="matrix(0.68531028,0.00577892,-0.00569086,0.67533834,-66.900146,-58.88137)" r="185">
   <stop stop-color="#FFF" offset="0"/>
   <stop stop-color="#f0f0f0" offset="1"/>
  </radialGradient>
  <radialGradient id="radialGradient3844" gradientUnits="userSpaceOnUse" cy="94.362" cx="397.09" gradientTransform="matrix(0.70772051,0,0,0.90553996,-82.528325,-42.94878)" r="43">
   <stop stop-color="#000" stop-opacity="0.19607843" offset="0"/>
   <stop stop-color="#000" stop-opacity="0" offset="1"/>
  </radialGradient>
  <radialGradient id="radialGradient3060" xlink:href="#corner-shadow-gradient" gradientUnits="userSpaceOnUse" cy="101.75" cx="379.3" gradientTransform="matrix(0.52703844,0,0,0.65089188,-9.6623232,-14.39063)" r="40.5"/>
  <radialGradient id="radialGradient3062" xlink:href="#corner-shadow-gradient" gradientUnits="userSpaceOnUse" cy="101.75" cx="379.3" gradientTransform="matrix(0.52703844,0,0,0.65089188,-9.6623232,-13.89217)" r="40.5"/>
  <radialGradient id="radialGradient3064" xlink:href="#corner-shadow-gradient" gradientUnits="userSpaceOnUse" cy="101.75" cx="379.3" gradientTransform="matrix(0.52703844,0,0,0.65089188,-9.6623232,-13.39272)" r="40.5"/>
  <radialGradient id="radialGradient3066" xlink:href="#corner-shadow-gradient" gradientUnits="userSpaceOnUse" cy="101.75" cx="379.3" gradientTransform="matrix(0.52703844,0,0,0.65089188,-9.6623232,-12.89426)" r="40.5"/>
  <radialGradient id="radialGradient3068" xlink:href="#corner-shadow-gradient" gradientUnits="userSpaceOnUse" cy="101.75" cx="379.3" gradientTransform="matrix(0.52703844,0,0,0.65089188,-9.6623232,-14.39581)" r="40.5"/>
  <filter id="filter3858" color-interpolation-filters="sRGB">
   <feGaussianBlur stdDeviation="1.125"/>
  </filter>
 </defs>
 <rect fill-rule="evenodd" rx="2.1277" ry="4" height="8" width="200" y="236" x="28" fill="url(#linearGradient3948)"/>
 <rect fill-rule="evenodd" rx="2.117" ry="3.5" height="7" width="199" y="236.5" x="28.5" fill="url(#linearGradient3944)"/>
 <rect fill-rule="evenodd" rx="2.1064" ry="3" height="6" width="198" y="237" x="29" fill="url(#linearGradient3940)"/>
 <rect fill-rule="evenodd" rx="2.0957" ry="2.5" height="5" width="197" y="237.5" x="29.5" fill="url(#linearGradient3936)"/>
 <rect fill-rule="evenodd" rx="2.0851" ry="2" height="4" width="196" y="238" x="30" fill="url(#linearGradient3932)"/>
 <rect fill-rule="evenodd" rx="2.0745" ry="1.5" height="3" width="195" y="238.5" x="30.5" fill="url(#linearGradient3928)"/>
 <path d="m33,13,147,0c10.083,0,43,41.944,43,52v178h-190z" fill="url(#linearGradient3906)"/>
 <path d="m33.5,13.5,146.5,0c10.083,0,42.5,41.444,42.5,51.5v177.5h-189z" fill="url(#linearGradient3904)"/>
 <path d="m34,14,146,0c10.083,0,42,40.944,42,51v177h-188z" fill="url(#linearGradient3902)"/>
 <path d="m34.5,14.5,145.5,0c10.083,0,41.5,40.444,41.5,50.5v176.5h-187z" fill="url(#linearGradient3900)"/>
 <path d="m35,15,145,0c10.083,0,41,39.944,41,50v176h-186z" fill="url(#linearGradient3898)"/>
 <path d="m35.5,15.5,144.5,0c10.083,0,40.5,39.444,40.5,49.5v175.5h-185z" fill="url(#linearGradient3886)"/>
 <path d="m36,16,144,0c10.083,0,40,38.944,40,49v175h-184z" fill="url(#radialGradient4004)"/>
 <path d="m36.5,16.5,143,0c10.083,0,40,38.944,40,49v174h-183z" stroke-opacity="0.19607843" stroke="#FFF" stroke-width="1" fill="none"/>
 <path filter="url(#filter3858)" d="m180,16c3.7071,0,40,46.115,40,50-2.5727-9.6049-22.941-11.232-35-8,3.8754-14.468,5.8223-35.75-5-42z" fill="url(#radialGradient3844)"/>
 <path d="m177,16c9.8876,0,43,43.027,43,53-2.5727-9.6049-25.941-15.232-38-12,3.8754-14.468,5.8223-34.75-5-41z" fill="url(#radialGradient3060)"/>
 <path d="m177.5,16c9.8876,0,42.5,42.527,42.5,52.5-2.5727-9.6049-25.441-15.232-37.5-12,3.8754-14.468,5.8223-34.25-5-40.5z" fill="url(#radialGradient3062)"/>
 <path d="m178,16c9.8876,0,42,42.027,42,52-2.5727-9.6049-24.941-15.232-37-12,3.8754-14.468,5.8223-33.75-5-40z" fill="url(#radialGradient3064)"/>
 <path d="m178.5,16c9.8876,0,41.5,41.527,41.5,51.5-2.5727-9.6049-24.441-15.232-36.5-12,3.8754-14.468,5.8223-33.25-5-39.5z" fill="url(#radialGradient3066)"/>
 <path d="m179,16c9.8876,0,41,41.027,41,51-2.5727-9.6049-23.941-15.232-36-12,3.8754-14.468,5.8223-32.75-5-39z" fill="url(#radialGradient3068)"/>
 <path d="m179.5,16c9.8876,0,40.5,40.527,40.5,50.5-2.5727-9.6049-23.441-15.232-35.5-12,3.8754-14.468,5.8223-32.25-5-38.5z" fill="url(#radialGradient3986)"/>
 <path d="m180,16c9.8876,0,40,40.027,40,50-2.5727-9.6049-22.941-16.232-35-13,3.8754-14.468,5.8223-30.75-5-37z" fill="url(#radialGradient3960)"/>
 <path d="m180,16c9.8876,0,40,40.027,40,50-2.5727-9.6049-22.941-16.232-35-13,3.8754-14.468,5.8223-30.75-5-37z" fill="url(#linearGradient3971)"/>
 <path d="m180.5,16.5c9.8876,0,39,39.027,39,49-2.5727-9.6049-21.941-16.232-34-13,3.8754-14.468,5.8223-29.75-5-36z" stroke-opacity="0.29411765" stroke="#FFF" stroke-width="1" fill="none"/>
</svg>
