<?xml version="1.0" encoding="UTF-8" standalone="no"?>
<!-- Created with Inkscape (http://www.inkscape.org/) -->
<svg xmlns:rdf="http://www.w3.org/1999/02/22-rdf-syntax-ns#" xmlns="http://www.w3.org/2000/svg" height="128" width="128" version="1.1" xmlns:cc="http://creativecommons.org/ns#" xmlns:xlink="http://www.w3.org/1999/xlink" xmlns:dc="http://purl.org/dc/elements/1.1/">
 <title>Samée - 128px - Removable</title>
 <metadata>
  <rdf:RDF>
   <cc:Work rdf:about="">
    <dc:format>image/svg+xml</dc:format>
    <dc:type rdf:resource="http://purl.org/dc/dcmitype/StillImage"/>
    <dc:title>Samée - 128px - Removable</dc:title>
    <dc:date>2011-03-22</dc:date>
    <dc:creator>
     <cc:Agent>
      <dc:title>Harenome Ranaivoarivony Razanajato</dc:title>
     </cc:Agent>
    </dc:creator>
    <dc:description/>
    <cc:license rdf:resource="http://creativecommons.org/licenses/by/3.0/"/>
    <dc:subject>
     <rdf:Bag>
      <rdf:li>hard</rdf:li>
      <rdf:li>disk</rdf:li>
      <rdf:li>drive</rdf:li>
      <rdf:li>removable</rdf:li>
      <rdf:li>drive-removable</rdf:li>
     </rdf:Bag>
    </dc:subject>
   </cc:Work>
   <cc:License rdf:about="http://creativecommons.org/licenses/by/3.0/">
    <cc:permits rdf:resource="http://creativecommons.org/ns#Reproduction"/>
    <cc:permits rdf:resource="http://creativecommons.org/ns#Distribution"/>
    <cc:requires rdf:resource="http://creativecommons.org/ns#Notice"/>
    <cc:requires rdf:resource="http://creativecommons.org/ns#Attribution"/>
    <cc:permits rdf:resource="http://creativecommons.org/ns#DerivativeWorks"/>
   </cc:License>
  </rdf:RDF>
 </metadata>
 <defs>
  <linearGradient id="screw-middle-gradient">
   <stop stop-color="#ebebeb" offset="0"/>
   <stop stop-color="#b4b4b4" offset="1"/>
  </linearGradient>
  <linearGradient id="screw-gradient">
   <stop stop-color="#f5f5f5" offset="0"/>
   <stop stop-color="#b9b9b9" offset="1"/>
  </linearGradient>
  <linearGradient id="screw-back-gradient">
   <stop stop-color="#ebebeb" offset="0"/>
   <stop stop-color="#afafaf" offset="1"/>
  </linearGradient>
  <linearGradient id="floor-shadow-gradient">
   <stop stop-color="#000" stop-opacity="0.09803922" offset="0"/>
   <stop stop-color="#000" stop-opacity="0.07843138" offset="0.93"/>
   <stop stop-color="#000" stop-opacity="0" offset="1"/>
  </linearGradient>
  <linearGradient id="bottom-side-lights-gradient">
   <stop stop-color="#000" stop-opacity="0.09803922" offset="0"/>
   <stop stop-color="#555" stop-opacity="0.39215687" offset="0.1"/>
   <stop stop-color="#7d7d7d" stop-opacity="0.29411766" offset="0.16"/>
   <stop stop-color="#646464" stop-opacity="0.13725491" offset="0.3"/>
   <stop stop-color="#000" stop-opacity="0" offset="1"/>
  </linearGradient>
  <linearGradient id="linearGradient3622" y2="120" gradientUnits="userSpaceOnUse" x2="64" gradientTransform="matrix(0.99554116,0,0,0.99544938,0.911789,-0.6994)" y1="110.2" x1="64">
   <stop stop-color="#4b4b4b" offset="0"/>
   <stop stop-color="#232323" offset="0.8"/>
   <stop stop-color="#2d2d2d" offset="1"/>
  </linearGradient>
  <linearGradient id="linearGradient3640" y2="107.25" gradientUnits="userSpaceOnUse" x2="41.794" gradientTransform="matrix(0.99554116,0,0,0.99544938,1.0780294,-1.07887)" y1="17.157" x1="41.794">
   <stop stop-color="#c8c8c8" offset="0"/>
   <stop stop-color="#e1e1e1" offset="0.65"/>
   <stop stop-color="#ebebeb" offset="1"/>
  </linearGradient>
  <linearGradient id="linearGradient3656" y2="112.99" xlink:href="#bottom-side-lights-gradient" gradientUnits="userSpaceOnUse" x2="19.425" gradientTransform="matrix(0.99554116,0,0,0.99544938,0.6612346,-0.9534)" y1="115.67" x1="9.4186"/>
  <linearGradient id="linearGradient3686" y2="112.79" xlink:href="#bottom-side-lights-gradient" gradientUnits="userSpaceOnUse" x2="107.35" gradientTransform="matrix(0.99554116,0,0,0.99544938,0.6612346,-0.9534)" y1="115.5" x1="117.45"/>
  <linearGradient id="linearGradient3982" y2="88.5" xlink:href="#floor-shadow-gradient" spreadMethod="reflect" gradientUnits="userSpaceOnUse" x2="474" gradientTransform="matrix(0.24770641,0,0,0.33333336,0.5871555,87.24994)" y1="88.5" x1="256"/>
  <linearGradient id="linearGradient3988" y2="88.5" xlink:href="#floor-shadow-gradient" spreadMethod="reflect" gradientUnits="userSpaceOnUse" x2="474" gradientTransform="matrix(0.24885323,0,0,0.36666667,0.29357699,84.299959)" y1="88.5" x1="256"/>
  <linearGradient id="linearGradient3992" y2="88.5" xlink:href="#floor-shadow-gradient" spreadMethod="reflect" gradientUnits="userSpaceOnUse" x2="474" gradientTransform="matrix(0.25000002,0,0,0.40000005,-6.7054545e-7,81.349956)" y1="88.5" x1="256"/>
  <linearGradient id="linearGradient3996" y2="88.5" xlink:href="#floor-shadow-gradient" spreadMethod="reflect" gradientUnits="userSpaceOnUse" x2="474" gradientTransform="matrix(0.25114678,0,0,0.43333336,-0.29357726,78.399942)" y1="88.5" x1="256"/>
  <linearGradient id="linearGradient4000" y2="88.5" xlink:href="#floor-shadow-gradient" spreadMethod="reflect" gradientUnits="userSpaceOnUse" x2="474" gradientTransform="matrix(0.25229362,0,0,0.46666675,-0.58715646,75.449934)" y1="88.5" x1="256"/>
  <linearGradient id="linearGradient4004" y2="88.5" xlink:href="#floor-shadow-gradient" spreadMethod="reflect" gradientUnits="userSpaceOnUse" x2="474" gradientTransform="matrix(0.25458719,0,0,0.50000004,-0.92431158,72.499956)" y1="88.5" x1="256"/>
  <linearGradient id="linearGradient3871" y2="112.25" gradientUnits="userSpaceOnUse" x2="83" gradientTransform="matrix(0.99554116,0,0,0.99544938,0.2912437,-1.03268)" y1="12" x1="83">
   <stop stop-color="#c3c3c3" offset="0"/>
   <stop stop-color="#cdcdcd" offset="0.3"/>
   <stop stop-color="#e6e6e6" offset="1"/>
  </linearGradient>
  <linearGradient id="linearGradient3881" y2="451.2" gradientUnits="userSpaceOnUse" x2="145" gradientTransform="matrix(0.24888529,0,0,0.24886235,0.6612346,-1.2867)" y1="53.39" x1="145">
   <stop stop-color="#FFF" stop-opacity="0.07843138" offset="0"/>
   <stop stop-color="#FFF" stop-opacity="0.25490198" offset="1"/>
  </linearGradient>
  <linearGradient id="linearGradient3897" y2="443.25" spreadMethod="reflect" gradientUnits="userSpaceOnUse" x2="479" gradientTransform="matrix(0.24888529,0,0,0.24886235,0.1623429,-1.27665)" y1="443.25" x1="253.88">
   <stop stop-color="#f5f5f5" offset="0"/>
   <stop stop-color="#ebebeb" offset="0.95"/>
   <stop stop-color="#dcdcdc" stop-opacity="0" offset="1"/>
  </linearGradient>
  <linearGradient id="linearGradient3894" y2="427" gradientUnits="userSpaceOnUse" x2="256" gradientTransform="matrix(0.24888529,0,0,0.24886235,0.6612346,-1.33193)" y1="62" x1="256">
   <stop stop-color="#FFF" stop-opacity="0.07843138" offset="0"/>
   <stop stop-color="#FFF" stop-opacity="0.33333334" offset="1"/>
  </linearGradient>
  <radialGradient id="radialGradient3938" gradientUnits="userSpaceOnUse" cy="456.5" cx="68.25" gradientTransform="matrix(2.626409,0,0,2.1793562,-111.00241,-536.3761)" r="11.75">
   <stop stop-color="#b6f78f" offset="0"/>
   <stop stop-color="#187e18" offset="1"/>
  </radialGradient>
  <radialGradient id="radialGradient3161" xlink:href="#screw-gradient" gradientUnits="userSpaceOnUse" cy="434.65" cx="50.353" gradientTransform="matrix(1.9977837,0,0,2.6770303,-50.212597,-727.04482)" r="4.4194"/>
  <radialGradient id="radialGradient4008" xlink:href="#screw-back-gradient" gradientUnits="userSpaceOnUse" cy="434.65" cx="50.353" gradientTransform="matrix(1.9977837,0,0,2.6770303,-50.212597,-727.04482)" r="4.4194"/>
  <radialGradient id="radialGradient4078" xlink:href="#screw-middle-gradient" gradientUnits="userSpaceOnUse" cy="434.65" cx="50.353" gradientTransform="matrix(1.9977837,0,0,2.6770303,-50.212597,-727.04482)" r="4.4194"/>
  <linearGradient id="linearGradient4192" y2="111" gradientUnits="userSpaceOnUse" x2="70" y1="11" x1="70">
   <stop stop-color="#bebebe" offset="0"/>
   <stop stop-color="#c8c8c8" offset="0.4"/>
   <stop stop-color="#c3c3c3" offset="1"/>
  </linearGradient>
  <linearGradient id="linearGradient4202" y2="106" gradientUnits="userSpaceOnUse" x2="77.751" y1="16" x1="77.751">
   <stop stop-color="#bebebe" offset="0"/>
   <stop stop-color="#cdcdcd" offset="0.65"/>
   <stop stop-color="#d2d2d2" offset="1"/>
  </linearGradient>
 </defs>
 <rect fill-rule="evenodd" rx="3.111" ry="3.75" height="7.5" width="111" y="113" x="8.75" fill="url(#linearGradient4004)"/>
 <rect fill-rule="evenodd" rx="2.973" ry="3.5" height="7" width="110" y="113.25" x="9" fill="url(#linearGradient4000)"/>
 <rect fill-rule="evenodd" rx="2.849" ry="3.25" height="6.5" width="109.5" y="113.5" x="9.25" fill="url(#linearGradient3996)"/>
 <rect fill-rule="evenodd" rx="2.725" ry="3" height="6" width="109" y="113.75" x="9.5" fill="url(#linearGradient3992)"/>
 <rect fill-rule="evenodd" rx="2.601" ry="2.75" height="5.5" width="108.5" y="114" x="9.75" fill="url(#linearGradient3988)"/>
 <rect fill-rule="evenodd" rx="2.4771" ry="2.5" height="5" width="108" y="114.25" x="10" fill="url(#linearGradient3982)"/>
 <path fill="url(#linearGradient3622)" d="m9,109,1.5,7.5c0.32676,1.2194,0.77124,2.5,3,2.5h101c2.2641,0,2.6633-1.2435,3-2.5l1.5-7.5z"/>
 <path d="m9,109,1.5,7.5c0.35092,1.3095,0.99123,2.5,3,2.5h6.5v-10z" fill="url(#linearGradient3656)"/>
 <path d="m108,109,0,9.9999,6.5,0c1.8681,0,2.5968-0.9955,3-2.5l1.5-7.5001z" fill="url(#linearGradient3686)"/>
 <path d="m8.5,106.5c0,3.1487,2.5059,4,5,4h101c2.7683,0,5-0.8542,5-4l-13-92c0-0.61769-1.2344-3-4-3h-77c-2.7681,0-4,2.3938-4,3z" stroke="url(#linearGradient4192)" fill="url(#linearGradient3871)"/>
 <path d="m9.5,106.5c0,3.1487,2.5059,4,5,4h99c2.7683,0,5-0.8542,5-4l-13-91.5c0-0.61769-0.73444-2.5-3.5-2.5h-76c-2.7681,0-3.5,1.8938-3.5,2.5z" stroke="url(#linearGradient3881)" stroke-width="1" fill="none"/>
 <path stroke-linejoin="round" d="m8.5,106.5c0,2.9054,2.1189,4,5,4h101c3.1499,0,5-1.0717,5-4" stroke="url(#linearGradient3897)" stroke-linecap="round" stroke-miterlimit="4" stroke-dasharray="none" stroke-width="1" fill="none"/>
 <path d="m33,16.5c-2.8961,0-4.5,2.5196-4.5,4l-3.5,27c0,3.726,5.5,3.7653,5.5,8.5,0,5.5643-8,6.7167-8,10.5l-4,34c0,3.3824,2.8655,5,5.5,5h80c2.646,0,5.5-1.7624,5.5-5l-4-34c0-3.7765-8-4.9301-8-10.5,0-4.7903,5.5-4.7352,5.5-8.5l-3.5-27c0-1.7773-1.9543-4-4.5-4h-23.5c-3.3646,0-2.4359,4-7.5,4-5.0458,0-4.2062-4-7.5-4z" stroke="url(#linearGradient4202)" fill="url(#linearGradient3640)"/>
 <path d="m33.5,17.5c-2.8961,0-4,2.0196-4,3.5l-3.5,26c0,3.726,5.5,4.2653,5.5,9,0,5.5643-8,7.2167-8,11l-4,33c0,3.3824,2.3655,4.5,5,4.5h79c2.646,0,5-1.2624,5-4.5l-4-33c0-3.7765-8-5.4301-8-11,0-4.7903,5.5-5.2352,5.5-9l-3.5-26c0-1.7773-1.4543-3.5-4-3.5h-22.5c-3.3646,0-2.9359,4-8,4-5.0458,0-4.7062-4-8-4z" stroke="url(#linearGradient3894)" stroke-width="1" fill="none"/>
 <path d="m80,468.25a11.75,9.75,0,1,1,-23.5,0,11.75,9.75,0,1,1,23.5,0z" fill-rule="evenodd" transform="matrix(0.12765957,0,0,0.15384647,8.7872335,43.461386)" fill="url(#radialGradient3938)"/>
 <path d="m54.801,430.59a4.4194,5.922,0,1,1,-8.8388,0,4.4194,5.922,0,1,1,8.8388,0z" fill-rule="evenodd" transform="matrix(0.56568543,0,0,0.33772263,-15.000001,-39.42145)" fill="#b9b9b9"/>
 <path d="m54.801,430.59a4.4194,5.922,0,1,1,-8.8388,0,4.4194,5.922,0,1,1,8.8388,0z" fill-rule="evenodd" transform="matrix(0.56568543,0,0,0.33772263,-15.000001,-40.42145)" fill="url(#radialGradient3161)"/>
 <path d="m14.571,105.5a1.0762,1.3057,0,1,1,-2.1525,0,1.0762,1.3057,0,1,1,2.1525,0z" fill-rule="evenodd" transform="matrix(0.92916937,0,0,0.76587407,0.96126884,24.19869)" fill="#afafaf"/>
 <path d="m54.801,430.59a4.4194,5.922,0,1,1,-8.8388,0,4.4194,5.922,0,1,1,8.8388,0z" fill-rule="evenodd" transform="matrix(0.56568543,0,0,0.33772263,86,-39.42145)" fill="#afafaf"/>
 <path d="m54.801,430.59a4.4194,5.922,0,1,1,-8.8388,0,4.4194,5.922,0,1,1,8.8388,0z" fill-rule="evenodd" transform="matrix(0.56568543,0,0,0.33772263,86,-40.42145)" fill="url(#radialGradient3161)"/>
 <path d="m14.571,105.5a1.0762,1.3057,0,1,1,-2.1525,0,1.0762,1.3057,0,1,1,2.1525,0z" fill-rule="evenodd" transform="matrix(0.92916937,0,0,0.76587407,101.96127,24.19869)" fill="#afafaf"/>
 <path d="m54.801,430.59a4.4194,5.922,0,1,1,-8.8388,0,4.4194,5.922,0,1,1,8.8388,0z" fill-rule="evenodd" transform="matrix(0.33941126,0,0,0.16886132,8.3999994,-56.710727)" fill="#a5a5a5"/>
 <path d="m54.801,430.59a4.4194,5.922,0,1,1,-8.8388,0,4.4194,5.922,0,1,1,8.8388,0z" fill-rule="evenodd" transform="matrix(0.33941126,0,0,0.16886132,8.3999994,-57.710725)" fill="url(#radialGradient4008)"/>
 <path d="m27.75,14.726a0.83562,0.64892,0,1,1,-1.6712,0,0.83562,0.64892,0,1,1,1.6712,0z" fill-rule="evenodd" transform="matrix(0.59835901,0,0,0.7705081,9.3955376,3.1534383)" fill="#969696"/>
 <path d="m54.801,430.59a4.4194,5.922,0,1,1,-8.8388,0,4.4194,5.922,0,1,1,8.8388,0z" fill-rule="evenodd" transform="matrix(0.33941126,0,0,0.16886132,85.399999,-56.710727)" fill="#a5a5a5"/>
 <path d="m54.801,430.59a4.4194,5.922,0,1,1,-8.8388,0,4.4194,5.922,0,1,1,8.8388,0z" fill-rule="evenodd" transform="matrix(0.33941126,0,0,0.16886132,85.4,-57.710725)" fill="url(#radialGradient4008)"/>
 <path d="m27.75,14.726a0.83562,0.64892,0,1,1,-1.6712,0,0.83562,0.64892,0,1,1,1.6712,0z" fill-rule="evenodd" transform="matrix(0.59835901,0,0,0.7705081,86.395538,3.1534383)" fill="#969696"/>
 <path d="m54.801,430.59a4.4194,5.922,0,1,1,-8.8388,0,4.4194,5.922,0,1,1,8.8388,0z" fill-rule="evenodd" transform="matrix(0.33941126,0,0,0.16886132,46.899999,-56.710727)" fill="#a5a5a5"/>
 <path d="m54.801,430.59a4.4194,5.922,0,1,1,-8.8388,0,4.4194,5.922,0,1,1,8.8388,0z" fill-rule="evenodd" transform="matrix(0.33941126,0,0,0.16886132,46.899999,-57.710725)" fill="url(#radialGradient4008)"/>
 <path d="m59.22,13.869a0.64082,0.46404,0,1,1,-1.2816,0,0.64082,0.46404,0,1,1,1.2816,0z" fill-rule="evenodd" transform="matrix(0.78025579,0,0,1.0774961,18.293103,-0.44330374)" fill="#969696"/>
 <path d="m54.801,430.59a4.4194,5.922,0,1,1,-8.8388,0,4.4194,5.922,0,1,1,8.8388,0z" fill-rule="evenodd" transform="matrix(0.45254834,0,0,0.25329197,-1.8000004,-52.566086)" fill="#9b9b9b"/>
 <path d="m54.801,430.59a4.4194,5.922,0,1,1,-8.8388,0,4.4194,5.922,0,1,1,8.8388,0z" fill-rule="evenodd" transform="matrix(0.45254834,0,0,0.25329197,-1.8000004,-53.566087)" fill="url(#radialGradient4078)"/>
 <path d="m20.948,52.693a0.64082,0.35355,0,1,1,-1.2816,0,0.64082,0.35355,0,1,1,1.2816,0z" fill-rule="evenodd" transform="matrix(1.5605116,0,0,2.8284272,-10.689656,-94.038673)" fill="#afafaf"/>
 <path d="m54.801,430.59a4.4194,5.922,0,1,1,-8.8388,0,4.4194,5.922,0,1,1,8.8388,0z" fill-rule="evenodd" transform="matrix(0.45254834,0,0,0.25329197,84.2,-52.566086)" fill="#9b9b9b"/>
 <path d="m54.801,430.59a4.4194,5.922,0,1,1,-8.8388,0,4.4194,5.922,0,1,1,8.8388,0z" fill-rule="evenodd" transform="matrix(0.45254834,0,0,0.25329197,84.199999,-53.566087)" fill="url(#radialGradient4078)"/>
 <path d="m20.948,52.693a0.64082,0.35355,0,1,1,-1.2816,0,0.64082,0.35355,0,1,1,1.2816,0z" fill-rule="evenodd" transform="matrix(1.5605116,0,0,2.8284272,75.310344,-94.038673)" fill="#afafaf"/>
</svg>
