<?xml version="1.0" encoding="UTF-8" standalone="no"?>
<!-- Created with Inkscape (http://www.inkscape.org/) -->
<svg xmlns:rdf="http://www.w3.org/1999/02/22-rdf-syntax-ns#" xmlns="http://www.w3.org/2000/svg" height="128" width="128" version="1.1" xmlns:cc="http://creativecommons.org/ns#" xmlns:xlink="http://www.w3.org/1999/xlink" xmlns:dc="http://purl.org/dc/elements/1.1/">
 <title>Samée - 128px - HDD alt</title>
 <metadata>
  <rdf:RDF>
   <cc:Work rdf:about="">
    <dc:format>image/svg+xml</dc:format>
    <dc:type rdf:resource="http://purl.org/dc/dcmitype/StillImage"/>
    <dc:title>Samée - 128px - HDD alt</dc:title>
    <dc:date>2011-03-22</dc:date>
    <dc:creator>
     <cc:Agent>
      <dc:title>Harenome Ranaivoarivony Razanajato</dc:title>
     </cc:Agent>
    </dc:creator>
    <dc:description/>
    <cc:license rdf:resource="http://creativecommons.org/licenses/by/3.0/"/>
    <dc:subject>
     <rdf:Bag>
      <rdf:li>hard</rdf:li>
      <rdf:li>disk</rdf:li>
      <rdf:li>drive</rdf:li>
      <rdf:li>drive-harddisk</rdf:li>
      <rdf:li>harddisk</rdf:li>
     </rdf:Bag>
    </dc:subject>
   </cc:Work>
   <cc:License rdf:about="http://creativecommons.org/licenses/by/3.0/">
    <cc:permits rdf:resource="http://creativecommons.org/ns#Reproduction"/>
    <cc:permits rdf:resource="http://creativecommons.org/ns#Distribution"/>
    <cc:requires rdf:resource="http://creativecommons.org/ns#Notice"/>
    <cc:requires rdf:resource="http://creativecommons.org/ns#Attribution"/>
    <cc:permits rdf:resource="http://creativecommons.org/ns#DerivativeWorks"/>
   </cc:License>
  </rdf:RDF>
 </metadata>
 <defs>
  <linearGradient id="floor-shadow-gradient">
   <stop stop-color="#000" stop-opacity="0.09803922" offset="0"/>
   <stop stop-color="#000" stop-opacity="0.07843138" offset="0.93"/>
   <stop stop-color="#000" stop-opacity="0" offset="1"/>
  </linearGradient>
  <linearGradient id="bottom-side-lights-gradient">
   <stop stop-color="#000" stop-opacity="0.09803922" offset="0"/>
   <stop stop-color="#555" stop-opacity="0.39215687" offset="0.1"/>
   <stop stop-color="#7d7d7d" stop-opacity="0.29411766" offset="0.16"/>
   <stop stop-color="#646464" stop-opacity="0.13725491" offset="0.3"/>
   <stop stop-color="#000" stop-opacity="0" offset="1"/>
  </linearGradient>
  <linearGradient id="linearGradient3622" x1="64" gradientUnits="userSpaceOnUse" y1="110.2" gradientTransform="matrix(0.99554116,0,0,0.99544938,0.911789,-0.6994)" x2="64" y2="120">
   <stop stop-color="#4b4b4b" offset="0"/>
   <stop stop-color="#232323" offset="0.8"/>
   <stop stop-color="#2d2d2d" offset="1"/>
  </linearGradient>
  <linearGradient id="linearGradient3656" x1="9.4186" xlink:href="#bottom-side-lights-gradient" gradientUnits="userSpaceOnUse" y1="115.67" gradientTransform="matrix(0.99554116,0,0,0.99544938,0.6612346,-0.9534)" x2="19.425" y2="112.99"/>
  <linearGradient id="linearGradient3686" x1="117.45" xlink:href="#bottom-side-lights-gradient" gradientUnits="userSpaceOnUse" y1="115.5" gradientTransform="matrix(0.99554116,0,0,0.99544938,0.6612346,-0.9534)" x2="107.35" y2="112.79"/>
  <linearGradient id="linearGradient3982" x1="256" xlink:href="#floor-shadow-gradient" spreadMethod="reflect" gradientUnits="userSpaceOnUse" y1="88.5" gradientTransform="matrix(0.24770641,0,0,0.33333336,0.5871555,87.24994)" x2="474" y2="88.5"/>
  <linearGradient id="linearGradient3988" x1="256" xlink:href="#floor-shadow-gradient" spreadMethod="reflect" gradientUnits="userSpaceOnUse" y1="88.5" gradientTransform="matrix(0.24885323,0,0,0.36666667,0.29357699,84.299959)" x2="474" y2="88.5"/>
  <linearGradient id="linearGradient3992" x1="256" xlink:href="#floor-shadow-gradient" spreadMethod="reflect" gradientUnits="userSpaceOnUse" y1="88.5" gradientTransform="matrix(0.25000002,0,0,0.40000005,-6.7054545e-7,81.349956)" x2="474" y2="88.5"/>
  <linearGradient id="linearGradient3996" x1="256" xlink:href="#floor-shadow-gradient" spreadMethod="reflect" gradientUnits="userSpaceOnUse" y1="88.5" gradientTransform="matrix(0.25114678,0,0,0.43333336,-0.29357726,78.399942)" x2="474" y2="88.5"/>
  <linearGradient id="linearGradient4000" x1="256" xlink:href="#floor-shadow-gradient" spreadMethod="reflect" gradientUnits="userSpaceOnUse" y1="88.5" gradientTransform="matrix(0.25229362,0,0,0.46666675,-0.58715646,75.449934)" x2="474" y2="88.5"/>
  <linearGradient id="linearGradient4004" x1="256" xlink:href="#floor-shadow-gradient" spreadMethod="reflect" gradientUnits="userSpaceOnUse" y1="88.5" gradientTransform="matrix(0.25458719,0,0,0.50000004,-0.92431158,72.499956)" x2="474" y2="88.5"/>
  <linearGradient id="linearGradient3871" x1="83" gradientUnits="userSpaceOnUse" y1="12" gradientTransform="matrix(0.99554116,0,0,0.99544938,0.2912437,-1.03268)" x2="83" y2="112.25">
   <stop stop-color="#c3c3c3" offset="0"/>
   <stop stop-color="#cdcdcd" offset="0.3"/>
   <stop stop-color="#e6e6e6" offset="1"/>
  </linearGradient>
  <linearGradient id="linearGradient3881" x1="145" gradientUnits="userSpaceOnUse" y1="53.39" gradientTransform="matrix(0.24888529,0,0,0.24886235,0.6612346,-1.2867)" x2="145" y2="451.2">
   <stop stop-color="#FFF" stop-opacity="0.07843138" offset="0"/>
   <stop stop-color="#FFF" stop-opacity="0.25490198" offset="1"/>
  </linearGradient>
  <linearGradient id="linearGradient3897" x1="253.88" spreadMethod="reflect" gradientUnits="userSpaceOnUse" y1="443.25" gradientTransform="matrix(0.24888529,0,0,0.24886235,0.1623429,-1.27665)" x2="479" y2="443.25">
   <stop stop-color="#f5f5f5" offset="0"/>
   <stop stop-color="#ebebeb" offset="0.95"/>
   <stop stop-color="#dcdcdc" stop-opacity="0" offset="1"/>
  </linearGradient>
  <radialGradient id="radialGradient3161" gradientUnits="userSpaceOnUse" cy="434.65" cx="50.353" gradientTransform="matrix(1.9977837,0,0,2.6770303,-50.212597,-727.04482)" r="4.4194">
   <stop stop-color="#f5f5f5" offset="0"/>
   <stop stop-color="#b9b9b9" offset="1"/>
  </radialGradient>
  <radialGradient id="radialGradient4008" gradientUnits="userSpaceOnUse" cy="434.65" cx="50.353" gradientTransform="matrix(1.9977837,0,0,2.6770303,-50.212597,-727.04482)" r="4.4194">
   <stop stop-color="#ebebeb" offset="0"/>
   <stop stop-color="#afafaf" offset="1"/>
  </radialGradient>
  <radialGradient id="radialGradient4044" gradientUnits="userSpaceOnUse" cy="456.5" cx="68.25" gradientTransform="matrix(2.626409,0,0,2.1793562,-111.00241,-536.3761)" r="11.75">
   <stop stop-color="#aff3ff" offset="0"/>
   <stop stop-color="#0f5cd7" offset="1"/>
  </radialGradient>
  <linearGradient id="linearGradient4085" x1="260.5" spreadMethod="reflect" gradientUnits="userSpaceOnUse" y1="389" x2="356" y2="389">
   <stop stop-color="#fafafa" offset="0"/>
   <stop stop-color="#e1e1e1" offset="0.7"/>
   <stop stop-color="#afafaf" offset="1"/>
  </linearGradient>
  <linearGradient id="linearGradient4101" x1="385" gradientUnits="userSpaceOnUse" y1="82" gradientTransform="matrix(0.24888529,0,0,0.24886235,0.6612346,-1.4518)" x2="385" y2="264">
   <stop stop-color="#afafaf" offset="0"/>
   <stop stop-color="#b9b9b9" offset="0.92"/>
   <stop stop-color="#969696" offset="1"/>
  </linearGradient>
  <linearGradient id="linearGradient4134" x1="198" gradientUnits="userSpaceOnUse" y1="82.5" gradientTransform="matrix(0.24888529,0,0,0.24886235,-0.0517883,-2.41006)" x2="198" y2="392">
   <stop stop-color="#FFF" stop-opacity="0.07843138" offset="0"/>
   <stop stop-color="#FFF" stop-opacity="0.19607843" offset="1"/>
  </linearGradient>
  <radialGradient id="radialGradient4083" gradientUnits="userSpaceOnUse" cy="397" cx="256" gradientTransform="matrix(0.51385595,0,0,0.49775204,-68.009276,-100.71541)" r="160">
   <stop stop-color="#f0f0f0" offset="0"/>
   <stop stop-color="#c5c5c5" offset="1"/>
  </radialGradient>
  <linearGradient id="linearGradient4187" y2="341" gradientUnits="userSpaceOnUse" y1="259" x2="259.33" x1="259.33">
   <stop stop-color="#e1e1e1" offset="0"/>
   <stop stop-color="#d7d7d7" offset="1"/>
  </linearGradient>
  <radialGradient id="radialGradient4197" gradientUnits="userSpaceOnUse" cy="351" cx="231" gradientTransform="matrix(2.0003682,0,0,1.6081391,-231.08505,-223.45683)" r="51">
   <stop stop-color="#f0f0f0" offset="0"/>
   <stop stop-color="#d7d7d7" offset="1"/>
  </radialGradient>
  <linearGradient id="linearGradient4243" x1="377.01" gradientUnits="userSpaceOnUse" y1="463" gradientTransform="matrix(0.24888529,0,0,0.24886235,0.6612346,0.0438)" x2="377.01" y2="478">
   <stop stop-color="#141414" offset="0"/>
   <stop stop-color="#414141" offset="1"/>
  </linearGradient>
  <linearGradient id="linearGradient4860" x1="272" gradientUnits="userSpaceOnUse" y1="463" gradientTransform="matrix(0.23943661,0,0,0.27272727,3.2676067,-11.272766)" x2="272" y2="474">
   <stop stop-color="#4b2e19" offset="0"/>
   <stop stop-color="#8e6830" offset="1"/>
  </linearGradient>
  <linearGradient id="linearGradient3380" x1="195" gradientUnits="userSpaceOnUse" y1="463" gradientTransform="matrix(0.25000001,0,0,0.25000001,1.7499955,-0.7500429)" x2="195" y2="471">
   <stop stop-color="#cd680f" offset="0"/>
   <stop stop-color="#f8f298" offset="1"/>
  </linearGradient>
  <linearGradient id="linearGradient4192" y2="111" gradientUnits="userSpaceOnUse" y1="11" x2="70" x1="70">
   <stop stop-color="#bebebe" offset="0"/>
   <stop stop-color="#c8c8c8" offset="0.4"/>
   <stop stop-color="#c3c3c3" offset="1"/>
  </linearGradient>
 </defs>
 <rect fill-rule="evenodd" rx="3.111" ry="3.75" height="7.5" width="111" y="113" x="8.75" fill="url(#linearGradient4004)"/>
 <rect fill-rule="evenodd" rx="2.973" ry="3.5" height="7" width="110" y="113.25" x="9" fill="url(#linearGradient4000)"/>
 <rect fill-rule="evenodd" rx="2.849" ry="3.25" height="6.5" width="109.5" y="113.5" x="9.25" fill="url(#linearGradient3996)"/>
 <rect fill-rule="evenodd" rx="2.725" ry="3" height="6" width="109" y="113.75" x="9.5" fill="url(#linearGradient3992)"/>
 <rect fill-rule="evenodd" rx="2.601" ry="2.75" height="5.5" width="108.5" y="114" x="9.75" fill="url(#linearGradient3988)"/>
 <rect fill-rule="evenodd" rx="2.4771" ry="2.5" height="5" width="108" y="114.25" x="10" fill="url(#linearGradient3982)"/>
 <path d="m9,109,1.5,7.5c0.32676,1.2194,0.77124,2.5,3,2.5h101c2.2641,0,2.6633-1.2435,3-2.5l1.5-7.5z" fill="url(#linearGradient3622)"/>
 <path d="m9,109,1.5,7.5c0.35092,1.3095,0.99123,2.5,3,2.5h6.5v-10z" fill="url(#linearGradient3656)"/>
 <path d="m108,109,0,9.9999,6.5,0c1.8681,0,2.5968-0.9955,3-2.5l1.5-7.5001z" fill="url(#linearGradient3686)"/>
 <path stroke="url(#linearGradient4192)" d="m8.5,106.5c0,3.1487,2.5059,4,5,4h101c2.7683,0,5-0.8542,5-4l-13-92c0-0.61769-1.2344-3-4-3h-77c-2.7681,0-4,2.3938-4,3z" fill="url(#linearGradient3871)"/>
 <path stroke="url(#linearGradient3881)" stroke-width="1" d="m9.5,106.5c0,3.1487,2.5059,4,5,4h99c2.7683,0,5-0.8542,5-4l-13-91.5c0-0.61769-0.73444-2.5-3.5-2.5h-76c-2.7681,0-3.5,1.8938-3.5,2.5z" fill="none"/>
 <path stroke-linejoin="round" d="m8.5,106.5c0,2.9054,2.1189,4,5,4h101c3.1499,0,5-1.0717,5-4" stroke="url(#linearGradient3897)" stroke-linecap="round" stroke-dasharray="none" stroke-miterlimit="4" stroke-width="1" fill="none"/>
 <path fill="#FFF" d="m45,119-1-5,61,0-1,5z" fill-opacity="0.07843137"/>
 <path d="m46,119-1-4,59,0-1,4z" fill="url(#linearGradient4243)"/>
 <rect fill-opacity="0.19608" fill-rule="evenodd" rx="0" ry="0" height="4" width="53" y="115" x="48" fill="#000"/>
 <rect fill-rule="evenodd" rx="0" ry="0" height="3" width="51" y="115" x="49" fill="url(#linearGradient4860)"/>
 <path stroke-linejoin="miter" d="m49,117.5,51,0" stroke-opacity="0.09803922" stroke="#FFF" stroke-linecap="butt" stroke-width="1px" fill="none"/>
 <rect id="rect4261" fill-rule="evenodd" rx="0" ry="0" height="2" width="1" y="115" x="50" fill="url(#linearGradient3380)"/>
 <use xlink:href="#rect4261" transform="translate(2,0)" height="128" width="128" y="0" x="0"/>
 <use xlink:href="#rect4261" transform="translate(4,0)" height="128" width="128" y="0" x="0"/>
 <use xlink:href="#rect4261" transform="translate(6,0)" height="128" width="128" y="0" x="0"/>
 <use xlink:href="#rect4261" transform="translate(8,0)" height="128" width="128" y="0" x="0"/>
 <use xlink:href="#rect4261" transform="translate(10,0)" height="128" width="128" y="0" x="0"/>
 <use xlink:href="#rect4261" transform="translate(12,0)" height="128" width="128" y="0" x="0"/>
 <use xlink:href="#rect4261" transform="translate(14,0)" height="128" width="128" y="0" x="0"/>
 <use xlink:href="#rect4261" transform="translate(16,0)" height="128" width="128" y="0" x="0"/>
 <use xlink:href="#rect4261" transform="translate(18,0)" height="128" width="128" y="0" x="0"/>
 <use xlink:href="#rect4261" transform="translate(20,0)" height="128" width="128" y="0" x="0"/>
 <use xlink:href="#rect4261" transform="translate(22,0)" height="128" width="128" y="0" x="0"/>
 <use xlink:href="#rect4261" transform="translate(24,0)" height="128" width="128" y="0" x="0"/>
 <use xlink:href="#rect4261" transform="translate(26,0)" height="128" width="128" y="0" x="0"/>
 <use xlink:href="#rect4261" transform="translate(28,0)" height="128" width="128" y="0" x="0"/>
 <use xlink:href="#rect4261" transform="translate(30,0)" height="128" width="128" y="0" x="0"/>
 <use xlink:href="#rect4261" transform="translate(32,0)" height="128" width="128" y="0" x="0"/>
 <use xlink:href="#rect4261" transform="translate(34,0)" height="128" width="128" y="0" x="0"/>
 <use xlink:href="#rect4261" transform="translate(36,0)" height="128" width="128" y="0" x="0"/>
 <use xlink:href="#rect4261" transform="translate(38,0)" height="128" width="128" y="0" x="0"/>
 <use xlink:href="#rect4261" transform="translate(40,0)" height="128" width="128" y="0" x="0"/>
 <use xlink:href="#rect4261" transform="translate(42,0)" height="128" width="128" y="0" x="0"/>
 <use xlink:href="#rect4261" transform="translate(44,0)" height="128" width="128" y="0" x="0"/>
 <use xlink:href="#rect4261" transform="translate(46,0)" height="128" width="128" y="0" x="0"/>
 <use xlink:href="#rect4261" transform="translate(48,0)" height="128" width="128" y="0" x="0"/>
 <path fill="#000" d="m28.5,22-1,9c-0.33716,1.2582,1.5685,3,3,3h50l-6.5,15.5c-3.6527-0.65554-6.987-1-11-1-21.993,0-40,10.943-40,24s19.007,24.5,41,24.5,40-10.443,40-23.5c0-3.7212-0.92005-7.3682-3.5-10.5l-5-41.5c0-0.909-1.676-2.5-3.5-2.5h-60.5c-1.7426,0-3,2.1748-3,3z" fill-opacity="0.05882353"/>
 <path d="M102,66,95,23.5c-0.196-1.487-1.404-3.5-4-3.5l8,43z" fill="url(#linearGradient4101)"/>
 <path transform="matrix(0.43979058,0,0,0.35714286,-50.565446,-33.928571)" fill="url(#linearGradient4085)" d="m356,312a95.5,77,0,1,1,-191,0,95.5,77,0,1,1,191,0z" fill-rule="evenodd"/>
 <path d="m356,312a95.5,77,0,1,1,-191,0,95.5,77,0,1,1,191,0z" stroke-opacity="0.05882353" transform="matrix(0.43455497,0,0,0.35064935,-49.20157,-31.902598)" stroke="#000" stroke-miterlimit="4" stroke-dasharray="none" stroke-width="2.56177568" fill="none"/>
 <path d="m29.5,22.5-1,8.5c-0.33716,1.2582,1.0685,2,2.5,2h51l-7,17.5c-3.6527-0.65554-6.987-1-11-1-21.993,0-40,10.943-40,24s18.007,23.5,40,23.5,40-10.443,40-23.5c0-3.7212-1.92-7.3682-4.5-10.5l-5-40.5c0-0.909-0.676-2.5-2.5-2.5h-60c-1.7426,0-2.5,1.6748-2.5,2.5z" fill="url(#radialGradient4083)"/>
 <path stroke="url(#linearGradient4134)" stroke-width="1" d="m30,23-1,7.5c-0.33716,1.2582,1.0685,2,2.5,2h51l-7,19c-3.6527-0.65554-7.487-1-11.5-1-21.993,0-39.5,9.9429-39.5,23s17.507,23,39.5,23,39.5-9.9429,39.5-23c0-3.7212-1.9201-6.8682-4.5-10l-5-40.5c0-0.90941-0.67554-2.5-2.5-2.5h-59c-1.743,0-2.5,1.675-2.5,2.5z" fill="none"/>
 <path d="m282,300a51,41,0,1,1,-102,0,51,41,0,1,1,102,0z" fill-opacity="0.1372549" fill-rule="evenodd" transform="matrix(0.43137255,0,0,0.3902439,-35.647059,-44.07317)" fill="#FFF"/>
 <path transform="matrix(0.41176471,0,0,0.36585366,-31.117648,-36.756098)" fill="url(#linearGradient4187)" d="m282,300a51,41,0,1,1,-102,0,51,41,0,1,1,102,0z" fill-rule="evenodd"/>
 <path transform="matrix(0.33333333,0,0,0.2804878,-12.999999,-11.64634)" fill="url(#radialGradient4197)" d="m282,300a51,41,0,1,1,-102,0,51,41,0,1,1,102,0z" fill-rule="evenodd"/>
 <path d="m282,300a51,41,0,1,1,-102,0,51,41,0,1,1,102,0z" stroke-opacity="0.03921569" transform="matrix(0.32352941,0,0,0.26829268,-10.735294,-7.9878039)" stroke="#000" stroke-miterlimit="4" stroke-dasharray="none" stroke-width="3.3942101" fill="none"/>
 <path transform="matrix(0.12765957,0,0,0.15384647,8.7872343,43.461386)" fill="url(#radialGradient4044)" d="m80,468.25a11.75,9.75,0,1,1,-23.5,0,11.75,9.75,0,1,1,23.5,0z" fill-rule="evenodd"/>
 <path transform="matrix(0.56568543,0,0,0.33772263,-15.000001,-39.42145)" fill="#b9b9b9" d="m54.801,430.59a4.4194,5.922,0,1,1,-8.8388,0,4.4194,5.922,0,1,1,8.8388,0z" fill-rule="evenodd"/>
 <path transform="matrix(0.56568543,0,0,0.33772263,-15.000001,-40.42145)" fill="url(#radialGradient3161)" d="m54.801,430.59a4.4194,5.922,0,1,1,-8.8388,0,4.4194,5.922,0,1,1,8.8388,0z" fill-rule="evenodd"/>
 <path transform="matrix(0.92916937,0,0,0.76587407,0.96126884,24.19869)" fill="#afafaf" d="m14.571,105.5a1.0762,1.3057,0,1,1,-2.1525,0,1.0762,1.3057,0,1,1,2.1525,0z" fill-rule="evenodd"/>
 <path transform="matrix(0.56568543,0,0,0.33772263,86,-39.42145)" fill="#afafaf" d="m54.801,430.59a4.4194,5.922,0,1,1,-8.8388,0,4.4194,5.922,0,1,1,8.8388,0z" fill-rule="evenodd"/>
 <path transform="matrix(0.56568543,0,0,0.33772263,86,-40.42145)" fill="url(#radialGradient3161)" d="m54.801,430.59a4.4194,5.922,0,1,1,-8.8388,0,4.4194,5.922,0,1,1,8.8388,0z" fill-rule="evenodd"/>
 <path transform="matrix(0.92916937,0,0,0.76587407,101.96127,24.19869)" fill="#afafaf" d="m14.571,105.5a1.0762,1.3057,0,1,1,-2.1525,0,1.0762,1.3057,0,1,1,2.1525,0z" fill-rule="evenodd"/>
 <path transform="matrix(0.33941126,0,0,0.16886132,8.3999994,-56.710727)" fill="#a5a5a5" d="m54.801,430.59a4.4194,5.922,0,1,1,-8.8388,0,4.4194,5.922,0,1,1,8.8388,0z" fill-rule="evenodd"/>
 <path transform="matrix(0.33941126,0,0,0.16886132,8.3999994,-57.710725)" fill="url(#radialGradient4008)" d="m54.801,430.59a4.4194,5.922,0,1,1,-8.8388,0,4.4194,5.922,0,1,1,8.8388,0z" fill-rule="evenodd"/>
 <path transform="matrix(0.59835901,0,0,0.7705081,9.3955376,3.1534383)" fill="#969696" d="m27.75,14.726a0.83562,0.64892,0,1,1,-1.6712,0,0.83562,0.64892,0,1,1,1.6712,0z" fill-rule="evenodd"/>
 <path transform="matrix(0.33941126,0,0,0.16886132,85.399999,-56.710727)" fill="#a5a5a5" d="m54.801,430.59a4.4194,5.922,0,1,1,-8.8388,0,4.4194,5.922,0,1,1,8.8388,0z" fill-rule="evenodd"/>
 <path transform="matrix(0.33941126,0,0,0.16886132,85.4,-57.710725)" fill="url(#radialGradient4008)" d="m54.801,430.59a4.4194,5.922,0,1,1,-8.8388,0,4.4194,5.922,0,1,1,8.8388,0z" fill-rule="evenodd"/>
 <path transform="matrix(0.59835901,0,0,0.7705081,86.395538,3.1534383)" fill="#969696" d="m27.75,14.726a0.83562,0.64892,0,1,1,-1.6712,0,0.83562,0.64892,0,1,1,1.6712,0z" fill-rule="evenodd"/>
</svg>
