<?xml version="1.0" encoding="UTF-8" standalone="no"?>
<!-- Created with Inkscape (http://www.inkscape.org/) -->
<svg xmlns:rdf="http://www.w3.org/1999/02/22-rdf-syntax-ns#" xmlns="http://www.w3.org/2000/svg" height="48" width="48" version="1.1" xmlns:cc="http://creativecommons.org/ns#" xmlns:xlink="http://www.w3.org/1999/xlink" xmlns:dc="http://purl.org/dc/elements/1.1/">
 <title>Samée - 48 - File blank</title>
 <metadata>
  <rdf:RDF>
   <cc:Work rdf:about="">
    <dc:format>image/svg+xml</dc:format>
    <dc:type rdf:resource="http://purl.org/dc/dcmitype/StillImage"/>
    <dc:title>Samée - 48 - File blank</dc:title>
    <dc:date>2011-04-05</dc:date>
    <dc:creator>
     <cc:Agent>
      <dc:title>Harenome Ranaivoarivony Razanajato</dc:title>
     </cc:Agent>
    </dc:creator>
    <cc:license rdf:resource="http://creativecommons.org/licenses/by/3.0/"/>
    <dc:subject>
     <rdf:Bag>
      <rdf:li>empty</rdf:li>
      <rdf:li>gnome-fs-regular</rdf:li>
      <rdf:li>gtk-file</rdf:li>
      <rdf:li>text-x-preview</rdf:li>
     </rdf:Bag>
    </dc:subject>
   </cc:Work>
   <cc:License rdf:about="http://creativecommons.org/licenses/by/3.0/">
    <cc:permits rdf:resource="http://creativecommons.org/ns#Reproduction"/>
    <cc:permits rdf:resource="http://creativecommons.org/ns#Distribution"/>
    <cc:requires rdf:resource="http://creativecommons.org/ns#Notice"/>
    <cc:requires rdf:resource="http://creativecommons.org/ns#Attribution"/>
    <cc:permits rdf:resource="http://creativecommons.org/ns#DerivativeWorks"/>
   </cc:License>
  </rdf:RDF>
 </metadata>
 <defs>
  <linearGradient id="corner-shadow-gradient">
   <stop stop-color="#000" stop-opacity="0.03137255" offset="0"/>
   <stop stop-color="#000" stop-opacity="0.01176471" offset="1"/>
  </linearGradient>
  <linearGradient id="bottom-shadow-gradient">
   <stop stop-color="#000" stop-opacity="0.05098039" offset="0"/>
   <stop stop-color="#000" stop-opacity="0.03137255" offset="0.8"/>
   <stop stop-color="#000" stop-opacity="0" offset="1"/>
  </linearGradient>
  <linearGradient id="linearGradient3928" y2="480" xlink:href="#bottom-shadow-gradient" spreadMethod="reflect" gradientUnits="userSpaceOnUse" x2="444" gradientTransform="matrix(0.1050532,0,0,0.0625,-2.8936166,96.500014)" y1="480" x1="255.99"/>
  <linearGradient id="linearGradient3932" y2="480" xlink:href="#bottom-shadow-gradient" spreadMethod="reflect" gradientUnits="userSpaceOnUse" x2="444" gradientTransform="matrix(0.10638298,0,0,0.125,-3.2340428,66.500004)" y1="480" x1="255.99"/>
  <linearGradient id="linearGradient3936" y2="480" xlink:href="#bottom-shadow-gradient" spreadMethod="reflect" gradientUnits="userSpaceOnUse" x2="444" gradientTransform="matrix(0.10771277,0,0,0.18749997,-3.5744678,36.500006)" y1="480" x1="255.99"/>
  <linearGradient id="linearGradient3940" y2="480" xlink:href="#bottom-shadow-gradient" spreadMethod="reflect" gradientUnits="userSpaceOnUse" x2="444" gradientTransform="matrix(0.10904256,0,0,0.25,-3.9148934,6.5000026)" y1="480" x1="255.99"/>
  <linearGradient id="linearGradient3944" y2="480" xlink:href="#bottom-shadow-gradient" spreadMethod="reflect" gradientUnits="userSpaceOnUse" x2="444" gradientTransform="matrix(0.11037235,0,0,0.31250001,-4.2553196,-23.499999)" y1="480" x1="255.99"/>
  <linearGradient id="linearGradient3948" y2="480" xlink:href="#bottom-shadow-gradient" spreadMethod="reflect" gradientUnits="userSpaceOnUse" x2="444" gradientTransform="matrix(0.11170213,0,0,0.37499999,-4.5957443,-53.500009)" y1="480" x1="255.99"/>
  <radialGradient id="radialGradient3960" gradientUnits="userSpaceOnUse" cy="91.075" cx="414.85" gradientTransform="matrix(0.13690301,0,0,0.16947072,-18.177806,73.212612)" r="40.5">
   <stop stop-color="#ebebeb" offset="0"/>
   <stop stop-color="#FFF" offset="1"/>
  </radialGradient>
  <radialGradient id="radialGradient3986" xlink:href="#corner-shadow-gradient" gradientUnits="userSpaceOnUse" cy="101.75" cx="379.3" gradientTransform="matrix(0.09840855,0,0,0.12181886,-1.6271477,77.610544)" r="40.5"/>
  <radialGradient id="radialGradient4004" spreadMethod="reflect" gradientUnits="userSpaceOnUse" cy="415.69" cx="377" gradientTransform="matrix(0.12796105,0.00108156,-0.00106259,0.12639418,-12.314587,69.662789)" r="185">
   <stop stop-color="#FFF" offset="0"/>
   <stop stop-color="#f0f0f0" offset="1"/>
  </radialGradient>
  <radialGradient id="radialGradient3060" xlink:href="#corner-shadow-gradient" gradientUnits="userSpaceOnUse" cy="101.75" cx="379.3" gradientTransform="matrix(0.09840855,0,0,0.12181886,-1.6271477,77.334362)" r="40.5"/>
  <radialGradient id="radialGradient3062" xlink:href="#corner-shadow-gradient" gradientUnits="userSpaceOnUse" cy="101.75" cx="379.3" gradientTransform="matrix(0.09840855,0,0,0.12181886,-1.6271477,77.614465)" r="40.5"/>
  <radialGradient id="radialGradient3064" xlink:href="#corner-shadow-gradient" gradientUnits="userSpaceOnUse" cy="101.75" cx="379.3" gradientTransform="matrix(0.09840855,0,0,0.12181886,-1.6271477,77.89513)" r="40.5"/>
  <radialGradient id="radialGradient3066" xlink:href="#corner-shadow-gradient" gradientUnits="userSpaceOnUse" cy="101.75" cx="379.3" gradientTransform="matrix(0.09840855,0,0,0.12181886,-1.6271477,78.175609)" r="40.5"/>
  <radialGradient id="radialGradient3068" xlink:href="#corner-shadow-gradient" gradientUnits="userSpaceOnUse" cy="101.75" cx="379.3" gradientTransform="matrix(0.09840855,0,0,0.12181886,-1.6271477,77.329877)" r="40.5"/>
  <radialGradient id="radialGradient3829" spreadMethod="reflect" gradientUnits="userSpaceOnUse" cy="114.21" cx="49.25" gradientTransform="matrix(0.88574651,0,0,1.0706808,-6.1233205,-1.1435413)" r="24">
   <stop stop-color="#e1e1e1" offset="0"/>
   <stop stop-color="#d2d2d2" offset="1"/>
  </radialGradient>
 </defs>
 <g transform="translate(0,-80)">
  <rect fill-rule="evenodd" rx="0.44681" ry="1.5" height="3" width="42" y="125" x="3" fill="url(#linearGradient3948)"/>
  <rect fill-rule="evenodd" rx="0.44149" ry="1.25" height="2.5" width="41.5" y="125.25" x="3.25" fill="url(#linearGradient3944)"/>
  <rect fill-rule="evenodd" rx="0.43617" ry="1" height="2" width="41" y="125.5" x="3.5" fill="url(#linearGradient3940)"/>
  <rect fill-rule="evenodd" rx="0.43085" ry="0.75" height="1.5" width="40.5" y="125.75" x="3.75" fill="url(#linearGradient3936)"/>
  <rect fill-rule="evenodd" rx="0.42553" ry="0.5" height="1" width="40" y="126" x="4" fill="url(#linearGradient3932)"/>
  <rect fill-rule="evenodd" rx="0.42021" ry="0.25" height="0.5" width="39.5" y="126.25" x="4.25" fill="url(#linearGradient3928)"/>
  <path d="m6.5,82.5,26.5,0c1.8828,0,8.5,7.6179,8.5,9.5v33.5h-35z" stroke="url(#radialGradient3829)" stroke-width="1" fill="url(#radialGradient4004)"/>
  <path d="m7.5,83.5,25,0c1.8828,0,8,7.1179,8,9v33h-33z" stroke-opacity="0.88235294" stroke="#FFF" stroke-width="1" fill="none"/>
 </g>
 <g transform="translate(0,-80)">
  <path d="m31,83c1.8462,0,10,8.6335,10,10.5-0.48-1.798-6.998-2.105-9.25-1.5,0.724-2.708,1.271-7.83-0.75-9z" fill="url(#radialGradient3060)"/>
  <path fill="url(#radialGradient3062)" d="M31.25,83c1.846,0,9.75,8.383,9.75,10.25-0.48-1.798-6.748-2.105-9-1.5,0.724-2.708,1.271-7.58-0.75-8.75z"/>
  <path d="M31.5,83c1.846,0,9.5,8.133,9.5,10-0.48-1.798-6.498-2.105-8.75-1.5,0.724-2.708,1.271-7.33-0.75-8.5z" fill="url(#radialGradient3064)"/>
  <path fill="url(#radialGradient3066)" d="M31.75,83c1.846,0,9.25,7.883,9.25,9.75-0.48-1.798-6.248-2.105-8.5-1.5,0.724-2.708,1.271-7.08-0.75-8.25z"/>
  <path d="m32,83c1.8462,0,9,7.6335,9,9.5-0.48-1.798-5.998-2.105-8.25-1.5,0.724-2.708,1.271-6.83-0.75-8z" fill="url(#radialGradient3068)"/>
  <path fill="url(#radialGradient3986)" d="M32.25,83c1.846,0,8.75,7.383,8.75,9.25-0.48-1.798-5.748-2.105-8-1.5,0.724-2.708,1.271-6.58-0.75-7.75z"/>
  <path fill="url(#radialGradient3960)" d="m33,83c1.8462,0,8,7.1335,8,9-0.48038-1.7976-4.7484-2.6049-7-2,0.72362-2.7078,1.0207-5.8302-1-7z"/>
  <path d="m33.5,83.5c1.8462,0,7,6.1335,7,8-0.48038-1.7976-3.7484-2.6049-6-2,0.72362-2.7078,1.0207-4.8302-1-6z" stroke-opacity="0.29411765" stroke="#FFF" stroke-width="1" fill="none"/>
 </g>
</svg>
