<?xml version="1.0" encoding="UTF-8" standalone="no"?>
<!-- Created with Inkscape (http://www.inkscape.org/) -->
<svg xmlns:rdf="http://www.w3.org/1999/02/22-rdf-syntax-ns#" xmlns="http://www.w3.org/2000/svg" height="16" width="16" version="1.1" xmlns:cc="http://creativecommons.org/ns#" xmlns:xlink="http://www.w3.org/1999/xlink" xmlns:dc="http://purl.org/dc/elements/1.1/">
 <title>Samée - 16px - Removable</title>
 <metadata>
  <rdf:RDF>
   <cc:Work rdf:about="">
    <dc:format>image/svg+xml</dc:format>
    <dc:type rdf:resource="http://purl.org/dc/dcmitype/StillImage"/>
    <dc:title>Samée - 16px - Removable</dc:title>
    <dc:date>2011-03-31</dc:date>
    <dc:creator>
     <cc:Agent>
      <dc:title>Harenome Ranaivoarivony Razanajato</dc:title>
     </cc:Agent>
    </dc:creator>
    <dc:description/>
    <cc:license rdf:resource="http://creativecommons.org/licenses/by/3.0/"/>
    <dc:subject>
     <rdf:Bag>
      <rdf:li>hard</rdf:li>
      <rdf:li>disk</rdf:li>
      <rdf:li>drive</rdf:li>
      <rdf:li>removable</rdf:li>
      <rdf:li>drive-removable</rdf:li>
     </rdf:Bag>
    </dc:subject>
   </cc:Work>
   <cc:License rdf:about="http://creativecommons.org/licenses/by/3.0/">
    <cc:permits rdf:resource="http://creativecommons.org/ns#Reproduction"/>
    <cc:permits rdf:resource="http://creativecommons.org/ns#Distribution"/>
    <cc:requires rdf:resource="http://creativecommons.org/ns#Notice"/>
    <cc:requires rdf:resource="http://creativecommons.org/ns#Attribution"/>
    <cc:permits rdf:resource="http://creativecommons.org/ns#DerivativeWorks"/>
   </cc:License>
  </rdf:RDF>
 </metadata>
 <defs>
  <linearGradient id="linearGradient3622" y2="122.72" gradientUnits="userSpaceOnUse" x2="64" gradientTransform="matrix(0.11605924,0,0,0.11505907,0.21838202,7.0237025)" y1="97.934" x1="64">
   <stop stop-color="#4b4b4b" offset="0"/>
   <stop stop-color="#1e1e1e" offset="1"/>
  </linearGradient>
  <linearGradient id="linearGradient3640" y2="107.25" gradientUnits="userSpaceOnUse" x2="41.794" gradientTransform="matrix(0.11605924,0,0,0.11505907,0.63420658,5.2427649)" y1="17.157" x1="41.794">
   <stop stop-color="#c8c8c8" offset="0"/>
   <stop stop-color="#ebebeb" offset="1"/>
  </linearGradient>
  <linearGradient id="linearGradient3871" y2="112.25" gradientUnits="userSpaceOnUse" x2="83" gradientTransform="matrix(0.11605924,0,0,0.11505907,0.14603947,5.6831682)" y1="12" x1="83">
   <stop stop-color="#c3c3c3" offset="0"/>
   <stop stop-color="#e1e1e1" offset="1"/>
  </linearGradient>
  <linearGradient id="linearGradient3881" y2="451.2" gradientUnits="userSpaceOnUse" x2="145" gradientTransform="matrix(0.02901481,0,0,0.02876477,0.35217762,5.6538074)" y1="53.39" x1="145">
   <stop stop-color="#FFF" stop-opacity="0.11764706" offset="0"/>
   <stop stop-color="#FFF" stop-opacity="0.25490198" offset="1"/>
  </linearGradient>
  <linearGradient id="linearGradient3897" y2="443.25" spreadMethod="reflect" gradientUnits="userSpaceOnUse" x2="542" gradientTransform="matrix(0.02901481,0,0,0.02876477,0.13101234,5.6549689)" y1="443.25" x1="275.45">
   <stop stop-color="#f5f5f5" offset="0"/>
   <stop stop-color="#ebebeb" offset="0.95"/>
   <stop stop-color="#dcdcdc" stop-opacity="0" offset="1"/>
  </linearGradient>
  <linearGradient id="linearGradient3894" y2="427" gradientUnits="userSpaceOnUse" x2="256" gradientTransform="matrix(0.02901481,0,0,0.02876477,0.74862194,5.0216277)" y1="62" x1="256">
   <stop stop-color="#FFF" stop-opacity="0.07843138" offset="0"/>
   <stop stop-color="#FFF" stop-opacity="0.33333334" offset="1"/>
  </linearGradient>
  <linearGradient id="linearGradient4192" y2="111" gradientUnits="userSpaceOnUse" x2="70" gradientTransform="matrix(0.11657905,0,0,0.11558505,0.11208656,5.8025303)" y1="11" x1="70">
   <stop stop-color="#bebebe" offset="0"/>
   <stop stop-color="#c3c3c3" offset="1"/>
  </linearGradient>
  <linearGradient id="linearGradient4202" y2="106" gradientUnits="userSpaceOnUse" x2="77.751" gradientTransform="matrix(0.11657905,0,0,0.11558505,0.50853094,5.3674661)" y1="16" x1="77.751">
   <stop stop-color="#bebebe" offset="0"/>
   <stop stop-color="#d2d2d2" offset="1"/>
  </linearGradient>
  <linearGradient id="linearGradient4117" y2="90.097" gradientUnits="userSpaceOnUse" x2="63.69" gradientTransform="matrix(0.14539633,0,0,0.14416378,0.54839123,8.1548307)" y1="70.316" x1="63.69">
   <stop stop-color="#FFF" stop-opacity="0.35294119" offset="0"/>
   <stop stop-color="#FFF" stop-opacity="0.11764706" offset="1"/>
  </linearGradient>
  <linearGradient id="linearGradient4125" y2="87.973" gradientUnits="userSpaceOnUse" x2="70.822" gradientTransform="matrix(0.14539633,0,0,0.14416378,0.59412131,8.4610777)" y1="68.192" x1="70.822">
   <stop stop-color="#373737" offset="0"/>
   <stop stop-color="#1e1e1e" offset="1"/>
  </linearGradient>
 </defs>
 <g transform="translate(0,-6)">
  <path d="M0.5,18.5,1,21c0.038094,0.14094,0.24017,0.5,0.5,0.5h13c0.26395,0,0.46075-0.35477,0.5-0.5l0.5-2.5z" stroke="url(#linearGradient4125)" stroke-width="1" fill="url(#linearGradient3622)"/>
  <path d="M1.5,18.5,2,20c0.038094,0.14094,0.24017,0.5,0.5,0.5h11c0.26395,0,0.46075-0.35477,0.5-0.5l0.5-1.5z" stroke="url(#linearGradient4117)" stroke-width="1" fill="none"/>
  <path d="m0.5,18.5,15,0l-1.5-10.5c0-0.0714-0.178-0.5-0.5-0.5h-11c-0.3227,0-0.5,0.4299-0.5,0.5z" stroke="url(#linearGradient4192)" stroke-width="1" fill="url(#linearGradient3871)"/>
  <path stroke-linejoin="round" d="m1.5,18.5,13,0c-0.661-2.878-1.5-10-1.5-10h-10z" stroke="url(#linearGradient3881)" stroke-width="1" fill="none"/>
  <path stroke-linejoin="round" d="m0.5,18.5,15,0" stroke="url(#linearGradient3897)" stroke-linecap="round" stroke-miterlimit="4" stroke-dasharray="none" stroke-width="1" fill="none"/>
  <path d="m3.5,7.5-1,9c0,0.39096,0.19287,1,0.5,1h10c0.30847,0,0.5-0.62578,0.5-1l-1-9z" stroke="url(#linearGradient4202)" stroke-width="1" fill="url(#linearGradient3640)"/>
  <path d="m4.5,8.5-1,7c0,0.39096,0.19287,1,0.5,1h8c0.30847,0,0.5-0.62578,0.5-1l-1-7z" stroke="url(#linearGradient3894)" stroke-width="1" fill="none"/>
  <rect fill-rule="evenodd" rx="0" ry="0" height="1" width="1" y="20" x="2" fill="#a3ef79"/>
 </g>
</svg>
