<?xml version="1.0" encoding="UTF-8" standalone="no"?>
<!-- Created with Inkscape (http://www.inkscape.org/) -->
<svg xmlns:rdf="http://www.w3.org/1999/02/22-rdf-syntax-ns#" xmlns="http://www.w3.org/2000/svg" height="512" width="512" version="1.1" xmlns:cc="http://creativecommons.org/ns#" xmlns:xlink="http://www.w3.org/1999/xlink" xmlns:dc="http://purl.org/dc/elements/1.1/">
 <title>Samée - 512 - Folder gnome</title>
 <metadata>
  <rdf:RDF>
   <cc:Work rdf:about="">
    <dc:format>image/svg+xml</dc:format>
    <dc:type rdf:resource="http://purl.org/dc/dcmitype/StillImage"/>
    <dc:title>Samée - 512 - Folder gnome</dc:title>
    <dc:date>2011-04-04</dc:date>
    <dc:creator>
     <cc:Agent>
      <dc:title>Harenome Ranaivoarivony Razanajato</dc:title>
     </cc:Agent>
    </dc:creator>
    <dc:subject>
     <rdf:Bag>
      <rdf:li>folder</rdf:li>
      <rdf:li>gnome-folder</rdf:li>
      <rdf:li>gnome-fs-directory</rdf:li>
      <rdf:li>gtk-directory</rdf:li>
      <rdf:li>inode-directory</rdf:li>
      <rdf:li>stock-folder</rdf:li>
     </rdf:Bag>
    </dc:subject>
    <cc:license rdf:resource="http://creativecommons.org/licenses/by/3.0/"/>
   </cc:Work>
   <cc:License rdf:about="http://creativecommons.org/licenses/by/3.0/">
    <cc:permits rdf:resource="http://creativecommons.org/ns#Reproduction"/>
    <cc:permits rdf:resource="http://creativecommons.org/ns#Distribution"/>
    <cc:requires rdf:resource="http://creativecommons.org/ns#Notice"/>
    <cc:requires rdf:resource="http://creativecommons.org/ns#Attribution"/>
    <cc:permits rdf:resource="http://creativecommons.org/ns#DerivativeWorks"/>
   </cc:License>
  </rdf:RDF>
 </metadata>
 <defs>
  <linearGradient id="shadow-gradient">
   <stop stop-color="#000" stop-opacity="0.03921569" offset="0"/>
   <stop stop-color="#000" stop-opacity="0.02352941" offset="0.87"/>
   <stop stop-color="#000" stop-opacity="0" offset="1"/>
  </linearGradient>
  <linearGradient id="radial-light-gradient">
   <stop stop-color="#FFF" stop-opacity="0.29411766" offset="0"/>
   <stop stop-color="#FFF" stop-opacity="0" offset="1"/>
  </linearGradient>
  <linearGradient id="linearGradient3813" x1="256" spreadMethod="reflect" gradientUnits="userSpaceOnUse" y1="177" x2="482" y2="177">
   <stop stop-color="#f5f5f5" offset="0"/>
   <stop stop-color="#f5f5f5" offset="0.91"/>
   <stop stop-color="#FFF" offset="0.95"/>
   <stop stop-color="#f0f0f0" offset="0.96"/>
   <stop stop-color="#c8c8c8" offset="1"/>
  </linearGradient>
  <linearGradient id="linearGradient3835" x1="256" spreadMethod="reflect" gradientUnits="userSpaceOnUse" y1="179.75" x2="482" y2="179.75">
   <stop stop-color="#FFF" stop-opacity="0.78431374" offset="0"/>
   <stop stop-color="#FFF" stop-opacity="0.78431374" offset="0.95"/>
   <stop stop-color="#FFF" stop-opacity="0" offset="1"/>
  </linearGradient>
  <radialGradient id="radialGradient3850" xlink:href="#radial-light-gradient" gradientUnits="userSpaceOnUse" cy="91" cx="256" gradientTransform="matrix(1.6595811,0,0,1.0647755,-168.85276,75.105424)" r="226"/>
  <linearGradient id="linearGradient3858" y2="113" gradientUnits="userSpaceOnUse" y1="113" x2="460" x1="50">
   <stop stop-color="#c8c8c8" offset="0"/>
   <stop stop-color="#e6e6e6" offset="0.02"/>
   <stop stop-color="#FFF" offset="0.04"/>
   <stop stop-color="#f5f5f5" offset="0.05"/>
   <stop stop-color="#f5f5f5" offset="0.34"/>
   <stop stop-color="#e6e6e6" offset="0.38"/>
   <stop stop-color="#c8c8c8" offset="0.5"/>
   <stop stop-color="#f5f5f5" offset="0.56"/>
   <stop stop-color="#f5f5f5" offset="0.93"/>
   <stop stop-color="#FFF" offset="0.96"/>
   <stop stop-color="#e6e6e6" offset="0.98"/>
   <stop stop-color="#c8c8c8" offset="1"/>
  </linearGradient>
  <radialGradient id="radialGradient3894" xlink:href="#radial-light-gradient" gradientUnits="userSpaceOnUse" cy="67.175" cx="255" gradientTransform="matrix(1.4000169,0,0,1.2292832,-102.00432,-0.57711864)" r="205"/>
  <linearGradient id="linearGradient3904" y2="115" gradientUnits="userSpaceOnUse" y1="115" x2="460" x1="50">
   <stop stop-color="#FFF" stop-opacity="0" offset="0"/>
   <stop stop-color="#FFF" stop-opacity="0.78431374" offset="0.03"/>
   <stop stop-color="#FFF" stop-opacity="0.78431374" offset="0.35"/>
   <stop stop-color="#FFF" stop-opacity="0.35294119" offset="0.4"/>
   <stop stop-color="#FFF" stop-opacity="0.29411766" offset="0.53"/>
   <stop stop-color="#FFF" stop-opacity="0.78431374" offset="0.6"/>
   <stop stop-color="#FFF" stop-opacity="0.78431374" offset="0.97"/>
   <stop stop-color="#FFF" stop-opacity="0" offset="1"/>
  </linearGradient>
  <linearGradient id="linearGradient3926" x1="256" xlink:href="#shadow-gradient" spreadMethod="reflect" gradientUnits="userSpaceOnUse" y1="454" gradientTransform="matrix(1.0092166,0,0,0.65,-2.359447,161.4)" x2="473" y2="454"/>
  <linearGradient id="linearGradient3932" x1="256" xlink:href="#shadow-gradient" spreadMethod="reflect" gradientUnits="userSpaceOnUse" y1="454" gradientTransform="matrix(1.0138249,0,0,0.7,-3.5391705,139.2)" x2="473" y2="454"/>
  <linearGradient id="linearGradient3936" x1="256" xlink:href="#shadow-gradient" spreadMethod="reflect" gradientUnits="userSpaceOnUse" y1="454" gradientTransform="matrix(1.0184331,0,0,0.75,-4.718894,117)" x2="473" y2="454"/>
  <linearGradient id="linearGradient3940" x1="256" xlink:href="#shadow-gradient" spreadMethod="reflect" gradientUnits="userSpaceOnUse" y1="454" gradientTransform="matrix(1.0230414,0,0,0.8,-5.8986175,94.8)" x2="473" y2="454"/>
  <linearGradient id="linearGradient3944" x1="256" xlink:href="#shadow-gradient" spreadMethod="reflect" gradientUnits="userSpaceOnUse" y1="454" gradientTransform="matrix(1.0276496,0,0,0.85,-7.0783411,72.6)" x2="473" y2="454"/>
  <linearGradient id="linearGradient3948" x1="256" xlink:href="#shadow-gradient" spreadMethod="reflect" gradientUnits="userSpaceOnUse" y1="454" gradientTransform="matrix(1.0322579,0,0,0.9,-8.2580646,50.4)" x2="473" y2="454"/>
  <filter id="folder-texture-filter" color-interpolation-filters="sRGB">
   <feTurbulence numOctaves="8" seed="1" type="fractalNoise" baseFrequency="0.40000000000000002"/>
   <feColorMatrix values="0 0 0 1 1 0 0 0 1 1 0 0 0 1 1 0 0 0 2.5 -0.15 " result="result0"/>
   <feFlood flood-opacity="0.13" result="result1" flood-color="rgb(255,255,255)"/>
   <feBlend mode="normal" result="result2" in2="SourceGraphic" in="result1"/>
   <feComposite operator="out" result="result3" in2="result0"/>
   <feComposite operator="atop" result="fbSourceGraphic" in2="SourceGraphic"/>
   <feTurbulence numOctaves="8" seed="2" type="fractalNoise" baseFrequency="0.40000000000000002"/>
   <feColorMatrix values="0 0 0 1 1 0 0 0 1 1 0 0 0 1 1 0 0 0 2.5 -0.05 " result="result0"/>
   <feFlood flood-opacity="0.070000000000000007" result="result1" flood-color="rgb(0,0,0)"/>
   <feBlend mode="normal" result="result4" in2="fbSourceGraphic" in="result1"/>
   <feComposite operator="out" result="result5" in2="result0"/>
   <feComposite operator="atop" in2="fbSourceGraphic"/>
  </filter>
  <linearGradient id="linearGradient3917" y2="462" gradientUnits="userSpaceOnUse" y1="172" x2="349" x1="349">
   <stop stop-color="#b9bbad" offset="0"/>
   <stop stop-color="#bec0b2" offset="0.1"/>
   <stop stop-color="#b4b7a7" offset="0.7"/>
   <stop stop-color="#a1a591" offset="0.97"/>
   <stop stop-color="#b4b7a7" offset="1"/>
  </linearGradient>
  <linearGradient id="linearGradient3931" y2="167" gradientUnits="userSpaceOnUse" y1="82" x2="158" x1="158">
   <stop stop-color="#b2b6a8" offset="0"/>
   <stop stop-color="#9ea492" offset="0.85"/>
   <stop stop-color="#909583" offset="1"/>
  </linearGradient>
 </defs>
 <rect fill-rule="evenodd" rx="9" ry="9" height="18" width="448" y="450" x="32" fill="url(#linearGradient3948)"/>
 <rect fill-rule="evenodd" rx="8.5" ry="8.5" height="17" width="446" y="450" x="33" fill="url(#linearGradient3944)"/>
 <rect fill-rule="evenodd" rx="10.23" ry="8" height="16" width="444" y="450" x="34" fill="url(#linearGradient3940)"/>
 <rect fill-rule="evenodd" rx="7.5" ry="7.5" height="15" width="442" y="450" x="35" fill="url(#linearGradient3936)"/>
 <rect fill-rule="evenodd" rx="7" ry="7" height="14" width="440" y="450" x="36" fill="url(#linearGradient3932)"/>
 <rect fill-rule="evenodd" rx="6.5" ry="6.5" height="13" width="438" y="450" x="37" fill="url(#linearGradient3926)"/>
 <path filter="url(#folder-texture-filter)" d="m50,97c0-9.0269,4.9731-18,18-18h117c35.303,0,49.343,50,90,50h167c13.058,0,18,8.9915,18,18h-410z" fill="url(#linearGradient3858)"/>
 <path filter="url(#folder-texture-filter)" d="m50,97c0-9.0269,4.9731-15,15-15h125c30,0,60,50,90,50h165c10.058,0,15,5.9915,15,15v295h-410z" fill="url(#linearGradient3931)"/>
 <path d="m50,97c0-9.0269,4.9731-15,15-15h125c30,0,60,50,90,50h165c10.058,0,15,5.9915,15,15v295h-410z" fill="url(#radialGradient3894)"/>
 <path stroke-linejoin="miter" d="m50.5,97.5c0-9.5965,5.7659-15,15-15h124c30.19,0,60.734,50,91,50h164c9.2994,0,15,5.2344,15,15" stroke="url(#linearGradient3904)" stroke-linecap="butt" stroke-width="1px" fill="none"/>
 <path filter="url(#folder-texture-filter)" d="m30,187c0-8.9422,7.0233-20,20-20h412c13.02,0,20,10.909,20,20z" fill="url(#linearGradient3813)"/>
 <path filter="url(#folder-texture-filter)" d="m30,187c0-8.9422,5.0285-15,15-15h422c10.02,0,15,5.9092,15,15,0,0-10,104.5-10,255,0,7.1681-5.053,20-20,20h-392c-14.907,0-20-13.04-20-20,0-149.27-10-255-10-255z" fill="url(#linearGradient3917)"/>
 <path d="m30,187c0-8.9422,5.0285-15,15-15h422c10.02,0,15,5.9092,15,15,0,0-10,104.5-10,255,0,7.1681-5.053,20-20,20h-392c-14.907,0-20-13.04-20-20,0-149.27-10-255-10-255z" fill="url(#radialGradient3850)"/>
 <path stroke-linejoin="miter" d="m30.5,187c0-9.5305,5.5948-14.5,15-14.5h421c9.4809,0,15,5.0003,15,14.5" stroke="url(#linearGradient3835)" stroke-linecap="butt" stroke-width="1px" fill="none"/>
</svg>
