<?xml version="1.0" encoding="UTF-8" standalone="no"?>
<!-- Created with Inkscape (http://www.inkscape.org/) -->
<svg xmlns:rdf="http://www.w3.org/1999/02/22-rdf-syntax-ns#" xmlns="http://www.w3.org/2000/svg" height="16" width="16" version="1.1" xmlns:cc="http://creativecommons.org/ns#" xmlns:xlink="http://www.w3.org/1999/xlink" xmlns:dc="http://purl.org/dc/elements/1.1/">
 <title>Samée - 16px - HDD</title>
 <metadata>
  <rdf:RDF>
   <cc:Work rdf:about="">
    <dc:format>image/svg+xml</dc:format>
    <dc:type rdf:resource="http://purl.org/dc/dcmitype/StillImage"/>
    <dc:title>Samée - 16px - HDD</dc:title>
    <dc:date>2011-03-31</dc:date>
    <dc:creator>
     <cc:Agent>
      <dc:title>Harenome Ranaivoarivony Razanajato</dc:title>
     </cc:Agent>
    </dc:creator>
    <dc:description/>
    <cc:license rdf:resource="http://creativecommons.org/licenses/by/3.0/"/>
    <dc:subject>
     <rdf:Bag>
      <rdf:li>hard</rdf:li>
      <rdf:li>disk</rdf:li>
      <rdf:li>drive</rdf:li>
      <rdf:li>drive-harddisk</rdf:li>
      <rdf:li>harddisk</rdf:li>
     </rdf:Bag>
    </dc:subject>
   </cc:Work>
   <cc:License rdf:about="http://creativecommons.org/licenses/by/3.0/">
    <cc:permits rdf:resource="http://creativecommons.org/ns#Reproduction"/>
    <cc:permits rdf:resource="http://creativecommons.org/ns#Distribution"/>
    <cc:requires rdf:resource="http://creativecommons.org/ns#Notice"/>
    <cc:requires rdf:resource="http://creativecommons.org/ns#Attribution"/>
    <cc:permits rdf:resource="http://creativecommons.org/ns#DerivativeWorks"/>
   </cc:License>
  </rdf:RDF>
 </metadata>
 <defs>
  <linearGradient id="linearGradient3622" y2="122.72" gradientUnits="userSpaceOnUse" x2="64" gradientTransform="matrix(0.11605924,0,0,0.11505907,0.21838202,7.0237025)" y1="97.934" x1="64">
   <stop stop-color="#4b4b4b" offset="0"/>
   <stop stop-color="#1e1e1e" offset="1"/>
  </linearGradient>
  <linearGradient id="linearGradient3871" y2="112.25" gradientUnits="userSpaceOnUse" x2="83" gradientTransform="matrix(0.11605924,0,0,0.11505907,0.14603947,5.6831682)" y1="12" x1="83">
   <stop stop-color="#c3c3c3" offset="0"/>
   <stop stop-color="#e1e1e1" offset="1"/>
  </linearGradient>
  <linearGradient id="linearGradient3881" y2="451.2" gradientUnits="userSpaceOnUse" x2="145" gradientTransform="matrix(0.02901481,0,0,0.02876477,0.35217762,5.6538074)" y1="53.39" x1="145">
   <stop stop-color="#FFF" stop-opacity="0.11764706" offset="0"/>
   <stop stop-color="#FFF" stop-opacity="0.25490198" offset="1"/>
  </linearGradient>
  <linearGradient id="linearGradient3897" y2="443.25" spreadMethod="reflect" gradientUnits="userSpaceOnUse" x2="542" gradientTransform="matrix(0.02901481,0,0,0.02876477,0.13101234,5.6549689)" y1="443.25" x1="275.45">
   <stop stop-color="#f5f5f5" offset="0"/>
   <stop stop-color="#ebebeb" offset="0.95"/>
   <stop stop-color="#dcdcdc" stop-opacity="0" offset="1"/>
  </linearGradient>
  <linearGradient id="linearGradient4085" y2="389" spreadMethod="reflect" gradientUnits="userSpaceOnUse" x2="356" y1="389" x1="260.5">
   <stop stop-color="#fafafa" offset="0"/>
   <stop stop-color="#e1e1e1" offset="0.65"/>
   <stop stop-color="#AAA" offset="1"/>
  </linearGradient>
  <linearGradient id="linearGradient4134" y2="392" gradientUnits="userSpaceOnUse" x2="198" gradientTransform="matrix(0.02901481,0,0,0.02876477,0.37470563,4.9594796)" y1="158.45" x1="198">
   <stop stop-color="#FFF" stop-opacity="0.09803922" offset="0"/>
   <stop stop-color="#FFF" stop-opacity="0.17647059" offset="0.7"/>
   <stop stop-color="#FFF" stop-opacity="0.92156863" offset="1"/>
  </linearGradient>
  <radialGradient id="radialGradient4083" gradientUnits="userSpaceOnUse" cy="397" cx="256" gradientTransform="matrix(0.05990484,0,0,0.0575327,-7.5477135,-6.4740993)" r="160">
   <stop stop-color="#f5f5f5" offset="0"/>
   <stop stop-color="#c3c3c3" offset="1"/>
  </radialGradient>
  <linearGradient id="linearGradient4093" y2="341" spreadMethod="reflect" gradientUnits="userSpaceOnUse" x2="282" y1="341" x1="231">
   <stop stop-color="#fafafa" offset="0"/>
   <stop stop-color="#e1e1e1" offset="0.6"/>
   <stop stop-color="#a5a5a5" offset="1"/>
  </linearGradient>
  <linearGradient id="linearGradient4192" y2="111" gradientUnits="userSpaceOnUse" x2="70" gradientTransform="matrix(0.11657905,0,0,0.11558505,0.11208656,5.8025303)" y1="11" x1="70">
   <stop stop-color="#bebebe" offset="0"/>
   <stop stop-color="#c3c3c3" offset="1"/>
  </linearGradient>
  <linearGradient id="linearGradient4117" y2="90.097" gradientUnits="userSpaceOnUse" x2="63.69" gradientTransform="matrix(0.14539633,0,0,0.14416378,0.54839123,8.1548307)" y1="70.316" x1="63.69">
   <stop stop-color="#FFF" stop-opacity="0.35294119" offset="0"/>
   <stop stop-color="#FFF" stop-opacity="0.11764706" offset="1"/>
  </linearGradient>
  <linearGradient id="linearGradient4125" y2="87.973" gradientUnits="userSpaceOnUse" x2="70.822" gradientTransform="matrix(0.14539633,0,0,0.14416378,0.59412131,8.4610777)" y1="68.192" x1="70.822">
   <stop stop-color="#373737" offset="0"/>
   <stop stop-color="#1e1e1e" offset="1"/>
  </linearGradient>
 </defs>
 <g transform="translate(0,-6)">
  <path d="M0.5,18.5,1,21c0.038094,0.14094,0.24017,0.5,0.5,0.5h13c0.26395,0,0.46075-0.35477,0.5-0.5l0.5-2.5z" stroke="url(#linearGradient4125)" stroke-width="1" fill="url(#linearGradient3622)"/>
  <path d="M1.5,18.5,2,20c0.038094,0.14094,0.24017,0.5,0.5,0.5h11c0.26395,0,0.46075-0.35477,0.5-0.5l0.5-1.5z" stroke="url(#linearGradient4117)" stroke-width="1" fill="none"/>
  <path d="m0.5,18.5,15,0l-1.5-10.5c0-0.0714-0.178-0.5-0.5-0.5h-11c-0.3227,0-0.5,0.4299-0.5,0.5z" stroke="url(#linearGradient4192)" stroke-width="1" fill="url(#linearGradient3871)"/>
  <path stroke-linejoin="round" d="m1.5,18.5,13,0c-0.661-2.878-1.5-10-1.5-10h-10z" stroke="url(#linearGradient3881)" stroke-width="1" fill="none"/>
  <path stroke-linejoin="round" d="m0.5,18.5,15,0" stroke="url(#linearGradient3897)" stroke-linecap="round" stroke-miterlimit="4" stroke-dasharray="none" stroke-width="1" fill="none"/>
  <rect fill-rule="evenodd" rx="0" ry="0" height="1" width="9" y="20" x="5" fill="#5a3f22"/>
  <rect id="rect4261" fill-rule="evenodd" rx="0" ry="0" height="1" width="1" y="20" x="6" fill="#eece47"/>
  <use xlink:href="#rect4261" transform="translate(2,0)" height="16" width="16" y="0" x="0"/>
  <use xlink:href="#rect4261" transform="translate(4,0)" height="16" width="16" y="0" x="0"/>
  <use xlink:href="#rect4261" transform="translate(6,0)" height="16" width="16" y="0" x="0"/>
  <path d="m356,312a95.5,77,0,1,1,-191,0,95.5,77,0,1,1,191,0z" fill-rule="evenodd" transform="matrix(0.05759162,0,0,0.03896104,-7.0026173,3.3441559)" stroke="#c8c8c8" stroke-miterlimit="4" stroke-dasharray="none" stroke-width="21.11082077" fill="url(#linearGradient4085)"/>
  <path stroke-linejoin="round" d="M4.5,10.5,9,10.5,8.5,12.5h-0.5c-1.6491,0-4.6429,0.4908-4.6429,2,0,1.3014,2.1811,2,4.6429,2,2.4617,0,4.6429-0.75597,4.6429-2,0-0.43012-0.34209-0.638-0.64286-1l-1-6h-6z" stroke="#c3c3c3" stroke-width="1" fill="url(#radialGradient4083)"/>
  <path stroke-linejoin="round" d="m5.5,9.5,4.5,0-0.5,4h-1.5c-1.945,0-4.6429,0.14185-4.6429,1,0,1.3496,2.4065,2,4.6429,2,2.2363,0,4.6429-0.72936,4.6429-2,0-0.43012-0.71306-0.52738-1.0138-0.88938l-1.629-5.111h-4z" stroke="url(#linearGradient4134)" stroke-width="1" fill="none"/>
  <path d="m282,300a51,41,0,1,1,-102,0,51,41,0,1,1,102,0z" fill-rule="evenodd" transform="matrix(0.04901961,0,0,0.03658537,-3.3235293,4.0243888)" stroke="#cdcdcd" stroke-miterlimit="4" stroke-dasharray="none" stroke-width="23.613554" fill="url(#linearGradient4093)"/>
  <path d="m282,300a51,41,0,1,1,-102,0,51,41,0,1,1,102,0z" fill-rule="evenodd" transform="matrix(0.03921569,0,0,0.02439024,-1.0588235,6.6829282)" fill="#ebebeb"/>
  <rect fill-rule="evenodd" rx="0" ry="0" height="1" width="1" y="20" x="2" fill="#a3ef79"/>
  <rect fill-rule="evenodd" rx="0" ry="0" height="1" width="1" y="17" x="1" fill="#c3c3c3"/>
  <rect fill-rule="evenodd" rx="0" ry="0" height="1" width="1" y="16" x="1" fill="#ebebeb"/>
  <rect fill-rule="evenodd" rx="0" ry="0" height="1" width="1" y="17" x="14" fill="#c3c3c3"/>
  <rect fill-rule="evenodd" rx="0" ry="0" height="1" width="1" y="16" x="14" fill="#ebebeb"/>
  <rect fill-rule="evenodd" rx="0" ry="0" height="1" width="1" y="9" x="2" fill="#b4b4b4"/>
  <rect fill-rule="evenodd" rx="0" ry="0" height="1" width="1" y="8" x="2" fill="#d7d7d7"/>
  <rect fill-rule="evenodd" rx="0" ry="0" height="1" width="1" y="9" x="13" fill="#b4b4b4"/>
  <rect fill-rule="evenodd" rx="0" ry="0" height="1" width="1" y="8" x="13" fill="#d7d7d7"/>
 </g>
</svg>
