<?xml version="1.0" encoding="UTF-8" standalone="no"?>
<!-- Created with Inkscape (http://www.inkscape.org/) -->
<svg xmlns:rdf="http://www.w3.org/1999/02/22-rdf-syntax-ns#" xmlns="http://www.w3.org/2000/svg" height="64" width="64" version="1.1" xmlns:cc="http://creativecommons.org/ns#" xmlns:xlink="http://www.w3.org/1999/xlink" xmlns:dc="http://purl.org/dc/elements/1.1/">
 <title>Samée - 64 - Folder orange</title>
 <metadata>
  <rdf:RDF>
   <cc:Work rdf:about="">
    <dc:format>image/svg+xml</dc:format>
    <dc:type rdf:resource="http://purl.org/dc/dcmitype/StillImage"/>
    <dc:title>Samée - 64 - Folder orange</dc:title>
    <dc:date>2011-04-06</dc:date>
    <dc:creator>
     <cc:Agent>
      <dc:title>Harenome Ranaivoarivony Razanajato</dc:title>
     </cc:Agent>
    </dc:creator>
    <dc:subject>
     <rdf:Bag>
      <rdf:li>folder</rdf:li>
      <rdf:li>gnome-folder</rdf:li>
      <rdf:li>gnome-fs-directory</rdf:li>
      <rdf:li>gtk-directory</rdf:li>
      <rdf:li>inode-directory</rdf:li>
      <rdf:li>stock-folder</rdf:li>
     </rdf:Bag>
    </dc:subject>
    <cc:license rdf:resource="http://creativecommons.org/licenses/by/3.0/"/>
   </cc:Work>
   <cc:License rdf:about="http://creativecommons.org/licenses/by/3.0/">
    <cc:permits rdf:resource="http://creativecommons.org/ns#Reproduction"/>
    <cc:permits rdf:resource="http://creativecommons.org/ns#Distribution"/>
    <cc:requires rdf:resource="http://creativecommons.org/ns#Notice"/>
    <cc:requires rdf:resource="http://creativecommons.org/ns#Attribution"/>
    <cc:permits rdf:resource="http://creativecommons.org/ns#DerivativeWorks"/>
   </cc:License>
  </rdf:RDF>
 </metadata>
 <defs>
  <linearGradient id="shadow-gradient">
   <stop stop-color="#000" stop-opacity="0.05490196" offset="0"/>
   <stop stop-color="#000" stop-opacity="0.03529412" offset="0.85"/>
   <stop stop-color="#000" stop-opacity="0" offset="1"/>
  </linearGradient>
  <linearGradient id="radial-light-gradient">
   <stop stop-color="#FFF" stop-opacity="0.29411766" offset="0"/>
   <stop stop-color="#FFF" stop-opacity="0" offset="1"/>
  </linearGradient>
  <linearGradient id="linearGradient3835" y2="179.75" spreadMethod="reflect" gradientUnits="userSpaceOnUse" x2="477" gradientTransform="matrix(0.12300881,0,0,0.12266348,1.3251821,448.80071)" y1="178.94" x1="249.37">
   <stop stop-color="#FFF" stop-opacity="0.58823532" offset="0"/>
   <stop stop-color="#FFF" stop-opacity="0.58823532" offset="0.9"/>
   <stop stop-color="#FFF" stop-opacity="0" offset="1"/>
  </linearGradient>
  <radialGradient id="radialGradient3850" xlink:href="#radial-light-gradient" gradientUnits="userSpaceOnUse" cy="91" cx="256" gradientTransform="matrix(0.20414309,0,0,0.13060907,-19.445195,458.0134)" r="226"/>
  <radialGradient id="radialGradient3894" xlink:href="#radial-light-gradient" gradientUnits="userSpaceOnUse" cy="67.175" cx="255" gradientTransform="matrix(0.17221441,0,0,0.15078816,-11.222248,448.72992)" r="205"/>
  <linearGradient id="linearGradient3904" y2="115" gradientUnits="userSpaceOnUse" x2="460" gradientTransform="matrix(0.12300881,0,0,0.12266348,1.3251821,448.80071)" y1="115" x1="50">
   <stop stop-color="#FFF" stop-opacity="0" offset="0"/>
   <stop stop-color="#FFF" stop-opacity="0.49019608" offset="0.05"/>
   <stop stop-color="#FFF" stop-opacity="0.49019608" offset="0.35"/>
   <stop stop-color="#FFF" stop-opacity="0.15686275" offset="0.4"/>
   <stop stop-color="#FFF" stop-opacity="0.09803922" offset="0.53"/>
   <stop stop-color="#FFF" stop-opacity="0.49019608" offset="0.6"/>
   <stop stop-color="#FFF" stop-opacity="0.49019608" offset="0.95"/>
   <stop stop-color="#FFF" stop-opacity="0" offset="1"/>
  </linearGradient>
  <linearGradient id="linearGradient3926" y2="454" xlink:href="#shadow-gradient" spreadMethod="reflect" gradientUnits="userSpaceOnUse" x2="473" gradientTransform="matrix(0.1278802,0,0,0.07499999,-0.73732738,471.95)" y1="454" x1="256"/>
  <linearGradient id="linearGradient3932" y2="454" xlink:href="#shadow-gradient" spreadMethod="reflect" gradientUnits="userSpaceOnUse" x2="473" gradientTransform="matrix(0.12903226,0,0,0.1,-1.0322585,460.59995)" y1="454" x1="256"/>
  <linearGradient id="linearGradient3936" y2="454" xlink:href="#shadow-gradient" spreadMethod="reflect" gradientUnits="userSpaceOnUse" x2="473" gradientTransform="matrix(0.13018432,0,0,0.125,-1.3271886,449.24996)" y1="454" x1="256"/>
  <linearGradient id="linearGradient3940" y2="454" xlink:href="#shadow-gradient" spreadMethod="reflect" gradientUnits="userSpaceOnUse" x2="473" gradientTransform="matrix(0.1313364,0,0,0.15,-1.6221194,437.89992)" y1="454" x1="256"/>
  <linearGradient id="linearGradient3944" y2="454" xlink:href="#shadow-gradient" spreadMethod="reflect" gradientUnits="userSpaceOnUse" x2="473" gradientTransform="matrix(0.13248844,0,0,0.175,-1.9170502,426.54995)" y1="454" x1="256"/>
  <linearGradient id="linearGradient3948" y2="454" xlink:href="#shadow-gradient" spreadMethod="reflect" gradientUnits="userSpaceOnUse" x2="473" gradientTransform="matrix(0.13364055,0,0,0.20000002,-2.211982,415.19993)" y1="454" x1="256"/>
  <linearGradient id="linearGradient3949" y2="466.31" gradientUnits="userSpaceOnUse" x2="349" y1="164.67" x1="349">
   <stop stop-color="#ffcf69" offset="0"/>
   <stop stop-color="#ffd45f" offset="0.2"/>
   <stop stop-color="#f8b452" offset="0.7"/>
   <stop stop-color="#fba33b" offset="1"/>
  </linearGradient>
  <linearGradient id="linearGradient3963" y2="164.67" gradientUnits="userSpaceOnUse" x2="158" y1="74.996" x1="158">
   <stop stop-color="#fad46e" offset="0"/>
   <stop stop-color="#f5ab41" offset="0.8"/>
   <stop stop-color="#f29526" offset="1"/>
  </linearGradient>
  <linearGradient id="linearGradient3976" y2="466.31" gradientUnits="userSpaceOnUse" x2="109.55" y1="164.67" x1="109.55">
   <stop stop-color="#f7bc3f" offset="0"/>
   <stop stop-color="#f7c235" offset="0.2"/>
   <stop stop-color="#ed9e2b" offset="0.7"/>
   <stop stop-color="#f38a11" offset="1"/>
  </linearGradient>
  <linearGradient id="linearGradient4058" y2="470.01" gradientUnits="userSpaceOnUse" x2="197.22" y1="168.75" x1="197.22">
   <stop stop-color="#FFF" stop-opacity="0.29411766" offset="0"/>
   <stop stop-color="#FFF" stop-opacity="0.07843138" offset="0.8"/>
   <stop stop-color="#FFF" stop-opacity="0.15686275" offset="1"/>
  </linearGradient>
  <linearGradient id="linearGradient4094" y2="164.67" gradientUnits="userSpaceOnUse" x2="95.413" y1="74.996" x1="95.413">
   <stop stop-color="#f9cb51" offset="0"/>
   <stop stop-color="#f5af4b" offset="0.8"/>
   <stop stop-color="#f39a2f" offset="1"/>
  </linearGradient>
 </defs>
 <g transform="translate(0,-448)">
  <rect fill-rule="evenodd" rx="1.1652" ry="2" height="4" width="58" y="504" x="3" fill="url(#linearGradient3948)"/>
  <rect fill-rule="evenodd" rx="1.0959" ry="1.75" height="3.5" width="57.5" y="504.25" x="3.25" fill="url(#linearGradient3944)"/>
  <rect fill-rule="evenodd" rx="1.3134" ry="1.5" height="3" width="57" y="504.5" x="3.5" fill="url(#linearGradient3940)"/>
  <rect fill-rule="evenodd" rx="0.95871" ry="1.25" height="2.5" width="56.5" y="504.75" x="3.75" fill="url(#linearGradient3936)"/>
  <rect fill-rule="evenodd" rx="0.89091" ry="1" height="2" width="56" y="505" x="4" fill="url(#linearGradient3932)"/>
  <rect fill-rule="evenodd" rx="0.82363" ry="0.75" height="1.5" width="55.5" y="505.25" x="4.25" fill="url(#linearGradient3926)"/>
  <path d="m50.198,95.377c0-9.0269,6.2321-16.305,16.259-16.305h121.94c30,0,59.424,48.914,89.424,48.914h154.46c10.058,0,16.259,7.2963,16.259,16.305v293.49h-398.35z" transform="matrix(0.12300881,0,0,0.12266348,1.3251821,448.8007)" stroke="url(#linearGradient4094)" stroke-miterlimit="4" stroke-dasharray="none" stroke-width="8.14093399" fill="url(#linearGradient3963)"/>
  <path d="m8,460.5c0-1.1073,0.76661-1.5,2-1.5h14.5c3.6903,0,7.3097,6,11,6h18.5c1.2372,0,2,0.23324,2,1.3382v35.66h-48z" fill="url(#radialGradient3894)"/>
  <path d="m58.328,103.53c0-9.0269,6.2321-16.305,16.259-16.305h113.81c30,0,59.424,48.914,89.424,48.914h146.33c10.058,0,16.259,7.2963,16.259,16.305v285.33h-382.09z" stroke-opacity="0.1372549" transform="matrix(0.12300881,0,0,0.12266348,1.3251821,448.8007)" stroke="#FFF" stroke-dasharray="none" stroke-miterlimit="4" stroke-width="8.14093399" fill="none"/>
  <path stroke-linejoin="miter" d="m8.5,461c0-1.1771,0.36412-1.5,1.5-1.5h14c3.7137,0,7.277,6,11,6h19c1.1439,0,1.5,0.30213,1.5,1.5" stroke="url(#linearGradient3904)" stroke-linecap="butt" stroke-width="0.99999976px" fill="none"/>
  <path d="m25.81,185.05c0-8.9422,6.2875-16.305,16.259-16.305h414.6c10.02,0,16.259,7.214,16.259,16.305,0,0-12.194,106.3-12.194,256.8,0,7.1681-5.3768,20.381-20.324,20.381h-382.09c-14.907,0-20.324-13.425-20.324-20.381,0-149.27-12.194-256.8-12.194-256.8z" transform="matrix(0.12300881,0,0,0.12266348,1.3251821,448.8007)" stroke="url(#linearGradient3976)" stroke-miterlimit="4" stroke-dasharray="none" stroke-width="8.14093399" fill="url(#linearGradient3949)"/>
  <path d="M5,471.5c0-1.1,0.7734-1.5,2-1.5h50c1.2326,0,2,0.38491,2,1.5,0,0-1.5,13.539-1.5,32,0,0.87927,0.33862,2.5-1.5,2.5h-47c-1.8336,0-2.5-1.6468-2.5-2.5,0-18.31-1.5-32-1.5-32z" fill="url(#radialGradient3850)"/>
  <path d="m33.939,185.05c0-8.9422,6.2875-16.305,16.259-16.305h398.35c10.02,0,16.259,7.214,16.259,16.305,0,0-12.194,98.148-12.194,248.65,0,7.1681-5.3768,20.381-20.324,20.381h-365.83c-14.907,0-20.324-13.425-20.324-20.381,0-149.27-12.194-248.65-12.194-248.65z" transform="matrix(0.12300881,0,0,0.12266348,1.3251821,448.8007)" stroke="url(#linearGradient4058)" stroke-dasharray="none" stroke-miterlimit="4" stroke-width="8.14093399" fill="none"/>
  <path stroke-linejoin="miter" d="m5.5,472c0-1.169,0.84308-2.5,2-2.5h49c1.1662,0,2,1.3347,2,2.5" stroke="url(#linearGradient3835)" stroke-linecap="butt" stroke-width="0.99999976px" fill="none"/>
 </g>
</svg>
