<?xml version="1.0" encoding="UTF-8" standalone="no"?>
<!-- Created with Inkscape (http://www.inkscape.org/) -->
<svg xmlns:rdf="http://www.w3.org/1999/02/22-rdf-syntax-ns#" xmlns="http://www.w3.org/2000/svg" height="64" width="64" version="1.1" xmlns:cc="http://creativecommons.org/ns#" xmlns:xlink="http://www.w3.org/1999/xlink" xmlns:dc="http://purl.org/dc/elements/1.1/">
 <title>Samée - 64px - Removable</title>
 <metadata>
  <rdf:RDF>
   <cc:Work rdf:about="">
    <dc:format>image/svg+xml</dc:format>
    <dc:type rdf:resource="http://purl.org/dc/dcmitype/StillImage"/>
    <dc:title>Samée - 64px - Removable</dc:title>
    <dc:date>2011-03-25</dc:date>
    <dc:creator>
     <cc:Agent>
      <dc:title>Harenome Ranaivoarivony Razanajato</dc:title>
     </cc:Agent>
    </dc:creator>
    <dc:description/>
    <cc:license rdf:resource="http://creativecommons.org/licenses/by/3.0/"/>
    <dc:subject>
     <rdf:Bag>
      <rdf:li>hard</rdf:li>
      <rdf:li>disk</rdf:li>
      <rdf:li>drive</rdf:li>
      <rdf:li>removable</rdf:li>
      <rdf:li>drive-removable</rdf:li>
     </rdf:Bag>
    </dc:subject>
   </cc:Work>
   <cc:License rdf:about="http://creativecommons.org/licenses/by/3.0/">
    <cc:permits rdf:resource="http://creativecommons.org/ns#Reproduction"/>
    <cc:permits rdf:resource="http://creativecommons.org/ns#Distribution"/>
    <cc:requires rdf:resource="http://creativecommons.org/ns#Notice"/>
    <cc:requires rdf:resource="http://creativecommons.org/ns#Attribution"/>
    <cc:permits rdf:resource="http://creativecommons.org/ns#DerivativeWorks"/>
   </cc:License>
  </rdf:RDF>
 </metadata>
 <defs>
  <linearGradient id="floor-shadow-gradient">
   <stop stop-color="#000" stop-opacity="0.09803922" offset="0"/>
   <stop stop-color="#000" stop-opacity="0.07843138" offset="0.93"/>
   <stop stop-color="#000" stop-opacity="0" offset="1"/>
  </linearGradient>
  <linearGradient id="linearGradient3622" y2="120.25" gradientUnits="userSpaceOnUse" x2="64" gradientTransform="matrix(0.53823286,0,0,0.53790113,-2.276803,-4.843794)" y1="108.97" x1="64">
   <stop stop-color="#4b4b4b" offset="0"/>
   <stop stop-color="#1e1e1e" offset="1"/>
  </linearGradient>
  <linearGradient id="linearGradient3640" y2="107.25" gradientUnits="userSpaceOnUse" x2="41.794" gradientTransform="matrix(0.53823288,0,0,0.53790112,-1.9297827,-6.410424)" y1="17.157" x1="41.794">
   <stop stop-color="#c8c8c8" offset="0"/>
   <stop stop-color="#ebebeb" offset="1"/>
  </linearGradient>
  <linearGradient id="linearGradient3982" y2="88.5" xlink:href="#floor-shadow-gradient" spreadMethod="reflect" gradientUnits="userSpaceOnUse" x2="474" gradientTransform="matrix(0.13761468,0,0,0.13333333,-3.2293584,47.449975)" y1="88.5" x1="256"/>
  <linearGradient id="linearGradient3988" y2="88.5" xlink:href="#floor-shadow-gradient" spreadMethod="reflect" gradientUnits="userSpaceOnUse" x2="474" gradientTransform="matrix(0.13876147,0,0,0.16666666,-3.5229364,44.499971)" y1="88.5" x1="256"/>
  <linearGradient id="linearGradient3992" y2="88.5" xlink:href="#floor-shadow-gradient" spreadMethod="reflect" gradientUnits="userSpaceOnUse" x2="474" gradientTransform="matrix(0.13990827,0,0,0.20000003,-3.8165143,41.549982)" y1="88.5" x1="256"/>
  <linearGradient id="linearGradient3996" y2="88.5" xlink:href="#floor-shadow-gradient" spreadMethod="reflect" gradientUnits="userSpaceOnUse" x2="474" gradientTransform="matrix(0.14105503,0,0,0.23333336,-4.1100913,38.599969)" y1="88.5" x1="256"/>
  <linearGradient id="linearGradient4000" y2="88.5" xlink:href="#floor-shadow-gradient" spreadMethod="reflect" gradientUnits="userSpaceOnUse" x2="474" gradientTransform="matrix(0.14220186,0,0,0.26666672,-4.40367,35.649944)" y1="88.5" x1="256"/>
  <linearGradient id="linearGradient4004" y2="88.5" xlink:href="#floor-shadow-gradient" spreadMethod="reflect" gradientUnits="userSpaceOnUse" x2="474" gradientTransform="matrix(0.14334865,0,0,0.30000002,-4.6972476,32.699953)" y1="88.5" x1="256"/>
  <linearGradient id="linearGradient3871" y2="112.25" gradientUnits="userSpaceOnUse" x2="83" gradientTransform="matrix(0.53823288,0,0,0.53790112,-2.6122967,-5.41869)" y1="12" x1="83">
   <stop stop-color="#c3c3c3" offset="0"/>
   <stop stop-color="#e1e1e1" offset="1"/>
  </linearGradient>
  <linearGradient id="linearGradient3881" y2="451.2" gradientUnits="userSpaceOnUse" x2="145" gradientTransform="matrix(0.13455822,0,0,0.13447529,-2.0865491,-5.555952)" y1="53.39" x1="145">
   <stop stop-color="#FFF" stop-opacity="0.11764706" offset="0"/>
   <stop stop-color="#FFF" stop-opacity="0.25490198" offset="1"/>
  </linearGradient>
  <linearGradient id="linearGradient3897" y2="443.25" spreadMethod="reflect" gradientUnits="userSpaceOnUse" x2="479" gradientTransform="matrix(0.13455822,0,0,0.13447529,-2.6819861,-5.550522)" y1="443.25" x1="253.88">
   <stop stop-color="#f5f5f5" offset="0"/>
   <stop stop-color="#ebebeb" offset="0.95"/>
   <stop stop-color="#dcdcdc" stop-opacity="0" offset="1"/>
  </linearGradient>
  <linearGradient id="linearGradient3894" y2="427" gradientUnits="userSpaceOnUse" x2="256" gradientTransform="matrix(0.13455822,0,0,0.13447529,-1.829406,-7.140247)" y1="62" x1="256">
   <stop stop-color="#FFF" stop-opacity="0.07843138" offset="0"/>
   <stop stop-color="#FFF" stop-opacity="0.33333334" offset="1"/>
  </linearGradient>
  <radialGradient id="radialGradient3938" gradientUnits="userSpaceOnUse" cy="456.5" cx="68.25" gradientTransform="matrix(2.626409,0,0,2.1793562,-111.00241,-536.3761)" r="11.75">
   <stop stop-color="#b6f78f" offset="0"/>
   <stop stop-color="#187e18" offset="1"/>
  </radialGradient>
  <linearGradient id="linearGradient4192" y2="111" gradientUnits="userSpaceOnUse" x2="70" gradientTransform="matrix(0.54064352,0,0,0.5403601,-2.7697557,-4.860671)" y1="11" x1="70">
   <stop stop-color="#bebebe" offset="0"/>
   <stop stop-color="#c3c3c3" offset="1"/>
  </linearGradient>
  <linearGradient id="linearGradient4202" y2="106" gradientUnits="userSpaceOnUse" x2="77.751" gradientTransform="matrix(0.54064352,0,0,0.5403601,-2.5126123,-5.827445)" y1="16" x1="77.751">
   <stop stop-color="#bebebe" offset="0"/>
   <stop stop-color="#d2d2d2" offset="1"/>
  </linearGradient>
  <linearGradient id="linearGradient4117" y2="85" gradientUnits="userSpaceOnUse" x2="63.69" gradientTransform="matrix(0.67428571,0,0,0.67396568,-0.2085714,1.875934)" y1="78" x1="63.69">
   <stop stop-color="#FFF" stop-opacity="0.35294119" offset="0"/>
   <stop stop-color="#FFF" stop-opacity="0.11764706" offset="1"/>
  </linearGradient>
  <linearGradient id="linearGradient4125" y2="86.002" gradientUnits="userSpaceOnUse" x2="70.822" gradientTransform="matrix(0.67428571,0,0,0.67396568,-0.5342857,1.875934)" y1="77" x1="70.822">
   <stop stop-color="#373737" offset="0"/>
   <stop stop-color="#1e1e1e" offset="1"/>
  </linearGradient>
 </defs>
 <rect fill-rule="evenodd" rx="1.7517" ry="2.25" height="4.5" width="62.5" y="57" x="0.75" fill="url(#linearGradient4004)"/>
 <rect fill-rule="evenodd" rx="1.6757" ry="2" height="4" width="62" y="57.25" x="1" fill="url(#linearGradient4000)"/>
 <rect fill-rule="evenodd" rx="1.6001" ry="1.75" height="3.5" width="61.5" y="57.5" x="1.25" fill="url(#linearGradient3996)"/>
 <rect fill-rule="evenodd" rx="1.525" ry="1.5" height="3" width="61" y="57.75" x="1.5" fill="url(#linearGradient3992)"/>
 <rect fill-rule="evenodd" rx="1.4503" ry="1.25" height="2.5" width="60.5" y="58" x="1.75" fill="url(#linearGradient3988)"/>
 <rect fill-rule="evenodd" rx="1.3761" ry="1" height="2" width="60" y="58.25" x="2" fill="url(#linearGradient3982)"/>
 <path d="M2.5,52.5,3,58c0.17666,0.65892,0.79504,1.5,2,1.5h54c1.2241,0,1.818-0.82106,2-1.5l0.5-5.5z" stroke="url(#linearGradient4125)" stroke-width="1" fill="url(#linearGradient3622)"/>
 <path d="M3.5,53.5,4,58c0.17666,0.65892,0.79504,1.5,2,1.5h52c1.2241,0,1.818-0.82106,2-1.5l0.5-4.5z" stroke="url(#linearGradient4117)" stroke-width="1" fill="none"/>
 <path d="m2.5,52c0,1.7014,1.1516,2.5,2.5,2.5h54c1.4967,0,2.5-0.80014,2.5-2.5l-7-43c0-0.33378-0.50482-1.5-2-1.5h-41c-1.4966,0-2,1.1724-2,1.5z" stroke="url(#linearGradient4192)" stroke-width="1" fill="url(#linearGradient3871)"/>
 <path d="m3.5,52c0,1.7015,0.15161,2.5,1.5,2.5h54c1.4967,0,1.5-0.80014,1.5-2.5l-7-42c0-0.3338-0.005-1.5004-1.5-1.5004h-40c-1.4966,0-1.5,0.67284-1.5,1.0004z" stroke="url(#linearGradient3881)" stroke-width="1" fill="none"/>
 <path stroke-linejoin="round" d="m2.5,52c0,1.57,0.94236,2.5,2.5,2.5h54c1.703,0,2.5-0.91767,2.5-2.5" stroke="url(#linearGradient3897)" stroke-linecap="round" stroke-miterlimit="4" stroke-dasharray="none" stroke-width="1" fill="none"/>
 <path d="m17.5,11.5c-1.5657,0-2,1.7001-2,2.5l-2,11c0,2.0134,2.5,1.9416,2.5,4.5,0,3.0067-4,2.4556-4,4.5l-2.5,15c0,1.8277,1.5757,2.5,3,2.5h39c1.4306,0,3-0.75054,3-2.5l-2.5-15c0-2.0406-4-1.4902-4-4.5,0-2.5885,2.5-2.4657,2.5-4.5l-2-11c0-0.96039-0.62368-2.5-2-2.5h-10.5c-1.819,0-1.2621,2.5-4,2.5-2.728,0-2.2192-2.5-4-2.5z" stroke="url(#linearGradient4202)" stroke-width="1" fill="url(#linearGradient3640)"/>
 <path d="m18,12.5c-1.5657,0-1.5,1.2001-1.5,2l-2,10c0,2.0134,2.5,2.4416,2.5,5,0,3.0067-4,2.9556-4,5l-2.5,13.5c0,1.8277,1.1571,2.5,2.5814,2.5h38.55c1.431,0,1.869-0.751,1.869-2.5l-2.5-13.5c0-2.0406-4-1.9902-4-5,0-2.5885,2.5-2.9657,2.5-5l-2-10c0-0.96039-0.12368-2-1.5-2h-9.5c-1.819,0-1.7621,2.5-4.5,2.5-2.728,0-2.7192-2.5-4.5-2.5z" stroke="url(#linearGradient3894)" stroke-width="1" fill="none"/>
 <path d="m80,468.25a11.75,9.75,0,1,1,-23.5,0,11.75,9.75,0,1,1,23.5,0z" fill-rule="evenodd" transform="matrix(0.12765957,0,0,0.15384647,-1.2127657,-14.538614)" fill="url(#radialGradient3938)"/>
 <path d="m54.801,430.59a4.4194,5.922,0,1,1,-8.8388,0,4.4194,5.922,0,1,1,8.8388,0z" fill-rule="evenodd" transform="matrix(0.33941126,0,0,0.16886132,-10.600001,-20.710727)" fill="#b9b9b9"/>
 <path d="m54.801,430.59a4.4194,5.922,0,1,1,-8.8388,0,4.4194,5.922,0,1,1,8.8388,0z" fill-rule="evenodd" transform="matrix(0.33941126,0,0,0.16886132,-10.600001,-21.710727)" fill="#ebebeb"/>
 <path d="m14.571,105.5a1.0762,1.3057,0,1,1,-2.1525,0,1.0762,1.3057,0,1,1,2.1525,0z" fill-rule="evenodd" transform="matrix(0.69687703,0,0,0.57440555,-2.9040484,-10.350982)" fill="#afafaf"/>
 <path d="m54.801,430.59a4.4194,5.922,0,1,1,-8.8388,0,4.4194,5.922,0,1,1,8.8388,0z" fill-rule="evenodd" transform="matrix(0.33941126,0,0,0.16886132,40.399999,-20.710727)" fill="#afafaf"/>
 <path d="m54.801,430.59a4.4194,5.922,0,1,1,-8.8388,0,4.4194,5.922,0,1,1,8.8388,0z" fill-rule="evenodd" transform="matrix(0.33941126,0,0,0.16886132,40.4,-21.710727)" fill="#ebebeb"/>
 <path d="m14.571,105.5a1.0762,1.3057,0,1,1,-2.1525,0,1.0762,1.3057,0,1,1,2.1525,0z" fill-rule="evenodd" transform="matrix(0.69687703,0,0,0.57440555,48.095951,-10.350982)" fill="#afafaf"/>
 <rect fill-rule="evenodd" rx="0" ry="0" height="1" width="2" y="10" x="12" fill="#b4b4b4"/>
 <rect fill-rule="evenodd" rx="0" ry="0" height="1" width="2" y="9" x="12" fill="#d7d7d7"/>
 <rect fill-rule="evenodd" rx="0" ry="0" height="1" width="2" y="10" x="50" fill="#b4b4b4"/>
 <rect fill-rule="evenodd" rx="0" ry="0" height="1" width="2" y="9" x="50" fill="#d7d7d7"/>
 <rect fill-rule="evenodd" rx="0" ry="0" height="1" width="2" y="10" x="31" fill="#b4b4b4"/>
 <rect fill-rule="evenodd" rx="0" ry="0" height="1" width="2" y="9" x="31" fill="#d7d7d7"/>
 <rect fill-rule="evenodd" rx="0" ry="0" height="1" width="2" y="29" x="9" fill="#b9b9b9"/>
 <rect fill-rule="evenodd" rx="0" ry="0" height="1" width="2" y="28" x="9" fill="#e1e1e1"/>
 <rect fill-rule="evenodd" rx="0" ry="0" height="1" width="2" y="29" x="53" fill="#b9b9b9"/>
 <rect fill-rule="evenodd" rx="0" ry="0" height="1" width="2" y="28" x="53" fill="#e1e1e1"/>
</svg>
