<?xml version="1.0" encoding="UTF-8" standalone="no"?>
<!-- Created with Inkscape (http://www.inkscape.org/) -->
<svg xmlns:rdf="http://www.w3.org/1999/02/22-rdf-syntax-ns#" xmlns="http://www.w3.org/2000/svg" height="64" width="64" version="1.1" xmlns:cc="http://creativecommons.org/ns#" xmlns:xlink="http://www.w3.org/1999/xlink" xmlns:dc="http://purl.org/dc/elements/1.1/">
 <title>Samée - 64px - HDD alt</title>
 <metadata>
  <rdf:RDF>
   <cc:Work rdf:about="">
    <dc:format>image/svg+xml</dc:format>
    <dc:type rdf:resource="http://purl.org/dc/dcmitype/StillImage"/>
    <dc:title>Samée - 64px - HDD alt</dc:title>
    <dc:date>2011-03-25</dc:date>
    <dc:creator>
     <cc:Agent>
      <dc:title>Harenome Ranaivoarivony Razanajato</dc:title>
     </cc:Agent>
    </dc:creator>
    <dc:description/>
    <cc:license rdf:resource="http://creativecommons.org/licenses/by/3.0/"/>
    <dc:subject>
     <rdf:Bag>
      <rdf:li>hard</rdf:li>
      <rdf:li>disk</rdf:li>
      <rdf:li>drive</rdf:li>
      <rdf:li>drive-harddisk</rdf:li>
      <rdf:li>harddisk</rdf:li>
     </rdf:Bag>
    </dc:subject>
   </cc:Work>
   <cc:License rdf:about="http://creativecommons.org/licenses/by/3.0/">
    <cc:permits rdf:resource="http://creativecommons.org/ns#Reproduction"/>
    <cc:permits rdf:resource="http://creativecommons.org/ns#Distribution"/>
    <cc:requires rdf:resource="http://creativecommons.org/ns#Notice"/>
    <cc:requires rdf:resource="http://creativecommons.org/ns#Attribution"/>
    <cc:permits rdf:resource="http://creativecommons.org/ns#DerivativeWorks"/>
   </cc:License>
  </rdf:RDF>
 </metadata>
 <defs>
  <linearGradient id="floor-shadow-gradient">
   <stop stop-color="#000" stop-opacity="0.09803922" offset="0"/>
   <stop stop-color="#000" stop-opacity="0.07843138" offset="0.93"/>
   <stop stop-color="#000" stop-opacity="0" offset="1"/>
  </linearGradient>
  <linearGradient id="linearGradient3622" y2="120.25" gradientUnits="userSpaceOnUse" x2="64" gradientTransform="matrix(0.53823286,0,0,0.53790113,-2.276803,-4.843794)" y1="108.97" x1="64">
   <stop stop-color="#4b4b4b" offset="0"/>
   <stop stop-color="#1e1e1e" offset="1"/>
  </linearGradient>
  <linearGradient id="linearGradient3982" y2="88.5" xlink:href="#floor-shadow-gradient" spreadMethod="reflect" gradientUnits="userSpaceOnUse" x2="474" gradientTransform="matrix(0.13761468,0,0,0.13333333,-3.2293584,47.449975)" y1="88.5" x1="256"/>
  <linearGradient id="linearGradient3988" y2="88.5" xlink:href="#floor-shadow-gradient" spreadMethod="reflect" gradientUnits="userSpaceOnUse" x2="474" gradientTransform="matrix(0.13876147,0,0,0.16666666,-3.5229364,44.499971)" y1="88.5" x1="256"/>
  <linearGradient id="linearGradient3992" y2="88.5" xlink:href="#floor-shadow-gradient" spreadMethod="reflect" gradientUnits="userSpaceOnUse" x2="474" gradientTransform="matrix(0.13990827,0,0,0.20000003,-3.8165143,41.549982)" y1="88.5" x1="256"/>
  <linearGradient id="linearGradient3996" y2="88.5" xlink:href="#floor-shadow-gradient" spreadMethod="reflect" gradientUnits="userSpaceOnUse" x2="474" gradientTransform="matrix(0.14105503,0,0,0.23333336,-4.1100913,38.599969)" y1="88.5" x1="256"/>
  <linearGradient id="linearGradient4000" y2="88.5" xlink:href="#floor-shadow-gradient" spreadMethod="reflect" gradientUnits="userSpaceOnUse" x2="474" gradientTransform="matrix(0.14220186,0,0,0.26666672,-4.40367,35.649944)" y1="88.5" x1="256"/>
  <linearGradient id="linearGradient4004" y2="88.5" xlink:href="#floor-shadow-gradient" spreadMethod="reflect" gradientUnits="userSpaceOnUse" x2="474" gradientTransform="matrix(0.14334865,0,0,0.30000002,-4.6972476,32.699953)" y1="88.5" x1="256"/>
  <linearGradient id="linearGradient3871" y2="112.25" gradientUnits="userSpaceOnUse" x2="83" gradientTransform="matrix(0.53823288,0,0,0.53790112,-2.6122967,-5.41869)" y1="12" x1="83">
   <stop stop-color="#c3c3c3" offset="0"/>
   <stop stop-color="#e1e1e1" offset="1"/>
  </linearGradient>
  <linearGradient id="linearGradient3881" y2="451.2" gradientUnits="userSpaceOnUse" x2="145" gradientTransform="matrix(0.13455822,0,0,0.13447529,-2.0865491,-5.555952)" y1="53.39" x1="145">
   <stop stop-color="#FFF" stop-opacity="0.11764706" offset="0"/>
   <stop stop-color="#FFF" stop-opacity="0.25490198" offset="1"/>
  </linearGradient>
  <linearGradient id="linearGradient3897" y2="443.25" spreadMethod="reflect" gradientUnits="userSpaceOnUse" x2="479" gradientTransform="matrix(0.13455822,0,0,0.13447529,-2.6819861,-5.550522)" y1="443.25" x1="253.88">
   <stop stop-color="#f5f5f5" offset="0"/>
   <stop stop-color="#ebebeb" offset="0.95"/>
   <stop stop-color="#dcdcdc" stop-opacity="0" offset="1"/>
  </linearGradient>
  <radialGradient id="radialGradient4044" gradientUnits="userSpaceOnUse" cy="456.5" cx="68.25" gradientTransform="matrix(2.626409,0,0,2.1793562,-111.00241,-536.3761)" r="11.75">
   <stop stop-color="#aff3ff" offset="0"/>
   <stop stop-color="#0f5cd7" offset="1"/>
  </radialGradient>
  <linearGradient id="linearGradient4085" y2="389" spreadMethod="reflect" gradientUnits="userSpaceOnUse" x2="356" y1="389" x1="260.5">
   <stop stop-color="#fafafa" offset="0"/>
   <stop stop-color="#e1e1e1" offset="0.7"/>
   <stop stop-color="#afafaf" offset="1"/>
  </linearGradient>
  <linearGradient id="linearGradient4134" y2="392" gradientUnits="userSpaceOnUse" x2="198" gradientTransform="matrix(0.13455822,0,0,0.13447529,-2.5634693,-4.599112)" y1="82.5" x1="198">
   <stop stop-color="#FFF" stop-opacity="0.07843138" offset="0"/>
   <stop stop-color="#FFF" stop-opacity="0.13725491" offset="0.5"/>
   <stop stop-color="#FFF" stop-opacity="0.92156863" offset="1"/>
  </linearGradient>
  <radialGradient id="radialGradient4083" gradientUnits="userSpaceOnUse" cy="397" cx="256" gradientTransform="matrix(0.27781288,0,0,0.26896535,-39.304243,-57.652605)" r="160">
   <stop stop-color="#f5f5f5" offset="0"/>
   <stop stop-color="#c3c3c3" offset="1"/>
  </radialGradient>
  <linearGradient id="linearGradient4187" y2="341" gradientUnits="userSpaceOnUse" x2="259.33" y1="259" x1="259.33">
   <stop stop-color="#e1e1e1" offset="0"/>
   <stop stop-color="#d7d7d7" offset="1"/>
  </linearGradient>
  <radialGradient id="radialGradient4197" gradientUnits="userSpaceOnUse" cy="351" cx="231" gradientTransform="matrix(2.0003682,0,0,1.6081391,-231.08505,-223.45683)" r="51">
   <stop stop-color="#f0f0f0" offset="0"/>
   <stop stop-color="#d7d7d7" offset="1"/>
  </radialGradient>
  <linearGradient id="linearGradient4243" y2="478" gradientUnits="userSpaceOnUse" x2="377.01" gradientTransform="matrix(0.13455822,0,0,0.13447529,-2.4665492,-4.27918)" y1="463" x1="377.01">
   <stop stop-color="#141414" offset="0"/>
   <stop stop-color="#414141" offset="1"/>
  </linearGradient>
  <linearGradient id="linearGradient4860" y2="474" gradientUnits="userSpaceOnUse" x2="272" gradientTransform="matrix(0.12676056,0,0,0.27272728,-0.21126774,-69.272793)" y1="463" x1="272">
   <stop stop-color="#4b2e19" offset="0"/>
   <stop stop-color="#8e6830" offset="1"/>
  </linearGradient>
  <linearGradient id="linearGradient4192" y2="111" gradientUnits="userSpaceOnUse" x2="70" gradientTransform="matrix(0.54064352,0,0,0.5403601,-2.7697557,-4.860671)" y1="11" x1="70">
   <stop stop-color="#bebebe" offset="0"/>
   <stop stop-color="#c3c3c3" offset="1"/>
  </linearGradient>
  <linearGradient id="linearGradient4117" y2="85" gradientUnits="userSpaceOnUse" x2="63.69" gradientTransform="matrix(0.67428571,0,0,0.67396568,-0.2085714,1.875934)" y1="78" x1="63.69">
   <stop stop-color="#FFF" stop-opacity="0.35294119" offset="0"/>
   <stop stop-color="#FFF" stop-opacity="0.11764706" offset="1"/>
  </linearGradient>
  <linearGradient id="linearGradient4125" y2="86.002" gradientUnits="userSpaceOnUse" x2="70.822" gradientTransform="matrix(0.67428571,0,0,0.67396568,-0.5342857,1.875934)" y1="77" x1="70.822">
   <stop stop-color="#373737" offset="0"/>
   <stop stop-color="#1e1e1e" offset="1"/>
  </linearGradient>
  <linearGradient id="linearGradient3294" y2="471" gradientUnits="userSpaceOnUse" x2="195" gradientTransform="matrix(0.25,0,0,0.25000001,-23.250007,-58.75004)" y1="463" x1="195">
   <stop stop-color="#cd680f" offset="0"/>
   <stop stop-color="#f8f298" offset="1"/>
  </linearGradient>
 </defs>
 <rect fill-rule="evenodd" rx="1.7517" ry="2.25" height="4.5" width="62.5" y="57" x="0.75" fill="url(#linearGradient4004)"/>
 <rect fill-rule="evenodd" rx="1.6757" ry="2" height="4" width="62" y="57.25" x="1" fill="url(#linearGradient4000)"/>
 <rect fill-rule="evenodd" rx="1.6001" ry="1.75" height="3.5" width="61.5" y="57.5" x="1.25" fill="url(#linearGradient3996)"/>
 <rect fill-rule="evenodd" rx="1.525" ry="1.5" height="3" width="61" y="57.75" x="1.5" fill="url(#linearGradient3992)"/>
 <rect fill-rule="evenodd" rx="1.4503" ry="1.25" height="2.5" width="60.5" y="58" x="1.75" fill="url(#linearGradient3988)"/>
 <rect fill-rule="evenodd" rx="1.3761" ry="1" height="2" width="60" y="58.25" x="2" fill="url(#linearGradient3982)"/>
 <path d="M2.5,52.5,3,58c0.17666,0.65892,0.79504,1.5,2,1.5h54c1.2241,0,1.818-0.82106,2-1.5l0.5-5.5z" stroke="url(#linearGradient4125)" stroke-width="1" fill="url(#linearGradient3622)"/>
 <path d="M3.5,53.5,4,58c0.17666,0.65892,0.79504,1.5,2,1.5h52c1.2241,0,1.818-0.82106,2-1.5l0.5-4.5z" stroke="url(#linearGradient4117)" stroke-width="1" fill="none"/>
 <path d="m2.5,52c0,1.7014,1.1516,2.5,2.5,2.5h54c1.4967,0,2.5-0.80014,2.5-2.5l-7-43c0-0.33378-0.50482-1.5-2-1.5h-41c-1.4966,0-2,1.1724-2,1.5z" stroke="url(#linearGradient4192)" stroke-width="1" fill="url(#linearGradient3871)"/>
 <path d="m3.5,52c0,1.7015,0.15161,2.5,1.5,2.5h54c1.4967,0,1.5-0.80014,1.5-2.5l-7-42c0-0.3338-0.005-1.5004-1.5-1.5004h-40c-1.4966,0-1.5,0.67284-1.5,1.0004z" stroke="url(#linearGradient3881)" stroke-width="1" fill="none"/>
 <path stroke-linejoin="round" d="m2.5,52c0,1.57,0.94236,2.5,2.5,2.5h54c1.703,0,2.5-0.91767,2.5-2.5" stroke="url(#linearGradient3897)" stroke-linecap="round" stroke-miterlimit="4" stroke-dasharray="none" stroke-width="1" fill="none"/>
 <path d="M21.5,59,21,56,54,56,53.5,59z" fill-opacity="0.07843137" fill="#FFF"/>
 <path fill="url(#linearGradient4243)" d="M22.5,60,22,57,53,57,52.5,60z"/>
 <rect fill-rule="evenodd" fill-opacity="0.19608" rx="0" ry="0" height="3" width="29" y="57" x="23" fill="#000"/>
 <rect fill-rule="evenodd" rx="0" ry="0" height="3" width="27" y="57" x="24" fill="url(#linearGradient4860)"/>
 <path stroke-linejoin="miter" d="m24,59.5,27,0" stroke-opacity="0.09803922" stroke="#FFF" stroke-linecap="butt" stroke-width="1px" fill="none"/>
 <rect id="rect4261" fill-rule="evenodd" rx="0" ry="0" height="2" width="1" y="57" x="25" fill="url(#linearGradient3294)"/>
 <use xlink:href="#rect4261" transform="translate(2,0)" height="64" width="64" y="0" x="0"/>
 <use xlink:href="#rect4261" transform="translate(4,0)" height="64" width="64" y="0" x="0"/>
 <use xlink:href="#rect4261" transform="translate(6,0)" height="64" width="64" y="0" x="0"/>
 <use xlink:href="#rect4261" transform="translate(8,0)" height="64" width="64" y="0" x="0"/>
 <use xlink:href="#rect4261" transform="translate(10,0)" height="64" width="64" y="0" x="0"/>
 <use xlink:href="#rect4261" transform="translate(12,0)" height="64" width="64" y="0" x="0"/>
 <use xlink:href="#rect4261" transform="translate(14,0)" height="64" width="64" y="0" x="0"/>
 <use xlink:href="#rect4261" transform="translate(16,0)" height="64" width="64" y="0" x="0"/>
 <use xlink:href="#rect4261" transform="translate(18,0)" height="64" width="64" y="0" x="0"/>
 <use xlink:href="#rect4261" transform="translate(20,0)" height="64" width="64" y="0" x="0"/>
 <use xlink:href="#rect4261" transform="translate(22,0)" height="64" width="64" y="0" x="0"/>
 <use xlink:href="#rect4261" transform="translate(24,0)" height="64" width="64" y="0" x="0"/>
 <path d="m356,312a95.5,77,0,1,1,-191,0,95.5,77,0,1,1,191,0z" fill-rule="evenodd" transform="matrix(0.23560209,0,0,0.17532468,-29.374345,-15.701298)" stroke="#bebebe" stroke-miterlimit="4" stroke-dasharray="none" stroke-width="4.92026949" fill="url(#linearGradient4085)"/>
 <path d="m15.5,13-1,4c-0.18228,0.67987,1.2261,1.5,2,1.5h25l-3,6.5c-1.9748-0.35423-4.3304-0.5-6.5-0.5-7.6477,0-20.5,3.9445-20.5,11,0,7.4767,10.043,12,20.5,12s20.5-4.6917,20.5-12c0-2.0108-1.1052-3.8077-2.5-5.5l-2.5-17c0-0.4914-0.51362-1.5-1.5-1.5h-29c-0.9421,0-1.5,1.0541-1.5,1.5z" stroke="#bebebe" stroke-width="1" fill="url(#radialGradient4083)"/>
 <path d="m16.5,13.5-1,3c-0.18228,0.67987,0.7261,0.9824,1.5,0.9824l26,0.018-4,8.5c-1.975-0.354-4.765-0.5-6.934-0.5-5.17,0-20.566,2.944-20.566,10,0,7.8573,10.69,12,20.5,12,9.8101,0,20.5-4.3713,20.5-12,0-2.0108-1.1052-2.8077-2.5-4.5l-3.437-17.5c0-0.49141-0.02504-1-1.0114-1h-28.32c-0.943,0-0.732,0.554-0.732,1z" stroke="url(#linearGradient4134)" stroke-width="1" fill="none"/>
 <path d="m282,300a51,41,0,1,1,-102,0,51,41,0,1,1,102,0z" fill-rule="evenodd" fill-opacity="0.1372549" transform="matrix(0.23529412,0,0,0.20731707,-22.352942,-25.695121)" fill="#FFF"/>
 <path d="m282,300a51,41,0,1,1,-102,0,51,41,0,1,1,102,0z" fill-rule="evenodd" transform="matrix(0.21568627,0,0,0.18292683,-17.823529,-18.378049)" fill="url(#linearGradient4187)"/>
 <path d="m282,300a51,41,0,1,1,-102,0,51,41,0,1,1,102,0z" fill-rule="evenodd" transform="matrix(0.17647059,0,0,0.14634146,-8.7647062,-7.9024379)" fill="url(#radialGradient4197)"/>
 <path d="m282,300a51,41,0,1,1,-102,0,51,41,0,1,1,102,0z" stroke-opacity="0.03921569" transform="matrix(0.16666667,0,0,0.13414634,-6.5000006,-4.2439019)" stroke="#000" stroke-dasharray="none" stroke-miterlimit="4" stroke-width="6.68784523" fill="none"/>
 <path d="m80,468.25a11.75,9.75,0,1,1,-23.5,0,11.75,9.75,0,1,1,23.5,0z" fill-rule="evenodd" transform="matrix(0.12765957,0,0,0.15384647,-1.2127657,-14.538614)" fill="url(#radialGradient4044)"/>
 <path d="m54.801,430.59a4.4194,5.922,0,1,1,-8.8388,0,4.4194,5.922,0,1,1,8.8388,0z" fill-rule="evenodd" transform="matrix(0.33941126,0,0,0.16886132,-10.600001,-20.710727)" fill="#b9b9b9"/>
 <path d="m54.801,430.59a4.4194,5.922,0,1,1,-8.8388,0,4.4194,5.922,0,1,1,8.8388,0z" fill-rule="evenodd" transform="matrix(0.33941126,0,0,0.16886132,-10.600001,-21.710727)" fill="#ebebeb"/>
 <path d="m14.571,105.5a1.0762,1.3057,0,1,1,-2.1525,0,1.0762,1.3057,0,1,1,2.1525,0z" fill-rule="evenodd" transform="matrix(0.69687703,0,0,0.57440555,-2.9040484,-10.350982)" fill="#afafaf"/>
 <path d="m54.801,430.59a4.4194,5.922,0,1,1,-8.8388,0,4.4194,5.922,0,1,1,8.8388,0z" fill-rule="evenodd" transform="matrix(0.33941126,0,0,0.16886132,40.399999,-20.710727)" fill="#afafaf"/>
 <path d="m54.801,430.59a4.4194,5.922,0,1,1,-8.8388,0,4.4194,5.922,0,1,1,8.8388,0z" fill-rule="evenodd" transform="matrix(0.33941126,0,0,0.16886132,40.4,-21.710727)" fill="#ebebeb"/>
 <path d="m14.571,105.5a1.0762,1.3057,0,1,1,-2.1525,0,1.0762,1.3057,0,1,1,2.1525,0z" fill-rule="evenodd" transform="matrix(0.69687703,0,0,0.57440555,48.095951,-10.350982)" fill="#afafaf"/>
 <rect fill-rule="evenodd" rx="0" ry="0" height="1" width="2" y="10" x="12" fill="#b4b4b4"/>
 <rect fill-rule="evenodd" rx="0" ry="0" height="1" width="2" y="9" x="12" fill="#d7d7d7"/>
 <rect fill-rule="evenodd" rx="0" ry="0" height="1" width="2" y="10" x="50" fill="#b4b4b4"/>
 <rect fill-rule="evenodd" rx="0" ry="0" height="1" width="2" y="9" x="50" fill="#d7d7d7"/>
</svg>
